<svg xmlns="http://www.w3.org/2000/svg" version="1.1" width="600px" height="600px" viewBox="0 0 200 200" style="overflow:hidden!important;"><defs id="SvgjsDefs123325"><linearGradient id="SvgjsLinearGradient124092" x1="80.0682" y1="83.2839" x2="80.0682" y2="108.722" gradientUnits="userSpaceOnUse" class="svga-on-canvas-glasses-gradient-single-0-null"><stop id="SvgjsStop124093" stop-opacity="1" stop-color="#899ba1" offset="0" ></stop><stop id="SvgjsStop124094" stop-opacity="0.6554" stop-color="#7490b3" offset="0.3446" ></stop><stop id="SvgjsStop124095" stop-opacity="0.2966" stop-color="#6589c0" offset="0.7034" ></stop><stop id="SvgjsStop124096" stop-opacity="0" stop-color="#6086c4" offset="1" ></stop></linearGradient><linearGradient id="SvgjsLinearGradient124098" x1="-19.9318" y1="83.2839" x2="-19.9318" y2="108.722" gradientTransform="matrix(-1 0 0 1 100 0)" gradientUnits="userSpaceOnUse" class="svga-on-canvas-glasses-gradient-single-1-null"><stop id="SvgjsStop124099" stop-opacity="1" stop-color="#899ba1" offset="0" ></stop><stop id="SvgjsStop124100" stop-opacity="0.6554" stop-color="#7490b3" offset="0.3446" ></stop><stop id="SvgjsStop124101" stop-opacity="0.2966" stop-color="#6589c0" offset="0.7034" ></stop><stop id="SvgjsStop124102" stop-opacity="0" stop-color="#6086c4" offset="1" ></stop></linearGradient></defs><g id="svga-group-wrapper"><g id="svga-group-backs-single"><path id="SvgjsPath124048" d="M0 0h200v200H0V0z" fill="#5e8c6a" stroke-width="none" opacity="1"></path><path id="SvgjsPath124049" d="M165.5 23.7c11.7 0 21.1 9.5 21.1 21.1S177.2 66 165.5 66s-21.1-9.5-21.1-21.1 9.4-21.2 21.1-21.2zm-77.3 86.5c11.7 0 21.1 9.5 21.1 21.1s-9.5 21.1-21.1 21.1-21.1-9.5-21.1-21.1 9.4-21.1 21.1-21.1zm-37.8 48.9c9.1 0 16.6 7.4 16.6 16.6s-7.4 16.6-16.6 16.6-16.6-7.4-16.6-16.6 7.5-16.6 16.6-16.6zm-.3-132.8c9.1 0 16.6 7.4 16.6 16.6s-7.4 16.6-16.6 16.6S33.5 52 33.5 42.8s7.4-16.5 16.6-16.5zm60.3-7.2c2.7 0 4.8 2.2 4.8 4.8s-2.2 4.8-4.8 4.8-4.8-2.2-4.8-4.8 2.1-4.8 4.8-4.8zm-91.5 97.1c2.7 0 4.8 2.2 4.8 4.8s-2.2 4.8-4.8 4.8-4.8-2.2-4.8-4.8 2.1-4.8 4.8-4.8zm120-5.7c4.8 0 8.8 3.9 8.8 8.8s-3.9 8.8-8.8 8.8-8.8-3.9-8.8-8.8 4-8.8 8.8-8.8z" fill="#477d55" stroke-width="none" opacity="1"></path><path id="SvgjsPath124050" d="M101.8 45.4c14.2 0 25.8 11.5 25.8 25.8S116 97 101.8 97 76 85.4 76 71.2s11.5-25.8 25.8-25.8zm21.6 117.7c7.5 0 13.6 6.1 13.6 13.6s-6.1 13.6-13.6 13.6-13.6-6.1-13.6-13.6 6-13.6 13.6-13.6zm-88.6-35.9c7.2 0 13 5.8 13 12.9S42 153 34.8 153s-13-5.8-13-12.9 5.8-12.9 13-12.9zM55 88.8c2.1 0 3.8 1.7 3.8 3.8s-1.7 3.8-3.8 3.8-3.8-1.7-3.8-3.8 1.7-3.8 3.8-3.8zm44.9 78.4c2.1 0 3.8 1.7 3.8 3.8s-1.7 3.8-3.8 3.8-3.8-1.7-3.8-3.8 1.7-3.8 3.8-3.8zm79.9-82.1c2.1 0 3.8 1.7 3.8 3.8s-1.7 3.8-3.8 3.8-3.8-1.7-3.8-3.8 1.7-3.8 3.8-3.8zM66.7 16.5c2.1 0 3.8 1.7 3.8 3.8s-1.7 3.8-3.8 3.8-3.8-1.7-3.8-3.8 1.7-3.8 3.8-3.8zm-46.8-4.3c2.7 0 4.8 2.2 4.8 4.8s-2.2 4.8-4.8 4.8-4.8-2.2-4.8-4.8 2.1-4.8 4.8-4.8zM15.5 180c2.7 0 4.8 2.2 4.8 4.8s-2.2 4.8-4.8 4.8-4.8-2.2-4.8-4.8 2.2-4.8 4.8-4.8zM149.1 77.2c4.7 0 8.4 3.8 8.4 8.4s-3.8 8.4-8.4 8.4-8.4-3.8-8.4-8.4 3.7-8.4 8.4-8.4zM145.8 5c4.7 0 8.4 3.8 8.4 8.4s-3.8 8.4-8.4 8.4-8.4-3.8-8.4-8.4 3.7-8.4 8.4-8.4zM35.3 70.3c4.8 0 8.8 3.9 8.8 8.8s-3.9 8.8-8.8 8.8-8.8-3.9-8.8-8.8 4-8.8 8.8-8.8zm127.8 58.9c14 0 25.3 11.3 25.3 25.3s-11.3 25.3-25.3 25.3-25.3-11.3-25.3-25.3 11.4-25.3 25.3-25.3z" fill="#346d43" stroke-width="none" opacity="1"></path></g><g id="svga-group-humanwrap-move" transform="matrix(1,0,0,1,0,0)"><g id="svga-group-humanwrap" transform="matrix(1,0,0,1,0,0)"><g id="svga-group-hair-back-move" transform="matrix(1,0,0,1,0,0)"><g id="svga-group-hair-back" transform="matrix(1,0,0,1,0,0)"><path id="SvgjsPath124175" d="M69.7 44.2s-10.5 4.2-13.8 17.2-4.2 15.7-3.5 28.1-.2 27.9 3.1 36.4 11.9 11.3 16.8 10.9 53.6 1 60.9-1.3c7.3-2.3 10.3-6.5 11.1-13 .8-6.5 1.5-30.4 1.9-36.9s-2.3-24.7-5.2-30.2-16.8-10.9-22.4-11.7c-5.4-.8-32.6-4.4-48.9.5z" fill="#fef6e1" stroke-width="none" opacity="1" stroke="none"></path><path id="SvgjsPath124176" d="M143.9 109.6c.3 9.7.5 19.5-9.4 24.5-.4.2-.1.8.3.7 10.6-2.9 10.7-16.5 9.6-25.2 0-.4-.5-.4-.5 0zm-2.1 3.4c-2 12.4-9.7 20-21.9 22.3-.5.1-.4.8.1.8 12.1-.1 22.5-11.1 22.3-23.1-.1-.2-.5-.3-.5 0zm-88.1-5.1c-.2 10.2 3.1 27.4 16.7 26.7.5 0 .5-.7 0-.8-13.6-1.6-14.8-15-16.2-26-.1-.2-.5-.2-.5.1zM57 110c-2.3 10 6.5 19.6 16.5 18.9.3 0 .3-.5 0-.5-10.2-.9-16.3-8.2-16.1-18.3 0-.3-.4-.3-.4-.1z" fill="#efe1bc" stroke-width="none" opacity="1" stroke="none"></path></g></g><g id="svga-group-humanbody-back"><path id="SvgjsPath123726" d="M166.5 181.1c-10.9-6.6-27.6-8.4-35-12.1-4.9-2.5-9.1-4.7-8.9-17.8s1.9-42.4 1.9-42.4H75.4s1.6 29.4 1.9 42.4-4.2 15.6-8.9 17.8c-7.4 3.5-24.1 5.4-35 12.1-10.8 6.6-10 18.9-10 18.9v19.7h153.3V200c-.1 0 .7-12.3-10.2-18.9z" fill="#fbd5c0" stroke-width="none" opacity="1" stroke="none"></path></g><g id="svga-group-chinshadow-single"><path id="SvgjsPath123990" d="M77.2 155.2c5.1 2.8 7.7 4.2 9.6 6.5 2.6 3.2 10.3 4.4 13.2 4.4 3 0 10.7-1.2 13.2-4.4 1.9-2.3 4.5-3.7 9.5-6.4-.1-1.2-.1-2.6-.1-4.1.2-13.1 1.9-42.4 1.9-42.4H75.4s1.6 29.4 1.9 42.4c0 1.5 0 2.8-.1 4z" fill="#dc9f7d" stroke-width="none" opacity="0.65" stroke="none"></path></g><g id="svga-group-humanbody-front"><path id="SvgjsPath123727" d="M78.7 156.8c.5 4.8 1.7 9.4 3.1 13.9.8 2.3 1.6 4.6 2.6 6.9.8 2 1.7 4.2 3.1 5.9.3.4 1 0 .9-.5-.5-2.2-1.6-4.3-2.4-6.4-.9-2.2-1.7-4.4-2.5-6.6-1.5-4.4-2.8-8.9-4.1-13.3-.2-.4-.8-.3-.7.1zm41.3-1c-1.3 8.2-3.9 16.1-5.4 24.2-.1.4.4.5.6.2 3.1-7.7 4.1-16.1 5.1-24.3-.1-.2-.3-.2-.3-.1zm-25.8 11.9c-.9 3.6 1.9 8.6 6.2 7.6.5-.1.4-.8 0-1-1.4-.5-2.9-.9-3.9-2.1-1.1-1.2-1.5-2.9-1.4-4.5 0-.4-.8-.5-.9 0z" fill="#dc9f7d" stroke-width="none" opacity="1" stroke="none"></path><path id="SvgjsPath123728" d="M177.3 219.7c-.1-6.6-.3-13.1-.3-19.7l-.3-.3c.1 0 .1 0 .2.1s.1.2.1.1v-1.4c0-.5-.1-.9-.1-1.4-.1-.9-.3-1.9-.5-2.8-.5-1.8-1.1-3.6-2-5.3-1.7-3.4-4.4-6.2-7.7-8.1-3.6-2.2-7.6-3.8-11.6-5.1-4-1.3-8.1-2.4-12.1-3.5-4-1.2-8.1-2.2-11.8-4.2-1.9-1-3.6-2.1-4.8-3.6-1.2-1.6-1.9-3.5-2.3-5.5-.8-4-.4-8.2-.3-12.4l.7-12.6 1.5-25.2.1-1.4h-1.4c-8.2 0-16.4 0-24.6.1l-24.6.3h-.9l.1.9c.8 11.9 1.6 23.8 2.1 35.7.1 3 .3 6 .2 8.9-.1 2.9-.4 5.9-1.6 8.6-.6 1.3-1.4 2.5-2.4 3.5s-2.3 1.8-3.6 2.4c-2.6 1.3-5.4 2.2-8.3 3-5.8 1.5-11.6 2.8-17.3 4.7-2.8.9-5.7 2-8.4 3.4-1.3.7-2.7 1.4-4 2.4-1.3.9-2.4 1.9-3.5 3.1-2.1 2.3-3.6 5.2-4.5 8.1-.5 1.5-.8 3-1 4.6-.1.8-.1 1.6-.1 2.4v2.3l-.2 17.9v1.3h1.4l38.3.2c12.8.1 25.5.1 38.3 0 12.8-.1 25.6-.1 38.3-.3 12.8-.2 25.6-.5 38.3-.7h.6v-.5zm-77.2-1.6H61.8l-37 .2-.1-16.6v-2.2c0-.7 0-1.4.1-2.1.1-1.4.4-2.8.8-4.2.8-2.7 2.1-5.3 3.9-7.5.9-1.1 2-2.1 3.1-2.9 1.1-.9 2.4-1.6 3.7-2.3 2.6-1.4 5.3-2.5 8.1-3.5 5.6-2 11.4-3.4 17.1-5.1 2.9-.8 5.8-1.7 8.5-3.1 1.3-.7 2.7-1.5 3.8-2.6 1.1-1.1 2-2.4 2.6-3.9 1.2-2.9 1.5-5.9 1.6-8.9 0-3-.1-6-.2-9l-1.3-34.8 23.5.4c7.7.1 15.4.1 23.1.1-.4 7.9-.8 15.9-1.1 23.8-.2 4.2-.2 8.4-.3 12.6 0 4.2-.2 8.5.8 12.8.5 2.1 1.3 4.2 2.8 6 1.4 1.7 3.4 2.9 5.3 3.8 3.9 1.9 8 2.8 12.1 3.8s8.2 2 12.2 3.3c4 1.3 7.9 2.8 11.5 5 3.2 1.9 5.8 4.7 7.5 8 .9 1.6 1.5 3.4 1.9 5.2.2.9.4 1.8.4 2.7.1.5.1.9.1 1.4V200l-.3 19c-12.6-.2-25.1-.5-37.7-.7-12.7-.1-25.5-.1-38.2-.2z" fill="#cd865f" stroke-width="none" opacity="1" stroke="none"></path></g><g id="svga-group-clothes-single"><path id="SvgjsPath123868" d="M129.8 165.2c-1.6-4-5.9-16.6-5.9-16.6-1.3 3.6-4.1 12-9 16-4.3 3.6-13 11.4-14.8 13-1.8-1.6-10.5-9.4-14.8-13-4.9-4-7.6-12.2-8.9-15.8 0 0-4.4 12.4-6 16.5 0 0 6.3 26.5 8.6 31.5 0 0 .1-.1.2-.4.3 2.6.7 5.1 1.3 7.3 2.9 10.7 8.6 17.9 8.6 17.9h21.7s10.3-13.7 11.6-23.8c.2-1.9.4-3.9.4-5.8 2.8-9.3 7-26.8 7-26.8z" fill="#ffffff" stroke-width="none" opacity="1"></path><path id="SvgjsPath123869" d="M96 196.2s-5.3-10.6-5.9-13.8c0 0 11.2-12.1 20.3 1.1l-5.2 12.7s3.3 17.4 3.3 23.9H92.1s1.3-16.5 3.9-23.9z" fill="#222222" stroke-width="none" opacity="1"></path><path id="SvgjsPath123870" d="M110.8 183.2c-2.7-3.9-5.9-6.1-9.5-6.4-6.3-.5-11.4 5-11.6 5.2-.1.1-.2.3-.1.4.5 3 5.1 12.2 5.8 13.7-2.6 7.5-3.8 23.2-3.9 23.8 0 .1 0 1.3.1 1.4s.2.2.4.2h16.4c.3 0 .5-1.2.5-1.5 0-6.3-2.9-22-3.3-23.9l5.2-12.5c.1 0 .1-.2 0-.4zm-6.1 12.8c0 .1-.1.2 0 .3 0 .2 3.1 16.5 3.3 23.3H92.6c.2-2.9 1.6-16.7 3.9-23.2.1-.1 0-.3 0-.4-.1-.1-5.1-10-5.8-13.4.9-.9 5.5-5.1 10.6-4.7 3.2.2 6.1 2.1 8.6 5.7l-5.2 12.4z" fill="#446f0f" stroke-width="none" opacity="1"></path><path id="SvgjsPath123871" d="M97.1 188.9c-.9 2.4 1.6 7 1.6 7 .5-4.1-.7-9.4-1.6-7zm6.4-1.6c-1.7.7-1.8 7.9-1.8 7.9 1.8-2.8 3.5-8.6 1.8-7.9zm-.8 14.9c0 1.1.2 5.5 1.4 4.1 1.2-1.4-1.2-7.8-1.2-7.8s-.2 2.6-.2 3.7zm-3.7 2.9c-.5 3.9 1.4 5.2 1.7 2.4.3-2.8-.3-9.2-.3-9.2s-.9 2.9-1.4 6.8zm-2.2-1.4c.7 1.4 1.4-3.3 1.2-5 0-.1-1.9 3.6-1.2 5z" fill="#000000" stroke-width="none" opacity="1"></path><path id="SvgjsPath123872" d="M71.3 157.1s-10.6 8-16.5 10.6l2.3 2.6s-22.3 5.2-26.9 6.7-6.7 3.6-6.7 3.6-1.7-1.3-4.2.2-3.6 39.4-3.6 39.4h72.6s-10.9-23.9-17.6-58.4c.1-.1.6-2.6.6-4.7zm112.9 63s-1.1-37.9-3.6-39.4-4.2-.2-4.2-.2-2.1-2.1-6.7-3.6-26.9-6.7-26.9-6.7l2.3-2.6c-5.9-2.5-16.5-10.6-16.5-10.6 0 2.1.6 4.6.6 4.6-6.7 34.5-17.6 58.4-17.6 58.4l72.6.1z" fill="#638e2f" stroke-width="none" opacity="1"></path><path id="SvgjsPath123873" d="M184.1 198c-.3-3.7-.6-7.4-1.1-11-.3-1.9-.5-3.7-1.1-5.6-.1-.2-.2-.5-.4-.8-.1-.1-.2-.3-.4-.4l-.4-.2c-.4-.2-.9-.4-1.5-.5-.9-.2-1.8-.1-2.7.3-2.4-1.9-5.1-2.9-7.8-3.6-2.9-.8-5.8-1.4-8.6-2.1l-16.7-4 2-2.1.1-.1c.1-.2 0-.4-.2-.5-1.5-.6-2.9-1.5-4.2-2.3-1.4-.9-2.7-1.8-4.1-2.7-2.7-1.9-5.3-3.8-7.9-5.8-.1-.1-.3-.2-.4-.2l-1.2.3s-3-7.8-3.7-8.7c-.6 1.3-1.4 4.2-4 9.4-1.1 1.9-3 4.5-5.5 6.5-2.7 2.1-5.2 4.3-7.7 6.5-2.2 1.9-4.3 3.9-6.4 5.8-2.1-1.9-4.2-3.9-6.4-5.8-2.5-2.2-5.1-4.4-7.7-6.4-7.4-6.9-7.1-10-9.2-15-.3-.5-.5-.5-.5-.5l-3.8 7.9c-.2-.1-1.4 0-1.6.1-2.6 2-5.2 3.9-7.8 5.8-1.3.9-2.7 1.8-4.1 2.7-1.4.9-2.8 1.7-4.2 2.3 0 0-.1 0-.1.1-.2.1-.2.4 0 .5l2 2.1-16.7 4c-2.9.7-5.7 1.4-8.6 2.1-2.8.7-5.5 1.8-7.8 3.6-.9-.4-1.8-.5-2.7-.3-.5.1-1 .3-1.5.5-.1.1-.2.1-.4.2l-.4.4c-.2.3-.3.5-.4.8-.6 1.9-.9 3.7-1.1 5.6-.5 3.7-.8 7.4-1.1 11-.5 7.4-.9 14.7-1.2 22.1 0 .6.5 1.1 1.1 1.1 12.2 0 24.9.5 37.1.3l36.2.1c-.1-.4-.8-2.1-.9-2.4l-.3-.9-.7-1.8c-.4-1.2-.9-2.4-1.3-3.6-.8-2.4-1.7-4.8-2.5-7.2-1.2-3.5-2.2-7-3.3-10.5.9-1.6 1.9-3.2 3-4.7.8-1 1.6-1.9 2.4-2.8.4-.4.9-.8 1.4-1.2l1.5-1.2c1-.8 1.9-1.7 2.8-2.7.4-.5.9-1 1.2-1.5.2-.2.4-.5.6-.6.1-.1.3-.3.6-.4.9-.5 2.1-.9 3.3-1.2.6-.1 5.7-.1 6.3 0 1.2.3 2.3.6 3.3 1.2.2.1.4.3.6.4l.6.6 1.2 1.5c.9 1 1.8 1.8 2.8 2.7l1.5 1.2c.5.4.9.8 1.4 1.2.9.8 1.7 1.8 2.4 2.8 1.1 1.5 2.1 3.1 3 4.7-1.1 3.5-2.1 7-3.3 10.5-.8 2.4-1.6 4.8-2.5 7.2-.4 1.2-.9 2.4-1.3 3.6l-.7 1.8-.3.9c-.1.3-1 1.9-1.1 2.4l36.7-.7c12.2.2 24.5.4 36.7.3.6 0 1-.5 1-1.1-.4-7.3-.8-14.6-1.3-22zM16.9 219c.2-7 .4-14 .8-20.9.2-3.7.5-7.3.9-10.9.2-1.8.4-3.7.9-5.3.1-.2.1-.4.2-.5 0-.1.1-.1 0-.1 0 0 .1-.1.2-.1.4-.2.7-.4 1.1-.4.7-.2 1.6-.1 2.1.2.2.1.5.1.6 0 1.8 2.7 3.1 5.6 4 8.6.5 1.6.8 3.2 1 4.9.2 1.7.5 3.3.6 5l1.1 10.1c.4 3.1.8 6.3 1.3 9.4H16.9zm34.8.4-19.6-.3c.2-3.2.2-6.4.1-9.6-.1-3.4-.3-6.8-.7-10.3-.2-1.7-.4-3.4-.8-5.1-.3-1.7-.8-3.4-1.4-5.1-1.2-3.1-3-5.9-5.4-8.1 1-.9 2.2-1.7 3.5-2.3 1.3-.6 2.6-1.1 4.1-1.6 2.8-.8 5.7-1.6 8.5-2.3 5.7-1.4 11.5-2.9 17.2-4.1.6.6 1.2 1.1 2 1.6-.2.2-.5.3-.7.5-1.2.8-2.5 1.6-3.7 2.3-.3.2-.5.6-.4 1 1.5 3.8 3.1 7.6 4.7 11.4 1.6 3.8 3.3 7.5 5 11.2 1.8 3.7 3.6 7.4 5.5 11 1 1.8 1.9 3.6 3 5.4 1 1.7 2 3.3 3.1 4.9l-24-.5zm33.5-6.2c.5 1.2 1 2.4 1.5 3.5.3.6.5 1.2.8 1.7l.4.9c.2.3.2.6.4.8l-12.4-.2c-1.8-3.6-3.4-7.2-5-10.8L66 197.7l-5-11.2-4.8-10.6c2.3-1.5 4.5-3.2 6.6-4.9 1.1-.9 2.3-1.9 3.4-2.9s2.2-1.9 3.3-3c-2.4 1.7-4.8 3.4-7.3 5-.9.6-1.7 1.2-2.6 1.8-.5-.8-1.1-1.5-1.7-2.2-.7-.6-1.3-1.2-2.2-1.7l-.3-.3c1.4-.6 2.7-1.3 4-2 1.4-.8 2.8-1.7 4.2-2.5 2.3-1.5 4.6-3 6.8-4.6-.1 1-.3 1.9-.5 2.9v.3c.9 5 2 10 3.3 15 1.2 5 2.6 9.9 4.1 14.7s3.2 9.7 5 14.5c.9 2.5 1.9 4.8 2.9 7.2zm11.2-36.1c-1.3.4-2.5.8-3.8 1.5-.3.2-.6.4-.9.7-.2.3-.4.5-.6.8-.4.5-.8 1-1.1 1.5-.8.9-1.6 1.8-2.5 2.6-.4.4-.9.9-1.4 1.3-.5.4-1 .9-1.4 1.4-.9 1-1.6 2-2.4 3.1-.9 1.4-1.8 2.9-2.5 4.3-.3-1-.6-2.1-.9-3.1-1.4-4.9-2.7-9.8-3.9-14.7-1.2-4.7-2.2-9.4-3.2-14.1.1-.3.1-.6.2-1 .2-1.4 1.8-4.9 2.8-7.6l1.5-4.7c0 .1.6 2.1 1.5 5.2 1.4 3.6 4.6 8.6 7.2 10.9 2.5 2.2 4.7 4.6 7.2 6.9l5.5 4.9c-.5-.1-.9 0-1.3.1zm21.3 12.8c-.7-1.1-1.5-2.1-2.4-3.1-.4-.5-.9-.9-1.4-1.4-.5-.4-.9-.8-1.4-1.3-.9-.9-1.8-1.7-2.5-2.6-.4-.5-.7-.9-1.1-1.5-.2-.3-.4-.5-.6-.8-.3-.3-.6-.5-.9-.7-1.2-.7-2.5-1.1-3.8-1.5-.4-.1-.8-.2-1.3-.3l5.5-4.9c2.5-2.2 4.6-4.4 7.1-6.6 5-4.9 6.6-9.1 7.5-11.9 1.1-3.5 1.3-4.1 1.3-4.2 0 0 1.1 3.2 2.1 6.1.7 2 2.3 6.7 2.3 7-1 4.7-2 9.4-3.2 14.1-1.2 4.9-2.5 9.8-3.9 14.7-.3 1.1-.6 2.1-.9 3.1-.7-1.3-1.5-2.8-2.4-4.2zm-6 30.2c.2-.1.3-.5.4-.8l.4-.9c.3-.6.5-1.2.8-1.7.5-1.2 1-2.3 1.5-3.5 1-2.4 2-4.7 2.8-7.1 1.8-4.8 3.5-9.6 5-14.5s2.9-9.8 4.1-14.7c1.3-4.9 2.3-9.9 3.3-15v-.3c-.2-.9-.4-1.9-.5-2.9 2.2 1.6 4.5 3.1 6.8 4.6 1.4.9 2.8 1.7 4.2 2.5 1.3.7 2.6 1.4 3.9 2l-.3.3c-.8.5-1.5 1.1-2.1 1.7-.6.6-1.2 1.4-1.7 2.2-.9-.6-1.8-1.1-2.6-1.8-2.4-1.6-4.8-3.4-7.3-5l3.3 3c1.1 1 2.2 1.9 3.4 2.9 2.1 1.7 4.2 3.4 6.6 4.9l-4.8 10.6-5 11.2L129 209c-1.6 3.6-3.2 7.3-5 10.8l-12.3.3zm36.6-.7-24.2.5c1.1-1.6 2.2-3.2 3.1-4.9 1.1-1.8 2-3.6 3-5.4 1.9-3.6 3.7-7.3 5.5-11 1.7-3.7 3.4-7.4 5.1-11.2 1.6-3.8 3.2-7.5 4.7-11.4.1-.4 0-.8-.4-1-1.2-.7-2.5-1.5-3.7-2.3-.2-.2-.5-.3-.7-.5.8-.4 1.4-1 2-1.6 5.8 1.3 11.5 2.7 17.2 4.1 2.9.7 5.7 1.5 8.5 2.3 1.4.4 2.8.9 4.1 1.6 1.3.6 2.5 1.4 3.5 2.3-2.4 2.2-4.1 5.1-5.4 8.1-.7 1.6-1.1 3.4-1.4 5.1-.3 1.7-.6 3.4-.8 5.1-.4 3.4-.6 6.8-.7 10.3-.1 3.2-.1 6.4.1 9.6-6.4 0-12.9.1-19.5.3zm19.7-.3c.5-3.1.9-6.3 1.3-9.4l1.1-10.1c.2-1.7.4-3.4.6-5 .2-1.7.6-3.3 1.1-4.9.9-3 2.2-5.9 4-8.6.2.1.4.1.6 0 .5-.3 1.4-.4 2.1-.2.4.1.8.2 1.1.4.1 0 .2.1.2.1v.1c.1.1.1.3.2.5.5 1.6.7 3.5.9 5.3.4 3.6.6 7.3.9 10.9.4 7 .7 13.9.8 20.9-4.8-.1-9.8-.1-14.9 0z" fill="#446f0f" stroke-width="none" opacity="1"></path></g><g id="svga-group-head" transform="matrix(1,0,0,1,0,0)"><g id="svga-group-ears-left-move" transform="matrix(1,0,0,1,0,0)"><g id="svga-group-ears-left" transform="matrix(1,0,0,1,0,0)"><path id="SvgjsPath123898" d="M62.2 95.2s-4.4-4.7-5.8-6.2-3.1-4.7-5-4.1c-1.9.5-1.2 2.7-1.3 5.8-.1 3.1.3 9.1 2.2 12.4s2.9 4.5 3.5 8 2.8 4.2 4.1 3.2 4.3-7 4.4-10.2c0-3.2-1.3-7.6-2.1-8.9z" fill="#fbd5c0" stroke-width="none" opacity="1" stroke="none"></path><path id="SvgjsPath123899" d="M63.1 97.3c.3.8.5 1.5.7 2.3.4 1.6.7 3.2.7 4.9 0 .8-.2 1.6-.3 2.3l-.6 2.1c-.5 1.3-1.1 2.6-1.7 3.8-.3.6-.7 1.1-1.1 1.7-.2.2-.5.5-.8.7s-.6.3-.9.3c-.7.1-1.4-.1-2-.7s-1.1-1.4-1.4-2.3l-.2-.7-.1-.7c-.1-.4-.1-.8-.2-1.1-.2-.7-.4-1.5-.6-2.1-.5-1.4-1.3-2.7-2.1-4-.4-.6-.8-1.4-1-2.2-.3-.8-.5-1.6-.7-2.4-.3-1.6-.6-3.2-.7-4.8-.2-1.6-.2-3.2-.2-4.7 0-.8-.1-1.5-.1-2.4 0-.4 0-.8.1-1.3.1-.4.2-.9.5-1.2.2-.3.5-.5.8-.6s.6-.2 1-.2c.7.1 1.3.5 1.9 1 1.1 1 1.9 2.4 2.7 3.5 1.9 2.2 3.7 4.4 5.6 6.5.1.8.4 1.6.7 2.3zm-7-7.9c-1.1-1-1.9-2.3-2.8-3.1-.5-.4-.9-.7-1.4-.8-.4 0-.9.1-1.2.4s-.4.9-.4 1.7v2.3c0 .8-.1 1.5-.1 2.3s0 1.5.1 2.3c.1 1.6.3 3.1.7 4.7.4 1.5 1 3 1.8 4.2.8 1.3 1.7 2.5 2.4 4 .3.8.6 1.6.8 2.4l.3 1.2.1.5.2.5c.2.6.6 1.1 1 1.4s.9.4 1.3.3c.2 0 .4-.1.6-.2.2-.1.3-.3.5-.5.3-.4.7-1 1-1.5.6-1.1 1.2-2.3 1.7-3.5s1-2.5 1.2-3.8c.2-1.4 0-3-.2-4.5-.1-.8-.3-1.6-.5-2.3-.2-.8-.5-1.5-.9-2.1-2.2-2.1-4.2-4-6.2-5.9z" fill="#ecb99d" stroke-width="none" opacity="1" stroke="none"></path><path id="SvgjsPath123900" d="M50.4 89.6c.5-1.9 2.1-1 3 .4 1.9 2.6 3.2 6.6 3.6 10 0 .1-.1.2-.1.1-.1.1-.2.1-.2-.1-1.2-.5-1.6-.2-1.2.8 0 .3.1.6.3.9.2.5.6 1 .9 1.5.5.8 1.2 1.5 1.7 2.3.2.3 0 .6-.2.4-1.4-1-3.9-4.3-3.2-6.6.3-.8 1-1.1 1.5-.7-1.1-3.6-4-12-5.8-8.8-.2.1-.3-.1-.3-.2z" fill="#dc9f7d" stroke-width="none" opacity="1" stroke="none"></path><path id="SvgjsPath123901" d="M53.3 90.1c-1 2-1.4 4.4-.9 7.1.3 1.5 2.9 9.5 4.9 8.4.2-.1.4.3.2.5-2 1.8-4.2-4.5-4.9-6.5-1.1-3.4-1.4-7.5.5-9.7.1-.1.2 0 .2.2z" fill="#dc9f7d" stroke-width="none" opacity="1" stroke="none"></path></g></g><g id="svga-group-ears-right-move" transform="matrix(1,0,0,1,0,0)"><g id="svga-group-ears-right" transform="matrix(1,0,0,1,0,0)"><path id="SvgjsPath123902" d="M138.08 95.16s4.4-4.7 5.8-6.2 3.1-4.7 5-4.1c1.9.5 1.2 2.7 1.3 5.8.1 3.1-.3 9.1-2.2 12.4s-2.9 4.5-3.5 8-2.8 4.2-4.1 3.2-4.3-7-4.4-10.2c0-3.2 1.3-7.6 2.1-8.9z" fill="#fbd5c0" stroke-width="none" opacity="1" stroke="none"></path><path id="SvgjsPath123903" d="M137.9 95.1c1.9-2 3.8-4.3 5.6-6.5.9-1 1.6-2.4 2.7-3.5.5-.5 1.2-1 1.9-1 .3 0 .7 0 1 .2.3.1.6.3.8.6.2.3.4.8.5 1.2.1.4.1.9.1 1.3 0 .8-.1 1.6-.1 2.4 0 1.5-.1 3.2-.2 4.7-.1 1.6-.4 3.2-.7 4.8-.2.8-.4 1.6-.7 2.4s-.6 1.5-1 2.2c-.7 1.3-1.5 2.7-2.1 4-.3.7-.5 1.4-.6 2.1-.1.4-.1.7-.2 1.1l-.1.7-.2.7c-.3.9-.8 1.7-1.4 2.3-.6.5-1.4.8-2 .7-.3 0-.6-.1-.9-.3-.3-.2-.6-.5-.8-.7-.4-.5-.8-1.1-1.1-1.7-.6-1.2-1.2-2.4-1.7-3.8-.2-.7-.5-1.4-.6-2.1-.2-.7-.3-1.5-.3-2.3 0-1.7.3-3.3.7-4.9.2-.8.4-1.6.7-2.3 0-.8.3-1.6.7-2.3zm.1.1c-.4.6-.6 1.4-.9 2.1-.2.8-.4 1.5-.5 2.3-.3 1.5-.4 3.1-.2 4.5s.7 2.6 1.2 3.8c.5 1.2 1.1 2.4 1.7 3.5.3.5.6 1.1 1 1.5.2.2.3.4.5.5s.4.2.6.2c.4.1.9 0 1.3-.3s.7-.8 1-1.4l.2-.5.1-.5.3-1.2c.2-.8.5-1.6.8-2.4.7-1.5 1.6-2.8 2.4-4 .8-1.2 1.4-2.6 1.8-4.2.4-1.5.6-3.1.7-4.7.1-.8.1-1.6.1-2.3 0-.8-.1-1.5-.1-2.3v-2.3c0-.7-.1-1.4-.4-1.7-.3-.3-.8-.5-1.2-.4-.4 0-.9.4-1.4.8-.9.8-1.8 2.1-2.8 3.1-2.3 2-4.3 3.9-6.2 5.9z" fill="#ecb99d" stroke-width="none" opacity="1" stroke="none"></path><path id="SvgjsPath123904" d="M149.6 89.6c-.5-1.9-2.1-1-3 .4-1.9 2.6-3.2 6.6-3.6 10 0 .1.1.2.1.1.1.1.2.1.2-.1 1.2-.5 1.6-.2 1.2.8 0 .3-.1.6-.3.9-.2.5-.6 1-.9 1.5-.5.8-1.2 1.5-1.7 2.3-.2.3 0 .6.2.4 1.4-1 3.9-4.3 3.2-6.6-.3-.8-1-1.1-1.5-.7 1.1-3.6 4-12 5.8-8.8.2.1.3-.1.3-.2z" fill="#dc9f7d" stroke-width="none" opacity="1" stroke="none"></path><path id="SvgjsPath123905" d="M146.7 90.1c1 2 1.4 4.4.9 7.1-.3 1.5-2.9 9.5-4.9 8.4-.2-.1-.4.3-.2.5 2 1.8 4.2-4.5 4.9-6.5 1.1-3.4 1.4-7.5-.5-9.7-.1-.1-.2 0-.2.2z" fill="#dc9f7d" stroke-width="none" opacity="1" stroke="none"></path></g></g><g id="svga-group-faceshape-wrap" transform="matrix(1,0,0,1,0,0)"><g id="svga-group-faceshape-single"><path id="SvgjsPath123980" d="M143.2 82.7v-.3C141.9 52 122.5 35.3 100 35.3S58.1 51.9 56.8 82.4v.3c-.1 2-.3 17.2 1.6 30.7 1.4 9.8 2.7 19.6 12.2 25.4s13.6 7.2 16.1 10.4c2.5 3.1 10.2 4.5 13.2 4.5s10.7-1.2 13.2-4.5c2.5-3.1 6.6-4.7 16.1-10.4 9.6-5.8 10.8-15.5 12.2-25.4 2.1-13.5 1.8-28.7 1.8-30.7z" fill="#fbd5c0" stroke-width="none" opacity="1" stroke="none"></path><path id="SvgjsPath123981" d="M141.4 113.4c2.1-13.5 1.8-28.7 1.8-30.7v-.3C141.9 52 122.5 35.3 100 35.3S58.1 51.9 56.8 82.4v.3c-.1 2-.3 17.2 1.6 30.7 1.4 9.8 2.7 19.6 12.2 25.4s13.6 7.2 16.1 10.4c2.5 3.1 10.2 4.5 13.2 4.5s10.7-1.2 13.2-4.5c2.5-3.1 6.6-4.7 16.1-10.4 9.6-5.8 10.8-15.5 12.2-25.4zm-15.2 24.4-9 5c-1.5.9-3.1 1.8-4.7 3.2-.4.3-.8.7-1.1 1.1l-.3.3-.2.2-.2.2c-.4.3-.9.7-1.5 1-2.5 1.2-5.8 1.9-8.8 2.1-1.3.1-2.9-.1-4.5-.4-1.5-.3-3.1-.7-4.4-1.2-.7-.3-1.3-.6-1.9-.9-.3-.2-.5-.3-.7-.5s-.2-.2-.6-.7c-1.4-1.6-3.1-2.7-4.6-3.8-3.1-1.8-6.1-3.4-9-5.1-1.5-.8-3-1.7-4.2-2.5-1.3-.9-2.4-1.8-3.4-3-.5-.5-1-1.2-1.4-1.8-.4-.7-.9-1.3-1.2-2-.7-1.4-1.4-2.8-1.9-4.5-1-3.2-1.6-6.4-2.3-9.8-.6-3.3-1.1-6.8-1.5-10.2-.4-3.4-.7-6.8-.9-10.2s-.3-6.9-.3-10.3c0-1.7.1-3.4.3-5.2.1-.8.1-1.7.2-2.5l.4-2.5c.2-.8.2-1.7.4-2.5l.6-2.4c.2-.8.4-1.6.7-2.4l.9-2.4c1.2-3.2 2.8-6.2 4.6-9 .4-.7 1-1.3 1.5-2 .5-.6 1-1.3 1.6-1.9l1.7-1.8.9-.9 1-.8c5-4.4 11-7.4 17.3-8.8 6.3-1.4 13-1.6 19.3-.2l2.4.5c.8.2 1.5.5 2.3.7 1.6.4 3 1.1 4.5 1.7.8.3 1.4.7 2.2 1.1.7.4 1.5.7 2.1 1.2l2 1.4c.3.2.7.4 1 .7l.9.8c5.1 4.2 9.4 9.6 12.1 15.8 2.7 6.3 4.1 13.1 4.4 20 0 3.4 0 6.9-.2 10.3s-.4 6.9-.9 10.3c-.4 3.4-.9 6.8-1.6 10.2-.7 3.4-1.3 6.8-2.3 9.9-1 3.2-2.4 6.1-4.3 8.5-3.1 3.6-6.7 5.5-7.4 6z" fill="#cd865f" stroke-width="none" opacity="1" stroke="none"></path></g></g><g id="svga-group-mouth-single-move" transform="matrix(1,0,0,1,0,0)"><g id="svga-group-mouth-single" transform="matrix(1,0,0,1,0,0)"><path id="SvgjsPath124080" d="M88.41 126.92c1.99 3.72 6.55 5.56 10.64 5.71 4.32.17 10.29-1.51 13.17-4.89.35-.41-.09-.98-.59-.82-1.89.64-3.52 1.88-5.35 2.66-2.01.86-4.21 1.45-6.42 1.57-4.41.23-7.92-1.55-10.92-4.61-.23-.22-.69.09-.53.38z" fill="#ecb99d" stroke-width="none" opacity="1" transform="translate(0 2)" stroke="none"></path><path id="SvgjsPath124081" d="M96.23 130.28c3.55.91 9.28.24 11.77-2.7.21-.25.01-.77-.37-.68-1.75.39-3.29 1.35-5 1.85-2.09.61-4.21.75-6.39.94-.34.03-.33.5-.01.59z" fill="#ffe1d0" stroke-width="none" opacity="1" transform="translate(0 2)" stroke="none"></path><path id="SvgjsPath124082" d="M94.82 121.9c-1.73-.21-2.43-.06-4.11.75s-2.5.96-3.93.56c-1.5-.42-2.02-2.2-2.02-2.2-.52 0-.65 1.62.65 2.77s5.54 1.43 8.33 1.32c3.47-.13 5.4-.17 5.4-.17h1.36s1.92.04 5.4.17c2.79.1 7.04-.17 8.33-1.32s1.17-2.77.65-2.77c0 0-.52 1.78-2.02 2.2-1.44.4-2.25.25-3.93-.56s-2.38-.96-4.11-.75c-.86.1-3.06.8-5.12.8-1.42 0-4.02-.69-4.88-.8z" fill="#E2929B" stroke-width="none" opacity="1" transform="translate(0 2)" stroke="none"></path></g></g><g id="svga-group-eyes-left-move" transform="matrix(1,0,0,1,0,0)"><g id="svga-group-eyes-left" transform="matrix(1,0,0,1,0,0)"><g id="svga-group-eyesback-left"><path id="SvgjsPath123936" d="M89.4 94.9s-.7-2.1-2.6-3.5-5-2.8-8.5-1.5-8 5.4-8 5.4 0 2.1 1.6 3.9 4.4 3.2 8.2 2.6c3.8-.6 6.7-3.6 7.3-4.1s2-2.8 2-2.8z" fill="#ffffff" stroke-width="none" opacity="1"></path></g><g id="svga-group-eyesiriswrapper-left" transform="matrix(1,0,0,1,0,0)"><g id="svga-group-eyesiriscontrol-left" transform="matrix(1,0,0,1,0,0)"><g id="svga-group-eyesiris-left" transform="matrix(1,0,0,1,0,0)"><path id="SvgjsPath123994" d="M80.1 87.8c3.2 0 5.7 2.6 5.7 5.7s-2.6 5.7-5.7 5.7-5.7-2.6-5.7-5.7 2.5-5.7 5.7-5.7z" fill="#681711" stroke-width="none" opacity="1"></path><path id="SvgjsPath123995" d="M80.1 88.1c3 0 5.5 2.4 5.5 5.5 0 3-2.4 5.5-5.5 5.5-3 0-5.5-2.4-5.5-5.5s2.4-5.5 5.5-5.5m0-.6c-3.3 0-6 2.7-6 6s2.7 6 6 6 6-2.7 6-6-2.7-6-6-6z" fill="#490500" stroke-width="none" opacity="1"></path><path id="SvgjsPath123996" d="M77 95.1c0 1.4.6 2.7 1.4 3.6.5.2 1.1.2 1.6.2 3 0 5.5-2.4 5.5-5.5 0-1.1-.3-2.2-.9-3-.7-.4-1.5-.6-2.4-.6-2.9.1-5.2 2.5-5.2 5.3z" fill="#77251f" stroke-width="none" opacity="1"></path><path id="SvgjsPath123997" d="M80.1 90.6c1.6 0 2.9 1.3 2.9 2.9s-1.3 2.9-2.9 2.9-2.9-1.3-2.9-2.9 1.2-2.9 2.9-2.9z" fill="#000000" stroke-width="none" opacity="1"></path><path id="SvgjsPath123998" d="M78.7 90.5c.6 0 1 .5 1 1s-.5 1-1 1-1-.5-1-1 .5-1 1-1zm3.4 4.7c.2 0 .4.2.4.4s-.2.4-.4.4-.4-.2-.4-.4.2-.4.4-.4z" fill="#ffffff" stroke-width="none" opacity="1"></path><path id="SvgjsPath123999" d="M80.1 99c.3 0 .6 0 .8-.1-.2 0-.4-.2-.4-.4-.1.3-.3.4-.4.5-.3 0-.5-.2-.6-.4-.1.2-.4.3-.6.3-.2-.1-.4-.3-.4-.5-.2.2-.4.2-.7.1s-.4-.3-.3-.6c-.2.2-.5.1-.7 0s-.2-.5-.1-.7c-.2.2-.5.2-.7 0-.2-.2-.2-.5 0-.7-.3 0-.5-.1-.7-.3.8 1.6 2.6 2.8 4.8 2.8zm-5-3.2zm9.5.7c-.1.1-.3.2-.5.2.1.4-.4.9-.8.8.1.2 0 .5-.2.6-.2.1-.5.1-.6 0 0 .2-.2.5-.4.5-.2.1-.5 0-.6-.2 0 .2-.1.4-.2.5 1.3-.3 2.5-1.2 3.3-2.4zm-2-7.6c.3-.1.6.2.6.5.4-.2.8.3.7.6.2-.1.4 0 .5.2.1.2.1.4-.1.5.2 0 .5.1.6.3s.1.5-.1.7c.2 0 .5.2.5.4s0 .5-.2.6c.2.1.4.3.4.5s-.1.4-.3.5c.2.1.3.3.3.6s-.2.4-.4.4c.3.2.1.8-.3.8.1.1.1.3.1.5.5-.8.8-1.8.8-2.8 0-2.2-1.3-4.1-3.1-4.9-.1.4 0 .5 0 .6zm-.6-.3c.1-.1.2-.1.4 0-.5-.2-1-.4-1.6-.5l-.1.1c.5-.1 1 .1 1.3.4z" fill="#3a0400" stroke-width="none" opacity="1"></path></g></g></g><g id="svga-group-eyesfront-left"><path id="SvgjsPath123944" d="M69.4 94.6c0 6.4 4.7 11.5 10.6 11.5s10.6-5.2 10.6-11.5S85.9 83.1 80 83.1s-10.6 5.1-10.6 11.5zm2.5 4.5c-1.6-1.9-1.6-3.9-1.6-3.9s4.5-4.1 8-5.4 6.6.2 8.5 1.5 2.6 3.5 2.6 3.5-1.4 2.2-1.9 2.8c-.6.6-3.5 3.6-7.3 4.1-3.9.6-6.7-.7-8.3-2.6z" fill="#fbd5c0" stroke-width="none" opacity="1" stroke="none"></path><path id="SvgjsPath123945" d="M89.3 94.1c-.7-4.8-5.1-8.4-10-7.4-4.1.8-6.3 4.5-8.5 7.7-.2.2-.5 0-.4-.2 2.3-3.9 5.6-8.1 10.6-8.1 4.6.1 7.9 3.6 8.3 8 .1.1 0 .1 0 0z" fill="#ecb99d" stroke-width="none" opacity="1" stroke="none"></path><path id="SvgjsPath123946" d="m69.2 96.1.9-.3c.7 4 4.1 6.5 8.2 6.5 4.6 0 9.2-3 11.2-7.2.2 0 .4-.1.3-.3-1.4-3.7-5.2-6.4-9.2-6.1-4.5.3-8.3 4-11.5 6.8-.4.3-.2.7.1.6zm1.4-.5c2.6-1.2 4.5-3.5 7.1-4.8 4.5-2.2 9.3-.2 11.5 4.2-2.2 3.1-4.9 5.7-8.8 6.4-4.2.8-9.2-1.2-9.8-5.8z" fill="#153a4d" stroke-width="none" opacity="1" stroke="none"></path></g></g></g><g id="svga-group-eyes-right-move" transform="matrix(1,0,0,1,0,0)"><g id="svga-group-eyes-right" transform="matrix(1,0,0,1,0,0)"><g id="svga-group-eyesback-right"><path id="SvgjsPath123937" d="M110.6 94.9s.7-2.1 2.6-3.5 5-2.8 8.5-1.5 8 5.4 8 5.4 0 2.1-1.6 3.9-4.4 3.2-8.2 2.6c-3.8-.6-6.7-3.6-7.3-4.1s-2-2.8-2-2.8z" fill="#ffffff" stroke-width="none" opacity="1"></path></g><g id="svga-group-eyesiriswrapper-right" transform="matrix(1,0,0,1,0,0)"><g id="svga-group-eyesiriscontrol-right" transform="matrix(1,0,0,1,0,0)"><g id="svga-group-eyesiris-right" transform="matrix(1,0,0,1,0,0)"><path id="SvgjsPath124000" d="M119.9 87.8c3.2 0 5.7 2.6 5.7 5.7s-2.6 5.7-5.7 5.7-5.7-2.6-5.7-5.7 2.6-5.7 5.7-5.7z" fill="#681711" stroke-width="none" opacity="1"></path><path id="SvgjsPath124001" d="M119.9 88.1c3 0 5.5 2.4 5.5 5.5 0 3-2.4 5.5-5.5 5.5-3 0-5.5-2.4-5.5-5.5.1-3.1 2.5-5.5 5.5-5.5m0-.6c-3.3 0-6 2.7-6 6s2.7 6 6 6 6-2.7 6-6-2.6-6-6-6z" fill="#490500" stroke-width="none" opacity="1"></path><path id="SvgjsPath124002" d="M116.9 95.1c0 1.4.6 2.7 1.4 3.6.5.2 1.1.2 1.6.2 3 0 5.5-2.4 5.5-5.5 0-1.1-.3-2.2-.9-3-.7-.4-1.5-.6-2.4-.6-2.9.1-5.2 2.5-5.2 5.3z" fill="#77251f" stroke-width="none" opacity="1"></path><path id="SvgjsPath124003" d="M119.9 90.6c1.6 0 2.9 1.3 2.9 2.9s-1.3 2.9-2.9 2.9-2.9-1.3-2.9-2.9 1.3-2.9 2.9-2.9z" fill="#000000" stroke-width="none" opacity="1"></path><path id="SvgjsPath124004" d="M118.6 90.5c.6 0 1 .5 1 1s-.5 1-1 1-1-.5-1-1 .5-1 1-1zm3.4 4.7c.2 0 .4.2.4.4s-.2.4-.4.4-.4-.2-.4-.4.2-.4.4-.4z" fill="#ffffff" stroke-width="none" opacity="1"></path><path id="SvgjsPath124005" d="M119.9 99c.3 0 .6 0 .8-.1-.2 0-.4-.2-.4-.4 0 .3-.2.4-.4.5-.3 0-.5-.2-.6-.4-.1.2-.4.3-.6.3-.2-.1-.4-.3-.4-.5-.2.2-.4.2-.7.1s-.4-.3-.3-.6c-.2.2-.5.1-.7 0s-.2-.5-.1-.7c-.2.2-.5.2-.7 0-.2-.2-.2-.5 0-.7-.3 0-.5-.1-.7-.3.9 1.6 2.7 2.8 4.8 2.8zm-4.9-3.2zm9.5.7c-.1.1-.3.2-.5.2.1.4-.4.9-.8.8.1.2 0 .5-.2.6-.2.1-.5.1-.6 0 0 .2-.2.5-.4.5-.2.1-.5 0-.6-.2 0 .2-.1.4-.2.5 1.3-.3 2.5-1.2 3.3-2.4zm-2-7.6c.3-.1.6.2.6.5.4-.2.8.3.7.6.2-.1.4 0 .5.2.1.2.1.4-.1.5.2 0 .5.1.6.3.1.2.1.5-.1.7.2 0 .5.2.5.4s0 .5-.2.6c.2.1.4.3.4.5s-.1.4-.3.5c.2.1.3.3.3.6s-.2.4-.4.4c.3.2.1.8-.3.8.1.1.1.3.1.5.5-.8.8-1.8.8-2.8 0-2.2-1.3-4.1-3.1-4.9-.1.4 0 .5 0 .6zm-.6-.3c.1-.1.2-.1.4 0-.5-.2-1-.4-1.6-.5l-.1.1c.5-.1 1 .1 1.3.4z" fill="#3a0400" stroke-width="none" opacity="1"></path></g></g></g><g id="svga-group-eyesfront-right"><path id="SvgjsPath123947" d="M120 83.1c-5.9 0-10.6 5.2-10.6 11.5s4.7 11.5 10.6 11.5 10.6-5.2 10.6-11.5-4.8-11.5-10.6-11.5zm-.1 18.7c-3.8-.6-6.7-3.6-7.3-4.1-.6-.6-1.9-2.8-1.9-2.8s.7-2.1 2.6-3.5 5-2.8 8.5-1.5 8 5.4 8 5.4 0 2.1-1.6 3.9c-1.7 1.8-4.5 3.1-8.3 2.6z" fill="#fbd5c0" stroke-width="none" opacity="1" stroke="none"></path><path id="SvgjsPath123950" d="M110.7 94.1c.7-4.8 5.1-8.4 10-7.4 4.1.8 6.3 4.5 8.5 7.7.2.2.5 0 .4-.2-2.3-3.9-5.6-8.1-10.6-8.1-4.6.1-7.9 3.6-8.3 8-.1.1 0 .1 0 0z" fill="#ecb99d" stroke-width="none" opacity="1" stroke="none"></path><path id="SvgjsPath123951" d="M131.1 95.6c-3.2-2.8-7-6.6-11.5-6.8-4-.3-7.8 2.4-9.2 6.1-.1.2.1.3.3.3 1.9 4.2 6.6 7.2 11.2 7.2 4.1 0 7.5-2.6 8.2-6.5l.9.3c.1 0 .3-.4.1-.6zm-11.5 5.8c-3.9-.7-6.6-3.3-8.8-6.4 2.2-4.3 7-6.4 11.5-4.2 2.6 1.3 4.5 3.5 7.1 4.8-.6 4.6-5.6 6.6-9.8 5.8z" fill="#153a4d" stroke-width="none" opacity="1" stroke="none"></path></g></g></g><g id="svga-group-facehighlight-single"></g><g id="svga-group-eyebrows-left-move" transform="matrix(1,0,0,1,0,0)"><g id="svga-group-eyebrows-left-rotate" transform="matrix(1,0,0,1,0,0)"><g id="svga-group-eyebrows-left" transform="matrix(1,0,0,1,0,0)"><path id="SvgjsPath123844" d="M66.9 83c2-2.2 4.8-3.6 7.7-4.3.7-.3 1.4-.5 2-.7 2.2-.6 4.9-1.4 7.1-1.1h1.1c.6 0 1.1 0 1.7.1 1-.2 2.2-.5 3 .3 1-.4 2 .7 2.5 1.5.7 1.1.7 2.3.2 3.5.3 1.2-1.3 2.2-2.3 2.6-1.3.5-3.3.5-4.8 0-1 .1-1.9.1-2.9 0-1.4.5-2.9.1-4.3-.1-1.1.2-2.2.1-3.3-.1-1.7-.3-3.6-.1-5.2-.5-.4.1-.9.1-1.3.1-1 .5-2-.5-1.2-1.3z" fill="#fef6e1" stroke-width="none" opacity="1"></path><path id="SvgjsPath123845" d="M85.1 84.7c1.1-.8 2-1.8 2.9-2.7 1-1.1 1.5-2.3 1.9-3.7.1-.3.5-.2.5.1-.2 1.6-.7 2.9-1.8 4.1-.8.9-2 2.6-3.3 2.7-.4.1-.5-.3-.2-.5zm2.4 0c1.7-1 3.9-2.8 3.9-4.9 0-.2.3-.3.4-.1.3 1.3-.4 2.4-1.2 3.4-.8 1-1.7 1.9-3 2-.2 0-.3-.3-.1-.4zm-4.2-7.8c2.5 1.9 2.2 5.6.7 8-.1.2-.4.1-.3-.2.9-2.8 1-5.1-.7-7.6-.1-.1.2-.4.3-.2zm-2.6.9c2 1.6 3 4.8 2.6 7.3 0 .2-.3.1-.3-.1-.2-1.3-.3-2.6-.8-3.9-.4-1.1-1.1-2.1-1.7-3.1-.2-.2.1-.3.2-.2zm-5.3 1.6c1.3-.6 2.6.5 3.5 1.4 1.1 1.2 2 2.6 2 4.2 0 .2-.3.2-.3.1-.3-1.3-1-2.5-1.9-3.5-.9-1-1.9-1.4-3.1-1.9-.2-.1-.3-.3-.2-.3zm-5.8 1.4c1.4-.6 2.9.2 4.2.9 1.3.7 2.3 1.5 2.8 2.8.1.3-.4.5-.5.2-1.1-2.2-4.1-3.3-6.4-3.4-.4.1-.4-.4-.1-.5zm-2.2 2.5c1.7-.5 3.4 0 5 .7.3.1 0 .6-.3.4-1.5-.7-3.1-.8-4.7-.9-.1.1-.2-.1 0-.2z" fill="#fffefb" stroke-width="none" opacity="1"></path><path id="SvgjsPath123846" d="M76.4 77.2c-2.3.7-4.5 1.6-6.5 2.8-1.6 1-3.2 2.1-3.8 3.9-.1.2.1.4.3.5 0 .1.1.1.2.1 6.7.9 13.7 1.2 20.5 1 2.2-.1 4.7-.1 5.7-2.4.8-1.9.5-4.5-1-6.1-.3-.3-.7.1-.5.4.1.2.2.4.2.6-.9-1.1-2.2-2-3.5-1.9-.1 0-.2.2-.2.3-1.5-.3-3-.3-4.4-.3-2.4.2-4.7.5-7 1.1zm-4.5 2.7c.9.4 1.8 1 2.5 1.8.8.8 1.3 1.8 2.1 2.6.2.2.5 0 .4-.2-.7-1.8-2.2-3.7-4.1-4.5 1.6-.7 3.2-1.2 4.7-1.6 2.1-.6 4.3-.9 6.5-.9 1.9 0 3.8.4 5.8.5.2.1.3.2.5.3.7.5 1.3 1.2 1.8 2 .5 2.2.1 4.5-2.8 4.9-.6.1-1.1.1-1.7.2 1.9-1.1 3.2-3.5 3.3-5.6 0-.2-.3-.2-.3-.1-.4 1.3-1.1 2.6-1.9 3.6-.7.8-1.7 1.5-2.5 2.2h-.8c2-1.3 3.3-4 3.2-6.3 0-.2-.3-.3-.4-.1-.4 1.2-.8 2.5-1.5 3.6s-1.6 1.9-2.5 2.8h-1.7c.8-2.2.4-5-.9-6.9-.2-.3-.6-.1-.5.2.3 1.1.7 2.1.9 3.2.2 1.2.1 2.3 0 3.5h-.1c-2.3 0-4.5-.1-6.8-.3-.9-1-2.6-1.9-4-1.9-.2 0-.3.3-.1.4.6.3 1.3.5 1.9.8.3.2.7.3 1 .5-2.3-.2-4.6-.3-6.9-.4 1-1.9 2.8-3.3 4.9-4.3z" fill="#efe1bc" stroke-width="none" opacity="1"></path></g></g></g><g id="svga-group-eyebrows-right-move" transform="matrix(1,0,0,1,0,0)"><g id="svga-group-eyebrows-right-rotate" transform="matrix(1,0,0,1,0,0)"><g id="svga-group-eyebrows-right" transform="matrix(1,0,0,1,0,0)"><path id="SvgjsPath123847" d="M133.1 83c-2-2.2-4.9-3.6-7.7-4.3-.7-.3-1.4-.5-2-.7-2.2-.6-4.9-1.4-7.1-1.1h-1.1c-.6 0-1.1 0-1.7.1-1-.2-2.2-.5-3 .3-1-.4-2 .7-2.5 1.5-.7 1.1-.7 2.3-.2 3.5-.3 1.2 1.3 2.2 2.3 2.6 1.3.5 3.3.5 4.8 0 1 .1 1.9.1 2.9 0 1.4.5 2.9.1 4.3-.1 1.1.2 2.2.1 3.3-.1 1.7-.3 3.6-.1 5.2-.5.4.1.9.1 1.3.1 1 .5 2-.5 1.2-1.3z" fill="#fef6e1" stroke-width="none" opacity="1"></path><path id="SvgjsPath123848" d="M114.9 84.7c-1.1-.8-2-1.8-2.9-2.7-1-1.1-1.5-2.3-1.9-3.7-.1-.3-.5-.2-.5.1.2 1.6.7 2.9 1.8 4.1.8.9 2 2.6 3.3 2.7.4.1.5-.3.2-.5zm-2.4 0c-1.7-1-3.9-2.8-3.9-4.9 0-.2-.3-.3-.4-.1-.3 1.3.4 2.4 1.2 3.4.8 1 1.7 1.9 3 2 .2 0 .3-.3.1-.4zm4.2-7.8c-2.5 1.9-2.2 5.6-.7 8 .1.2.4.1.3-.2-.9-2.8-1-5.1.7-7.6.1-.1-.2-.4-.3-.2zm2.6.9c-2 1.6-3 4.8-2.6 7.3 0 .2.3.1.3-.1.2-1.3.3-2.6.8-3.9.4-1.1 1.1-2.1 1.7-3.1.2-.2-.1-.3-.2-.2zm5.3 1.6c-1.3-.6-2.6.5-3.5 1.4-1.1 1.2-2 2.6-2 4.2 0 .2.3.2.3.1.3-1.3 1-2.5 1.9-3.5.9-1 1.9-1.4 3.1-1.9.2-.1.3-.3.2-.3zm5.8 1.4c-1.4-.6-2.9.2-4.2.9-1.3.7-2.3 1.5-2.8 2.8-.1.3.4.5.5.2 1.1-2.2 4.1-3.3 6.4-3.4.4.1.4-.4.1-.5zm2.2 2.5c-1.7-.5-3.4 0-5 .7-.3.1 0 .6.3.4 1.5-.7 3.1-.8 4.7-.9.1.1.2-.1 0-.2z" fill="#fffefb" stroke-width="none" opacity="1"></path><path id="SvgjsPath123849" d="M116.6 76.3c-1.4 0-3 0-4.4.3 0-.1-.1-.2-.2-.3-1.3-.2-2.7.7-3.5 1.9.1-.2.2-.4.2-.6.2-.3-.2-.7-.5-.4-1.4 1.6-1.8 4.1-1 6.1 1 2.3 3.5 2.3 5.7 2.4 6.8.3 13.8-.1 20.5-1 .1 0 .1-.1.2-.1.2-.1.4-.2.3-.5-.6-1.8-2.2-3-3.8-3.9-2-1.2-4.2-2.2-6.5-2.8-2.3-.8-4.6-1.1-7-1.1zm16.4 7.8c-2.3.1-4.6.3-6.9.4.3-.2.6-.4 1-.5.6-.3 1.3-.5 1.9-.8.2-.1.1-.4-.1-.4-1.3 0-3.1.9-4 1.9-2.3.2-4.5.3-6.8.3h-.1c-.1-1.2-.2-2.3 0-3.5.2-1.1.6-2.2.9-3.2.1-.3-.3-.5-.5-.2-1.3 1.9-1.7 4.7-.9 6.9h-1.7c-.9-.9-1.8-1.7-2.5-2.8-.7-1.1-1.1-2.3-1.5-3.6-.1-.2-.4-.2-.4.1-.1 2.3 1.2 4.9 3.2 6.3h-.8c-.8-.7-1.8-1.3-2.5-2.2-.9-1-1.5-2.3-1.9-3.6-.1-.2-.4-.2-.3.1.2 2.1 1.4 4.5 3.3 5.6-.6 0-1.1-.1-1.7-.2-2.9-.4-3.3-2.7-2.8-4.9.5-.7 1.1-1.5 1.8-2 .2-.1.3-.2.5-.3 1.9-.1 3.8-.5 5.8-.5 2.2 0 4.4.3 6.5.9 1.5.4 3.1.9 4.7 1.6-1.9.8-3.4 2.7-4.1 4.5-.1.2.3.4.4.2.8-.8 1.3-1.8 2.1-2.6.7-.8 1.5-1.3 2.5-1.8 2 1.1 3.9 2.5 4.9 4.3z" fill="#efe1bc" stroke-width="none" opacity="1"></path></g></g></g><g id="svga-group-beardwrap" transform="matrix(1,0,0,1,0,0)"><g id="svga-group-beard-single-move" transform="matrix(1,0,0,1,0,0)"><g id="svga-group-beard-single" transform="matrix(1,0,0,1,0,0)"></g></g></g><g id="svga-group-mustache-single-move" transform="matrix(1,0,0,1,0,0)"><g id="svga-group-mustache-single" transform="matrix(1,0,0,1,0,0)"><path id="SvgjsPath124159" d="M98.2 117.6c1.1.1 1.1 3.2.3 3.7s-17.2-.2-18-.7 0-1.2 1.5-1.6c1.5-.3 11-1.9 16.2-1.4zm4.9 0c-1.1.1-1.1 3.2-.3 3.7s17.2-.2 18-.7 0-1.2-1.5-1.6c-1.5-.3-11-1.9-16.2-1.4z" fill="#fef6e1" stroke-width="none" opacity="1"></path><path id="SvgjsPath124160" d="M97.8 118.4c-.5.3-.9.8-1.4 1.2-.5.4-1.1.7-1.7 1-.2.1-.1.4.1.3.7-.2 1.3-.5 1.8-.9s1.1-.8 1.4-1.3c.2-.1 0-.4-.2-.3zm-1.3 0c-.8.3-1.5.8-2.3 1.1l-2.4.9c-.1.1-.1.3.1.3 1.6-.2 3.6-1 4.8-2 .2-.1 0-.4-.2-.3zm-3.8.4c-1.1.5-2.3.9-3.4 1.5-.1.1-.1.3.1.3 1.2-.1 2.5-.7 3.6-1.4.1-.3-.1-.5-.3-.4zm-4.4.3c-.5.2-1 .4-1.4.6-.5.2-1 .3-1.4.6-.2.1-.1.4.2.3 1-.1 2.1-.8 2.9-1.3 0-.1-.1-.3-.3-.2zm-4.1.6-.9.3c-.1.1 0 .3.1.2l.9-.3c.1 0 .1-.2-.1-.2zm20.3 1.2c-.2-.3-.6-.6-.8-1l-.6-1.2c-.1-.2-.3-.2-.3 0 0 .9.6 2.1 1.5 2.5.1.1.3-.1.2-.3zm2.8-.3c-.5-.2-1.1-.2-1.6-.5-.5-.2-.9-.6-1.3-1-.1-.2-.4.1-.3.2.7.9 1.9 1.8 3.2 1.7.2-.1.2-.3 0-.4zm2.6-.5c-.5-.4-1.1-.5-1.6-.8-.6-.3-1.1-.5-1.6-.8-.2-.1-.4.2-.2.4.6.3 1.2.7 1.8 1 .5.2 1 .5 1.6.6.1-.1.1-.3 0-.4zm2.9.4c-.9-.6-1.9-.9-2.9-1.5-.2-.1-.4.2-.2.3.9.6 1.9 1.2 2.9 1.4.2.1.3-.1.2-.2zm1.9.1c-.9-.5-1.9-1-2.7-1.8-.1-.1-.3 0-.2.2.7 1 1.6 1.9 2.8 1.9.1 0 .2-.2.1-.3zm1.7-.3c-.6-.3-1.1-.4-1.5-.9-.1-.1-.3 0-.2.1.3.6.9 1.2 1.7 1.1.1 0 .2-.2 0-.3zm2.4-.1c-.4-.2-.8-.3-1.1-.6-.2-.2-.5.1-.3.3.3.3.8.7 1.3.8.3-.1.3-.4.1-.5zm-36-.7c-.5.1-.9.2-1.4.5-.1.1 0 .3.1.2.5-.1.9-.3 1.3-.6.1 0 .1-.1 0-.1z" fill="#efe1bc" stroke-width="none" opacity="1"></path></g></g><g id="svga-group-nose-single-move" transform="matrix(1,0,0,1,0,0)"><g id="svga-group-nose-single" transform="matrix(1,0,0,1,0,0)"><path id="SvgjsPath124063" d="M108.82 114.55c-.68.35-1.95-.3-2.8-.12-.85.18-3.92 2.8-4.86 3.1-.94.3-2.83-.49-4.22-1.49-1.4-1-3.04-1.73-3.98-1.61-.94.12-2.86.27-3.16-1.19-.3-1.46 1.03-3.77 1.73-4.68.7-.91 1.32-1.79 1.9-2.22.59-.42 5.18-1.67 8.7-.94 3.53.73 4.68 1.98 5.87 3.44 1.19 1.45 2.28 4.95.82 5.71z" fill="#fbd5c0" stroke-width="none" opacity="1" transform="translate(0 1)" stroke="none"></path><path id="SvgjsPath124064" d="M93.36 106.28c-1.54 1.31-5.19 5.71-3.47 7.9.26.33.59.51.99.6 1.42.33 2.5-.24 3.96.48 1.73.86 3.1 2.49 5.1 2.76 1.63.23 2.75-.66 3.93-1.64.64-.53 1.36-1.25 2.21-1.42.64-.13 1.35.24 1.97.27.48.02.83.03 1.22-.28.9-.72.69-2.13.45-3.09-.47-1.93-1.5-3.67-3.03-4.92a.212.212 0 0 0-.3.3c1.04 1.29 1.99 2.66 2.47 4.27.36 1.23.81 2.6-1.15 2.71-.35.02-.81-.23-1.2-.22-.9.03-1.68.5-2.38 1.01-1.9 1.39-3.2 2.86-5.69 1.52-1.99-1.07-3.45-2.76-5.87-2.51-.4.07-.79.13-1.19.18-1.11-.53-1.49-1.27-1.14-2.24.17-.75.53-1.49.86-2.18.62-1.27 1.5-2.32 2.34-3.44.03-.04-.04-.09-.08-.06z" fill="#cd865f" stroke-width="none" opacity="1" transform="translate(0 1)" stroke="none"></path><path id="SvgjsPath124065" d="M93.93 108.29c-.24 3.02 2.33 5.74 5.42 5.4a.15.15 0 0 0 0-.3c-2.87-.33-4.95-2.2-5.31-5.1-.01-.07-.1-.08-.11 0z" fill="#cd865f" stroke-width="none" opacity="1" transform="translate(0 1)" stroke="none"></path><path id="SvgjsPath124066" d="M102.14 105.4c-1.12-.46-2.36-.67-3.57-.54-.92.1-2.35.65-2.03 1.85.4 1.55 2.5 1.37 3.72 1.73 1.33.39 1.81 1.66 2.97 2.26.42.22.96.19 1.3-.17 1.84-1.91-.61-4.39-2.39-5.13z" fill="#ffe1d0" stroke-width="none" opacity="1" transform="translate(0 1)" stroke="none"></path></g></g><g id="svga-group-hair-front" transform="matrix(1,0,0,1,0,0)"><path id="SvgjsPath124172" d="M122.8 58.9s-3 5.8-16.6 7.4-22 .1-33.2 5.4C61.8 77 62.5 91.6 62.8 96.9c.2 5.3.5 9.6-2.2 10.3-2.6.7-4.6-7.3-5-27.4-.5-23.6 3-27.2 11.8-35.4s24.3-13.2 42.5-10.6 16.5 9.1 16.5 9.1 3.1-2.9 6.7.2 9.8 12 11 22.5 0 34.7-.5 37.5c-.5 2.9-5 2.2-5.3 0-.2-2.2.5-20.3-1.2-23.9s-6.2-7.4-9.8-11.5c-3.7-4-4.5-8.8-4.5-8.8z" fill="#fef6e1" stroke-width="none" opacity="1" stroke="none"></path><path id="SvgjsPath124173" d="M124.4 49.3c0 22.1-33.3 15.1-47.2 18.8-13.7 3.7-17.3 19.7-14.7 32 0 .2.4.2.4-.1-.6-9.8-.4-19.8 7.7-26.7 7.2-6.2 18.5-4.8 27.3-5.7 11.8-1.2 27.5-3 26.8-18.4.1-.2-.3-.2-.3.1zm.8-6.2c-1.8 19.3-31.3 17.1-44.8 20.8-11 3-23.1 11.1-22.2 24 0 .3.4.3.4 0 1.6-20.5 23.5-23.7 39.8-26 10.9-1.6 27.5-4.7 27.6-18.8-.1-.5-.8-.5-.8 0zm.5-.3c-5.8 5.6-15.8 6.5-23.4 8-8.4 1.7-16.9 3.4-25 6.5-10.9 4.1-24.5 13-21.7 26.7.1.3.6.2.5-.1C55 65 75.3 58 90.3 54.4c6.9-1.7 14-2.9 20.9-4.6 5.2-1.3 11.1-2.3 14.6-6.8.2-.1 0-.3-.1-.2zm-.7-1.1c-14.4-8.4-35.6-1.5-49.2 5.8-12.8 7-24.1 20.9-20.4 36.3.1.2.4.1.4-.1-2.5-16.5 8.5-29.6 22.7-36.5 14.4-7 31-10.7 46.4-5.1.2.1.3-.3.1-.4zm1.5.1c-4.1-5.5-10.4-7-17-7.6-8.8-.8-17.8-.3-26.3 2.2-13.6 4.1-26 14.6-27.9 29.4 0 0 .1.1.1 0 3.1-14.2 14.3-24.4 28.1-28.5 7-2.1 14.5-2.6 21.8-2.3 7.5.3 15.4 1.2 20.7 7.1.2.4.7 0 .5-.3zm-2.9 15.4c-.6 6.8 4.8 11.5 8.8 16.3 7 8.4 6 17.3 5.9 27.5 0 .4.6.5.7.1 1.2-6.8 1.5-14.8-1.2-21.3-3.5-8.5-13-12.8-13.8-22.6 0-.2-.4-.2-.4 0zm1.4-7.3c2.2 3.4 5.5 5.8 8.3 8.8 3.6 3.8 6.2 8.3 7.9 13.3 3.2 9.7 2.1 19.4 2 29.4 0 .2.3.3.4.1 1.8-9.6 1.5-20.4-1.6-29.7-3.2-9.5-10-15.1-16.7-22-.2-.2-.4 0-.3.1zm1-6.9c9.2.9 12.3 10.2 14.8 17.7 2.1 6.2 3 12.5 4.4 18.8.1.2.4.2.4-.1-.3-8.5-3.1-17.3-6.3-25.1-2.4-5.8-6.2-12.1-13.3-11.8-.3.1-.3.5 0 .5z" fill="#efe1bc" stroke-width="none" opacity="1" stroke="none"></path><path id="SvgjsPath124174" d="M122.3 47.8c-11.7 10.4-26.5 9.4-40.8 12.8-10 2.4-19.9 7.9-22.5 18.5-.1.3.3.4.4.1 8.9-27.4 47.4-11.8 63.1-31.2.1-.1-.1-.3-.2-.2zm-.5 7.1c-8.9 9.1-20.9 6.9-32 10.2-.2.1-.1.3.1.3 10.5-1.6 25.5-.2 32.1-10.4.1 0-.1-.2-.2-.1zm-.6-12.2c-16.6 6.8-37.3 5-51.8 16.5-.2.1.1.4.2.3 15.9-10.1 35.5-7.7 51.8-16.2.4-.2.2-.8-.2-.6zm-6.3-.7c-8.4.2-17.4 2.3-25.3 5-.3.1-.2.5.1.4 8.4-2.1 16.8-3.5 25.3-5.1.1 0 .1-.3-.1-.3zm-10-2.3c-3.9.2-7.8.9-11.5 2.3-.2.1-.1.4.1.3 3.8-1.1 7.5-2.1 11.4-2.5.1 0 .1-.1 0-.1zm2-3.7c-7.4-.7-14.9.6-21.6 4-.2.1-.1.4.2.3 6.9-2.8 13.9-4.2 21.4-4.1.1-.1.1-.2 0-.2zm19.5 10.2c3 7.9 11.6 11.6 14.8 19.6.1.2.4.1.3-.1-2-8.3-11.2-12.2-14.8-19.6-.1-.2-.3-.1-.3.1zm-.6 10.7c2 11.1 14 16.9 15.3 28.4 0 .1.2.1.2 0-.6-11.5-12.4-17.7-15.3-28.4-.1-.1-.2-.1-.2 0zm16.3 47.1c.7-2.9.8-5.8.6-8.8 0-.3-.4-.3-.4 0-.1 2.9-.4 5.8-.6 8.7-.1.3.3.3.4.1zm-81.8.8c-.7-2.5-1.3-5.1-1.8-7.7 0-.2-.3-.1-.3 0 .1 2.7.6 5.3 1.6 7.8.2.3.6.2.5-.1z" fill="#fffefb" stroke-width="none" opacity="1" stroke="none"></path></g><g id="svga-group-glasses-single-move" transform="matrix(1,0,0,1,0,0)"><g id="svga-group-glasses-single" transform="matrix(1,0,0,1,0,0)"><path id="SvgjsPath124091" d="M72.85 83.35c-3.15-.24-7.01.05-7.82 3.53-.81 3.48 1.05 10.54 3.86 14.31 2.81 3.77 6.87 5.96 9.54 6.82 2.67.86 7.2 1.14 9.87-.29 2.67-1.43 5.25-3.96 6.34-8.06s.57-7.73.1-8.54c-.48-.81-3.53-3.72-9.83-5.96-6.29-2.24-12.06-1.81-12.06-1.81z" fill="url(#SvgjsLinearGradient124092)" opacity="1"></path><path id="SvgjsPath124097" d="M127.15 83.35c3.15-.24 7.01.05 7.82 3.53.81 3.48-1.05 10.54-3.86 14.31-2.81 3.77-6.87 5.96-9.54 6.82-2.67.86-7.2 1.14-9.87-.29-2.67-1.43-5.25-3.96-6.34-8.06s-.57-7.73-.1-8.54c.48-.81 3.53-3.72 9.83-5.96 6.29-2.24 12.06-1.81 12.06-1.81z" fill="url(#SvgjsLinearGradient124098)" opacity="1"></path><path id="SvgjsPath124103" d="M134.28 82.02c-4.82-.89-10.4-.5-14.92.8-5.27 1.52-9.61 3.7-12.41 5.63-1.42.98-2.12 2.26-2.43 3.66l-.6-.21a11.94 11.94 0 0 0-7.61-.06l-.83.27c-.31-1.4-1-2.68-2.43-3.66-2.8-1.93-7.15-4.11-12.41-5.63-4.52-1.3-10.09-1.7-14.92-.8s-2.75 6.83-1.23 11.65 4.67 10.65 10.8 13.43c6.45 2.93 10.19 2.57 14.1.56 4.18-2.15 5.9-7.87 6.17-10.82.11-1.21.21-2.49.08-3.72l.98-.32c2.25-.74 4.73-.72 6.97.05l.76.26c-.13 1.24-.03 2.52.08 3.73.27 2.95 1.98 8.67 6.17 10.82 3.91 2.02 7.65 2.37 14.1-.56 6.13-2.78 9.28-8.61 10.8-13.43 1.53-4.82 3.6-10.76-1.22-11.65zM94.21 99.88c-.8 2.95-3.46 6.48-6.58 7.73-3.13 1.25-6.93.63-9.08 0-2.14-.63-8.63-3.35-11.04-10.5-2.41-7.15-1.34-10.27-.89-11.07.45-.8 3.3-3.04 15.9-.27 12.59 2.77 12.21 7.16 12.21 7.16.18 1.52.29 4.01-.52 6.95zm38.28-2.77c-2.41 7.15-8.9 9.87-11.04 10.5-2.14.63-5.95 1.25-9.08 0s-5.78-4.78-6.58-7.73c-.8-2.95-.69-5.43-.51-6.95 0 0-.38-4.39 12.21-7.16 12.59-2.77 15.45-.54 15.9.27.44.8 1.51 3.93-.9 11.07z" fill="#604ab3" stroke-width="none" opacity="1"></path><path id="SvgjsPath124104" d="M134.27 82.06c-2.73-.48-5.51-.56-8.27-.34-2.76.21-5.48.79-8.09 1.69-2.62.87-5.17 1.96-7.59 3.28-1.2.66-2.4 1.38-3.49 2.18-1.05.82-1.75 2-2.02 3.31l-.07.33-.32-.11c-.74-.26-1.44-.48-2.18-.62-.74-.14-1.49-.21-2.24-.2-.75.01-1.5.08-2.23.23-.74.14-1.44.39-2.18.63l-.35.11-.08-.36c-.2-.93-.6-1.81-1.22-2.52-.6-.71-1.45-1.21-2.29-1.75-1.68-1.04-3.46-1.93-5.27-2.73-3.64-1.57-7.45-2.83-11.4-3.24-1.97-.22-3.96-.28-5.94-.16-.99.06-1.98.16-2.96.33-.96.16-1.92.49-2.5 1.27-.58.76-.74 1.78-.72 2.75.02.98.19 1.97.41 2.93.48 1.92 1.1 3.83 1.75 5.71 1.35 3.72 3.49 7.23 6.55 9.75 1.53 1.26 3.26 2.21 5.12 2.92 1.84.73 3.75 1.31 5.7 1.47 1.95.16 3.91-.2 5.7-.99.9-.4 1.77-.83 2.51-1.45.74-.62 1.38-1.35 1.93-2.15 1.1-1.6 1.84-3.46 2.3-5.35.23-.96.37-1.9.43-2.9.07-.98.11-1.97.01-2.92l-.03-.3.29-.09c.7-.23 1.42-.49 2.18-.65.75-.16 1.52-.24 2.29-.25.77-.01 1.54.07 2.3.22.76.14 1.5.41 2.19.65l.3.1-.03.31c-.13 1.25-.03 2.54.1 3.82.13 1.26.45 2.51.86 3.71.84 2.39 2.19 4.69 4.24 6.13 2.11 1.34 4.65 2.17 7.17 2.05 2.54-.1 5.03-.96 7.39-1.98 4.76-2.04 8.21-6.39 10.13-11.17.5-1.2.89-2.44 1.29-3.68.39-1.24.76-2.49 1.02-3.76.25-1.26.41-2.59.08-3.84-.29-1.3-1.51-2.16-2.77-2.37zm.01-.08c1.28.2 2.55 1.08 2.84 2.41.36 1.28.2 2.62-.04 3.9-.25 1.28-.61 2.54-.99 3.79s-.74 2.5-1.22 3.72c-.94 2.44-2.22 4.77-3.92 6.79a17.832 17.832 0 0 1-6.22 4.8c-2.38 1.08-4.9 2.01-7.59 2.17-2.7.18-5.37-.68-7.63-2.12-2.25-1.58-3.66-4.01-4.54-6.5-.43-1.26-.76-2.55-.91-3.89-.13-1.31-.24-2.63-.1-3.98l.27.42c-.71-.25-1.38-.49-2.09-.63-.7-.14-1.42-.22-2.14-.22-.72 0-1.44.07-2.14.22-.7.14-1.39.38-2.1.61l.26-.39c.26 4.06-.61 8.24-2.93 11.64-.59.84-1.28 1.61-2.08 2.27-.81.66-1.75 1.12-2.67 1.51-1.87.8-3.95 1.16-5.98.96-2.03-.19-3.97-.82-5.83-1.58-1.86-.74-3.65-1.75-5.2-3.05-3.11-2.6-5.23-6.18-6.57-9.95-.64-1.9-1.24-3.8-1.71-5.75-.22-.98-.41-1.97-.44-2.98-.03-1 .11-2.08.74-2.93.62-.87 1.69-1.24 2.67-1.41.98-.18 1.98-.3 2.98-.37 2-.15 4.01-.11 6.01.09 4.01.37 7.89 1.57 11.59 3.11 1.85.77 3.65 1.69 5.37 2.73.84.53 1.75 1.05 2.45 1.86.7.8 1.15 1.79 1.38 2.81l-.43-.25c.72-.24 1.48-.49 2.26-.64a12.49 12.49 0 0 1 4.72.01c.77.14 1.54.4 2.26.66l-.38.22c.3-1.41 1.1-2.75 2.28-3.6 1.16-.82 2.36-1.5 3.6-2.15 2.48-1.28 5.07-2.31 7.72-3.14 2.65-.85 5.4-1.37 8.16-1.57 2.77-.2 5.57-.1 8.29.4z" fill="#382094" stroke-width="none" opacity="1"></path><path id="SvgjsPath124105" d="M94.25 99.89c-.43 1.58-1.24 3.04-2.23 4.34-.99 1.3-2.19 2.48-3.66 3.28-1.48.8-3.17 1.11-4.83 1.13-1.66.03-3.32-.21-4.91-.67-1.61-.46-3.09-1.23-4.46-2.14-1.37-.91-2.63-2.01-3.68-3.27a16.333 16.333 0 0 1-2.6-4.16c-.64-1.51-1.09-3.08-1.49-4.67-.39-1.59-.65-3.22-.62-4.88.02-.83.11-1.67.4-2.48.12-.4.43-.86.8-1.1.37-.25.76-.45 1.16-.58 1.61-.56 3.3-.62 4.94-.6 1.65.04 3.28.21 4.91.44 3.24.5 6.45 1.18 9.56 2.27 1.54.56 3.07 1.24 4.44 2.18.67.49 1.34 1 1.87 1.66.52.65 1 1.39 1.02 2.31v-.03c.21 2.34.02 4.72-.62 6.97zm-.07-.02c.59-2.26.75-4.63.4-6.92v-.03c-.05-.73-.52-1.44-1.04-2.01-.53-.59-1.19-1.04-1.86-1.47-1.36-.83-2.85-1.46-4.38-1.95-3.04-1.04-6.24-1.68-9.43-2.2-1.6-.25-3.2-.44-4.81-.5-1.6-.04-3.23 0-4.72.46-.73.25-1.45.57-1.67 1.3-.28.72-.4 1.52-.44 2.31-.08 1.6.12 3.22.45 4.8.35 1.58.8 3.15 1.41 4.65a15.46 15.46 0 0 0 2.62 4.05c2.17 2.38 5.06 4.08 8.09 5 3.06.77 6.44 1.1 9.37-.22 2.85-1.43 5.06-4.18 6.01-7.27z" fill="#382094" stroke-width="none" opacity="1"></path><path id="SvgjsPath124106" d="M132.53 97.13c-1.1 3.39-3.39 6.34-6.3 8.43a16.733 16.733 0 0 1-4.82 2.4c-1.73.51-3.54.73-5.35.68-1.8-.08-3.64-.53-5.16-1.56-1.51-1.01-2.73-2.37-3.7-3.86-.98-1.5-1.62-3.21-1.91-4.97-.31-1.76-.41-3.56-.22-5.34v.04c.03-1.04.61-1.82 1.21-2.51.63-.67 1.35-1.24 2.12-1.71 1.54-.96 3.22-1.64 4.91-2.22 3.43-1.07 6.92-1.8 10.48-2.23 1.78-.2 3.58-.33 5.39-.16.9.09 1.81.24 2.69.55.44.15.87.36 1.25.67.19.15.37.35.5.58.11.22.19.44.26.66.49 1.8.31 3.62.01 5.37-.3 1.78-.77 3.5-1.36 5.18zm-.07-.03c.54-1.69 1.01-3.41 1.23-5.16.21-1.74.27-3.57-.28-5.19-.07-.2-.15-.39-.25-.56-.1-.14-.22-.28-.39-.39-.32-.22-.7-.41-1.11-.53-.81-.26-1.67-.37-2.54-.43-1.74-.09-3.5 0-5.25.22s-3.49.52-5.22.87c-1.74.33-3.45.76-5.13 1.26-1.67.55-3.32 1.16-4.83 2.03-.76.43-1.46.95-2.06 1.56-.58.6-1.11 1.37-1.16 2.14v.04c-.23 1.74-.23 3.51.07 5.25.15.87.34 1.73.65 2.55.31.82.74 1.59 1.22 2.33.97 1.46 2.22 2.75 3.71 3.65 1.48.91 3.22 1.26 4.95 1.29 1.73.04 3.47-.24 5.15-.68 1.67-.46 3.25-1.25 4.73-2.17 1.47-.95 2.82-2.1 3.94-3.46 1.14-1.37 1.98-2.95 2.57-4.62z" fill="#382094" stroke-width="none" opacity="1"></path></g></g></g></g></g><rect id="svga-credit-rect" width="200" height="15" x="0" y="185" fill="#ecf0f1" opacity="0.5" style="display: none;"></rect><text id="svga-credit-text" font-family="Avenir Next, Roboto, Helvetica, Arial, sans-serif" font-size="10px" text-anchor="start" font-weight="400" size="10px" anchor="start" weight="400" fill="#333333" x="33.41004180908203" y="182.53461003303528" style="display: none;"><tspan id="SvgjsTspan123378" dy="13" x="33.41004180908203">Created on AvatarMaker.com</tspan></text></g></svg>