<svg xmlns="http://www.w3.org/2000/svg" version="1.1" width="600px" height="600px" viewBox="0 0 200 200" style="overflow:hidden!important;"><defs id="SvgjsDefs128363"></defs><g id="svga-group-wrapper"><g id="svga-group-backs-single"><path id="SvgjsPath129040" d="M0 151.2s23.5-5.1 41.7 13.1S59.6 192.1 87 200H0v-48.8z" fill="#ff0000" stroke-width="none" opacity="1"></path><path id="SvgjsPath129041" d="M133.6 180.5c-23.4-5.2-55.2-7.3-78.3-46.1S0 100 0 100v51.2s23.5-5.1 41.7 13.1S59.6 192.1 87 200h80.9s-10.9-14.4-34.3-19.5z" fill="#ff6700" stroke-width="none" opacity="1"></path><path id="SvgjsPath129042" d="M170.8 156c-37.1 6.4-73.1-10.7-84.6-38.1-17-40.6-35.4-62.5-53.5-65-17.9-2.5-32.8 0-32.8 0V100s32.3-4.5 55.3 34.4 54.9 41 78.3 46.1 34.3 19.5 34.3 19.5H200v-50.1s-13.7 3.4-29.2 6.1z" fill="#ffb600" stroke-width="none" opacity="1"></path><path id="SvgjsPath129043" d="M149.1 124.2c-28.7-13.4-33-30-37.2-43.8-4.2-13.7-16.3-50-45.7-65.3S0 8 0 8v45s14.9-2.5 32.8 0c18.1 2.5 36.4 24.5 53.5 65 11.5 27.4 47.5 44.5 84.6 38.1 15.5-2.7 29.2-6.1 29.2-6.1v-14.3c-.1-.1-22.3 1.9-51-11.5z" fill="#378c00" stroke-width="none" opacity="1"></path><path id="SvgjsPath129044" d="M170.3 103c-17.6-9.8-25.8-29.7-34.3-63.3C127.5 6 100 0 100 0H0v8s36.8-8.2 66.1 7.2 41.5 51.6 45.7 65.3 8.5 30.4 37.2 43.8c28.7 13.4 50.9 11.4 50.9 11.4v-21.2c.1-.1-12-1.7-29.6-11.5z" fill="#00b1ba" stroke-width="none" opacity="1"></path><path id="SvgjsPath129045" d="M166.1 37.8C152.1 27.3 149.9 0 149.9 0H100s27.5 6 36 39.6 16.6 53.5 34.3 63.3 29.7 11.4 29.7 11.4V61.1s-19.8-12.9-33.9-23.3z" fill="#0530e2" stroke-width="none" opacity="1"></path><path id="SvgjsPath129046" d="M149.9 0s2.1 27.3 16.2 37.8S200 61.1 200 61.1V0h-50.1z" fill="#8900ea" stroke-width="none" opacity="1"></path><path id="SvgjsPath129047" d="M74.2 196.2c-2.6-1.1-5-2.4-7.4-3.9l-1.7-1.2c-.6-.4-1.1-.9-1.7-1.3-.5-.4-1.1-.9-1.7-1.3-.5-.5-1-.9-1.6-1.4-.5-.5-1.1-.9-1.6-1.4l-1.5-1.5c-1-1-2-2.1-3-3.1-3.9-4.4-7.2-9.2-10.5-14.1-1.7-2.4-3.2-5-5.1-7.4-.5-.6-.9-1.2-1.4-1.8-.5-.6-1-1.2-1.6-1.8l-.8-.8-.9-.8c-.6-.5-1.3-1-1.9-1.4-2.7-1.7-5.7-2.9-8.7-3.6s-6.1-1-9.2-1c-3.1 0-6.1.3-9 .9-1.7.3-3.3.7-5 1.2v1.6c4.7-.2 9.3-.2 13.8.2 2.8.3 5.6.7 8.3 1.4 2.7.7 5.2 1.7 7.7 2.9 1.2.6 2.4 1.3 3.5 2.1.6.4 1.1.8 1.6 1.3.5.4 1 1 1.6 1.5 2.1 2 4 4.2 5.8 6.5 3.5 4.7 6.4 9.8 9.7 14.8 1.7 2.5 3.4 5 5.4 7.3.5.6 1 1.1 1.5 1.7s1.1 1.1 1.7 1.6c.6.5 1.1 1.1 1.7 1.5l1.8 1.4c1.9 1.5 3.9 2.7 6 3.9h14.6c-.9-.3-1.7-.6-2.6-.9-2.6-1.1-5.2-2-7.8-3.1zm82.6-11.6c-.5-.3-1.1-.6-1.6-.9l-1.6-.8c-1.1-.5-2.2-1.1-3.3-1.6l-3.4-1.4c-1.1-.5-2.3-.9-3.4-1.3-4.6-1.7-9.3-3-14-4-2.4-.6-4.8-.9-7.1-1.3-2.4-.3-4.8-.7-7.2-.9-2.4-.3-4.8-.5-7.2-.7-1.2-.1-2.3-.2-3.4-.3-1.1-.2-2.2-.3-3.3-.6-8.8-1.9-17.1-6.4-24.4-12.2-7.3-5.8-13.6-13.1-19-20.9-2.7-3.9-5.1-8-7.4-12.1-1.2-2.1-2.3-4.2-3.4-6.2l-1.7-3.1c-.6-1.1-1.2-2.2-1.9-3.2-2.8-4.1-6.3-7.9-10.4-10.7-2-1.5-4.2-2.7-6.4-3.8-2.2-1.1-4.6-1.9-6.9-2.7-2.4-.8-4.8-1.2-7.2-1.6-2.4-.4-4.8-.6-7.3-.7-1.8 0-3.5 0-5.3.1v2c6.4.5 12.6 1.7 18.5 3.8 2.1.8 4.2 1.7 6.2 2.8 2 1.1 4 2.2 5.8 3.6.9.6 1.8 1.4 2.6 2.1.8.8 1.7 1.5 2.5 2.3l1.2 1.2 1.1 1.3c.8.8 1.4 1.7 2.2 2.6.7.9 1.3 1.8 2 2.8.7 1 1.3 2 2 3 1.4 2 2.7 3.9 4.1 5.9 2.8 3.9 5.6 7.8 8.5 11.6 5.7 7.7 11.5 15.2 18.5 22 3.5 3.4 7.3 6.5 11.5 9s8.8 4.5 13.7 5.7c1.2.3 2.4.5 3.7.8 1.2.2 2.5.4 3.7.5 2.3.3 4.7.6 7 .9 2.3.3 4.6.7 7 1.1 2.3.4 4.6.8 6.9 1.3 9.2 1.8 18.1 4.4 26.5 8.3 4.2 1.9 8.2 4.3 12.1 6.9l2.9 2c.9.7 1.8 1.5 2.8 2.2l.9.7h1.9c-5.5-6.2-11.9-11.5-19-15.5zm-6.8-28.8c-5.6-.1-11.3-.7-16.8-1.7-5.5-1.1-10.8-2.7-15.9-5.1-10-4.9-18.3-12.8-24.3-22.6-1.5-2.4-3-4.9-4.3-7.4-1.4-2.5-2.7-5.1-4-7.7-2.5-5.2-4.9-10.5-7.3-15.8-1.2-2.6-2.4-5.3-3.7-7.9-1.2-2.6-2.5-5.2-3.9-7.8-2.8-5.2-6-10.2-9.9-14.7-4-4.5-8.7-8.4-14.1-11.2-5.3-2.9-11.1-4.8-17-5.8-.7-.1-1.5-.3-2.2-.4l-2.2-.2-2.2-.2h-4.4l-2.2.1c-1.5 0-3 .2-4.4.4-.7.1-1.5.2-2.2.3l-2.2.4c-1.4.3-2.9.6-4.3 1.1-.8.2-1.7.5-2.5.8v1.5c9.4-1.9 19-1.9 28.2.2 1.4.3 2.7.6 4 1.1l2 .6 1 .3 1 .4c1.3.5 2.6 1 3.9 1.6l3.7 1.9c.6.3 1.2.7 1.8 1 .6.4 1.2.7 1.8 1.1l1.6.9 1.7 1.2c2.2 1.7 4.3 3.6 6.2 5.6 7.9 8 14 17.9 19.1 28.3 2.5 5.2 4.9 10.5 7.2 15.8 2.4 5.3 4.7 10.6 7.5 15.8 2.7 5.2 6 10.3 10.2 14.6 4.1 4.4 9 8 14.4 10.8 10.7 5.6 22.9 7.9 34.7 8 11.9 0 23.6-1.8 34.9-5 5.1-1.5 10.2-3.2 15.1-5.2v-2.8c-5.3 1.6-10.7 3.1-16.1 4.2-11.2 2.3-22.6 3.6-33.9 3.5zm41.1-20.2-2.1-.1-2.1-.1c-.7 0-1.4-.1-2.1-.2-2.9-.2-5.6-.7-8.5-1.1-2.8-.6-5.6-1.1-8.3-2-2.8-.7-5.4-1.7-8.1-2.6-1.3-.5-2.6-1.1-3.9-1.7-1.3-.6-2.6-1-3.9-1.7-2.5-1.3-5.1-2.5-7.5-3.9-1.2-.7-2.4-1.5-3.6-2.2-1.1-.8-2.4-1.6-3.5-2.4-2.3-1.7-4.4-3.5-6.5-5.5-4.1-4-7.6-8.5-10.6-13.5-2.9-5-5.2-10.3-7.2-15.7-2-5.4-3.5-11-5.2-16.6-.8-2.8-1.7-5.6-2.6-8.4-.9-2.8-1.9-5.6-3-8.3-1.1-2.7-2.4-5.5-3.8-8.1-1.4-2.6-2.9-5.2-4.5-7.7-1.7-2.5-3.4-4.9-5.3-7.2s-4-4.5-6.2-6.6c-4.4-4.1-9.6-7.5-15.1-10.1C61.8 7.3 56 5.5 50 4.6c-5.9-.9-11.9-1.1-17.8-.8-3 .1-5.9.4-8.8.8-1.5.2-2.9.4-4.4.7l-4.3.8c-2.9.7-5.7 1.3-8.6 2.1-2 .6-4.1 1.2-6.1 1.9v.8C10.7 9 21.5 7.6 32.3 7.8c5.7 0 11.4.5 16.9 1.6 5.5 1.1 10.9 2.8 15.9 5.2 2.5 1.2 4.9 2.5 7.2 4.1 2.3 1.6 4.5 3.2 6.6 5.1 4.2 3.7 7.9 8 11.2 12.6 3.2 4.7 6.2 9.6 8.6 14.7 2.4 5.2 4.6 10.5 6.6 16 2 5.4 4.1 10.9 6.2 16.3 1.1 2.7 2.2 5.4 3.4 8.1.6 1.3 1.3 2.6 1.9 4 .7 1.3 1.3 2.6 2.1 3.9 1.4 2.6 2.9 5.1 4.6 7.5 1.6 2.5 3.5 4.8 5.4 7.1 3.9 4.5 8.4 8.6 13.4 11.8 2.5 1.7 5.1 3 7.8 4.4 1.3.7 2.7 1.2 4.1 1.9 1.4.6 2.7 1.2 4.1 1.7 5.6 2 11.4 3.5 17.3 4.3 3 .3 5.9.6 8.9.7.7 0 1.5.1 2.2.1l2.2-.1 2.2-.1 2.2-.2c2.2-.2 4.5-.5 6.7-.9v-2c-2.3.2-4.5.2-6.8.2l-2.1-.2zM118.9 6.8c1.3 1.3 2.5 2.7 3.6 4.1 2.2 2.9 4.4 5.9 6.3 9 1.9 3.1 3.6 6.4 5 9.8l1 2.6c.3.9.5 1.8.8 2.7.3.9.4 1.8.6 2.7.2.9.4 1.8.6 2.8 1.3 7.5 2.5 15 4.1 22.5.9 3.7 1.7 7.5 3 11.2.3.9.6 1.8 1 2.8l1.1 2.7.6 1.3.7 1.3c.4.9.9 1.8 1.3 2.6 1.9 3.5 4.2 6.8 6.9 9.7 2.7 3 5.8 5.6 9.3 7.7 3.5 2.1 7.4 3.5 11.2 4.4 3.9.9 7.7 1.4 11.6 1.6l2.9.1h2.9c1.9 0 3.8-.1 5.8-.2.3 0 .6-.1.9-.1v-2.4c-4.1-.3-8.1-.8-12.1-1.4-.9-.1-1.8-.3-2.7-.5l-1.4-.2-1.4-.3c-1.8-.3-3.6-.8-5.3-1.3-3.5-1.1-6.7-2.4-9.7-4.3-6.1-3.7-11-9-14.9-15.2-.5-.8-.9-1.6-1.4-2.4l-.7-1.2-.6-1.2-1.2-2.5-1.1-2.5c-.4-.8-.8-1.7-1.1-2.6l-1.1-2.6c-.7-1.7-1.3-3.5-1.9-5.3-2.4-7.1-4.1-14.5-5.1-22-.5-3.8-1-7.6-2-11.4-.9-3.8-2.2-7.5-4-11-1.8-3.5-3.9-6.8-6.5-9.8-1.3-1.5-2.6-2.9-4-4.3-1.4-1.3-2.8-2.6-4.3-3.8h-5.9c1.1.9 2.2 1.9 3.3 2.9 1.4 1.3 2.7 2.6 3.9 4zm32.4-1.4c.2 2.4.4 4.9 1 7.3.2 1.2.6 2.4.8 3.6.4 1.2.7 2.4 1.1 3.5.7 2.3 1.7 4.6 2.8 6.8 1.2 2.2 2.5 4.3 4 6.2.7 1 1.5 1.9 2.3 2.9.4.5.8.9 1.2 1.4s.8.9 1.2 1.4c.9.8 1.7 1.7 2.5 2.6l1.2 1.3 1.2 1.3c.8.9 1.6 1.7 2.4 2.7.8.9 1.7 1.7 2.5 2.6.8.9 1.7 1.7 2.6 2.5.9.8 1.8 1.7 2.8 2.3l3 2.1c1.1.6 2.1 1.2 3.2 1.8 1.1.5 2.2 1 3.4 1.5 1.1.4 2.3.8 3.5 1.2 1.2.3 2.4.7 3.6.9.8.2 1.6.3 2.4.4v-3.1c-1.6-.6-3.1-1.2-4.6-1.9l-3.1-1.5-3.1-1.5c-1-.6-2-1.1-3-1.7-1-.6-2-1.2-3-1.7s-2-1.2-3-1.7-2-1.1-3-1.8c-1-.6-1.9-1.3-2.9-2-.9-.7-1.8-1.5-2.7-2.3-.4-.4-.9-.8-1.3-1.2l-1.2-1.3c-.8-.9-1.6-1.8-2.3-2.7-1.4-1.8-2.6-3.8-3.6-5.9-2-4.2-3.4-8.5-4.6-12.9-1.1-4.4-1.6-9-2.1-13.5-.2-1.7-.3-3.3-.4-5h-5c0 1.8 0 3.6.2 5.4z" fill="#ffffff" stroke-width="none" opacity="1"></path></g><g id="svga-group-humanwrap-move" transform="matrix(1,0,0,1,0,0)"><g id="svga-group-humanwrap" transform="matrix(1,0,0,1,0,0)"><g id="svga-group-hair-back-move" transform="matrix(1,0,0,1,0,0)"><g id="svga-group-hair-back" transform="matrix(1,0,0,1,0,0)"></g></g><g id="svga-group-humanbody-back"><path id="SvgjsPath128764" d="M166.5 181.1c-10.9-6.6-27.6-8.4-35-12.1-4.9-2.5-9.1-4.7-8.9-17.8s1.9-42.4 1.9-42.4H75.4s1.6 29.4 1.9 42.4-4.2 15.6-8.9 17.8c-7.4 3.5-24.1 5.4-35 12.1-10.8 6.6-10 18.9-10 18.9v19.7h153.3V200c-.1 0 .7-12.3-10.2-18.9z" fill="#f6e4e2" stroke-width="none" opacity="1" stroke="none"></path></g><g id="svga-group-chinshadow-single"><path id="SvgjsPath129006" d="M77.2 155.9c7 5.3 16 11.1 22.8 11.1 6.8 0 15.8-5.8 22.8-11-.1-1.4-.2-3-.2-4.8.2-13.1 1.9-42.4 1.9-42.4H75.4s1.6 29.4 1.9 42.4c0 1.8 0 3.3-.1 4.7z" fill="#d7a19b" stroke-width="none" opacity="0.65" stroke="none"></path></g><g id="svga-group-humanbody-front"><path id="SvgjsPath128765" d="M78.7 156.8c.5 4.8 1.7 9.4 3.1 13.9.8 2.3 1.6 4.6 2.6 6.9.8 2 1.7 4.2 3.1 5.9.3.4 1 0 .9-.5-.5-2.2-1.6-4.3-2.4-6.4-.9-2.2-1.7-4.4-2.5-6.6-1.5-4.4-2.8-8.9-4.1-13.3-.2-.4-.8-.3-.7.1zm41.3-1c-1.3 8.2-3.9 16.1-5.4 24.2-.1.4.4.5.6.2 3.1-7.7 4.1-16.1 5.1-24.3-.1-.2-.3-.2-.3-.1zm-25.8 11.9c-.9 3.6 1.9 8.6 6.2 7.6.5-.1.4-.8 0-1-1.4-.5-2.9-.9-3.9-2.1-1.1-1.2-1.5-2.9-1.4-4.5 0-.4-.8-.5-.9 0z" fill="#d7a19b" stroke-width="none" opacity="1" stroke="none"></path><path id="SvgjsPath128766" d="M177.3 219.7c-.1-6.6-.3-13.1-.3-19.7l-.3-.3c.1 0 .1 0 .2.1s.1.2.1.1v-1.4c0-.5-.1-.9-.1-1.4-.1-.9-.3-1.9-.5-2.8-.5-1.8-1.1-3.6-2-5.3-1.7-3.4-4.4-6.2-7.7-8.1-3.6-2.2-7.6-3.8-11.6-5.1-4-1.3-8.1-2.4-12.1-3.5-4-1.2-8.1-2.2-11.8-4.2-1.9-1-3.6-2.1-4.8-3.6-1.2-1.6-1.9-3.5-2.3-5.5-.8-4-.4-8.2-.3-12.4l.7-12.6 1.5-25.2.1-1.4h-1.4c-8.2 0-16.4 0-24.6.1l-24.6.3h-.9l.1.9c.8 11.9 1.6 23.8 2.1 35.7.1 3 .3 6 .2 8.9-.1 2.9-.4 5.9-1.6 8.6-.6 1.3-1.4 2.5-2.4 3.5s-2.3 1.8-3.6 2.4c-2.6 1.3-5.4 2.2-8.3 3-5.8 1.5-11.6 2.8-17.3 4.7-2.8.9-5.7 2-8.4 3.4-1.3.7-2.7 1.4-4 2.4-1.3.9-2.4 1.9-3.5 3.1-2.1 2.3-3.6 5.2-4.5 8.1-.5 1.5-.8 3-1 4.6-.1.8-.1 1.6-.1 2.4v2.3l-.2 17.9v1.3h1.4l38.3.2c12.8.1 25.5.1 38.3 0 12.8-.1 25.6-.1 38.3-.3 12.8-.2 25.6-.5 38.3-.7h.6v-.5zm-77.2-1.6H61.8l-37 .2-.1-16.6v-2.2c0-.7 0-1.4.1-2.1.1-1.4.4-2.8.8-4.2.8-2.7 2.1-5.3 3.9-7.5.9-1.1 2-2.1 3.1-2.9 1.1-.9 2.4-1.6 3.7-2.3 2.6-1.4 5.3-2.5 8.1-3.5 5.6-2 11.4-3.4 17.1-5.1 2.9-.8 5.8-1.7 8.5-3.1 1.3-.7 2.7-1.5 3.8-2.6 1.1-1.1 2-2.4 2.6-3.9 1.2-2.9 1.5-5.9 1.6-8.9 0-3-.1-6-.2-9l-1.3-34.8 23.5.4c7.7.1 15.4.1 23.1.1-.4 7.9-.8 15.9-1.1 23.8-.2 4.2-.2 8.4-.3 12.6 0 4.2-.2 8.5.8 12.8.5 2.1 1.3 4.2 2.8 6 1.4 1.7 3.4 2.9 5.3 3.8 3.9 1.9 8 2.8 12.1 3.8s8.2 2 12.2 3.3c4 1.3 7.9 2.8 11.5 5 3.2 1.9 5.8 4.7 7.5 8 .9 1.6 1.5 3.4 1.9 5.2.2.9.4 1.8.4 2.7.1.5.1.9.1 1.4V200l-.3 19c-12.6-.2-25.1-.5-37.7-.7-12.7-.1-25.5-.1-38.2-.2z" fill="#c8837c" stroke-width="none" opacity="1" stroke="none"></path></g><g id="svga-group-clothes-single"><path id="SvgjsPath128906" d="M179.3 220.1c0-17.5-1.6-26.7-1.6-26.7-3-14-21.9-18.2-30.7-20.1-15.2-3-20.1-7.2-20.1-7.2s-6.4 16-27.5 16-26.8-16.6-26.8-16.6-5.3 4.1-21.2 7.1c-8.7 1.9-26.3 6.9-29.3 20.9 0 0-1.6 9.2-1.6 26.7h158.8z" fill="#591956" stroke-width="none" opacity="1"></path><path id="SvgjsPath128907" d="M179.6 209.2c-.1-3.6-.2-7.3-.5-10.9l-.3-2.7c-.1-.9-.2-1.8-.4-2.8-.4-1.9-1.1-3.6-2.1-5.3-1.9-3.3-4.9-5.9-8-7.9-3.2-2-6.6-3.5-10.1-4.7-3.5-1.2-7.1-2.1-10.6-2.9-3.5-.7-7-1.6-10.4-2.7-1.7-.6-3.3-1.2-4.9-1.9-.8-.4-1.6-.7-2.4-1.1-.4-.2-.8-.4-1.1-.6-.3-.2-.7-.5-1-.6-.1-.1-.2-.1-.3-.2-.7-.3-1.5 0-1.8.7-.5 1.1-1.2 2.3-1.9 3.4-.8 1.1-1.6 2.1-2.5 3.1-1.8 1.9-3.9 3.6-6.2 5-4.6 2.7-10.1 4-15.5 4.1-5.4.1-11-1-15.7-3.8-4.7-2.8-8.6-7.1-10.7-12.1 0 0 0-.1-.1-.1-.2-.2-.5-.3-.7-.1-1.4 1-3.1 1.8-4.7 2.4-1.7.7-3.4 1.3-5.1 1.8-3.5 1.1-7 1.9-10.5 2.6-7.1 1.5-14.3 3.5-20.6 7.6-3.1 2-6 4.6-7.9 7.9-1 1.6-1.7 3.4-2.2 5.3-.1.2-.1.5-.2.7l-.1.7-.2 1.4-.3 2.7c-.8 7.3-1.1 14.6-1.2 21.9 0 .7.6 1.4 1.3 1.4l40 .2c13.3 0 26.7-.1 39.9-.2l39.8-.3 36.9-.6 2.2-.4c.1-3.8.1-7.3.1-11zm-20.5 10.4-20-.3-39.7-.5c-13.2-.1-26.3-.2-39.4-.2l-38 .2c0-6.8.1-13.6.7-20.3l.3-2.7.1-1.3.1-.7c0-.2.1-.4.1-.6.4-1.6 1-3.3 1.8-4.8 1.7-3 4.2-5.6 7.1-7.6 2.9-2 6.2-3.6 9.5-4.9s6.8-2.3 10.4-3c3.6-.7 7.1-1.6 10.6-2.7 1.7-.6 3.5-1.2 5.2-1.9 1.5-.6 3-1.3 4.5-2.2 1.1 2.5 2.5 4.7 4.2 6.8 1.8 2.2 4 4.1 6.5 5.6 4.9 3.1 10.7 4.4 16.4 4.5 5.7.1 11.6-1 16.7-3.8 2.6-1.4 4.9-3.2 6.9-5.3 1.7-1.8 3.1-3.6 4.3-5.8.4.2.8.5 1.2.7.8.4 1.7.9 2.5 1.2 1.7.8 3.4 1.4 5.2 2 3.5 1.1 7.1 2 10.7 2.7 7 1.4 14 3.3 20.1 6.9 3 1.8 5.7 4.1 7.6 7 .9 1.4 1.6 3.1 2.1 4.7.2.8.3 1.7.4 2.6l.3 2.7c.4 3.6.8 7.2 1 10.8.2 3.6.4 7.3.6 10.8l-20-.6zM38.3 188.5c1.4 3.2 2.4 6.5 3.2 9.9.4 1.7.8 3.4 1.1 5.1.3 1.7.6 3.4.9 5.2.5 3.2 1 6.4 1.4 9.6h.2c.2-3.2.2-6.5 0-9.8-.3-3.5-.8-7.1-1.6-10.6-.4-1.7-.9-3.5-1.5-5.2-.6-1.7-1.3-3.4-2.2-4.9-.8-1.6-1.8-3.1-3-4.5-1-1.1-2-2.2-3.2-3.1-.1 0-.1.1-.2.1 1 1.1 1.8 2.3 2.6 3.5.8 1.5 1.6 3.1 2.3 4.7zm118.3 20.1c.3-1.7.6-3.5.9-5.2.3-1.7.6-3.4 1.1-5.1.8-3.4 1.8-6.7 3.2-9.9.7-1.6 1.5-3.1 2.4-4.6.7-1.1 1.5-2.3 2.4-3.3-.1-.1-.2-.1-.2-.2-1.1.8-2.1 1.8-3 2.9-1.1 1.4-2.1 2.9-3 4.5-.9 1.6-1.6 3.2-2.2 4.9-.6 1.7-1.1 3.4-1.5 5.2-.8 3.5-1.3 7-1.6 10.6-.2 3.5-.3 7.1 0 10.6.5-3.5 1-6.9 1.5-10.4zM116 183.8c-5.2 2.9-11.3 3.9-17.3 3.5-1.5-.1-3-.2-4.5-.4s-2.9-.5-4.4-.9c-1.4-.4-2.8-.9-4.2-1.5-1.3-.6-2.7-1.3-3.9-2.1-2.5-1.6-4.8-3.6-6.7-5.8-2-2.2-3.7-4.7-5-7.3 2 5.6 5.8 10.7 10.9 14.3 2.5 1.8 5.4 3.2 8.4 4.1 1.5.4 3.1.8 4.6 1 1.6.2 3.1.4 4.7.4 3.1.1 6.3 0 9.4-.7 3.1-.7 6.1-1.8 8.8-3.4 2.7-1.6 5.1-3.6 7.2-5.8 2.1-2.2 4-4.6 5.6-7.1-4 4.5-8.3 8.8-13.6 11.7z" fill="#3a0538" stroke-width="none" opacity="1"></path></g><g id="svga-group-head" transform="matrix(1,0,0,1,0,0)"><g id="svga-group-ears-left-move" transform="matrix(1,0,0,1,0,0)"><g id="svga-group-ears-left" transform="matrix(1,0,0,1,0,0)"><path id="SvgjsPath128916" d="M61.3 90s-2.5-2.4-5.4-3.5-6.1.7-7.1 3.7c-1 2.9 1.3 15.1 5 19.5s6.2 4.8 8.7 2.5c2.5-2.3 7-10.8-1.2-22.2z" fill="#f6e4e2" stroke-width="none" opacity="1" stroke="none"></path><path id="SvgjsPath128917" d="M62.6 91.8c.4.6.8 1.3 1.2 1.9.4.6.7 1.4 1.1 2 .3.7.6 1.4.9 2.2.2.8.5 1.5.6 2.4.1.4.2.8.2 1.2l.1 1.2c0 1.7-.2 3.4-.7 4.9-.5 1.6-1.2 3-2.2 4.2-.2.3-.5.6-.8.8-.3.2-.6.5-.9.7-.6.4-1.3.7-2.1.8-.7.1-1.5 0-2.2-.3s-1.3-.7-1.8-1.2c-.6-.5-1.1-1-1.6-1.6s-.9-1.1-1.4-1.8c-1.7-2.6-2.6-5.7-3.4-8.7-.4-1.5-.8-3-1.1-4.6s-.6-3.2-.5-4.9c0-.4.1-.9.2-1.3.1-.2.1-.4.2-.6l.3-.6c.4-.7.9-1.3 1.5-1.8 1.2-1 2.6-1.4 4-1.2.7.1 1.4.3 2 .6.6.3 1.2.7 1.8 1.1 1.2.8 2.3 1.6 3.3 2.6l1.3 2zm-4.7-4.1c-.6-.3-1.2-.6-1.8-.8-.6-.2-1.2-.3-1.8-.3-1.2.1-2.3.6-3.3 1.4-.5.4-.9.9-1.2 1.5-.2.3-.3.6-.4.9-.1.3-.2.6-.2.9-.2 1.4-.1 3 .1 4.6.2 1.5.4 3.1.8 4.6.8 3 1.9 6 3.6 8.2.9 1.1 1.9 2.1 3 2.9s2.2 1.3 3.3 1.1c.5-.1 1.1-.3 1.6-.7.5-.4 1-.8 1.4-1.3.8-1 1.5-2.3 1.9-3.7.5-1.4.7-2.8.7-4.3s-.2-3-.4-4.5c-.6-3-2-5.8-3.7-8.2-1.3-.9-2.4-1.7-3.6-2.3z" fill="#e7c1bd" stroke-width="none" opacity="1" stroke="none"></path><path id="SvgjsPath128918" d="M52.6 89.6c3.3.6 5.4 6.1 6 9.8.1.1.1.2.2.3.4.6-.4 1.2-.8.6-.5-.8-1-1.6-1.8-1.9-1.4-.5-2.1 1.1-1.8 2.6.4 1.9 1.6 3 2.6 4.4.1.1 0 .3-.1.2-1.7-1-4.3-4.8-3.1-7.2.9-1.7 2.3-1.4 3.4-.4-.8-2.1-1.4-4.3-3-5.9-.5-.5-1.5-1.4-2.2-1.3-1.3.2-1.3 2.1-1.3 3.4-.1 1.7.1 3.4.4 5 0 .2-.2.2-.3.1-.7-2.4-2-10.4 1.8-9.7z" fill="#d7a19b" stroke-width="none" opacity="1" stroke="none"></path></g></g><g id="svga-group-ears-right-move" transform="matrix(1,0,0,1,0,0)"><g id="svga-group-ears-right" transform="matrix(1,0,0,1,0,0)"><path id="SvgjsPath128919" d="M138.7 90s2.5-2.4 5.4-3.5 6.1.7 7.1 3.7c1 2.9-1.3 15.1-5 19.5s-6.2 4.8-8.7 2.5c-2.5-2.3-7-10.8 1.2-22.2z" fill="#f6e4e2" stroke-width="none" opacity="1" stroke="none"></path><path id="SvgjsPath128920" d="M138.6 89.9c1.1-1 2.2-1.8 3.3-2.6.6-.4 1.2-.7 1.8-1.1.6-.3 1.3-.6 2-.6 1.4-.2 2.8.3 4 1.2.6.5 1.1 1.1 1.5 1.8l.3.6c.1.2.2.4.2.6.1.4.2.9.2 1.3.1 1.7-.2 3.3-.5 4.9s-.7 3.1-1.1 4.6c-.9 3-1.8 6-3.4 8.7-.4.7-.9 1.2-1.4 1.8-.5.6-1 1.1-1.6 1.6s-1.2.9-1.8 1.2c-.7.3-1.4.4-2.2.3-.7-.1-1.4-.4-2.1-.8-.3-.2-.6-.4-.9-.7-.3-.3-.6-.5-.8-.8-1-1.2-1.7-2.6-2.2-4.2s-.7-3.3-.7-4.9l.1-1.2c0-.4.1-.8.2-1.2.1-.8.4-1.6.6-2.4.3-.7.6-1.5.9-2.2.4-.7.7-1.4 1.1-2 .4-.6.8-1.3 1.2-1.9l1.3-2zm.1.1c-1.7 2.4-3 5.2-3.7 8.2-.3 1.5-.5 3-.4 4.5s.3 2.9.7 4.3 1.1 2.6 1.9 3.7c.4.5.8 1 1.4 1.3.5.4 1 .6 1.6.7 1.1.2 2.2-.3 3.3-1.1 1-.8 2.1-1.8 3-2.9 1.7-2.3 2.8-5.2 3.6-8.2.4-1.5.6-3.1.8-4.6s.3-3.1.1-4.6c0-.4-.1-.6-.2-.9-.1-.3-.3-.6-.4-.9-.3-.6-.7-1-1.2-1.5-.9-.8-2.1-1.3-3.3-1.4-.6 0-1.2.1-1.8.3-.6.2-1.2.5-1.8.8-1.4.6-2.5 1.4-3.6 2.3z" fill="#e7c1bd" stroke-width="none" opacity="1" stroke="none"></path><path id="SvgjsPath128921" d="M147.4 89.6c-3.3.6-5.4 6.1-6 9.8-.1.1-.1.2-.2.3-.4.6.4 1.2.8.6.5-.8 1-1.6 1.8-1.9 1.4-.5 2.1 1.1 1.8 2.6-.4 1.9-1.6 3-2.6 4.4-.1.1 0 .3.1.2 1.7-1 4.3-4.8 3.1-7.2-.9-1.7-2.3-1.4-3.4-.4.8-2.1 1.4-4.3 3-5.9.5-.5 1.5-1.4 2.2-1.3 1.3.2 1.3 2.1 1.3 3.4.1 1.7-.1 3.4-.4 5 0 .2.2.2.3.1.7-2.4 2-10.4-1.8-9.7z" fill="#d7a19b" stroke-width="none" opacity="1" stroke="none"></path></g></g><g id="svga-group-faceshape-wrap" transform="matrix(1,0,0,1,0,0)"><g id="svga-group-faceshape-single"><path id="SvgjsPath128996" d="M100 35.3c-22.5 0-41.9 16.4-43.2 46.4v.3c0 2.6-.1 24.7 2.4 38.5 1.6 8.4 4.2 11.1 11.1 16.8 6.8 5.6 20.3 16.6 29.7 16.6s22.8-11 29.7-16.6c6.8-5.6 9.5-8.4 11.1-16.8 2.6-13.8 2.4-35.9 2.4-38.5v-.3c-1.3-29.9-20.7-46.4-43.2-46.4z" fill="#f6e4e2" stroke-width="none" opacity="1" stroke="none"></path><path id="SvgjsPath128997" d="M143.2 82v-.3c-1.3-29.9-20.7-46.4-43.2-46.4S58.1 51.7 56.8 81.7v.3c0 2.6-.1 24.7 2.4 38.5 1.6 8.4 4.2 11.1 11.1 16.8 6.8 5.6 20.3 16.6 29.7 16.6s22.8-11 29.7-16.6c6.8-5.6 9.5-8.4 11.1-16.8 2.6-13.8 2.4-35.9 2.4-38.5zm-3.3 10.9c-.2 6.7-.6 14.5-1.3 21.1-.2 1.7-.4 3.3-.7 4.9-.2 1.6-.6 3.2-1 4.6-.4 1.5-1 2.8-1.7 4s-1.7 2.4-2.8 3.5c-2.2 2.2-4.9 4.4-7.5 6.6-2.6 2.2-5.2 4.2-7.9 6.2s-5.4 3.8-8.3 5.4c-2.9 1.5-5.9 2.8-8.9 3-3 0-6.2-.9-9.2-2.3-3-1.4-5.9-3.1-8.8-4.9-2.8-1.9-5.5-3.9-8.2-6-2.6-2.1-5.3-4.3-7.7-6.6-1.2-1.2-2.2-2.5-3-3.8-.8-1.4-1.4-2.9-1.8-4.4-.4-1.6-.7-3.2-.9-4.9-.2-1.7-.4-3.3-.5-5-.5-6.7-.5-14.5-.5-21.3V82.8c.1-3.2.4-6.5 1-9.7 1.1-6.4 3.1-12.7 6.4-18.4 3.3-5.6 8-10.6 13.8-14 5.8-3.3 12.6-5.1 19.4-5.1 6.8.1 13.5 1.8 19.3 5.2 5.8 3.4 10.4 8.4 13.7 14 3.3 5.7 5.2 12 6.2 18.4.5 3.2.8 6.4.8 9.6.3 3.4.2 6.7.1 10.1z" fill="#c8837c" stroke-width="none" opacity="1" stroke="none"></path></g></g><g id="svga-group-mouth-single-move" transform="matrix(1,0,0,1,0,0)"><g id="svga-group-mouth-single" transform="matrix(1,0,0,1,0,0)"><path id="SvgjsPath129108" d="M105.48 122.03c-2.25.26-3.67 1.47-5.39 3.22-1.68-1.82-3.12-2.77-4.87-3.05-2.04-.11-5.99 1.37-10.41 2.14 2.63.48 4.44.77 7.07.63 3.49-.18 5.3.13 7.81 2.24.18.13.69.15.9-.06.8-.6 1.54-1.01 2.41-1.48 1.54-.85 2.74-1.06 4.06-1.15 3.92.07 5.28.94 8.67.31-3.8-.81-6.7-2.91-10.25-2.8z" fill="#E2929B" stroke-width="none" opacity="1" transform="translate(0 2)" stroke="none"></path><path id="SvgjsPath129109" d="M87.19 129.49c-.34 5.89 9.78 2.96 12.68 2.78 3.32-.21 6.74.37 10.02.06 1.84-.17 3.32-1.17 3.21-3.15-.02-.36-.19-1.97-.22-1.57-.28 4.28-5.36 3.53-7.52 3.47a55.82 55.82 0 0 0-5.49.11c-3.47.24-11.26 1.82-12.45-2.79-.06-.26-.21.84-.23 1.09z" fill="#d7a19b" stroke-width="none" opacity="1" transform="translate(0 2)" stroke="none"></path></g></g><g id="svga-group-eyes-left-move" transform="matrix(1,0,0,1,0,0)"><g id="svga-group-eyes-left" transform="matrix(1,0,0,1,0,0)"><g id="svga-group-eyesback-left"><path id="SvgjsPath128948" d="M89.7 96.1s-1.3-3.1-3.3-4.7c-1.9-1.6-5.1-3.9-9.7-1.9s-6.5 5.7-6.5 5.7.7 2.7 2 3.9c1.3 1.2 4 2.7 8.4 2.1 4.5-.6 6.6-2 7.3-2.7.8-.6 1.8-2.4 1.8-2.4z" fill="#ffffff" stroke-width="none" opacity="1"></path></g><g id="svga-group-eyesiriswrapper-left" transform="matrix(1,0,0,1,0,0)"><g id="svga-group-eyesiriscontrol-left" transform="matrix(1,0,0,1,0,0)"><g id="svga-group-eyesiris-left" transform="matrix(1,0,0,1,0,0)"><path id="SvgjsPath129010" d="M80.1 88.4c2.8 0 5.2 2.3 5.2 5.2s-2.3 5.2-5.2 5.2-5.2-2.3-5.2-5.2 2.3-5.2 5.2-5.2z" fill="#9b1d1b" stroke-width="none" opacity="1"></path><path id="SvgjsPath129011" d="M80.1 90.8c1.5 0 2.8 1.2 2.8 2.8s-1.2 2.8-2.8 2.8-2.8-1.2-2.8-2.8 1.2-2.8 2.8-2.8z" fill="#000000" stroke-width="none" opacity="1"></path><path id="SvgjsPath129012" d="m79.4 91.3-.6-.6c-.2-.2-.4-.3-.7-.3-.2 0-.5.1-.7.3-.2.2-.3.4-.3.7s.1.5.3.7l.6.6c.2.2.4.3.7.3.2 0 .5-.1.7-.3.3-.5.4-1.1 0-1.4zm2.5 4.7c.9 0 .9-1.4 0-1.4s-.8 1.4 0 1.4z" fill="#ffffff" stroke-width="none" opacity="1"></path></g></g></g><g id="svga-group-eyesfront-left"><path id="SvgjsPath128956" d="M69.4 94.6c0 6.4 4.7 11.5 10.6 11.5s10.6-5.2 10.6-11.5S85.9 83.1 80 83.1s-10.6 5.1-10.6 11.5zm2.9 4.5c-1.3-1.2-2-3.9-2-3.9s1.9-3.8 6.5-5.7 7.8.3 9.7 1.9c1.9 1.6 3.3 4.7 3.3 4.7s-1 1.8-1.7 2.4c-.7.6-2.9 2.1-7.3 2.7-4.6.6-7.2-.9-8.5-2.1z" fill="#f6e4e2" stroke-width="none" opacity="1" stroke="none"></path><path id="SvgjsPath128957" d="M90.5 97.3c-1.1-5.1-4.1-10.3-9.7-11.1-6.2-.9-8.8 4.5-10.9 9.2-.1.2-.4.1-.4-.2.9-5.4 5.5-10.5 11.3-9.7 5.8.9 8.9 6.4 9.9 11.6 0 .3-.2.4-.2.2z" fill="#e7c1bd" stroke-width="none" opacity="1" stroke="none"></path><path id="SvgjsPath128958" d="M90.3 98.3c-2-4.7-5.1-9.3-10.9-8.7-5.5.6-8 5.2-11 9.1-.2.3-.8 0-.7-.4 1.8-4.8 6.6-9.9 12.1-10 5.4-.1 10.1 4.7 10.9 9.9 0 .1-.3.3-.4.1z" fill="#582311" stroke-width="none" opacity="1" stroke="none"></path><path id="SvgjsPath128959" d="M89.5 96.7c-1.3 4.1-7.9 5.2-11.6 5-3.6-.2-8-2.7-7.9-6.8 0-.3.5-.4.5-.1.9 4.1 4.1 6.2 8.3 6.1 3.6-.1 8.4-1 10.3-4.4.2-.1.5 0 .4.2z" fill="#582311" stroke-width="none" opacity="1" stroke="none"></path></g></g></g><g id="svga-group-eyes-right-move" transform="matrix(1,0,0,1,0,0)"><g id="svga-group-eyes-right" transform="matrix(1,0,0,1,0,0)"><g id="svga-group-eyesback-right"><path id="SvgjsPath128949" d="M110.3 96.1s1.3-3.1 3.3-4.7c1.9-1.6 5.1-3.9 9.7-1.9s6.5 5.7 6.5 5.7-.7 2.7-2 3.9c-1.3 1.2-4 2.7-8.4 2.1-4.5-.6-6.6-2-7.3-2.7-.8-.6-1.8-2.4-1.8-2.4z" fill="#ffffff" stroke-width="none" opacity="1"></path></g><g id="svga-group-eyesiriswrapper-right" transform="matrix(1,0,0,1,0,0)"><g id="svga-group-eyesiriscontrol-right" transform="matrix(1,0,0,1,0,0)"><g id="svga-group-eyesiris-right" transform="matrix(1,0,0,1,0,0)"><path id="SvgjsPath129013" d="M119.9 88.4c2.8 0 5.2 2.3 5.2 5.2s-2.3 5.2-5.2 5.2-5.2-2.3-5.2-5.2 2.4-5.2 5.2-5.2z" fill="#9b1d1b" stroke-width="none" opacity="1"></path><path id="SvgjsPath129014" d="M119.9 90.8c1.5 0 2.8 1.2 2.8 2.8s-1.2 2.8-2.8 2.8-2.8-1.2-2.8-2.8 1.3-2.8 2.8-2.8z" fill="#000000" stroke-width="none" opacity="1"></path><path id="SvgjsPath129015" d="m119.3 91.3-.6-.6c-.2-.2-.4-.3-.7-.3-.2 0-.5.1-.7.3-.2.2-.3.4-.3.7s.1.5.3.7l.6.6c.2.2.4.3.7.3.2 0 .5-.1.7-.3.3-.5.4-1.1 0-1.4zm2.5 4.7c.9 0 .9-1.4 0-1.4s-.9 1.4 0 1.4z" fill="#ffffff" stroke-width="none" opacity="1"></path></g></g></g><g id="svga-group-eyesfront-right"><path id="SvgjsPath128960" d="M120 83.1c-5.9 0-10.6 5.2-10.6 11.5s4.7 11.5 10.6 11.5 10.6-5.2 10.6-11.5-4.8-11.5-10.6-11.5zm-.7 18.1c-4.5-.6-6.6-2-7.3-2.7-.7-.6-1.7-2.4-1.7-2.4s1.3-3.1 3.3-4.7c1.9-1.6 5.1-3.9 9.7-1.9s6.5 5.7 6.5 5.7-.7 2.7-2 3.9-4 2.7-8.5 2.1z" fill="#f6e4e2" stroke-width="none" opacity="1" stroke="none"></path><path id="SvgjsPath128963" d="M109.5 97.3c1.1-5.1 4.1-10.3 9.7-11.1 6.2-.9 8.8 4.5 10.9 9.2.1.2.4.1.4-.2-.9-5.4-5.5-10.5-11.3-9.7-5.8.9-8.9 6.4-9.9 11.6 0 .3.2.4.2.2z" fill="#e7c1bd" stroke-width="none" opacity="1" stroke="none"></path><path id="SvgjsPath128964" d="M109.7 98.3c2-4.7 5.1-9.3 10.9-8.7 5.5.6 8 5.2 11 9.1.2.3.8 0 .7-.4-1.8-4.8-6.6-9.9-12.1-10-5.4-.1-10.1 4.7-10.9 9.9 0 .1.3.3.4.1z" fill="#582311" stroke-width="none" opacity="1" stroke="none"></path><path id="SvgjsPath128965" d="M110.5 96.7c1.3 4.1 7.9 5.2 11.6 5 3.6-.2 8-2.7 7.9-6.8 0-.3-.5-.4-.5-.1-.9 4.1-4.1 6.2-8.3 6.1-3.6-.1-8.4-1-10.3-4.4-.2-.1-.5 0-.4.2z" fill="#582311" stroke-width="none" opacity="1" stroke="none"></path></g></g></g><g id="svga-group-facehighlight-single"></g><g id="svga-group-eyebrows-left-move" transform="matrix(1,0,0,1,0,0)"><g id="svga-group-eyebrows-left-rotate" transform="matrix(1,0,0,1,0,0)"><g id="svga-group-eyebrows-left" transform="matrix(1,0,0,1,0,0)"><path id="SvgjsPath128882" d="M68.7 78.8c1-1.2 3-3.5 4.8-3.1.5-.3 1-.7 1.6-.9 2.6-1.1 8-1.1 9.8 1.4 0 0 0 .1.1.1 1.2.5 2.3 1.3 3 2.3l.1.1c.2.2.5.4.7.6v-.1c.1-.2.4-.4.6-.2.5.3.7.9.8 1.6.9 1 1.2 2.8.2 3.8-.6.6-1.4.9-2.2 1.1-.7.1-1.5.3-2.1.1-1.2.4-2.4.7-3.8.8-.4 0-.8-.2-1-.5-1 .4-2.4.4-3.4 0-1.8.2-3.4.5-5.2.3-1-.1-2.2 0-3.1-.4-.6.1-1.2 0-1.7-.2-.3.2-.7.3-1 .1-.1 0-.1-.1-.2-.1-.1-.1-.2-.1-.3-.2-.2-.2-.3-.4-.4-.6-.1-.1-.2-.2-.2-.4v-.3c-.1-1.8 1.8-4 2.9-5.3z" fill="#080806" stroke-width="none" opacity="1"></path><path id="SvgjsPath128883" d="M80.8 85.4c1.3-1 2.4-1.8 3.3-3.3.4-.7.8-1.5 1-2.3.1-.3.5-2.6 0-2.7-.1 0-.2-.2-.1-.2l.2-.2c.1-.1.3-.1.4.1 1.5 2.9-1.1 8.6-4.5 9.1-.4 0-.6-.4-.3-.5zm3.4.4c.8-.9 1.8-1.5 2.6-2.4 1-1.2 1.6-2.6 1.8-4.1 0-.2.3-.3.4-.1.4 2.9-1.9 6-4.5 6.9-.3.2-.5-.1-.3-.3zm1.6-.1c1.7-1 3.2-2 4.3-3.7.1-.1.4-.1.3.1-.7 1.9-2.4 3.6-4.4 4-.2 0-.4-.3-.2-.4zm-8.7-10.3c-.2-.3.2-.5.4-.3 3.2 2.6 3.4 7.2 1.3 10.7-.1.2-.4.1-.3-.1.6-1.7 1-3.6.9-5.4 0-2-1.2-3.2-2.3-4.9zm-5 2.2c2.6 1.7 4.2 5.3 3.5 8.3-.1.2-.4.2-.4-.1-.1-3.3-1.1-5.6-3.4-7.9-.2-.1.1-.4.3-.3zm-2.5 6.8c.3 0 .7.3.9.6.2.3.4.6.6 1 .1.3-.4.4-.5.1-.1-.3-.3-.6-.5-.8-.2-.2-.5-.3-.6-.6-.2-.1-.1-.3.1-.3z" fill="#171714" stroke-width="none" opacity="1"></path><path id="SvgjsPath128884" d="M65.4 84.6c.4 2.1 3.1 2.2 4.8 2.1 3 0 5.9-.1 8.9-.1 2.3 0 6.6.5 9.2-.8 2.2.1 4.4-2.8 3.6-4.9-.1-.2-.4-.2-.4 0-.1.7-.2 1.3-.4 2-.1-1.6-.7-3.5-1.9-4.4v-.1c0-.3-.3-.3-.5-.1-.1.1-.2.3-.2.4-1.2-1.8-3.4-3.1-5.3-3.8-2.3-.9-4.9-1.2-7.3-.7-4.6.9-9.4 4.9-10.1 9.7 0 .3.4.6.5.2 1.8-4.3 4.6-7.8 9.4-9 2.2-.5 4.6-.3 6.8.4.4 2.3.9 4.6.1 6.8-.6 1.6-1.8 2.7-3.2 3.5H77c.8-1.4 1.1-3.3.2-4.8-.1-.2-.5-.1-.4.2.3 1.7.3 3.1-.5 4.6h-3.9c-2.3 0-4.8.4-6.4-1.6-.2-.3-.6 0-.6.4zm19 1.2h-.8c2.3-1.7 4.1-5.2 2.9-7.7-.1-.1-.3-.1-.3 0-.2 1.5-.1 2.9-.8 4.3-.7 1.5-1.7 2.4-3 3.3h-1.3c1-.7 1.7-1.8 2.2-2.8 1-2.2.9-4.9 0-7.2.9.4 1.8.8 2.6 1.4.9.6 1.6 1.5 2.4 2.2v.2c0 .3.3.3.5.1l.1-.1c.1-.1.1-.2.1-.3.4.6.8 1.2 1 1.9.3.9.4 1.8.4 2.7-.2.3-.5.5-.8.7.3-.4.5-1 .6-1.6.1-.3-.4-.4-.5-.1-.3 2.6-3 3-5.3 3z" fill="#000000" stroke-width="none" opacity="1"></path></g></g></g><g id="svga-group-eyebrows-right-move" transform="matrix(1,0,0,1,0,0)"><g id="svga-group-eyebrows-right-rotate" transform="matrix(1,0,0,1,0,0)"><g id="svga-group-eyebrows-right" transform="matrix(1,0,0,1,0,0)"><path id="SvgjsPath128885" d="M131.3 78.8c-1-1.2-3-3.5-4.8-3.1-.5-.3-1-.7-1.6-.9-2.6-1.1-8-1.1-9.8 1.4 0 0 0 .1-.1.1-1.2.5-2.3 1.3-3 2.3l-.1.1c-.2.2-.5.4-.7.6v-.1c-.1-.2-.4-.4-.6-.2-.5.3-.7.9-.8 1.6-.9 1-1.2 2.8-.2 3.8.6.6 1.4.9 2.2 1.1.7.1 1.5.3 2.1.1 1.2.4 2.4.7 3.8.8.4 0 .8-.2 1-.5 1 .4 2.4.4 3.4 0 1.8.2 3.4.5 5.2.3 1-.1 2.1 0 3.1-.4.6.1 1.2 0 1.7-.2.3.2.7.3 1 .1.1 0 .1-.1.2-.1.1-.1.2-.1.3-.2.2-.2.3-.4.4-.6.1-.1.2-.2.2-.4v-.3c.1-1.8-1.8-4-2.9-5.3z" fill="#080806" stroke-width="none" opacity="1"></path><path id="SvgjsPath128886" d="M119.2 85.4c-1.3-1-2.4-1.8-3.3-3.3-.4-.7-.8-1.5-1-2.3-.1-.3-.5-2.6 0-2.7.1 0 .2-.2.1-.2l-.2-.2c-.1-.1-.3-.1-.4.1-1.5 2.9 1.1 8.6 4.5 9.1.4 0 .6-.4.3-.5zm-3.4.4c-.8-.9-1.8-1.5-2.6-2.4-1-1.2-1.6-2.6-1.8-4.1 0-.2-.3-.3-.4-.1-.4 2.9 1.9 6 4.5 6.9.3.2.5-.1.3-.3zm-1.6-.1c-1.7-1-3.2-2-4.3-3.7-.1-.1-.4-.1-.3.1.7 1.8 2.4 3.6 4.4 3.9.2.1.4-.2.2-.3zm8.7-10.3c.2-.3-.2-.5-.4-.3-3.2 2.6-3.4 7.2-1.3 10.7.1.2.4.1.3-.1-.6-1.7-1-3.6-.9-5.4 0-2 1.2-3.2 2.3-4.9zm5 2.2c-2.6 1.7-4.2 5.3-3.5 8.3.1.2.4.2.4-.1.1-3.3 1.1-5.6 3.4-7.9.2-.1-.1-.4-.3-.3zm2.5 6.8c-.4 0-.7.3-.9.6-.2.3-.4.6-.6 1-.1.3.4.4.5.1.1-.3.3-.6.5-.8.2-.2.5-.3.6-.6.2-.1.1-.3-.1-.3z" fill="#171714" stroke-width="none" opacity="1"></path><path id="SvgjsPath128887" d="M133.9 84.2c-1.6 2-4.1 1.6-6.4 1.6h-3.9c-.8-1.5-.8-2.9-.5-4.6 0-.2-.3-.4-.4-.2-.9 1.4-.7 3.4.2 4.8h-2.4c-1.4-.8-2.6-1.9-3.2-3.5-.9-2.3-.3-4.5.1-6.8 2.2-.7 4.6-.9 6.8-.4 4.7 1.2 7.5 4.7 9.4 9 .1.3.6.1.5-.2-.7-4.8-5.5-8.8-10.1-9.7-2.4-.5-5-.2-7.3.7-1.8.7-4.1 2.1-5.3 3.8-.1-.2-.1-.3-.2-.4-.2-.2-.5-.1-.5.1v.1c-1.2.9-1.8 2.8-1.9 4.4-.2-.6-.3-1.3-.4-2 0-.2-.3-.2-.4 0-.8 2.1 1.4 4.9 3.6 4.9 2.6 1.3 6.9.8 9.2.8 3 0 5.9.1 8.9.1 1.7 0 4.3 0 4.8-2.1.1-.4-.3-.7-.6-.4zm-23.8-1.4c-.1-.3-.5-.2-.5.1.1.6.3 1.2.6 1.6-.3-.2-.5-.4-.8-.7 0-.9.1-1.8.4-2.7.2-.7.7-1.3 1-1.9 0 .1.1.2.1.3 0 .1 0 .1.1.1.2.2.5.2.5-.1v-.2c.8-.7 1.5-1.5 2.4-2.2.8-.6 1.7-1 2.6-1.4-.8 2.3-.9 5 0 7.2.5 1.1 1.2 2.1 2.2 2.8h-1.3c-1.2-.9-2.3-1.9-3-3.3-.7-1.4-.6-2.8-.8-4.3 0-.2-.3-.2-.3 0-1.2 2.5.6 6.1 2.9 7.7h-.8c-2.1 0-4.8-.4-5.3-3z" fill="#000000" stroke-width="none" opacity="1"></path></g></g></g><g id="svga-group-beardwrap" transform="matrix(1,0,0,1,0,0)"><g id="svga-group-beard-single-move" transform="matrix(1,0,0,1,0,0)"><g id="svga-group-beard-single" transform="matrix(1,0,0,1,0,0)"></g></g></g><g id="svga-group-mustache-single-move" transform="matrix(1,0,0,1,0,0)"><g id="svga-group-mustache-single" transform="matrix(1,0,0,1,0,0)"></g></g><g id="svga-group-nose-single-move" transform="matrix(1,0,0,1,0,0)"><g id="svga-group-nose-single" transform="matrix(1,0,0,1,0,0)"><path id="SvgjsPath129080" d="M102.45 100.66c.12 1.28.05 5.25.48 6.39.43 1.14.81 1.43 2 .43s2.34-.57 3.05 1c.72 1.57 1.34 4.34.38 6.2-.95 1.86-1.86.57-2.77.52-.91-.05-1.96.72-2.24 2.29-.29 1.57-.91 4.05-2.48 4.34s-3.24-1-3.86-2.62c-.62-1.62-.76-4.44-1.76-4.86-1-.43-2.77 1.05-3.29.95-.52-.1-1.05-3.1-.76-5.15.29-2.05.67-3.05 2.24-3.15 1.57-.1 2.36 1.82 2.87 1.51.51-.32.75-1.46.89-2.89s-.1-3.72-.14-4.58c-.05-.86 1.1-2.19 2.77-2.19 1.67-.01 2.53.76 2.62 1.81z" fill="#f6e4e2" stroke-width="none" opacity="1" transform="translate(0 1)" stroke="none"></path><path id="SvgjsPath129081" d="M95.45 108.01c.11.11.47.55.58.66.04.04.08.04.13.04-.12.36-.25.73-.4 1.1-.1.24.29.39.42.18 2.18-3.58 1.35-7.86.86-11.78-.61-4.9.04-9.15 1.26-13.88.02-.08-.1-.13-.13-.06-1.75 3.52-2.16 7.85-1.85 11.72.34 4.3 1.18 8.3-.05 12.41-.69-1.49-2.79-2.57-4.15-1.24-1.68 1.63-1.47 5.74-.84 7.75.08.26.54.23.5-.07-.18-1.62-.39-3.14-.14-4.77.06-.41.12-.84.25-1.24.29-.93.34-.97 1.37-1.35 1.13-.44 1.36-.28 2.19.53z" fill="#c8837c" stroke-width="none" opacity="1" transform="translate(0 1)" stroke="none"></path><path id="SvgjsPath129082" d="M97.19 116.41c.16.16.39.03.41-.17.3-2.38-3.97-3.61-5.11-1.55-.1.18.06.38.26.34.94-.2 1.74-.63 2.71-.21.74.32 1.17 1.04 1.73 1.59z" fill="#c8837c" stroke-width="none" opacity="1" transform="translate(0 1)" stroke="none"></path><path id="SvgjsPath129083" d="M104.81 114.92c-.65.22-1.31.72-1.4 1.43-.03.24.31.34.46.19.4-.39.69-.79 1.28-.91.46-.1.96.17 1.38-.03.1-.05.14-.18.12-.28-.2-.7-1.32-.58-1.84-.4z" fill="#c8837c" stroke-width="none" opacity="1" transform="translate(0 1)" stroke="none"></path><path id="SvgjsPath129084" d="M108.1 107.93c-1.02-1.89-2.69-1.75-3.75.07-.07.12.09.25.19.15.89-.88 2.22-1.16 3.04.09.38.58.58 1.39.72 2.06.32 1.6-.01 2.99-.3 4.56-.05.27.33.48.48.2 1.13-2.13.74-5.07-.38-7.13z" fill="#c8837c" stroke-width="none" opacity="1" transform="translate(0 1)" stroke="none"></path><path id="SvgjsPath129085" d="M102.81 106.05c-.08-3.69.08-7.29.65-10.95.01-.07-.09-.11-.11-.03-1.24 3.55-1.51 7.32-.69 11 .02.09.16.07.15-.02z" fill="#c8837c" stroke-width="none" opacity="1" transform="translate(0 1)" stroke="none"></path><path id="SvgjsPath129086" d="M103.19 117c-.36 1.79-.83 4.54-3.14 4.5-.87-.02-1.04-.18-1.59-.8-.36-.41-.66-.87-.95-1.33-.56-.89-1.02-1.85-1.36-2.84-.05-.16-.28-.09-.25.07.38 1.99 1.7 6.22 4.39 5.98 2.37-.2 4.03-3.49 3.32-5.59-.05-.18-.37-.22-.42.01z" fill="#c8837c" stroke-width="none" opacity="1" transform="translate(0 1)" stroke="none"></path><path id="SvgjsPath129087" d="M107.18 109.2c-.8-.84-2.02-1.05-2.81-.13-.18.21-.01.6.29.5.58-.18 1.39.22 1.67.72.4.72.09 1.54.38 2.26.12.32.59.56.86.23.78-.96.43-2.72-.39-3.58z" fill="#fef7f6" stroke-width="none" opacity="1" transform="translate(0 1)" stroke="none"></path><path id="SvgjsPath129088" d="M102.78 110.71c-.06-2.52-.74-5.04-1.22-7.5-.57-2.89.87-5.37 1.05-8.22.17-2.63-.32-5.27-1-7.8-.12-.46-.75-.25-.69.19.42 2.93 1.12 5.91.64 8.88-.35 2.2-1.31 4.26-1.54 6.49-.24 2.38.21 4.85.14 7.24-.04 1.19.01 2.38-.04 3.57-.06 1.26-.36 2.54.07 3.75.17.48.88.82 1.27.33 1.36-1.7 1.38-4.81 1.32-6.93z" fill="#fef7f6" stroke-width="none" opacity="1" transform="translate(0 1)" stroke="none"></path></g></g><g id="svga-group-hair-front" transform="matrix(1,0,0,1,0,0)"><path id="SvgjsPath129129" d="M66 52.6s1.6-4.2 4.9-7.2 7.6-6.3 16.1-9.6 19.7-3.2 31.1 2.5 13 10.3 13 10.3-3.8-3.1-9.4-2.3-12.1 9.4-16.2 10.1c-4.2.7-10.3-.2-18.9-4.9S70.7 45.8 66 52.6z" fill="#080806" stroke-width="none" opacity="1" stroke="none"></path><path id="SvgjsPath129130" d="M111.6 51c-.1.1-.2.2-.3.2 3.6-4 4.5-10.6.2-14.5-.3-.2-.6.1-.4.4 3.8 4.7 2.5 9.8-.6 14.5v.2c-.4.3-.8.5-1.2.8 3.6-5.9 1.1-14.1-4.1-18.7-.3-.3-.7.1-.4.4 5.1 5.9 6.4 12.7 2.6 19.4-1.3.7-2.6 1.3-4 1.7 4.4-6 3.8-15-1-20.6-.2-.3-.6.1-.5.4 3.9 7.3 3.7 13.3.2 20.5-.5.1-1 .1-1.4.2 3.6-6.4 1.3-16.8-2-22.8-.2-.3-.7-.1-.6.2 2.7 6.8 5.3 15.6 1.9 22.6-.9 0-1.9-.1-3-.3-7.5-4.5-7.8-11.8-8-20.1 0-.2-.3-.2-.3 0-.8 5.2-.3 12.4 3 17-1.4-1-2.8-2-4-3.4-2.6-2.8-3.9-6-5.5-9.4-.1-.2-.3 0-.3.1.6 4.2 3.5 8.9 7.2 12.1-2-1.3-3.9-2.6-6.1-3.6 0 0 0-.1-.1-.1-2.4-1.7-4.6-3.4-6.6-5.6-.1-.2-.4 0-.3.2 1.1 1.8 2.7 3.5 4.5 4.7-4.4-1.2-9.4-.4-12.8 2.7-.2.1.1.4.2.2 9.3-7.7 18.3 3.3 26.8 6.3 7.1 2.5 12-.2 17.2-5.1.3-.4 0-.8-.3-.6zm8.1-10.1c0-.2-.3-.2-.3 0-.3 1.5-.4 2.8-1.1 4.2-.7 1.3-1.8 2.3-2.8 3.3-.1.1 0 .3.2.2 2.4-1.5 4.9-4.6 4-7.7zm9.5 6.4c-2.6-1.9-7-2.5-9.9-.9-.1.1 0 .2.1.2 3.4-.8 6.4.2 9.7 1 .2.1.3-.2.1-.3z" fill="#000000" stroke-width="none" opacity="1" stroke="none"></path><path id="SvgjsPath129131" d="M92 39.7s-6 .4-8.5-4.5-.8-9.3 4.3-12.1c5.1-2.9 11.2-3.3 16.1-.7s6 6.9 4.6 10.4-4.3 5.8-7.2 6.8c-3 1-9.3.1-9.3.1z" fill="#080806" stroke-width="none" opacity="1" stroke="none"></path><path id="SvgjsPath129132" d="M106.8 34.2c-3.4 6-10.7 6.6-16.7 4.6 0-.1 0-.1-.1-.2-3.6-1.6-5.8-4.7-4.3-8.8 1.1-3 3.7-4.6 6.6-5.4l-.9 1.2c-1.9 3.1-1.1 7.4 2.2 9.2 3.6 2 9 1.4 11.9-1.6 2.6-2.7 2.8-7.3-.4-9.6-.3-.2-.6.2-.3.5 6.6 7.4-6.5 14.7-12.1 8.9-2.4-2.5-1.7-6.4.6-8.7.1-.1.3-.2.4-.3h.2c.1 0 .2-.1.2-.3 2.2-1.7 5.1-2.1 7.8-1.9.1 0 .1-.2 0-.2-.6-.1-1.2-.2-1.8-.2l-.1-.1c-4.1-1.4-9.1-.6-12.5 2-.2.1 0 .4.2.3 3.4-1.5 6.4-2.1 9.9-2.1-1.6.3-3.1.9-4.4 1.9-4.3.3-8.3 3-9 7.6-.4 2.7.8 5.6 3.1 7 4.8 4.6 18.8 4 20.1-3.8 0-.1-.4-.3-.6 0zM86.2 38c-4.1-2.7-5-7.6-1.9-11.4.1-.2-.1-.4-.2-.2-3.8 3.6-2.9 9.8 2 11.9.1 0 .3-.2.1-.3zm16.9-10.1c-1.6.6-3.7.9-5-.5-.6-.6-.9-1.5-.7-2.4.3-1 1.6-2.3 2.7-2.2.3 0 .3-.5 0-.5-2.3-.1-4.2 2.6-3.3 4.7 1.2 2.6 4.3 2.5 6.3 1.2.3-.1.2-.4 0-.3z" fill="#000000" stroke-width="none" opacity="1" stroke="none"></path><path id="SvgjsPath129133" d="M99 33c-1.9-.5-3.8-1.4-4.5-3.5-.8-2.4.4-4.5 2.3-5.9.2-.2.1-.6-.2-.5-5.5 2-3.6 11.4 2.4 10.2.2 0 .2-.3 0-.3zm-2.9.4c-1.5-.7-2.8-1.6-3.1-3.4-.3-1.4-.3-3.8.7-4.8.1-.1 0-.2-.1-.1-1.3 1.1-1.4 3.2-1.1 4.8.3 2 1.6 3.3 3.5 3.8.2.1.3-.2.1-.3zm7.7-8.9c-.2-.2-.4 0-.3.2.9 1.9 2.4 4.8-.3 6-2.2 1-4.9.4-6.2-1.7-.2-.3-.5 0-.4.2 1.2 2.7 4.8 3.5 7.3 2 2.7-1.5 1.6-4.9-.1-6.7zm-1.5 1.3c-.6-.8-1.7-.9-2.6-.7-.2 0-.2.5.1.4.6 0 1.3.1 1.8.5.4.4.6 1.1.2 1.6-.1.1.1.3.2.2.8-.4.8-1.4.3-2zm5.9 2.8c-.1-.3-.6-.3-.6.1-.1 5.2-4.8 6.7-9.1 7.7-.2 0-.1.3.1.3 3.8-.5 11-2.7 9.6-8.1zm-13.8 8c-2.9-1.4-5.6-3.5-5.3-7.1 0-.2-.4-.3-.4-.1-.6 3.7 2.2 6.6 5.6 7.5.1.1.3-.2.1-.3zm12.5 2.3c-.2-.2-.6-.1-.5.2 1.7 4.7 1.4 8.8-1.2 13.2-.1.2.1.4.3.2 3.3-3.5 4-9.5 1.4-13.6zm2-2.4c-.1-.1-.4 0-.3.2 2.3 3.2 3.2 6.5 3.1 10.4 0 .2.3.3.4 0 .7-3.9-.7-7.8-3.2-10.6zm6.5 3.5c-.1-.2-.4-.1-.4.1.4 1.9.2 3.9-.5 5.7-.1.2.2.3.3.1 1.1-1.8 1.2-3.9.6-5.9zm-11.2 2.4c-.1-.2-.4-.2-.4.1-.1 3.2-.2 6.3-1.2 9.4-.1.2.2.3.3.1 1.4-3 2.2-6.5 1.3-9.6zm-3.8 5.9c0-.2-.3-.1-.3 0 0 1.3-.2 2.6-.4 4 0 .2.2.3.3.1.7-1.2.7-2.7.4-4.1zM98 43c-.1-.2-.4-.1-.3.1.7 3.4.7 6.5.1 9.9 0 .2.2.2.2.1 1.1-3.3 1.1-6.9 0-10.1zm26.2 1.2c-1-.5-2.2-.2-3.1.3-.2.1 0 .5.2.4.9-.4 1.8-.3 2.8-.3.1 0 .2-.3.1-.4zm-44.7-3.9c-3.7 1.5-7.9 3.5-9.6 7.3-.1.1.1.2.2.1 2.4-3.6 5.8-5.3 9.5-7.2.1-.1.1-.3-.1-.2z" fill="#171714" stroke-width="none" opacity="1" stroke="none"></path></g><g id="svga-group-glasses-single-move" transform="matrix(1,0,0,1,0,0)"><g id="svga-group-glasses-single" transform="matrix(1,0,0,1,0,0)"></g></g></g></g></g><rect id="svga-credit-rect" width="200" height="15" x="0" y="185" fill="#ecf0f1" opacity="0.5" style="display: none;"></rect><text id="svga-credit-text" font-family="Avenir Next, Roboto, Helvetica, Arial, sans-serif" font-size="10px" text-anchor="start" font-weight="400" size="10px" anchor="start" weight="400" fill="#333333" x="33.41004180908203" y="182.53461003303528" style="display: none;"><tspan id="SvgjsTspan128416" dy="13" x="33.41004180908203">Created on AvatarMaker.com</tspan></text></g></svg>