<svg xmlns="http://www.w3.org/2000/svg" version="1.1" width="600px" height="600px" viewBox="0 0 200 200" style="overflow:hidden!important;"><defs id="SvgjsDefs287260"></defs><g id="svga-group-wrapper"><g id="svga-group-backs-single"><path id="SvgjsPath287950" d="M0 0h200v200H0V0z" fill="#594f4f" stroke-width="none" opacity="1"></path><path id="SvgjsPath287951" d="M88.8 158.9s-21.3-3-23.6-17.1c-1.5-9.3 10.5-9.3 14.8-5.5 0 0 3.3-8.7 9.9-7.2 8.4 1.9 9.2 12.7-1.1 29.8zM38.7 51s14.9-16.3 6.8-30.1c-5.3-9.2-14.9-1.5-15.7 4.6 0 0-8.8-5.6-13 0-5.4 7 1.6 17 21.9 25.5zM168 165s-2.6-14.4 1.6-22.7 14.8-4 13.3 4.9c0 0 8.2-2 10.6 4.5 2.3 6.4-10 12.7-25.5 13.3zm6.6-139.5s5.2-1.9 5.9-4.8c.8-3-3-3.5-4.5-1.6 0 0-1.1-2.8-3.1-2.2-1.9.5-2.2 2.6 1.7 8.6z" fill="#3a2828" stroke-width="none" opacity="1"></path><path id="SvgjsPath287952" d="M125 33.1s-13-1.2-19.2-6.8.1-13.7 7.4-10.3c0 0 .2-7.6 6.3-8 6.2-.5 8.7 11.5 5.5 25.1zm15.9 84.9s3.6-4.2 2.8-7.1c-.8-3-4.4-1.6-4.7.8 0 0-2.4-1.9-3.8-.4s-.6 3.4 5.7 6.7zm12.2 66.9s7.1-.7 9-4.2-2.7-5.4-5.2-3.4c0 0-.5-3.9-3.2-3.8s-3.6 2.7-.6 11.4zm-122.9 5.7s23.3-3.5 29-15.3-9.8-17.2-17.5-10.6c0 0-2.3-12.8-11-11.9s-11.7 9.5-.5 37.8zm3.5-106.7s3.3-12.8-1.5-18.3-11 1.3-9.3 6.7c0 0-7.1-1.6-8.5 3-1.4 4.8 2.3 8.2 19.3 8.6z" fill="#4a3a3a" stroke-width="none" opacity="1"></path><path id="SvgjsPath287953" d="M149.4 76.1s-24.7-19.3-16.5-40.8c5.4-14.2 20.6-5.7 23.2 2.7 0 0 11-10 18.2-3.2 9.1 8.6 1.6 24.4-24.9 41.3zm7 29.6s-4.5-12.3-2-20.2 12.4-5.8 12.4 2.3c0 0 6.9-3 10 2.3 3 5.4-6.9 12.7-20.4 15.6zM53.9 143.9s-13-1.2-19.2-6.8.1-13.7 7.4-10.3c0 0 .2-7.6 6.3-8s8.7 11.6 5.5 25.1zm89.6 23.3s-4.6-9.3-3.3-15.7c1.2-6.5 9.3-5.6 10 .8 0 0 5.2-3 8 1s-4.3 10.5-14.7 13.9zM65.3 46s5.8-6.7 4.5-11.4-7-2.5-7.5 1.2c0 0-3.8-3.1-6-.7-2.2 2.4-1 5.6 9 10.9zm-40.7 81.2s4.7-5.4 3.7-9.3-5.7-2-6.1 1c0 0-3.1-2.5-4.9-.6s-.8 4.6 7.3 8.9zm53 60.3s5.2-1.9 5.9-4.8-3-3.5-4.5-1.6c0 0-1.1-2.8-3.1-2.2-1.8.6-2.1 2.7 1.7 8.6zm47.7-12.7s4.7-5.4 3.7-9.3c-1-3.9-5.7-2-6.1 1 0 0-3.1-2.5-4.9-.6-1.9 2-.9 4.6 7.3 8.9zm-22.6-132s4.7-5.4 3.7-9.3-5.7-2-6.1 1c0 0-3.1-2.5-4.9-.6-1.9 2-.9 4.6 7.3 8.9zM77.3 94.4s8.8-4.2 9.6-9.5-5.9-5.6-8.2-2.1c0 0-2.5-4.8-5.8-3.3-3.2 1.4-3.4 5.1 4.4 14.9z" fill="#514444" stroke-width="none" opacity="1"></path></g><g id="svga-group-humanwrap-move" transform="matrix(1,0,0,1,0,0)"><g id="svga-group-humanwrap" transform="matrix(1,0,0,1,0,0)"><g id="svga-group-hair-back-move" transform="matrix(1,0,0,1,0,0)"><g id="svga-group-hair-back" transform="matrix(1,0,0,1,0,0)"></g></g><g id="svga-group-humanbody-back"><path id="SvgjsPath287657" d="m170 180.3-27.3-6.9-18-9.9-1.5-28.2H76.8l-1.5 28.2-18 9.9-27.3 6.9-9.1 19.7-3 20h164.2l-3-20z" fill="#ffd0bc" stroke-width="none" opacity="1" stroke="none"></path><path id="SvgjsPath287658" d="m76.8 135.3-1.5 28.2-18 9.9-27.3 6.9-9.1 19.7-3 20h14.6v-20l2.7-17.7 23.8-6.4 24.7-8.3 3.5-32.3z" fill="#e09879" stroke-width="none" opacity="1" stroke="none"></path></g><g id="svga-group-chinshadow-single"><path id="SvgjsPath287898" d="M121.7 151.3s.9-.8 2.2-2l-.8-14H76.8l-1.1 19.5 10.1 11.5 11.3-2.4 11.3 2.4 13.3-15z" fill="#d17f5b" stroke-width="none" opacity="1"></path></g><g id="svga-group-humanbody-front"><path id="SvgjsPath287659" d="m92.8 168.3 2 7.9 6.9 4.6s-8.5-3-8.7-3.6c-.2-.6-.2-8.9-.2-8.9z" fill="#e09879" stroke-width="none" opacity="1" stroke="none"></path></g><g id="svga-group-clothes-single"><path id="SvgjsPath287800" d="m180.5 200.3-8.7-21.1-27.5-6.8-6.2-2.3-19.4 20.1L100 204l-18.7-13.8-19.4-20.1-6.2 2.3-27.5 6.8-8.7 21.1-2.6 19.7h166.2z" fill="#82cbe2" stroke-width="none" opacity="1"></path><path id="SvgjsPath287801" d="m59.5 176.1 5.9-2.3-3.5-3.7-6.2 2.3-27.5 6.9-8.7 21.1-2.6 19.6h9.8l.7-19.1 5.3-16.7 5.5 5.3 4.4 9.5-3-9.2-5.6-7.5 25.5-6.2 13.8 15.3 26.7 20.5-26.5-21.5-14-14.3zM42.8 220h2.9l-2.1-11.3-.8 11.3zm57.3-8.1 26.7-20.5 16.4-18-16.6 17-26.5 21.5zm56.3-3.2-2.1 11.3h2.9l-.8-11.3z" fill="#64b8d3" stroke-width="none" opacity="1"></path></g><g id="svga-group-head" transform="matrix(1,0,0,1,0,0)"><g id="svga-group-ears-left-move" transform="matrix(1,0,0,1,0,0)"><g id="svga-group-ears-left" transform="matrix(1,0,0,1,0,0)"><path id="SvgjsPath287810" d="m66.3 102.2-3-7.2-9.2-8-3.6 12.9 4.7 12.7-.4 5.6 5 2.4 6-11.1z" fill="#ffd0bc" stroke-width="none" opacity="1" stroke="none"></path><path id="SvgjsPath287811" d="m52.5 100 1.9-8.4 3.7 10.6-.8 1 .4 5.9s-3.3-2.1-3.3-2.7.3-6.2.3-6.2l.9-.3-.9-4.5-1.6 6.1.4 3-1-4.5z" fill="#e09879" stroke-width="none" opacity="1" stroke="none"></path><path id="SvgjsPath287812" d="m60.4 111.8-.7-12L54.1 87l9.2 8 3 7.2-.5 7.3-6 11.1-5-2.4 4.8.3z" fill="#f0b399" stroke-width="none" opacity="1" stroke="none"></path></g></g><g id="svga-group-ears-right-move" transform="matrix(1,0,0,1,0,0)"><g id="svga-group-ears-right" transform="matrix(1,0,0,1,0,0)"><path id="SvgjsPath287813" d="m133.7 102.2 3-7.2 9.2-8 3.6 12.9-4.7 12.7.4 5.6-5 2.4-6-11.1z" fill="#ffd0bc" stroke-width="none" opacity="1" stroke="none"></path><path id="SvgjsPath287814" d="m147.5 100-1.9-8.4-3.7 10.6.8 1-.4 5.9s3.3-2.1 3.3-2.7-.3-6.2-.3-6.2l-.9-.3.9-4.5 1.6 6.1-.4 3 1-4.5z" fill="#e09879" stroke-width="none" opacity="1" stroke="none"></path><path id="SvgjsPath287815" d="m139.6 111.8.7-12 5.6-12.8-9.2 8-3 7.2.5 7.3 6 11.1 5-2.4-4.8.3z" fill="#f0b399" stroke-width="none" opacity="1" stroke="none"></path></g></g><g id="svga-group-faceshape-wrap" transform="matrix(1,0,0,1,0,0)"><g id="svga-group-faceshape-single"><path id="SvgjsPath287888" d="M143.4 84.7c-.2-10.2-5.3-24.8-5.3-24.8-6.9-11.6-19.7-19.5-19.7-19.5-7.2-1.5-18.4-2.3-18.4-2.3s-11.1.8-18.4 2.3c0 0-12.8 7.9-19.7 19.5 0 0-5.1 14.5-5.3 24.8l.9 44c3.5 3.7 18 16.9 18 16.9l13.2 14.9 11.3-2.4 11.3 2.4 13.2-14.9s14.5-13.2 18-16.9l.9-44z" fill="#ffd0bc" stroke-width="none" opacity="1"></path><path id="SvgjsPath287889" d="m100 156-10.9 2.9-9.9-16.5-17.6-16.8V81.7l5.1-20.8 15.7-16.8 17.3-3.2 18.7-.5c-7.2-1.5-18.4-2.3-18.4-2.3s-11.1.8-18.4 2.3c0 0-12.8 7.9-19.7 19.5 0 0-5.1 14.5-5.3 24.8l.9 44c3.5 3.7 18 16.9 18 16.9l13.2 14.9 11.3-2.4 11.3 2.4 13.2-14.9-14.4 13.4-10.1-3z" fill="#e09879" stroke-width="none" opacity="1"></path></g></g><g id="svga-group-mouth-single-move" transform="matrix(1,0,0,1,0,0)"><g id="svga-group-mouth-single" transform="matrix(1,0,0,1,0,0)"><path id="SvgjsPath288161" d="m82.7 123.9 1.5 4.2 10.2 9.1 13.4.1 8.6-8.4 1.1-5.2-17.4 4.4z" fill="#000000" stroke-width="none" opacity="1" transform="translate(0 2)"></path><path id="SvgjsPath288162" d="m100.1 128.1-17.4-4.2 1.9 4.1 15.4 3.5 16.1-2.8 1.4-5z" fill="#ffffff" stroke-width="none" opacity="1" transform="translate(0 2)"></path><path id="SvgjsPath288163" d="m81.8 123.6 18.3 4.8 18.8-5-19 3.3z" fill="#e0a4a0" stroke-width="none" opacity="1" transform="translate(0 2)"></path><path id="SvgjsPath288164" d="m117.4 121.1 1 2.4.2 2.7.7-2.4-.9-2.3-1-.4zm-34.9.5-.9 2.3.7 2.4.2-2.7 1-2.4-1 .4z" fill="#f0b399" stroke-width="none" opacity="1" transform="translate(0 2)"></path><path id="SvgjsPath288165" d="M96.6 140.1s1.4.8 1.6.8c.2 0 6.4-.1 6.4-.1l.7-.9-8.7.2z" fill="#e09879" stroke-width="none" opacity="1" transform="translate(0 2)"></path></g></g><g id="svga-group-eyes-left-move" transform="matrix(1,0,0,1,0,0)"><g id="svga-group-eyes-left" transform="matrix(1,0,0,1,0,0)"><g id="svga-group-eyesback-left"><path id="SvgjsPath287846" d="m91.9 98.1-5.1-4.3-9.6-2.5-9.6.3 8.8 6.6 4.1 1.1z" fill="#ffffff" stroke-width="none" opacity="1"></path></g><g id="svga-group-eyesiriswrapper-left" transform="matrix(1,0,0,1,0,0)"><g id="svga-group-eyesiriscontrol-left" transform="matrix(1,0,0,1,0,0)"><g id="svga-group-eyesiris-left" transform="matrix(1,0,0,1,0,0)"><path id="SvgjsPath287902" d="M76.2 97.3v-5.6l4.8-2.8 4.9 2.8v5.6l-4.9 2.8z" fill="#66724e" stroke-width="none" opacity="1"></path><path id="SvgjsPath287903" d="m78.6 98.7 2.4 1.4 4.9-2.8v-4.1l-2.5-1.4-4.8 2.8z" fill="#6f7a59" stroke-width="none" opacity="1"></path><path id="SvgjsPath287904" d="m81 89.2 4.6 2.7v5.3L81 99.8l-4.6-2.7v-5.3l4.6-2.6m0-.6-5.1 2.9v5.9l5.1 2.9 5.1-2.9v-5.9L81 88.6z" fill="#455328" stroke-width="none" opacity="1"></path><path id="SvgjsPath287905" d="M82.3 92.3h-2.6l-1.3 2.2 1.3 2.3h2.6l1.3-2.3z" fill="#000000" stroke-width="none" opacity="1"></path><path id="SvgjsPath287906" d="M79 91.6h2v2h-2v-2z" fill="#ffffff" stroke-width="none" opacity="1"></path><path id="SvgjsPath287907" d="M81.5 96.1h1.1v1.1h-1.1v-1.1z" fill="#ffffff" stroke-width="none" opacity="1"></path></g></g></g><g id="svga-group-eyesfront-left"><path id="SvgjsPath287854" d="M67.1 89.3v11.9l7.9 8.4h11.2l7.9-8.4V89.3l-7.9-8.4H75l-7.9 8.4zm.5 2.3 9.6-.3 9.6 2.5 5.1 4.3-11.4 1.1-4.1-1.1-8.8-6.5z" fill="#ffd0bc" stroke-width="none" opacity="1" stroke="none"></path><path id="SvgjsPath287855" d="m92.7 99.1-6.1-5-9.4-2.5-9.8.2 2.1-1.9 9.8-2.3 8.9 2.5 4.4 7.8z" fill="#e09879" stroke-width="none" opacity="1" stroke="none"></path></g></g></g><g id="svga-group-eyes-right-move" transform="matrix(1,0,0,1,0,0)"><g id="svga-group-eyes-right" transform="matrix(1,0,0,1,0,0)"><g id="svga-group-eyesback-right"><path id="SvgjsPath287847" d="m108.1 98.1 5.1-4.3 9.6-2.5 9.6.3-8.8 6.6-4.1 1.1z" fill="#ffffff" stroke-width="none" opacity="1"></path></g><g id="svga-group-eyesiriswrapper-right" transform="matrix(1,0,0,1,0,0)"><g id="svga-group-eyesiriscontrol-right" transform="matrix(1,0,0,1,0,0)"><g id="svga-group-eyesiris-right" transform="matrix(1,0,0,1,0,0)"><path id="SvgjsPath287908" d="M114.1 97.3v-5.6l4.9-2.8 4.8 2.8v5.6l-4.8 2.8z" fill="#66724e" stroke-width="none" opacity="1"></path><path id="SvgjsPath287909" d="m116.5 98.7 2.5 1.4 4.8-2.8v-4.1l-2.4-1.4-4.9 2.8z" fill="#6f7a59" stroke-width="none" opacity="1"></path><path id="SvgjsPath287910" d="m119 89.2 4.6 2.7v5.3l-4.6 2.7-4.6-2.7v-5.3l4.6-2.7m0-.6-5.1 2.9v5.9l5.1 2.9 5.1-2.9v-5.9l-5.1-2.9z" fill="#455328" stroke-width="none" opacity="1"></path><path id="SvgjsPath287911" d="M120.3 92.3h-2.6l-1.3 2.2 1.3 2.3h2.6l1.3-2.3z" fill="#000000" stroke-width="none" opacity="1"></path><path id="SvgjsPath287912" d="M117 91.6h2v2h-2v-2z" fill="#ffffff" stroke-width="none" opacity="1"></path><path id="SvgjsPath287913" d="M119.5 96.1h1.1v1.1h-1.1v-1.1z" fill="#ffffff" stroke-width="none" opacity="1"></path></g></g></g><g id="svga-group-eyesfront-right"><path id="SvgjsPath287856" d="M125 80.8h-11.2l-7.9 8.4v11.9l7.9 8.4H125l7.9-8.4V89.3l-7.9-8.5zm-1.4 17.4-4.1 1.1-11.4-1.1 5.1-4.3 9.6-2.5 9.6.3-8.8 6.5z" fill="#ffd0bc" stroke-width="none" opacity="1" stroke="none"></path><path id="SvgjsPath287859" d="m107.3 99.1 6.1-5 9.4-2.5 9.8.2-2.1-1.9-9.8-2.3-8.9 2.5-4.4 7.8z" fill="#e09879" stroke-width="none" opacity="1" stroke="none"></path></g></g></g><g id="svga-group-facehighlight-single"></g><g id="svga-group-eyebrows-left-move" transform="matrix(1,0,0,1,0,0)"><g id="svga-group-eyebrows-left-rotate" transform="matrix(1,0,0,1,0,0)"><g id="svga-group-eyebrows-left" transform="matrix(1,0,0,1,0,0)"><path id="SvgjsPath287774" d="m82.7 74.9-10.4-2.1-7.2 12.6 8.2-8 17.2 9.5 3.3-2.4-.8-4.6z" fill="#b84131" stroke-width="none" opacity="1"></path><path id="SvgjsPath287775" d="m72.5 76.4-7.4 9.1 8.5-6.6L90.5 87l3.3-2.4-.1-.6c-1.6 1-3.5 2.1-3.5 2.1l-4.7-7.4 1.6 5.3-6.9-4.1-4.3-4.4 1.6 3.2-5-2.3z" fill="#a92d1c" stroke-width="none" opacity="1"></path><path id="SvgjsPath287776" d="m76.4 73.6 4.4 4.9-2.6-4.5-1.8-.4zm11.1 3.6 3.1 6.5-1.1-5.5-2-1zm-15.7-3.7 2.9 1.9-2.4-2.6-.5.7z" fill="#c75849" stroke-width="none" opacity="1"></path></g></g></g><g id="svga-group-eyebrows-right-move" transform="matrix(1,0,0,1,0,0)"><g id="svga-group-eyebrows-right-rotate" transform="matrix(1,0,0,1,0,0)"><g id="svga-group-eyebrows-right" transform="matrix(1,0,0,1,0,0)"><path id="SvgjsPath287777" d="m107 79.9-.8 4.6 3.3 2.4 17.2-9.5 8.2 8-7.2-12.6-10.4 2.1z" fill="#b84131" stroke-width="none" opacity="1"></path><path id="SvgjsPath287778" d="m122.5 78.6 1.6-3.2-4.3 4.4-6.9 4.1 1.6-5.3-4.7 7.4s-1.9-1.1-3.5-2.1l-.1.6 3.3 2.4 16.9-8.1 8.5 6.6-7.4-9.1-5 2.3z" fill="#a92d1c" stroke-width="none" opacity="1"></path><path id="SvgjsPath287779" d="m121.8 74-2.5 4.5 4.4-4.9-1.9.4zm-11.2 4.2-1.1 5.5 3.1-6.5-2 1zm17.1-5.4-2.4 2.6 2.9-1.9-.5-.7z" fill="#c75849" stroke-width="none" opacity="1"></path></g></g></g><g id="svga-group-beardwrap" transform="matrix(1,0,0,1,0,0)"><g id="svga-group-beard-single-move" transform="matrix(1,0,0,1,0,0)"><g id="svga-group-beard-single" transform="matrix(1,0,0,1,0,0)"></g></g></g><g id="svga-group-mustache-single-move" transform="matrix(1,0,0,1,0,0)"><g id="svga-group-mustache-single" transform="matrix(1,0,0,1,0,0)"></g></g><g id="svga-group-nose-single-move" transform="matrix(1,0,0,1,0,0)"><g id="svga-group-nose-single" transform="matrix(1,0,0,1,0,0)"><path id="SvgjsPath287970" d="m105.04 115.79-.68 2.7-4.33.85-4.47-1.09-.37-2.35-4.77-.18-.14-3.85 3.58-4.26 1.77-.03 9.04.07h1.56l3.58 4.26-.23 4.05z" fill="#ffd0bc" stroke-width="none" opacity="1" transform="translate(0 1)"></path><path id="SvgjsPath287971" d="m106.34 107.36-3.34.32 3.1.23 3.31 4.01-.08 3.46h-2.2v-1.73l-2.28.08-.55 4.25-4.28.3-4.28-.3-.56-4.25-2.28-.08v1.73h-2.2l-.08-3.46 3.31-4.01 3.1-.23-.99-.1 1.24-4.06-.3-2.68-.36 2.73-1.81 3.9-1.12-.11-3.85 4.4.31 4.49 4.88.23.47 2.52 4.39 1h.25l4.39-1 .47-2.52 4.88-.23.32-4.49z" fill="#e09879" stroke-width="none" opacity="1" transform="translate(0 1)"></path><path id="SvgjsPath287972" d="M94.52 108.82c.23-.08 10.75 0 10.75 0l-1.29 6.66-7.72.15-1.74-6.81z" fill="#ffd9c9" stroke-width="none" opacity="1" transform="translate(0 1)"></path><path id="SvgjsPath287973" d="m95.03 116.48-2.13-1.1v-1.73l2.28.08z" fill="#e09879" stroke-width="none" opacity="1" transform="translate(0 1)"></path><path id="SvgjsPath287974" d="m105 116.48-.15-2.75 2.28-.08v1.73z" fill="#e09879" stroke-width="none" opacity="1" transform="translate(0 1)"></path></g></g><g id="svga-group-hair-front" transform="matrix(1,0,0,1,0,0)"><path id="SvgjsPath288018" d="m61.1 99.3-6.5-10.9 2.3-22.2L66 48.3s22.2-16.2 22.5-16.7c.3-.5 4.6-9.6 4.6-9.6l.3 6.9 3.1-6 1.3-6.2 2.1 7 1 4.2 1.3-5.7 2.1-7.3 1 7 1.5-3.1 3.1 9.5 14.8 12.3 10.9 11.2 7 15.3 1.6 21.7-3.6 7.7-4.6-24.8-12.2-15.5-15.2 4.9H92.3l-14.5-6.2L65 69.6l-3.9 29.7z" fill="#b84131" stroke-width="none" opacity="1"></path><path id="SvgjsPath288019" d="m58.5 83 5.1-25.5 7.5-10.1 5.9-7.2c-5.6 4.1-11.1 8.1-11.1 8.1l-9.1 17.9-2.3 22.2 5.8 9.8L58.5 83zm31.6-51 3-10.1s-4.3 9.1-4.6 9.6c-.1.1-1.1.9-2.7 2.1l4.3-1.6zm4.2 6.9 3.2-15.2s-4.9 10.5-5.3 11.1-15.4 13-15.4 13L64 65.8 62.2 79l.8 4.9 2-14.3L77.5 53l16.8-14.1zm-9.8 18.6 13.9-10.9.8-15.4S95.4 43.5 95 44.4c-.4.6-10.1 8.4-14 11.6l3.5 1.5zm6.8 2.9.9.4H97l1.4-12.6s-1.4 3-1.6 4c-.2.7-3.3 5.1-5.5 8.2zm17.5.4.2-.1-7-19 1.8 13-.9 6.1h5.9zm6.5-2.1-3.2-9.5-6.9-11.7-1-15.6s-1.2 15.6-1 16.2c.2.5 7.9 14.5 11.4 20.8l.7-.2zm-2.4-19.8-5.1-11.3.4 10.1 7.9 10.5s3.1 5.8 4.5 8.8l3.2-1-10.9-17.1zm8.1 3.6 8.3 13.4 5.3 9.9-4.2-14.6-8.5-10.9-1.8-3.8-7.8-6.4 8.7 12.4zm23.3 46-2.4-4.5-5.9-21.9.1 9.2 4.6 24.8 3.6-7.6z" fill="#b03726" stroke-width="none" opacity="1"></path></g><g id="svga-group-glasses-single-move" transform="matrix(1,0,0,1,0,0)"><g id="svga-group-glasses-single" transform="matrix(1,0,0,1,0,0)"></g></g></g></g></g><rect id="svga-credit-rect" width="200" height="15" x="0" y="185" fill="#ecf0f1" opacity="0.5" style="display: none;"></rect><text id="svga-credit-text" font-family="Avenir Next, Roboto, Helvetica, Arial, sans-serif" font-size="10px" text-anchor="start" font-weight="400" size="10px" anchor="start" weight="400" fill="#333333" x="33.41004180908203" y="182.53461003303528" style="display: none;"><tspan id="SvgjsTspan287313" dy="13" x="33.41004180908203">Created on AvatarMaker.com</tspan></text></g></svg>