<svg xmlns="http://www.w3.org/2000/svg" version="1.1" width="600px" height="600px" viewBox="0 0 200 200" style="overflow:hidden!important;"><defs id="SvgjsDefs51947"></defs><g id="svga-group-wrapper"><g id="svga-group-backs-single"><path id="SvgjsPath52421" d="M0 0h200v200H0V0z" fill="#5e8c6a" stroke-width="none" opacity="1"></path><path id="SvgjsPath52422" d="M96.9 141.1c-19.9 0-36.1-16.2-36.1-36.1S77 69 96.9 69 133 85.2 133 105s-16.2 36.1-36.1 36.1zm35 15.3c-6.7 0-12.2-5.5-12.2-12.2 0-6.7 5.5-12.2 12.2-12.2 6.7 0 12.2 5.5 12.2 12.2 0 6.7-5.4 12.2-12.2 12.2zM27.7 117.8c-12.3 0-22.2-10-22.2-22.2s10-22.2 22.2-22.2 22.2 10 22.2 22.2-10 22.2-22.2 22.2zm-14 28.5c-.1.2-.3.4-.4.6-8.8 13.6-4.8 31.9 8.8 40.7a29.53 29.53 0 0 0 41.1-9.4l-49.5-31.9zm184.9-26.5h-.3a13.97 13.97 0 0 0 1.3 27.9h.3l-1.3-27.9z" fill="#d8f94b" stroke-width="none" opacity="1"></path><path id="SvgjsPath52423" d="M96.9 66.3c-21.4 0-38.7 17.3-38.7 38.7 0 21.4 17.3 38.7 38.7 38.7 21.4 0 38.7-17.3 38.7-38.7 0-21.3-17.3-38.7-38.7-38.7zM66.2 91.9c.5-.6 1.1-1.1 1.8-1.4a4.67 4.67 0 0 1 2.6-.2L94.3 104H71.5c-2.1 0-4.1-1-5.4-2.6s-1.7-3.8-1.2-5.9l.1-.3c.4-1.2.8-2.3 1.2-3.3zm-1 14.9c.9-1.2 2.3-1.9 3.8-1.9h25.9l-24.7 14.2c-.7.4-1.6.5-2.4.2-.8-.3-1.4-1-1.6-1.8l-1.8-6.6c-.4-1.4-.1-2.9.8-4.1zm5.7-17.6c-.7-.4-1.2-1.2-1.3-2s.2-1.7.8-2.3l4.9-4.9c.9-.9 2.1-1.4 3.3-1.4h.6c1 .1 1.9.6 2.6 1.2l13.2 23-22.6-13c-.5-.3-1-.5-1.5-.6zm11.3-10.7c-.4-.7-.5-1.6-.2-2.4.3-.8 1-1.4 1.8-1.6l6.6-1.8c.4-.1.8-.2 1.2-.2 1 0 2 .3 2.9 1 .8.6 1.4 1.4 1.6 2.4-.1.4-.2.9-.2 1.4v24.8L83.6 80.5c-.3-.4-.6-.9-.9-1.2l-.5-.8zm45.2 22.7a6.59 6.59 0 0 1-5.4 2.6H99.2l23.7-13.7c.8-.2 1.8-.1 2.6.2 1.2.5 2.2 1.6 2.5 2.9l.6 2.1c.5 2.1.1 4.3-1.2 5.9zm-3.5-14c-.1.8-.6 1.6-1.3 2-.5.1-1 .3-1.4.6l-22.6 13.1L111.7 80c.7-.7 1.6-1.1 2.6-1.2h.6c1.2 0 2.4.5 3.3 1.4l4.9 4.9c.7.4.9 1.2.8 2.1zm-12.6-8.7-.5.8c-.4.4-.7.8-.9 1.2l-12.4 21.6V77.3c0-.5-.1-.9-.2-1.4.3-.9.8-1.8 1.6-2.4a4.27 4.27 0 0 1 4.1-.8l6.6 1.8c.8.2 1.5.8 1.8 1.6.4.7.4 1.6-.1 2.4zM70 122.7c.2-1.3.9-2.5 2.1-3.2L95 106.3l-11.6 20.1c-1.1 1.8-2.9 3-5 3.3-2.1.3-4.2-.4-5.7-1.9l-1.5-1.5c-.9-.9-1.3-2.2-1.2-3.6zm12.8 7.2L96 107.1v23.2c0 2.1-1 4.1-2.6 5.4s-3.8 1.7-5.9 1.2l-2.1-.6c-1.3-.4-2.4-1.3-2.9-2.5-.4-1.3-.3-2.7.3-3.9zm17.3 5.8a6.59 6.59 0 0 1-2.6-5.4v-23.2l13.2 22.8c.7 1.2.8 2.6.2 3.8s-1.6 2.2-2.9 2.5l-2.1.6c-2 .6-4.1.2-5.8-1.1zm15-5.9c-2.1-.3-3.9-1.5-5-3.3l-11.6-20.1 22.8 13.2c1.2.7 1.9 1.8 2.1 3.2.2 1.3-.3 2.7-1.2 3.6l-1.5 1.5a7.14 7.14 0 0 1-5.6 1.9zm10.6-10.5c-.8.3-1.7.3-2.4-.2l-24.7-14.2h25.9c1.5 0 2.9.7 3.8 1.9s1.2 2.7.8 4.1l-1.8 6.6c-.2.9-.8 1.5-1.6 1.8zm6.2 11.8c-7.2 0-13.1 5.9-13.1 13.1s5.8 13.1 13.1 13.1 13.1-5.9 13.1-13.1-5.8-13.1-13.1-13.1zm-10.3 8.7c.2-.2.4-.4.6-.5.2-.1.4-.1.6-.1h.3l8 4.6h-7.7c-.7 0-1.4-.3-1.8-.9-.4-.6-.6-1.3-.4-2v-.1c.1-.3.2-.7.4-1zm-.4 5c.3-.4.8-.6 1.3-.6h8.7l-8.3 4.8c-.2.1-.5.2-.8.1-.3-.1-.5-.3-.5-.6l-.6-2.2c-.2-.6-.1-1.1.2-1.5zm2-5.9c-.2-.1-.4-.4-.4-.7 0-.3.1-.6.3-.8l1.6-1.6c.3-.3.7-.5 1.1-.5h.2c.3 0 .6.2.9.4l4.5 7.7-7.6-4.4c-.3-.1-.5-.1-.6-.1zm3.8-3.7c-.1-.2-.2-.5-.1-.8.1-.3.3-.5.6-.5l2.2-.6c.1 0 .3-.1.4-.1.4 0 .7.1 1 .3.3.2.5.5.6.8 0 .1-.1.3-.1.5v8.4l-4.2-7.3c-.1-.1-.2-.3-.3-.4l-.1-.3zm15.2 7.7c-.4.6-1.1.9-1.8.9h-7.7l8-4.6c.3-.1.6-.1.9.1.4.2.7.5.9 1l.2.7c.1.6 0 1.4-.5 1.9zm-1.1-4.7c0 .3-.2.5-.4.7-.2 0-.3.1-.5.2l-7.6 4.4 4.5-7.7c.2-.2.6-.4.9-.4h.2c.4 0 .8.2 1.1.5l1.6 1.6c.1.1.2.4.2.7zm-4.3-3-.2.3c-.1.1-.2.3-.3.4l-4.2 7.3v-8.4c0-.2 0-.3-.1-.5.1-.3.3-.6.6-.8.3-.2.6-.3 1-.3.1 0 .3 0 .4.1l2.2.6c.3.1.5.3.6.5.2.3.2.6 0 .8zm-13.9 15c.1-.4.3-.9.7-1.1l7.7-4.4-3.9 6.8c-.4.6-1 1-1.7 1.1s-1.4-.1-1.9-.6l-.5-.5c-.3-.4-.5-.9-.4-1.3zm4.3 2.4 4.4-7.7v7.8c0 .7-.3 1.4-.9 1.8-.6.4-1.3.6-2 .4l-.7-.2c-.4-.1-.8-.4-1-.9-.1-.3 0-.8.2-1.2zm5.8 2c-.6-.4-.9-1.1-.9-1.8V145l4.4 7.7c.2.4.3.9.1 1.3s-.5.7-1 .9l-.7.2c-.6 0-1.3-.1-1.9-.5zm5.1-2c-.7-.1-1.3-.5-1.7-1.1l-3.9-6.8 7.7 4.4c.4.2.7.6.7 1.1.1.4-.1.9-.4 1.2l-.5.5c-.5.5-1.2.7-1.9.7zm3.6-3.6c-.3.1-.6.1-.8-.1l-8.3-4.8h8.7c.5 0 1 .2 1.3.6.3.4.4.9.3 1.4l-.6 2.2c-.2.4-.4.6-.6.7zm-114-77.3a23.9 23.9 0 1 0 0 47.8 23.9 23.9 0 0 0 0-47.8zm-19 15.7c.3-.4.7-.7 1.2-.9.3-.1.7-.2 1-.2.2 0 .4 0 .5.1L26 94.8H12c-1.3 0-2.5-.6-3.3-1.6-.8-1-1.1-2.3-.7-3.6v-.2c.2-.7.5-1.3.7-2zm-.6 9.2c.6-.7 1.4-1.1 2.3-1.1h16l-15.2 8.8c-.4.3-1 .3-1.5.1-.5-.2-.8-.6-1-1.1l-1.1-4.1c-.2-.9 0-1.9.5-2.6zm3.5-10.8c-.4-.3-.8-.7-.8-1.2-.1-.5.1-1 .5-1.4l3-3c.6-.6 1.3-.9 2.1-.9h.4c.6.1 1.2.3 1.6.8l8.1 14.1-13.9-8.1c-.4-.1-.7-.3-1-.3zm7-6.7c-.3-.4-.3-1-.1-1.5.2-.5.6-.8 1.1-1l4.1-1.1c.2-.1.5-.1.8-.1.6 0 1.2.2 1.8.6.5.4.8.9 1 1.5-.1.3-.1.6-.1.9v15.3l-7.7-13.3c-.2-.3-.4-.5-.6-.8l-.3-.5zm27.9 14.1c-.8 1-2 1.6-3.3 1.6h-14l14.6-8.4c.5-.1 1.1-.1 1.6.1.8.3 1.3 1 1.6 1.8l.3 1.3c.2 1.2 0 2.6-.8 3.6zm-2.2-8.7c-.1.5-.4 1-.8 1.2l-.9.3-14 8.1L36.7 80c.4-.4 1-.7 1.6-.8h.4c.8 0 1.5.3 2.1.9l3 3c.4.4.6.9.5 1.4zm-7.7-5.4-.3.5c-.2.2-.4.5-.6.8L28 93.7V78.4c0-.3 0-.6-.1-.9.2-.6.5-1.1 1-1.5.5-.4 1.1-.6 1.8-.6.2 0 .5 0 .8.1l4.1 1.1c.5.1.9.5 1.1 1 .2.6.1 1.1-.1 1.5zm-25.5 27.3c.1-.8.6-1.6 1.3-2l14.1-8.1-7.2 12.4c-.6 1.1-1.8 1.9-3.1 2.1-1.3.2-2.6-.3-3.5-1.2l-.9-.9c-.5-.6-.8-1.5-.7-2.3zm7.9 4.5 8.1-14.1v14.3c0 1.3-.6 2.5-1.6 3.3s-2.4 1.1-3.6.7l-1.3-.3a2.62 2.62 0 0 1-1.6-3.9zm10.6 3.5c-1-.8-1.6-2-1.6-3.3V96.8l8.1 14.1c.4.7.5 1.6.2 2.4-.3.8-1 1.3-1.8 1.6l-1.3.3c-1.2.3-2.5 0-3.6-.8zm9.3-3.6c-1.3-.2-2.4-.9-3.1-2.1l-7.2-12.4 14.1 8.1c.7.4 1.2 1.1 1.3 2 .1.8-.2 1.7-.8 2.2l-.9.9a4 4 0 0 1-3.4 1.3zm6.5-6.5c-.5.2-1 .2-1.5-.1l-15.2-8.8h15.9a2.84 2.84 0 0 1 2.8 3.6l-1.1 4.1c0 .6-.4 1.1-.9 1.2zm-33.5 40.8c-.1.2-.3.4-.4.6a31.59 31.59 0 0 0 9.4 43.6c14.7 9.4 34.2 5.2 43.7-9.4.1-.2.2-.4.4-.6l-53.1-34.2zm-.2 14.7c-.4-.6-.5-1.3-.3-1.9l1.7-5.3c.4-1.2 1.2-2.1 2.4-2.5s2.4-.3 3.4.4l1.7 1.1 16 10.3-23.2-1.1c-.7-.1-1.3-.5-1.7-1zm-.3 8-.4-1.7c-.2-1.1 0-2.2.8-3s1.8-1.3 2.9-1.2l21.5 1.1-16.9 8.7c-1.5.8-3.3.8-4.9.1-1.6-.9-2.7-2.3-3-4zm14.8 12a5.5 5.5 0 0 1-8.7.7l-1.2-1.3c-.7-.8-1.1-1.9-.9-3s.9-2 1.9-2.5l19.1-9.8-10.2 15.9zm8.7 8.9c-.9.6-2 .8-3.1.5l-1.7-.5c-1.6-.5-2.9-1.8-3.5-3.4-.6-1.6-.4-3.4.5-4.8l10.3-15.9-1 21.5c0 1-.6 2-1.5 2.6zm11-.1-1.7.4c-1.7.4-3.4-.1-4.7-1.2s-2-2.8-1.9-4.5l.9-18.9 9.8 19.1c.5 1 .5 2.1 0 3.1-.4 1-1.3 1.8-2.4 2zm7.4-3.8c-.5.5-1.2.7-1.9.5-.7-.1-1.2-.6-1.6-1.2l-10.6-20.7 16 10.3 1.7 1.1c1 .7 1.7 1.7 1.8 2.9s-.4 2.4-1.3 3.2l-4.1 3.9zm145.3-66h-.3c-8.3.4-14.7 7.4-14.3 15.7s7.4 14.7 15.7 14.3h.3l-1.4-30zm-5.7 3.9c.1-.3.4-.5.7-.6l2.5-.8c.6-.2 1.1-.1 1.6.2s.8.8.8 1.4v.9l.4 9.1-5.9-9.3c-.2-.2-.2-.6-.1-.9zm-3.2 2.1.6-.6c.4-.4.9-.6 1.4-.5.5.1 1 .3 1.3.8l5.5 8.6-8-4.1c-.7-.4-1.2-1.1-1.4-1.9-.2-.9 0-1.7.6-2.3zm-.6 9.1c-.8 0-1.6-.3-2.1-.9-.5-.6-.7-1.4-.6-2.2l.2-.8c.1-.5.4-.9.9-1.2s1-.2 1.5 0l9.1 4.7-9 .4zm-1.1 5.8c-.5-.2-.9-.6-1-1.1l-.2-.8c-.2-.8-.1-1.6.4-2.3s1.2-1.1 2-1.1l9-.4-8.6 5.5c-.5.3-1.1.4-1.6.2zm3.1 4.2-.6-.6c-.6-.6-.9-1.3-.8-2.2s.5-1.5 1.2-2l7.6-4.9-4.7 9.1c-.2.5-.7.8-1.2.9-.6.2-1.1.1-1.5-.3zm3.5 1.9c-.3-.1-.6-.3-.7-.6s-.1-.6 0-.9l5.1-9.8.4 9.1v.9c0 .6-.2 1.1-.6 1.5-.4.4-1 .5-1.6.4l-2.6-.6z" fill="#ffffff" stroke-width="none" opacity="1"></path><path id="SvgjsPath52424" d="M96.9 64.7c-22.3 0-40.4 18.1-40.4 40.4s18.1 40.4 40.4 40.4 40.4-18.1 40.4-40.4-18.1-40.4-40.4-40.4zm0 77.4c-20.5 0-37.1-16.6-37.1-37.1s16.7-37 37.1-37S134 84.6 134 105s-16.6 37.1-37.1 37.1zm35-11.5c-7.5 0-13.6 6.1-13.6 13.6s6.1 13.6 13.6 13.6 13.6-6.1 13.6-13.6-6-13.6-13.6-13.6zm0 26.1a12.5 12.5 0 1 1 0-25 12.5 12.5 0 0 1 0 25zm-104.2-86C14 70.7 2.8 81.8 2.8 95.5s11.2 24.9 24.9 24.9 24.9-11.2 24.9-24.9-11.2-24.8-24.9-24.8zm0 47.7c-12.6 0-22.9-10.3-22.9-22.9s10.3-22.9 22.9-22.9 22.9 10.3 22.9 22.9-10.3 22.9-22.9 22.9zm36.9 60.7c-.1.2-.2.4-.4.6a31.16 31.16 0 0 1-43 9.3 31.26 31.26 0 0 1-9.3-43.1c.1-.2.3-.4.4-.6l-.7-.5c-.1.2-.3.4-.4.6a31.9 31.9 0 0 0 9.6 44.2 31.9 31.9 0 0 0 44.6-10.2l-.8-.3zm135.3-30.6h-.3c-8.1.4-15.1-6-15.5-14.1s6-15.1 14.1-15.5h.3v-.4h-.3a15.2 15.2 0 1 0 1.4 30.4h.3v-.4z" fill="#8ab21b" stroke-width="none" opacity="1"></path><path id="SvgjsPath52425" d="M145.5 195.1a17.61 17.61 0 0 1-9.1-23.1c3.9-8.9 14.2-12.9 23.1-9.1s12.9 14.2 9.1 23.1a17.7 17.7 0 0 1-23.1 9.1zM48.9 87c-8.9-3.8-13-14.2-9.1-23.1S54 51 62.9 54.8 75.8 69 72 77.9 57.8 90.8 48.9 87z" fill="#ffed43" stroke-width="none" opacity="1"></path><path id="SvgjsPath52426" d="M160 161.7c-9.5-4.1-20.6.2-24.8 9.8s.2 20.6 9.8 24.8 20.6-.2 24.8-9.8-.3-20.6-9.8-24.8zm-18.7 5.5c.3-.2.7-.3 1.1-.3.3 0 .6.1.8.2.1.1.2.1.4.2l7.9 10.7-10.2-4.4c-.9-.4-1.6-1.2-1.9-2.2-.2-1 0-2 .6-2.8l.1-.1c.5-.6.8-.9 1.2-1.3zm-3.3 6.4c.6-.4 1.4-.4 2-.1l1.1.5 10.4 4.5-13.8 1.6c-.4.1-.8-.1-1.1-.4-.3-.3-.4-.7-.4-1.1l.5-3.3c.3-.7.7-1.3 1.3-1.7zm5.9-6.7c-.2-.3-.3-.8-.2-1.1s.4-.7.8-.9l3.1-1.2c.6-.2 1.2-.2 1.8 0 .1 0 .2.1.3.1.4.2.7.6.9 1.1l1.5 12.8-7.6-10.2c-.2-.3-.4-.5-.6-.6zm7.1-2.6c-.1-.4.1-.8.4-1.1.3-.3.7-.4 1.1-.4l3.3.5c.2 0 .4.1.6.2.5.2.8.5 1.1 1 .2.4.3.9.3 1.4l-.3.6-4.8 11-1.4-12c0-.2-.1-.5-.2-.7l-.1-.5zm15.8 18.9a3 3 0 0 1-2.9.1l-10.2-4.4 13.2-1.5c.4.1.8.3 1.1.6.5.5.7 1.1.6 1.8l-.1 1c-.2 1-.8 1.9-1.7 2.4zm1.2-7c-.2.4-.6.6-1 .6-.2 0-.5-.1-.8 0l-12.6 1.4 10.3-7.6c.4-.2.9-.2 1.4-.1.1 0 .2.1.3.1.6.2 1 .7 1.2 1.3l1.2 3.1c.2.5.2.9 0 1.2zm-3.9-6.3-.4.3c-.2.1-.4.2-.6.4l-9.7 7.2 4.8-11c.1-.2.2-.4.2-.6.3-.4.7-.6 1.2-.7.5-.1 1-.1 1.5.1.2.1.4.2.5.3l2.6 2.1c.3.3.5.6.5 1.1-.1.2-.3.6-.6.8zm-27 11.8c.3-.6.9-.9 1.6-1l12.7-1.5-9.1 6.7c-.8.6-1.9.8-2.9.5s-1.8-1-2.1-1.9l-.4-1c-.2-.6-.2-1.3.2-1.8zm4.3 5.7 10.3-7.6-4.5 10.4c-.4.9-1.2 1.6-2.2 1.9-1 .2-2 0-2.8-.6l-.8-.6c-.5-.4-.8-1-.8-1.7-.1-.8.3-1.4.8-1.8zm6.6 5.9a3 3 0 0 1-.1-2.9l4.5-10.4 1.5 12.7c.1.7-.1 1.3-.6 1.8s-1.1.7-1.8.6l-1-.1c-1.2-.2-2-.8-2.5-1.7zm7.8.2c-.9-.5-1.4-1.4-1.6-2.4l-1.3-11.2 7.6 10.3c.4.5.5 1.2.3 1.8s-.6 1.1-1.2 1.4l-1 .4c-.9.3-1.9.2-2.8-.3zm6.8-2.6c-.4 0-.8-.2-1-.5l-8.2-11.1 10.4 4.5 1.1.5c.7.3 1.1.9 1.3 1.6.2.7 0 1.4-.4 2l-2.1 2.6c-.3.3-.7.4-1.1.4zM63.4 53.7c-9.5-4.1-20.6.2-24.8 9.8s.2 20.6 9.8 24.7S69 88 73.2 78.4c4.1-9.5-.3-20.6-9.8-24.7zm-18.6 5.4c.3-.2.7-.3 1.1-.3.3 0 .6.1.8.2.1.1.2.1.4.2L55 69.9l-10.2-4.4c-.9-.4-1.6-1.2-1.9-2.2-.2-1 0-2 .6-2.8l.1-.1c.4-.5.8-.9 1.2-1.3zm-3.3 6.5c.6-.3 1.4-.4 2-.1l1.1.5L55 70.5 41.3 72c-.4.1-.8-.1-1.1-.4-.3-.3-.4-.7-.4-1.1l.5-3.3c.1-.7.5-1.3 1.2-1.6zm5.9-6.8c-.2-.3-.3-.8-.2-1.2s.4-.7.8-.9l3.1-1.2c.6-.2 1.2-.2 1.8 0 .1 0 .2.1.3.1.4.2.7.6.9 1.1l1.5 12.7L48 59.2c-.2-.1-.4-.2-.6-.4zm7.1-2.6c0-.4.1-.8.4-1.1.3-.3.7-.4 1.1-.4l3.3.5c.2 0 .4.1.6.2.5.2.8.5 1.1 1 .2.4.3.9.3 1.4l-.3.6-4.8 11-1.4-12c0-.2-.1-.5-.2-.7l-.1-.5zm15.7 18.9a3 3 0 0 1-2.9.1l-10.2-4.4 13.2-1.5c.4.1.8.3 1.1.6.5.5.7 1.1.6 1.8l-.2 1c-.1 1-.7 1.9-1.6 2.4zm1.2-6.9c-.2.3-.6.6-1 .6-.2 0-.5-.1-.8 0L57 70.2l10.3-7.6c.4-.2.9-.2 1.4 0 .1 0 .2.1.3.1.6.2 1 .7 1.2 1.3l1.2 3.1c.3.3.2.7 0 1.1zm-3.9-6.4-.4.3c-.2.1-.4.2-.7.4l-9.7 7.2 4.8-11c.1-.2.2-.4.2-.7.3-.4.7-.6 1.2-.7.5-.1 1-.1 1.5.1.2.1.4.2.5.3l2.6 2.1c.3.3.5.6.5 1s-.2.8-.5 1zm-27 11.8c.3-.6.9-.9 1.6-1l12.7-1.5-9.1 6.7c-.8.6-1.9.8-2.9.5-1-.3-1.8-1-2.2-1.9l-.4-1c-.1-.6 0-1.3.3-1.8zm4.3 5.7 10.3-7.6L50.6 82c-.4.9-1.2 1.6-2.2 1.9-1 .2-2 0-2.8-.6l-.8-.7a2.09 2.09 0 0 1 0-3.3zm6.6 5.9c-.5-.9-.5-2-.1-2.9l4.5-10.4 1.5 12.7c.1.7-.2 1.3-.6 1.8s-1.1.7-1.8.6l-1-.2c-1.1-.1-2-.7-2.5-1.6zm7.8.2c-.9-.5-1.5-1.4-1.6-2.4l-1.3-11.2L64 82.1c.4.5.5 1.2.3 1.8-.2.6-.6 1.1-1.2 1.4l-1 .4c-.9.4-2 .3-2.9-.3zm6.8-2.6c-.4 0-.8-.2-1-.5l-8.2-11.1 10.4 4.5 1.1.5c.7.3 1.1.8 1.3 1.6.2.7 0 1.4-.4 2L67 82.3c-.2.4-.6.6-1 .5z" fill="#ffffff" stroke-width="none" opacity="1"></path><path id="SvgjsPath52427" d="M160.3 161c-9.9-4.3-21.5.3-25.8 10.2-4.3 9.9.3 21.5 10.2 25.8 9.9 4.3 21.5-.3 25.8-10.2 4.3-9.9-.3-21.5-10.2-25.8zm-15 34.5c-9.1-4-13.3-14.6-9.4-23.7 4-9.1 14.6-13.3 23.7-9.4 9.1 4 13.3 14.6 9.4 23.7a17.93 17.93 0 0 1-23.7 9.4zM63.7 52.9c-9.9-4.3-21.5.3-25.8 10.2s.3 21.5 10.2 25.8 21.5-.3 25.8-10.2-.3-21.5-10.2-25.8zm-15 34.5c-9.1-4-13.3-14.6-9.4-23.7S54 50.4 63.1 54.4 76.4 69 72.4 78.1a17.94 17.94 0 0 1-23.7 9.3z" fill="#d3b400" stroke-width="none" opacity="1"></path><path id="SvgjsPath52428" d="M160.6 73.3c-18.8 0-34.1-15.3-34.1-34.1s15.3-34.1 34.1-34.1 34.1 15.3 34.1 34.1-15.3 34.1-34.1 34.1zM83.5 182.1c-12.5 0-22.7-10.2-22.7-22.7s10.2-22.7 22.7-22.7 22.7 10.2 22.7 22.7-10.1 22.7-22.7 22.7zm89.2-52.6-.6.3c-13.3 7-18.4 23.4-11.4 36.7 7 13.3 23.4 18.4 36.7 11.4l.6-.3-25.3-48.1z" fill="#ffcb39" stroke-width="none" opacity="1"></path><path id="SvgjsPath52429" d="M160.6 2.7c-20.2 0-36.6 16.4-36.6 36.6s16.4 36.6 36.6 36.6 36.6-16.4 36.6-36.6c-.1-20.2-16.4-36.6-36.6-36.6zm-29 24.2a3.9 3.9 0 0 1 4.1-1.6l22.4 12.9h-21.5a6.4 6.4 0 0 1-6.2-8l.1-.3c.3-1.1.6-2.1 1.1-3zm-1 14c.9-1.1 2.1-1.8 3.6-1.8h24.4l-23.3 13.5c-.7.4-1.5.5-2.3.2-.7-.3-1.3-.9-1.5-1.7l-1.7-6.3c-.3-1.3 0-2.8.8-3.9zm5.4-16.6c-.7-.4-1.1-1.1-1.3-1.9-.1-.8.2-1.6.7-2.1l4.6-4.6c.9-.9 2-1.3 3.2-1.3h.6c.9.1 1.8.5 2.5 1.2l12.5 21.6-21.4-12.3c-.4-.3-.9-.4-1.4-.6zm10.6-10.1c-.4-.7-.4-1.5-.1-2.3.3-.7.9-1.3 1.7-1.5l6.3-1.7c.4-.1.8-.2 1.2-.2 1 0 1.9.3 2.7.9.8.6 1.3 1.4 1.6 2.2-.1.4-.2.9-.2 1.3v23.4L148 16.1c-.2-.4-.6-.8-.9-1.1l-.5-.8zm42.8 21.5a6.35 6.35 0 0 1-5.1 2.5h-21.5l22.3-12.9a4.04 4.04 0 0 1 4.8 2.9l.5 2c.6 1.9.2 3.9-1 5.5zm-3.3-13.3c-.1.8-.6 1.5-1.3 1.9-.5.1-.9.3-1.4.5L162 37.1l12.5-21.6c.7-.6 1.5-1.1 2.5-1.2h.6c1.2 0 2.3.5 3.2 1.3l4.6 4.6c.5.6.8 1.4.7 2.2zm-11.9-8.2-.4.8c-.3.3-.6.7-.9 1.2l-11.8 20.4V13.1c0-.4-.1-.9-.2-1.3.3-.9.8-1.7 1.6-2.2.8-.6 1.8-.9 2.7-.9.4 0 .8.1 1.2.2l6.3 1.7c.8.2 1.4.8 1.7 1.5.2.6.2 1.4-.2 2.1zm-39 41.8c.2-1.3.9-2.4 2-3l21.6-12.5-11 19a6.2 6.2 0 0 1-4.7 3.1c-2 .3-3.9-.4-5.3-1.8l-1.4-1.4c-1-.9-1.4-2.2-1.2-3.4zm12.1 6.8 12.5-21.6v22c0 2-.9 3.8-2.5 5.1s-3.6 1.6-5.5 1.1l-1.9-.5c-1.2-.3-2.2-1.2-2.7-2.4-.7-1.3-.6-2.6.1-3.7zm16.3 5.4a6.35 6.35 0 0 1-2.5-5.1V41.2l12.5 21.6c.6 1.1.7 2.4.2 3.6s-1.5 2.1-2.7 2.4l-1.9.5c-2 .5-4 .1-5.6-1.1zm14.1-5.6c-2-.3-3.7-1.4-4.7-3.1l-11-19L183.6 53a4.02 4.02 0 0 1 .8 6.4l-1.4 1.4a6.13 6.13 0 0 1-5.3 1.8zm10.1-9.8c-.7.3-1.6.2-2.3-.2l-23.3-13.5h24.4a4.57 4.57 0 0 1 4.4 5.7l-1.7 6.3c-.2.8-.8 1.4-1.5 1.7zM83.5 135c-13.5 0-24.4 10.9-24.4 24.4 0 13.5 10.9 24.4 24.4 24.4 13.5 0 24.4-10.9 24.4-24.4 0-13.5-10.9-24.4-24.4-24.4zm-19.3 16.1c.3-.4.7-.7 1.1-.9.3-.1.7-.2 1.1-.2.2 0 .4 0 .6.1l14.9 8.6H67.5c-1.3 0-2.6-.6-3.4-1.7-.8-1.1-1.1-2.4-.7-3.7v-.2c.3-.7.5-1.4.8-2zm-.6 9.4c.6-.7 1.4-1.2 2.4-1.2h16.3l-15.5 9c-.5.3-1 .3-1.5.1-.5-.2-.9-.6-1-1.1l-1.1-4.2c-.4-.9-.2-1.9.4-2.6zm3.6-11.1c-.5-.3-.8-.7-.8-1.2s.1-1.1.5-1.4l3.1-3.1c.6-.6 1.3-.9 2.1-.9h.4c.6.1 1.2.4 1.7.8l8.3 14.4-14.2-8.2c-.5-.2-.8-.3-1.1-.4zm7-6.8c-.3-.5-.3-1-.1-1.5.2-.5.6-.9 1.1-1l4.2-1.1c.3-.1.5-.1.8-.1.7 0 1.3.2 1.8.6.5.4.9.9 1 1.5-.1.3-.1.6-.1.9v15.6l-7.8-13.6c-.2-.3-.4-.5-.6-.8l-.3-.5zm28.5 14.4c-.8 1.1-2 1.7-3.4 1.7H85l14.9-8.6a2.62 2.62 0 0 1 3.2 1.9l.3 1.3c.4 1.3.1 2.6-.7 3.7zm-2.1-8.9c-.1.5-.4 1-.8 1.2-.3.1-.6.2-.9.4L84.5 158l8.3-14.4c.4-.4 1-.7 1.7-.8h.4c.8 0 1.5.3 2.1.9l3.1 3.1c.3.3.5.8.5 1.3zm-8-5.5-.3.5c-.2.2-.4.5-.6.8l-7.8 13.6v-15.6c0-.3 0-.6-.1-.9.2-.6.5-1.1 1-1.5a3 3 0 0 1 1.8-.6c.3 0 .5 0 .8.1l4.2 1.1c.5.1.9.5 1.1 1 .2.5.2 1.1-.1 1.5zm-26 27.9c.1-.9.6-1.6 1.3-2l14.4-8.3-7.3 12.6c-.7 1.1-1.8 1.9-3.1 2.1-1.3.2-2.6-.3-3.6-1.2l-.9-.9c-.6-.6-.9-1.5-.8-2.3zm8.1 4.6 8.3-14.4v14.6c0 1.3-.6 2.6-1.7 3.4-1.1.8-2.4 1.1-3.7.7l-1.3-.4c-.8-.2-1.5-.8-1.8-1.6-.3-.7-.3-1.6.2-2.3zm10.9 3.6c-1.1-.8-1.7-2-1.7-3.4v-14.6l8.3 14.4c.4.7.5 1.6.2 2.4-.3.8-1 1.4-1.8 1.6l-1.3.4c-1.4.3-2.7 0-3.7-.8zm9.4-3.8c-1.3-.2-2.5-.9-3.1-2.1l-7.3-12.7 14.4 8.3a2.74 2.74 0 0 1 .5 4.3l-.9.9c-1 1.1-2.3 1.5-3.6 1.3zm6.7-6.5c-.5.2-1 .2-1.5-.1l-15.5-9H101c.9 0 1.8.4 2.4 1.2s.8 1.7.5 2.6l-1.1 4.2c-.3.5-.6.9-1.1 1.1zm70.1-40.7-.6.3a29.15 29.15 0 0 0-12.3 39.4 29.15 29.15 0 0 0 39.4 12.3l.6-.3-27.1-51.7zm-6.8 11.7c-.1-.6.2-1.2.6-1.7l3.8-3.5c.8-.8 1.9-1.1 3-.9s2 .9 2.6 1.9l.9 1.6 8.2 15.6-18.2-11.4c-.5-.4-.8-.9-.9-1.6zm-3.9 6.3.5-1.5a3.3 3.3 0 0 1 4.9-1.8l16.8 10.6-17.5-.7c-1.6-.1-3-.9-3.9-2.1-1-1.3-1.3-3-.8-4.5zm6.5 16.4a5.09 5.09 0 0 1-7.3-3.4l-.4-1.6c-.2-1 0-2 .7-2.8.6-.8 1.6-1.2 2.6-1.2l19.8.9-15.4 8.1zm2.9 11.1c-1 .1-2-.3-2.7-1l-1.1-1.2a5.2 5.2 0 0 1-1.3-4.3 4.9 4.9 0 0 1 2.6-3.6l15.5-8.1-10.6 16.8c-.5.8-1.4 1.3-2.4 1.4zm8.9 5-1.5-.5c-1.5-.5-2.7-1.6-3.3-3.1-.6-1.5-.4-3.1.5-4.5l9.4-14.8-.8 19.9c0 1-.5 1.9-1.4 2.5-.9.6-1.9.8-2.9.5zm7.6.3c-.6.1-1.3 0-1.8-.4s-.8-1-.7-1.6l.9-21.4 8.2 15.6.9 1.6c.5 1 .6 2.1.1 3.2s-1.4 1.7-2.5 2l-5.1 1z" fill="#ffffff" stroke-width="none" opacity="1"></path><path id="SvgjsPath52430" d="M160.6 76.3c-20.4 0-37.1-16.6-37.1-37.1s16.6-37.1 37.1-37.1 37.1 16.6 37.1 37.1c-.1 20.5-16.7 37.1-37.1 37.1zm0-73.1c-19.9 0-36.1 16.2-36.1 36.1s16.2 36.1 36.1 36.1 36.1-16.2 36.1-36.1c-.1-19.9-16.2-36.1-36.1-36.1zM83.5 184.1c-13.6 0-24.7-11.1-24.7-24.7s11.1-24.7 24.7-24.7 24.7 11.1 24.7 24.7c.1 13.6-11 24.7-24.7 24.7zm0-48.8c-13.3 0-24 10.8-24 24.1s10.8 24 24 24 24-10.8 24-24c.1-13.3-10.7-24.1-24-24.1zM198.7 179l-.6.3c-14 7.4-31.5 1.9-38.8-12.1s-1.9-31.5 12.1-38.8l.6-.3-.4-.7-.6.3c-14.4 7.6-20 25.5-12.4 39.9s25.5 20 39.9 12.4l.6-.3-.4-.7z" fill="#edb018" stroke-width="none" opacity="1"></path><path id="SvgjsPath52431" d="M141.6 107.9c.1.2.2.4.4.6 8.4 12.7 25.5 16.1 38.2 7.7s16.1-25.5 7.7-38.2c-.1-.2-.3-.4-.4-.6l-45.9 30.5zM16.3 131.7c.1.1.1.3.2.4 4.5 9.2 15.7 13.1 24.9 8.6S54.5 125 50 115.8c-.1-.1-.1-.3-.2-.4l-33.5 16.3zm67.5 40.8c-.1.1-.1.3-.2.4a18.64 18.64 0 0 0 35.5 11.3c.1-.1.1-.3.1-.4l-35.4-11.3zM185.3 38.8c.1-.1.3-.1.4-.2 8.9-5.2 11.9-16.6 6.8-25.5A18.75 18.75 0 0 0 167 6.3c-.1.1-.3.2-.4.2l18.7 32.3zM80.6 5c-.1.2-.3.4-.4.6-8.1 14.6-2.9 33 11.6 41.2s33 2.9 41.2-11.6c.1-.2.2-.4.3-.7L80.6 5z" fill="#ff9624" stroke-width="none" opacity="1"></path><path id="SvgjsPath52432" d="M140 109c.1.2.2.4.4.6 9 13.6 27.4 17.3 41 8.3 13.6-9 17.3-27.4 8.3-41-.1-.2-.3-.4-.4-.6L140 109zm12.4 5.7c-.6.1-1.3-.1-1.8-.5l-3.9-3.5c-.9-.8-1.3-1.8-1.2-3 .1-1.1.7-2.1 1.6-2.8l1.6-1 14.9-9.9-9.7 19.5c-.3.6-.8 1-1.5 1.2zm6.8 3.3-1.6-.3c-1-.2-1.9-.9-2.3-1.8s-.4-2 0-2.9l9-18 1.1 17.7c.1 1.6-.5 3.2-1.8 4.2a5.3 5.3 0 0 1-4.4 1.1zm15.9-8.3a5.12 5.12 0 0 1-2.6 7.7l-1.6.5c-1 .3-2 .2-2.9-.4s-1.4-1.5-1.5-2.5l-1.2-20.1 9.8 14.8zm10.9-4.1c.2 1-.1 2.1-.8 2.8l-1.1 1.2a5.18 5.18 0 0 1-4.2 1.7c-1.6-.1-3.1-.9-3.9-2.3l-9.8-14.8 18.1 9c.9.6 1.5 1.4 1.7 2.4zm4.1-9.5-.3 1.6c-.3 1.6-1.3 2.9-2.8 3.6s-3.1.7-4.6 0l-15.9-7.9 20.1-1.2c1-.1 2 .3 2.7 1.1.7.8 1 1.8.8 2.8zm-.5-7.7c.2.6.1 1.3-.2 1.8-.4.5-.9.9-1.6.9L166 92.4l14.9-9.9 1.6-1c.9-.6 2.1-.8 3.2-.4s1.9 1.2 2.3 2.3l1.6 5zM15.1 132.3c.1.1.1.3.2.4a20.03 20.03 0 1 0 36-17.6c-.1-.1-.1-.3-.2-.4l-36 17.6zm7.8 4.9c-.4 0-.9-.1-1.1-.5l-2.3-2.7c-.5-.6-.7-1.3-.5-2.1s.6-1.4 1.3-1.7l1.1-.6 10.9-5.3-8.3 12.3c-.2.3-.6.6-1.1.6zm4.3 2.8-1-.4c-.7-.2-1.2-.7-1.4-1.4-.2-.7-.1-1.4.3-2l7.6-11.3-.8 12c-.1 1.1-.6 2.1-1.5 2.7-1.1.6-2.2.8-3.2.4zm11.3-4.1c.5 1 .5 2.1 0 3.1s-1.4 1.7-2.5 1.9l-1.1.2c-.7.1-1.4-.1-1.9-.5-.5-.5-.8-1.1-.8-1.8l1-13.6 5.3 10.7zm7.7-1.8c0 .7-.2 1.4-.8 1.8l-.8.7c-.8.7-1.9 1-3 .8s-2-.9-2.4-1.9L34 124.8l11.3 7.6c.5.4.9 1 .9 1.7zm3.6-6-.4 1c-.4 1-1.2 1.8-2.2 2.2-1 .4-2.2.2-3.1-.4l-10-6.7 13.6.9c.7.1 1.3.4 1.7 1 .6.6.6 1.3.4 2zm.4-5.3c.1.4 0 .9-.3 1.2-.3.3-.7.5-1.2.5l-14.7-1 10.9-5.3 1.1-.6c.7-.3 1.5-.3 2.2 0 .7.3 1.2 1 1.3 1.7l.7 3.5zm32.3 49.3c-.1.1-.1.3-.2.4a19.87 19.87 0 0 0 13 25.1c10.5 3.4 21.8-2.4 25.2-13 .1-.1.1-.3.1-.4l-38.1-12.1zm2.3 9c-.3-.3-.5-.7-.5-1.1l.2-3.6c0-.8.4-1.5 1.1-1.9.6-.4 1.4-.6 2.2-.3l1.2.4 11.5 3.7-14.5 3.1c-.4.1-.8 0-1.2-.3zm1.1 5-.5-1c-.3-.6-.3-1.4 0-2 .3-.6.9-1.1 1.6-1.2l13.3-2.9-8.9 8.1c-.8.7-1.9 1.1-3 .9-1.1-.3-2-1-2.5-1.9zM97 191c-.3 1-1.1 1.9-2.1 2.2s-2.2.2-3.1-.4l-.9-.6c-.6-.4-1-1-1-1.7s.2-1.4.7-1.8l10.1-9.2L97 191zm6.8 4c-.4.5-1.1.8-1.8.8l-1.1-.1a3.55 3.55 0 0 1-3.2-4.6l3.7-11.4 2.9 13.3c.1.8-.1 1.5-.5 2zm6.7-1.9-1 .5c-1 .5-2.1.5-3.1.1-1-.5-1.7-1.4-1.9-2.4l-2.6-11.7 9.2 10.1c.5.5.7 1.2.6 1.9a2 2 0 0 1-1.2 1.5zm3.9-3.5c-.2.4-.6.6-1.1.6-.4 0-.9-.1-1.2-.4l-9.9-10.9 11.5 3.7 1.2.4c.7.2 1.3.8 1.6 1.5.3.7.2 1.5-.2 2.2l-1.9 2.9zM186 40c.1-.1.3-.1.4-.2 9.6-5.6 12.8-17.8 7.2-27.4S175.8-.4 166.2 5.2c-.1.1-.3.2-.4.2L186 40zm4.3-8.2c.1.4-.1.9-.4 1.2l-2.5 2.5c-.5.5-1.3.8-2.1.7-.8-.1-1.4-.5-1.8-1.2l-.6-1.1-6.1-10.5 12.8 7.3c.4.3.7.7.7 1.1zm2.5-4.4-.3 1.1c-.2.7-.6 1.2-1.3 1.5-.6.3-1.4.2-2-.1L177.4 23h12c1.1 0 2.1.5 2.8 1.4.7.8.9 1.9.6 3zm-4.9-11.1c.9-.6 2.1-.6 3.1-.2 1 .4 1.8 1.3 2 2.3l.3 1.1c.2.7.1 1.4-.4 1.9-.4.6-1.1.9-1.8.9h-13.6l10.4-6zm-2.3-7.5c.7-.1 1.4.1 1.9.6l.8.8c.8.8 1.1 1.8 1 2.9-.1 1.1-.8 2-1.7 2.6l-10.4 6L184 9.9c.3-.6.9-1 1.6-1.1zm-6.3-3.1 1.1.3c1.1.3 1.9 1 2.3 2 .4 1 .4 2.1-.2 3.1l-6 10.4V7.9c0-.7.3-1.3.9-1.8.5-.5 1.2-.6 1.9-.4zm-5.2 0c.4-.1.9 0 1.2.2s.6.7.6 1.1v14.7l-6.1-10.4-.6-1.1c-.4-.7-.4-1.4-.1-2.2.3-.7.9-1.2 1.6-1.4l3.4-.9zM78.7 3.9c-.1.2-.3.4-.4.6-8.8 15.7-3.2 35.5 12.5 44.2s35.4 3.2 44.2-12.5c.1-.2.2-.4.3-.7L78.7 3.9zm.7 15c-.4-.6-.6-1.3-.4-2l1.4-5.6a3.9 3.9 0 0 1 2.3-2.7c1.2-.5 2.4-.4 3.5.2l1.8 1 17.1 9.6-23.9.3c-.7.1-1.3-.2-1.8-.8zm.2 8.3-.5-1.7c-.3-1.1-.1-2.2.6-3.2s1.7-1.5 2.9-1.5l22.1-.3-16.7 10c-1.5.9-3.3 1-5 .4-1.7-.6-2.9-2-3.4-3.7zm16 11.3c-.9 1.5-2.4 2.6-4.1 2.8-1.8.3-3.5-.3-4.8-1.5l-1.3-1.2c-.8-.8-1.2-1.9-1.1-3 .1-1.1.8-2.1 1.8-2.7l19-11.3-9.5 16.9zm9.5 8.7c-.9.7-2 1-3.1.7l-1.7-.4a5.56 5.56 0 0 1-3.5-8.2l9.5-17 .3 22.1c-.1 1-.6 2.1-1.5 2.8zm11.3-.9-1.7.5c-1.7.5-3.5.2-4.9-.9s-2.2-2.7-2.3-4.5l-.3-19.4 11.3 19c.6 1 .7 2.2.2 3.2-.3 1-1.2 1.8-2.3 2.1zm7.3-4.3c-.5.5-1.2.8-1.9.7-.7-.1-1.3-.5-1.7-1.1L107.9 21l17.1 9.6 1.8 1c1.1.6 1.8 1.7 2 2.9.2 1.2-.2 2.5-1.1 3.3l-4 4.2z" fill="#ffffff" stroke-width="none" opacity="1"></path><path id="SvgjsPath52433" d="M188.9 76.6c.1.2.3.4.4.6a29.15 29.15 0 1 1-48.6 32.2c-.1-.2-.2-.4-.4-.6l-.7.4c.1.2.2.4.4.6 9.1 13.8 27.8 17.6 41.6 8.4s17.6-27.8 8.4-41.6c-.1-.2-.3-.4-.4-.6l-.7.6zM50.8 114.9c.1.1.1.3.2.4a19.74 19.74 0 1 1-35.5 17.3c-.1-.1-.1-.3-.2-.4l-.5.2c.1.1.1.3.2.4 4.9 10.1 17.1 14.2 27.1 9.3S56.3 125 51.4 115c-.1-.1-.1-.3-.2-.4l-.4.3zm69.5 69.3c0 .1-.1.3-.1.4-3.3 10.4-14.4 16.1-24.8 12.8S79.3 183 82.6 172.6c.1-.1.1-.3.2-.4l-.5-.2c-.1.1-.1.3-.2.4-3.4 10.7 2.5 22.1 13.2 25.5s22.1-2.5 25.5-13.1c.1-.1.1-.3.1-.4l-.6-.2zM166.1 5.7c.1-.1.3-.2.4-.2 9.4-5.5 21.5-2.3 27 7.1a19.76 19.76 0 0 1-7.5 27.2l.3.5c.1-.1.3-.1.4-.2 9.7-5.6 13-18.1 7.3-27.7-5.6-9.7-18.1-13-27.7-7.3-.1.1-.3.2-.4.2l.2.4zm-31.2 29.7c-.1.2-.2.4-.3.7C126 51.4 106.4 57 91 48.3S70 20.2 78.7 4.8c.1-.2.2-.4.4-.6l-.8-.4c-.1.2-.3.4-.4.6-8.9 15.8-3.2 35.9 12.7 44.7s35.9 3.2 44.8-12.7c.1-.2.2-.4.3-.7l-.8-.3z" fill="#ff8603" stroke-width="none" opacity="1"></path><path id="SvgjsPath52434" d="M78.3 31c-.1.1-.3.1-.4.2-9.6 5-13.3 16.9-8.3 26.5S86.5 71 96.1 65.9c.1-.1.3-.2.4-.2L78.3 31zm44.5 165.6c.1-.1.2-.2.4-.3 8.2-7.1 9.1-19.5 2.1-27.7-7.1-8.2-19.5-9.1-27.7-2.1-.1.1-.2.2-.4.3l25.6 29.8z" fill="#ffcb39" stroke-width="none" opacity="1"></path><path id="SvgjsPath52435" d="M77.7 29.7c-.1.1-.3.1-.4.2-10.4 5.4-14.4 18.1-9 28.4s18.1 14.3 28.5 8.9c.1-.1.3-.2.4-.2L77.7 29.7zm-4.9 8.4c0-.5.1-.9.5-1.2l2.8-2.5c.6-.5 1.4-.8 2.2-.7.8.1 1.5.6 1.8 1.3l.6 1.2 5.9 11.3-13.1-8.3c-.5-.2-.7-.6-.7-1.1zm-2.9 4.6.3-1.1c.2-.7.7-1.3 1.4-1.5.7-.2 1.4-.2 2.1.2L85.9 48l-12.6-.5c-1.2 0-2.2-.6-2.8-1.5-.7-1-.9-2.2-.6-3.3zm4.7 11.8c-1 .5-2.2.6-3.2.1s-1.8-1.4-2-2.5l-.4-1.2c-.2-.7 0-1.5.5-2s1.2-.9 1.9-.8l14.3.6-11.1 5.8zm2.1 8.1c-.7.1-1.4-.2-1.9-.8L74 61c-.8-.8-1.1-2-.9-3.1.2-1.1.9-2.1 1.9-2.6l11.2-5.9-7.7 12.1c-.4.6-1.1 1-1.8 1.1zm6.4 3.5-1.1-.3c-1.1-.3-2-1.2-2.3-2.2-.4-1.1-.3-2.3.3-3.2l6.8-10.7-.6 14.3c0 .7-.4 1.4-1 1.8-.6.4-1.4.6-2.1.3zm5.6.3c-.4.1-.9 0-1.3-.3-.3-.3-.6-.7-.5-1.2l.6-15.5 5.9 11.3.6 1.2c.4.7.4 1.5.1 2.3-.3.7-1 1.3-1.8 1.4l-3.6.8zm35.1 131.3c.1-.1.2-.2.4-.3a21.06 21.06 0 0 0-27.5-31.9c-.1.1-.2.2-.4.3l27.5 31.9zm2.9-9.3c.1.4.1.9-.2 1.3l-2.1 3.1c-.5.7-1.2 1.1-2 1.1-.8.1-1.6-.3-2.1-.9l-.9-1-8.3-9.6 14.6 5.1c.5.1.8.4 1 .9zm1.7-5.1-.1 1.2c-.1.7-.4 1.4-1.1 1.8-.6.4-1.4.5-2.1.2l-13.6-4.7 12.4-2.4c1.1-.2 2.3.1 3.1.9 1 .7 1.5 1.8 1.4 3zm-7.2-10.5c.9-.8 2-1.1 3.2-.8 1.1.2 2.1 1 2.6 2l.5 1.1c.3.7.3 1.4 0 2.1-.3.7-.9 1.1-1.7 1.3l-14.1 2.7 9.5-8.4zm-3.9-7.3c.7-.2 1.5-.1 2.1.3l1 .6c.9.6 1.5 1.7 1.6 2.8.1 1.1-.4 2.2-1.3 3l-9.6 8.2 4.7-13.6c.2-.6.8-1.1 1.5-1.3zm-7.1-2.1 1.2.1c1.2.1 2.2.7 2.8 1.6.6 1 .8 2.1.4 3.2l-4.2 11.9-2.7-14.1c-.1-.7.1-1.5.6-2 .5-.4 1.2-.7 1.9-.7zm-5.4 1.1c.4-.2.9-.2 1.3 0s.7.6.8 1l2.9 15.2-8.3-9.6-.9-1c-.5-.6-.7-1.4-.6-2.2s.7-1.4 1.4-1.8l3.4-1.6z" fill="#ffffff" stroke-width="none" opacity="1"></path><path id="SvgjsPath52436" d="M97.1 66.7c-.1.1-.3.2-.4.2-10.2 5.3-22.7 1.4-28.1-8.8S67.2 35.4 77.4 30c.1-.1.3-.1.4-.2l-.3-.5c-.1.1-.3.1-.4.2-10.4 5.5-14.5 18.4-9 28.8s18.4 14.5 28.8 9c.1-.1.3-.2.4-.2l-.2-.4zm-.6 99.3c.1-.1.2-.2.4-.3 8.7-7.5 21.8-6.5 29.3 2.2s6.5 21.8-2.2 29.3c-.1.1-.2.2-.4.3l.4.4c.1-.1.2-.2.4-.3 8.9-7.7 9.9-21.2 2.2-30.1s-21.2-9.9-30.1-2.2c-.1.1-.2.2-.4.3l.4.4z" fill="#edb018" stroke-width="none" opacity="1"></path><path id="SvgjsPath52437" d="M31 56.8c-14.3 0-26-11.7-26-26s11.7-26 26-26 26 11.7 26 26-11.7 26-26 26z" fill="#ffe964" stroke-width="none" opacity="1"></path><path id="SvgjsPath52438" d="M31 2.9a27.91 27.91 0 0 0 0 55.8 27.91 27.91 0 0 0 0-55.8zM8.9 21.3c.3-.5.8-.8 1.3-1 .4-.2.8-.2 1.2-.2.2 0 .4 0 .6.1l17.1 9.9H12.6c-1.5 0-2.9-.7-3.9-1.9-.9-1.2-1.2-2.8-.8-4.2l.1-.4c.3-.8.6-1.6.9-2.3zM8.2 32c.6-.9 1.6-1.3 2.7-1.3h18.7L11.7 41c-.5.3-1.2.3-1.7.1-.6-.2-1-.7-1.1-1.3L7.6 35c-.3-1-.1-2.1.6-3zm4-12.7c-.5-.3-.9-.8-1-1.4s.1-1.2.6-1.6l3.5-3.5c.6-.6 1.5-1 2.4-1h.5c.7.1 1.4.4 1.9.9l9.5 16.5-16.3-9.4c-.3-.2-.7-.3-1.1-.5zm8.2-7.7c-.3-.5-.4-1.2-.1-1.7.2-.6.7-1 1.3-1.1l4.8-1.3c.3-.1.6-.1.9-.1.7 0 1.5.2 2.1.7.6.4 1 1 1.2 1.7-.1.3-.1.7-.1 1v17.9l-9-15.5c-.2-.3-.4-.6-.7-.9l-.4-.7zM53 28c-.9 1.2-2.3 1.9-3.9 1.9H32.7l17-9.8c.6-.1 1.3-.1 1.9.1.9.4 1.6 1.1 1.8 2.1l.4 1.5c.4 1.5.1 3-.8 4.2zm-2.5-10.1c-.1.6-.4 1.1-1 1.4a3 3 0 0 0-1 .4l-16.3 9.4 9.5-16.5c.5-.5 1.2-.8 1.9-.9h.5c.9 0 1.8.4 2.4 1l3.5 3.5c.3.5.5 1.1.5 1.7zm-9.1-6.3-.4.6c-.3.3-.5.6-.7.9l-9 15.5V10.8c0-.3 0-.7-.1-1 .2-.7.6-1.3 1.2-1.7.6-.5 1.3-.7 2.1-.7.3 0 .6 0 .9.1l4.8 1.3c.6.2 1.1.6 1.3 1.1a2 2 0 0 1-.1 1.7zM11.6 43.5c.1-1 .7-1.8 1.5-2.3l16.5-9.5-8.4 14.5c-.8 1.3-2.1 2.2-3.6 2.4s-3-.3-4.1-1.4l-1.1-1.1c-.6-.7-.9-1.6-.8-2.6zm9.3 5.2 9.5-16.5V49c0 1.5-.7 2.9-1.9 3.9s-2.8 1.2-4.2.8l-1.5-.4c-1-.2-1.7-.9-2.1-1.8-.4-.9-.3-1.9.2-2.8zm12.4 4.1c-1.2-.9-1.9-2.3-1.9-3.9V32.2l9.5 16.5c.5.8.6 1.8.2 2.8-.4.9-1.1 1.6-2.1 1.8l-1.5.4c-1.5.4-3 .1-4.2-.9zm10.8-4.2c-1.5-.2-2.8-1.1-3.6-2.4l-8.4-14.5 16.5 9.5a3.11 3.11 0 0 1 .6 4.9l-1.1 1.1c-1 1.1-2.5 1.6-4 1.4zm7.7-7.5a2 2 0 0 1-1.7-.1L32.2 30.7h18.7c1.1 0 2.1.5 2.7 1.3.7.8.9 1.9.6 3l-1.3 4.8c-.2.6-.6 1-1.1 1.3z" fill="#ffffff" stroke-width="none" opacity="1"></path><path id="SvgjsPath52439" d="M31 59C15.4 59 2.7 46.4 2.7 30.8S15.4 2.5 31 2.5s28.3 12.7 28.3 28.3S46.6 59 31 59zm0-55.7C15.8 3.3 3.5 15.6 3.5 30.8S15.8 58.3 31 58.3 58.5 46 58.5 30.8 46.2 3.3 31 3.3z" fill="#eac71b" stroke-width="none" opacity="1"></path><path id="SvgjsPath52440" d="M51.9 28c-6.7 0-12.2-5.5-12.2-12.2S45.2 3.7 51.9 3.7s12.2 5.5 12.2 12.2S58.6 28 51.9 28zM55 163.3c-6.7 0-12.2-5.5-12.2-12.2 0-6.7 5.5-12.2 12.2-12.2s12.2 5.5 12.2 12.2c-.1 6.7-5.5 12.2-12.2 12.2zm85-70.6a17.2 17.2 0 1 1 17.2-17.2c0 9.5-7.8 17.2-17.2 17.2zM95.7 200.1v-.2c-.1-5.4-4.6-9.8-10-9.8-5.4.1-9.8 4.6-9.8 10v.2l19.8-.2z" fill="#d8f94b" stroke-width="none" opacity="1"></path><path id="SvgjsPath52441" d="M51.9 2.8c-7.2 0-13.1 5.8-13.1 13.1S44.6 29 51.9 29 65 23.1 65 15.9 59.1 2.8 51.9 2.8zm-10.4 8.6c.2-.2.4-.4.6-.5.2-.1.4-.1.6-.1h.3l8 4.6h-7.7c-.7 0-1.4-.3-1.8-.9-.4-.6-.6-1.3-.4-2v-.1c.1-.3.2-.6.4-1zm-.3 5c.3-.4.8-.6 1.3-.6h8.7l-8.3 4.8c-.2.1-.5.2-.8 0-.3-.1-.5-.3-.5-.6l-.6-2.2c-.2-.5-.1-1 .2-1.4zm1.9-5.9c-.2-.1-.4-.4-.5-.7s.1-.6.3-.8l1.6-1.6c.3-.3.7-.5 1.1-.5h.2c.3 0 .6.2.9.4l4.5 7.7-7.6-4.4c-.2 0-.3-.1-.5-.1zm3.8-3.6c-.1-.2-.2-.5 0-.8.1-.3.3-.5.6-.5l2.2-.6c.1 0 .3-.1.4-.1.3 0 .7.1 1 .3.3.2.5.5.5.8 0 .2-.1.3-.1.5v8.4l-4.2-7.3c-.1-.2-.2-.3-.3-.4l-.1-.3zm15.3 7.7c-.4.6-1.1.9-1.8.9h-7.7l8-4.6c.3-.1.6-.1.9.1.4.2.7.5.8 1l.2.7c.1.6 0 1.3-.4 1.9zM61 9.8c0 .3-.2.5-.5.7-.2 0-.3.1-.5.2l-7.6 4.4 4.5-7.7c.2-.2.5-.4.9-.4h.2c.4 0 .8.2 1.1.5L60.7 9c.2.2.3.5.3.8zm-4.3-2.9-.2.3c-.1.1-.2.3-.3.4L52 14.9V6.5c0-.2 0-.3-.1-.5.1-.3.3-.6.5-.8.3-.2.6-.3 1-.3.1 0 .3 0 .4.1l2.2.6c.3.1.5.3.6.5.3.2.3.5.1.8zM42.8 21.8c.1-.5.3-.9.7-1.1l7.7-4.4-3.9 6.8c-.4.6-1 1-1.7 1.1s-1.4-.1-1.9-.6l-.5-.6c-.3-.3-.5-.7-.4-1.2zm4.3 2.4 4.5-7.7v7.8c0 .7-.3 1.4-.9 1.8-.6.4-1.3.6-2 .4l-.7-.1c-.4-.1-.8-.4-1-.9-.1-.4-.1-.9.1-1.3zm5.9 2c-.6-.4-.9-1.1-.9-1.8v-7.8l4.5 7.7c.2.4.3.9.1 1.3-.2.4-.5.7-1 .9l-.7.2c-.8.1-1.5-.1-2-.5zm5-2c-.7-.1-1.3-.5-1.7-1.1l-3.9-6.8 7.7 4.5c.4.2.7.6.7 1.1.1.5-.1.9-.4 1.2l-.5.5c-.5.4-1.2.7-1.9.6zm3.6-3.5c-.3.1-.6.1-.8 0l-8.3-4.8h8.7c.5 0 1 .2 1.3.6s.4.9.3 1.4l-.6 2.2c-.2.2-.3.5-.6.6zM55 138c-7.2 0-13.1 5.9-13.1 13.1 0 7.2 5.8 13.1 13.1 13.1s13-5.9 13-13.1c0-7.2-5.8-13.1-13-13.1zm-10.4 8.7c.2-.2.4-.4.6-.5.2-.1.4-.1.6-.1h.3l8 4.6h-7.7c-.7 0-1.4-.3-1.8-.9-.4-.6-.6-1.3-.4-2v-.1c.1-.3.2-.7.4-1zm-.3 5c.3-.4.8-.6 1.3-.6h8.7l-8.3 4.8c-.2.1-.5.2-.8.1-.3-.1-.5-.3-.5-.6l-.6-2.2c-.2-.6-.1-1.1.2-1.5zm1.9-5.9c-.2-.1-.4-.4-.5-.7s.1-.6.3-.8l1.6-1.6c.3-.3.7-.5 1.1-.5h.2c.3 0 .6.2.9.4l4.5 7.7-7.6-4.4c-.2 0-.4-.1-.5-.1zm3.8-3.7c-.1-.2-.2-.5 0-.8.1-.3.3-.5.6-.5l2.2-.6c.1 0 .3-.1.4-.1.3 0 .7.1 1 .3.3.2.5.5.5.8 0 .1-.1.3-.1.5v8.4l-4.2-7.3c-.1-.1-.2-.3-.3-.4l-.1-.3zm15.2 7.7c-.4.6-1.1.9-1.8.9h-7.7l8-4.6c.3-.1.6-.1.9.1.4.2.7.5.8 1l.2.7c.2.6.1 1.4-.4 1.9zm-1.1-4.7c0 .3-.2.5-.5.7-.2 0-.3.1-.5.2l-7.6 4.4 4.5-7.7c.2-.2.5-.4.9-.4h.2c.4 0 .8.2 1.1.5l1.6 1.6c.2.1.3.4.3.7zm-4.3-3-.2.3c-.1.1-.2.3-.3.4l-4.2 7.3v-8.4c0-.2 0-.3-.1-.5.1-.3.3-.6.5-.8.3-.2.6-.3 1-.3.1 0 .3 0 .4.1l2.2.6c.3.1.5.3.6.5.3.3.3.6.1.8zm-13.9 15c.1-.4.3-.9.7-1.1l7.7-4.4-3.9 6.8c-.4.6-1 1-1.7 1.1s-1.4-.1-1.9-.6l-.5-.5c-.3-.4-.5-.9-.4-1.3zm4.3 2.4 4.5-7.7v7.8c0 .7-.3 1.4-.9 1.8-.6.4-1.3.6-2 .4l-.7-.2c-.4-.1-.8-.4-1-.9-.1-.3-.1-.8.1-1.2zm5.8 2c-.6-.4-.9-1.1-.9-1.8v-7.8l4.5 7.7c.2.4.3.9.1 1.3-.2.4-.5.7-1 .9l-.7.2c-.7 0-1.4-.1-2-.5zm5.1-2c-.7-.1-1.3-.5-1.7-1.1l-3.9-6.8 7.7 4.4c.4.2.7.6.7 1.1.1.4-.1.9-.4 1.2l-.5.5c-.5.5-1.2.8-1.9.7zm3.6-3.6c-.3.1-.6.1-.8-.1l-8.3-4.8h8.7c.5 0 1 .2 1.3.6.3.4.4.9.3 1.4l-.6 2.2c-.2.4-.4.6-.6.7zM140 57.1c-10.2 0-18.4 8.2-18.4 18.4s8.2 18.4 18.4 18.4 18.4-8.2 18.4-18.4-8.3-18.4-18.4-18.4zm-14.7 12.1c.2-.3.5-.5.9-.7.3-.1.5-.2.8-.2.1 0 .3 0 .4.1l11.3 6.5h-10.8c-1 0-1.9-.5-2.6-1.3s-.8-1.8-.6-2.8v-.2c.2-.4.4-.9.6-1.4zm-.4 7.1c.4-.6 1.1-.9 1.8-.9H139l-11.8 6.8c-.3.2-.8.2-1.1.1s-.7-.5-.8-.9l-.8-3.2c-.2-.6-.1-1.3.4-1.9zm2.7-8.4c-.3-.2-.6-.6-.6-.9-.1-.4.1-.8.4-1.1l2.3-2.3c.4-.4 1-.7 1.6-.7h.3c.5.1.9.3 1.2.6l6.3 10.9-10.8-6.2c-.2-.1-.5-.2-.7-.3zm5.3-5.1c-.2-.3-.2-.8-.1-1.1.1-.4.5-.7.9-.8l3.2-.8c.2 0 .4-.1.6-.1.5 0 1 .2 1.4.5.4.3.6.7.8 1.1-.1.2-.1.4-.1.7v11.8l-5.9-10.3c-.1-.2-.3-.4-.4-.6l-.4-.4zm21.6 10.9c-.6.8-1.5 1.3-2.6 1.3H141l11.2-6.5c.4-.1.8-.1 1.2.1.6.2 1 .8 1.2 1.4l.3 1c.4.9.2 1.9-.4 2.7zm-1.7-6.7c-.1.4-.3.8-.6.9-.2.1-.5.1-.7.3l-10.8 6.2 6.3-10.9c.3-.3.8-.5 1.2-.6h.3c.6 0 1.2.2 1.6.7l2.3 2.3c.3.3.5.7.4 1.1zm-6-4.2-.2.4c-.2.2-.3.4-.4.6l-5.9 10.3V62.3c0-.2 0-.5-.1-.7.1-.4.4-.8.8-1.1.4-.3.9-.5 1.4-.5.2 0 .4 0 .6.1l3.2.8c.4.1.7.4.9.8 0 .4-.1.8-.3 1.1zm-19.6 21.1c.1-.6.4-1.2 1-1.5l10.9-6.3-5.5 9.6c-.5.9-1.4 1.4-2.4 1.6-1 .1-2-.2-2.7-.9l-.7-.7c-.5-.5-.7-1.2-.6-1.8zm6 3.4 6.3-10.9v11.1c0 1-.5 1.9-1.3 2.6-.8.6-1.8.8-2.8.6l-1-.3c-.6-.2-1.1-.6-1.4-1.2-.1-.6-.1-1.3.2-1.9zm8.3 2.8c-.8-.6-1.3-1.5-1.3-2.6v-11l6.3 10.9c.3.6.4 1.2.1 1.8s-.8 1-1.4 1.2l-1 .3c-.9.2-1.9 0-2.7-.6zm7.1-2.9c-1-.1-1.9-.7-2.4-1.6l-5.5-9.6 10.9 6.3c.6.3.9.9 1 1.5s-.1 1.3-.6 1.7l-.7.7c-.7.9-1.7 1.2-2.7 1zm5.1-4.9c-.4.2-.8.1-1.1-.1l-11.8-6.8h12.3c.7 0 1.4.3 1.8.9s.6 1.3.4 2l-.9 3.2c-.1.3-.4.6-.7.8zM96.4 200.1v-.2a10.6 10.6 0 0 0-21.2.2v.2l21.2-.2zm-2.7-4.2c.2.1.4.3.4.5l.5 1.8c.1.4 0 .8-.2 1.1-.2.3-.6.5-1 .5h-.7l-6.4.1 6.7-4c.3 0 .5-.1.7 0zm-1.4-2.3.4.4c.3.3.4.6.3 1 0 .4-.2.7-.6.9l-6.2 3.7 3.1-5.6a1.95 1.95 0 0 1 3-.4zm-6.4-.6c0-.6.2-1.1.7-1.5s1-.5 1.6-.3l.6.1c.4.1.7.3.8.7s.1.7-.1 1.1l-3.5 6.3-.1-6.4zm-4.1-.9c.1-.4.4-.6.8-.7l.6-.2c.6-.2 1.2-.1 1.6.3s.7.9.7 1.5l.1 6.4-3.7-6.2c-.2-.4-.2-.8-.1-1.1zm-3 2.1.4-.4c.4-.4 1-.6 1.5-.5.6.1 1.1.4 1.4.9l3.2 5.5L79 196c-.3-.2-.5-.5-.6-.9 0-.3.1-.7.4-.9zm-1.4 2.4c.1-.2.2-.4.4-.5.2-.1.4-.1.7 0l6.8 3.8-6.4.1h-.7c-.4 0-.8-.2-1-.5s-.3-.7-.2-1.1l.4-1.8z" fill="#ffffff" stroke-width="none" opacity="1"></path><path id="SvgjsPath52442" d="M51.9 2.2c-7.5 0-13.6 6.1-13.6 13.6s6.1 13.6 13.6 13.6 13.6-6.1 13.6-13.6S59.4 2.2 51.9 2.2zm0 26.2c-6.9 0-12.5-5.6-12.5-12.5S45 3.3 51.9 3.3s12.5 5.6 12.5 12.5-5.6 12.6-12.5 12.6zM55 137.5c-7.5 0-13.6 6.1-13.6 13.6s6.1 13.6 13.6 13.6 13.6-6.1 13.6-13.6-6.1-13.6-13.6-13.6zm0 26.1a12.5 12.5 0 1 1 0-25 12.5 12.5 0 0 1 0 25zm85-107.3a19.2 19.2 0 1 0 .01 38.41A19.2 19.2 0 0 0 140 56.3zm0 36.8c-9.7 0-17.7-7.9-17.7-17.7s7.9-17.7 17.7-17.7 17.6 7.9 17.6 17.7-7.9 17.7-17.6 17.7zM75.3 200.3v-.2c-.1-5.8 4.6-10.5 10.3-10.6 5.8-.1 10.5 4.6 10.6 10.4v.2h.3v-.2c-.1-5.9-4.9-10.7-10.9-10.6-5.9.1-10.7 4.9-10.6 10.9v.2l.3-.1z" fill="#8ab21b" stroke-width="none" opacity="1"></path></g><g id="svga-group-humanwrap-move" transform="matrix(1,0,0,1,0,0)"><g id="svga-group-humanwrap" transform="matrix(1,0,0,1,0,0)"><g id="svga-group-hair-back-move" transform="matrix(1,0,0,1,0,0)"><g id="svga-group-hair-back" transform="matrix(1,0,0,1,0,0)"><path id="SvgjsPath52757" d="M85.5 39.3s-26 4.5-33.6 29.6-.6 18.1-3.4 35.8.8 26.5 4.8 30.5c0 0-4.2 8.8 1.1 16.4 0 0-5.1 3.7-2.8 11.3 0 0-6.8 3.4-2.8 14.9 4 11.6 15.8 8.5 18.9 4.2 3.1-4.2 45.2-28.2 49.7-29.6s18.6-9.6 22.3-22.9c0 0 9-11.8 5.9-30.2 0 0 5.1-14.7.9-28.5s-13.3-22-21.2-22.3-34.4-6.2-34.4-6.2l-5.4-3z" fill="#504543" stroke-width="none" opacity="1" stroke="none"></path><path id="SvgjsPath52758" d="M57.7 65.3s-6 10.5-6.2 18.1 0 14.7-1.7 22.9 2 15 8.8 19.8c6.8 4.8 9.7 11.5 11.7 15.2s20.9 10.4 16.7-12.8c-1.5-7.9-24.4-54-25.2-57.1s-4.1-6.1-4.1-6.1zm77.6 21.2s7.1 11 6.2 21-2 20.1-7.6 27.2c-5.7 7.1-16.7 10.8-16.7 10.8l8.5-28.9 9.6-30.1z" fill="#483b39" stroke-width="none" opacity="1" stroke="none"></path></g></g><g id="svga-group-humanbody-back"><path id="SvgjsPath52251" d="m168.5 219.5-1.7-21.5s.7-9-8.8-15.3-23.4-10.1-29.5-14.2c-6.1-4.1-9.2-4.5-9-16.9s.9-40.3.9-40.3H79.6s.7 27.9.9 40.3c.2 12.4-2.9 12.8-9 16.9-6.1 4.1-20 7.9-29.5 14.2S33.2 198 33.2 198l-1.6 21.5h136.9z" fill="#ffd0bc" stroke-width="none" opacity="1" stroke="none"></path></g><g id="svga-group-chinshadow-single"><path id="SvgjsPath52586" d="M100 160.9s9.1.44 19.5-7.32c-.01-.63-.01-1.28 0-1.98.2-12.4.9-40.3.9-40.3H79.6s.7 27.9.9 40.3c.01.7.01 1.36 0 1.98 10.4 7.76 19.5 7.32 19.5 7.32z" fill="#e09879" stroke-width="none" opacity="0.65" stroke="none"></path></g><g id="svga-group-humanbody-front"><path id="SvgjsPath52252" d="M73.8 175.9c5.1 2.9 11.8 5.2 17.6 5.7.4 0 .4-.6.1-.7-2.8-1.1-5.9-1.7-8.8-2.6-2.9-.9-5.8-2-8.8-2.7-.1-.1-.3.2-.1.3zm35.2 6.2c5.3-.6 11.3-3 15.9-5.8.3-.2.1-.6-.2-.5-2.6.9-5.2 2-7.8 2.9-2.6.9-5.4 1.5-8 2.5-.5.1-.5.9.1.9z" fill="#e09879" stroke-width="none" opacity="1" stroke="none"></path><path id="SvgjsPath52253" d="m168.4 219.4-2.1-21.4c0-2.2-.5-4.5-1.5-6.6-.9-2.1-2.3-3.9-3.9-5.5s-3.5-2.8-5.5-4c-2-1.2-4.1-2.2-6.2-3.1-4.2-1.9-8.6-3.6-12.9-5.4-2.2-.9-4.3-1.9-6.4-3-1.1-.6-2.1-1.2-3-1.9-1-.6-2-1.2-3-1.9s-2-1.5-2.8-2.6c-.8-1-1.3-2.2-1.7-3.4-.7-2.4-.8-4.8-.8-7.2 0-4.7.2-9.4.3-14.1.2-9.4.6-18.7.9-28l.6.6-20.4-.2-20.4-.1.3-.3.7 28c.1 4.7.3 9.3.4 14 0 2.4-.1 4.7-.8 7.1-.3 1.2-.9 2.3-1.6 3.3-.8 1-1.7 1.8-2.7 2.5s-2 1.3-2.9 2c-.9.6-1.9 1.3-3 1.9-2.1 1.2-4.2 2.1-6.4 3.1-4.3 1.9-8.6 3.6-12.8 5.6-2.1 1-4.2 2.1-6.1 3.2-2 1.2-3.8 2.4-5.4 4-1.6 1.6-2.9 3.4-3.8 5.4-.4 1-.8 2.1-1 3.1-.2 1.1-.4 2.2-.3 3.2v.2l-1.5 21.5-1-1.1 34 .1c11.3 0 22.7.1 34.1.2l34.2.3 34.4.5zm.2.2-34 .4-34.2.3c-11.4.1-22.9.2-34.4.2l-34.4.1h-1.1l.1-1.1 1.7-21.5v.1c-.1-5.1 2.2-9.8 5.7-13.3 1.7-1.7 3.8-3.1 5.8-4.3 2-1.2 4.2-2.2 6.3-3.2 4.3-2 8.7-3.7 13-5.4 2.1-.9 4.3-1.8 6.3-2.9 1-.5 1.9-1.1 3-1.8 1-.6 2-1.2 2.9-1.9.9-.6 1.8-1.4 2.4-2.2.7-.9 1.2-1.9 1.5-2.9.6-2.1.8-4.5.8-6.8 0-4.6-.1-9.3-.2-14l-.6-28v-.3h.3l20.4-.1 20.4-.2h.6v.6c-.1 9.3-.2 18.7-.4 28-.1 4.7-.2 9.4-.2 14 .1 2.3.2 4.6.8 6.7.3 1.1.8 2 1.4 2.9.6.8 1.4 1.6 2.4 2.2.9.6 1.9 1.3 2.9 1.9 1 .7 1.9 1.3 2.9 1.8 2 1.1 4.1 2.1 6.3 3 4.3 1.8 8.6 3.6 12.9 5.6 2.1 1 4.2 2.1 6.2 3.3 2 1.2 4 2.6 5.7 4.3 3.4 3.4 5.6 8.1 5.4 13v-.1l1.4 21.6zm-112.8-.4 1.9-13.8.1 13.8h-2zm88.6 0-1.9-13.8-.1 13.8h2z" fill="#d17f5b" stroke-width="none" opacity="1" stroke="none"></path></g><g id="svga-group-clothes-single"><path id="SvgjsPath52722" d="M54.9 172.7s-17 4.4-20 11c0 0-1.6-.6-4.2.8s-4.4 18.8-4.4 35.5h147.5c0-16.8-1.8-34.1-4.4-35.5s-4.2-.8-4.2-.8c-3-6.6-20-11-20-11s-44.3 32.3-90.3 0z" fill="#601090" stroke-width="none" opacity="1"></path><path id="SvgjsPath52723" d="M77.4 142.4c-1.7-.1-8.7-.5-14.5 2.8l2.3 1.2s-8 2.4-11.1 9.6l2.3.2s-5.3 5.9-7 13.5l2.2-.2s-2.5 7.4-.8 10.9l1.8-2.1s2.2 6.3 7.4 10.4l-.4-3.9s4.7 8 15.2 13.7l-.4-4.7s5.5 6.6 12.1 9.8l-1.4-4.3s5.1 4.7 7.4 6.6l.4-2.9s4.7 4.5 7.8 6.3 3.7 7.8 3.7 7.8l1.9-5.3 1.2 2.4 6.7-5.7v2.1l2.5-3.7 1.6.8 7.2-7-.8 4.1s9-5.9 10.9-10.4l.4 2.5s7.4-7.6 9.4-12.9l.6 2.9s3.3-5.9 3.1-14.1l3.5 3.1s-.8-11.3-5.7-17.4l5.5 1.4s-3.3-7.5-12.7-10.2l2.9-1s-6.8-3.9-13.3-2.4c0 0 1.8-1.9 1.2-1.9s-9.5-1.8-9.7-.4c-.3 1.8-.8 5-1.6 7.3l2.3-.5s-5.1 5.3-3.9 7.4l4.8-3.4s-4.2 4.4-4.6 6.2-4.5 5.7-4.5 5.7l6.6-2.4s-2.9 3.2-7 5.1c-4.1 1.9-4.8 4.5-4.8 4.5l6.3-.4s-4.1.8-6.8 3.1-3.1 5.5-3.1 5.5l2.7-1.2-2.5 4.1s-1.9-3.3-3.1-5.7-5.5-4.9-4.9-5.1c.6-.2 4.7 1 4.7 1s-4.9-4.9-11.7-6.4l2.5-1.2s-3.7-.2-6.4-2.1-5.7-8.4-5.7-8.4l2.5 1s-1.8-2.7-2.8-5.6c-.7-2.3.4-3.8.4-3.8l-.5-4-.3-.9-.6-.7-.8-.4c-.2-.2-.4-.3-.6-.3z" fill="#601090" stroke-width="none" opacity="1"></path><path id="SvgjsPath52724" d="M77.4 142.4c-1.7-.1-8.7-.5-14.5 2.8l2.3 1.2s-8 2.4-11.1 9.6l2.3.2s-5.3 5.9-7 13.5l2.2-.2s-2.5 7.4-.8 10.9l1.8-2.1s2.2 6.3 7.4 10.4l-.4-3.9s4.7 8 15.2 13.7l-.4-4.7s5.5 6.6 12.1 9.8l-1.4-4.3s5.1 4.7 7.4 6.6l.4-2.9s4.7 4.5 7.8 6.3 3.7 7.8 3.7 7.8l1.9-5.3 1.2 2.4 6.7-5.7v2.1l2.5-3.7 1.6.8 7.2-7-.8 4.1s9-5.9 10.9-10.4l.4 2.5s7.4-7.6 9.4-12.9l.6 2.9s3.3-5.9 3.1-14.1l3.5 3.1s-.8-11.3-5.7-17.4l5.5 1.4s-3.3-7.5-12.7-10.2l2.9-1s-6.8-3.9-13.3-2.4c0 0 1.8-1.9 1.2-1.9s-9.5-1.8-9.7-.4c-.3 1.8-.8 5-1.6 7.3l2.3-.5s-5.1 5.3-3.9 7.4l4.8-3.4s-4.2 4.4-4.6 6.2-4.5 5.7-4.5 5.7l6.6-2.4s-2.9 3.2-7 5.1c-4.1 1.9-4.8 4.5-4.8 4.5l6.3-.4s-4.1.8-6.8 3.1-3.1 5.5-3.1 5.5l2.7-1.2-2.5 4.1s-1.9-3.3-3.1-5.7-5.5-4.9-4.9-5.1c.6-.2 4.7 1 4.7 1s-4.9-4.9-11.7-6.4l2.5-1.2s-3.7-.2-6.4-2.1-5.7-8.4-5.7-8.4l2.5 1s-1.8-2.7-2.8-5.6c-.7-2.3.4-3.8.4-3.8l-.5-4-.3-.9-.6-.7-.8-.4c-.2-.2-.4-.3-.6-.3z" fill="#ffffff" stroke-width="none" opacity="0.9"></path><path id="SvgjsPath52725" d="M146.3 160.9c-.2-.9-.7-1.8-1.2-2.6s-1.1-1.6-1.7-2.3c-1-1.2-2.1-2.3-3.3-3.3l1.8-.3c.1 0 .2-.1.3-.2.1-.2.1-.5-.1-.6-1.3-.9-2.8-1.3-4.2-1.7-1.4-.4-2.9-.7-4.3-.9 1.4.5 2.8.9 4.1 1.5.7.3 1.4.5 2 .8.3.1.6.3.8.4-.5.1-1.1.2-1.6.3-.1 0-.2.1-.3.2-.2.2-.1.5.1.7 1.4 1.2 2.8 2.5 4 3.8 1.1 1.2 2.1 2.4 2.8 3.8-.6-.4-1.3-.7-1.9-1.1l2.4 1.8c.1 0 .1.1.2 0s.1-.2.1-.3zm-12.2 12.2c-.2 1-.5 2.1-.8 3.1-.2.6-.4 1.3-.6 1.9l-.6-1.4c-.1-.1-.2-.2-.4-.3-.3-.1-.5.1-.6.4-.4 1.9-.9 3.7-1.4 5.6-.3.9-.6 1.8-1 2.7-.3.7-.7 1.3-1.2 1.9.1-.9.2-1.8.2-2.7-.3 1.1-.5 2.2-.7 3.3v.2c.1.1.2.1.3.1.9-.6 1.4-1.4 1.9-2.3.5-.9.9-1.8 1.3-2.7.5-1.4.9-2.8 1.3-4.2l.6 1.2c.1.1.1.2.3.2.2.1.5 0 .6-.3.8-2.1 1.2-4.2 1.6-6.3.2-1.1.3-2.1.4-3.2.1-1.1.2-2.1.2-3.2-.2 1.1-.4 2.1-.6 3.2-.4.8-.5 1.8-.8 2.8zm-42.2 2.1c.5.3 1.1.6 1.6.9.8.5 1.5 1.1 2.1 1.8l-2.1.1c-.1 0-.2 0-.2.1-.1.1-.1.3 0 .4l2.5 2.1c.4.4.8.7 1.2 1.1.4.4.8.7 1.1 1.2-.3-.5-.6-.9-1-1.3s-.7-.8-1.1-1.2l-1.8-1.8 2.2.1c.1 0 .2 0 .2-.1.2-.1.2-.4.1-.5-.8-1.1-1.7-1.9-2.8-2.6-.5-.4-1.1-.7-1.7-1-.6-.3-1.2-.5-1.8-.7-1.1-.4-2.2-1-3.2-1.7-.8-.5-1.5-1.1-2.2-1.6l2.1-.6c.1 0 .2-.1.2-.2.1-.2.1-.4-.1-.6-1.5-1-2.9-2.1-4.3-3.2-.7-.6-1.4-1.1-2-1.8-.6-.6-1.3-1.3-1.7-2.1.3.9.9 1.6 1.4 2.3.6.7 1.2 1.3 1.9 2 1.1 1 2.3 2 3.5 3l-2.2.6c-.1 0-.2.1-.2.1-.2.2-.2.5 0 .6.9.9 2 1.6 3 2.3 1.1.7 2.2 1.3 3.4 1.8.8.1 1.3.3 1.9.5zm9.1 19.5c-.9-1.5-1.8-3-2.8-4.5l2.1.6c.1 0 .3 0 .4-.1.2-.2.2-.5.1-.7-1.2-1.6-2.4-3.1-3.6-4.6l-.1-.1c-1.5-.8-3-1.7-4.5-2.6l-2.2-1.4c-.7-.5-1.4-1-2.1-1.6.5.7 1.2 1.3 1.8 1.9.7.6 1.4 1.1 2.1 1.6 1.4 1 2.8 1.9 4.3 2.8.9 1.2 1.8 2.3 2.7 3.5l-1.8-.4c-.1 0-.2 0-.3.1-.2.1-.2.4-.1.6 1.2 1.6 2.4 3.3 3.8 4.9-.5.1-.9.2-1.4.2h1.8c-.2-.1-.1-.2-.2-.2zm-37-8.3c-.6-.9-1.1-1.9-1.6-2.9-1-2-1.9-4-2.7-6.1-.1-.1-.2-.3-.4-.3-.3-.1-.5.1-.6.4l-.3 1.4c-.3-.7-.6-1.4-.8-2.2-.3-1.2-.6-2.4-.8-3.6 0-.1 0-.2-.1-.2-.2-.2-.5-.2-.6 0l-1.6 1.6c0-1.4 0-2.7.1-4 0-.8.1-1.6.2-2.5.2-.8.3-1.6.8-2.3-.5.6-.8 1.5-1 2.3-.2.8-.3 1.6-.5 2.5-.2 1.7-.3 3.3-.4 5 0 .1 0 .2.1.3.1.2.4.2.5 0 .6-.5 1.2-1 1.7-1.6.2 1 .3 2 .6 2.9l.6 1.8c.3.6.5 1.2 1 1.8.1.1.2.1.3.2.3.1.5-.1.6-.4l.2-1c.7 1.6 1.4 3.1 2.2 4.6.5 1 1.1 1.9 1.8 2.9.6.9 1.4 1.8 2.3 2.5h.1c.1 0 .2-.1.2-.2.1-1.2.1-2.3.2-3.5-.2 1-.3 2.1-.4 3.1-.6-.9-1.1-1.7-1.7-2.5zm80.3-7.9-.9 2.4c-.2-.4-.4-.8-.6-1.1-.1-.1-.2-.2-.3-.2-.3-.1-.5.1-.6.3l-1.2 3.9c-.2.6-.4 1.3-.6 1.9-.2.5-.4.9-.6 1.4-.2-.5-.3-1.1-.5-1.6.1.7.2 1.5.3 2.2 0 .1 0 .1.1.1.1.1.2.1.3 0 .5-.6.8-1.2 1.1-1.8.3-.6.6-1.2.8-1.9.4-.9.7-1.9 1-2.8.2.3.4.7.6 1l.2.2c.2.1.5 0 .6-.3.4-1.1.7-2.3 1-3.5l.3-1.8c.1-.6.1-1.2 0-1.8-.3 1.2-.7 2.3-1 3.4z" fill="#ffffff" stroke-width="none" opacity="1"></path><path id="SvgjsPath52726" d="m60.4 156.6 1.5-2.4c.5-.8 1.1-1.6 1.8-2.2-.8.6-1.4 1.4-2 2.1-.6.8-1.2 1.6-1.7 2.4-.5.8-1 1.7-1.4 2.5-.4.9-.8 1.8-1 2.8v.2c.1.1.3.2.4.1l2.3-1.1c-.5 1.4-.9 2.9-1.2 4.3-.2.9-.3 1.7-.5 2.6-.1.9-.2 1.8-.1 2.7 0 .1 0 .2.1.2.2.1.4.1.5 0l1.3-1.6c-.1 1.2-.1 2.4 0 3.5.1 1.5.4 3.1 1.1 4.4v.1c.1 0 .1 0 .2-.1l1.5-3-1.6 2.7c-.5-1.3-.7-2.7-.8-4.1-.1-1.5 0-3 .2-4.4 0-.1 0-.2-.1-.3-.1-.1-.3-.1-.5 0l-1.4 1.6c0-.6 0-1.1.1-1.7.1-.9.3-1.7.5-2.5.4-1.7.8-3.4 1.4-5v-.3c-.1-.2-.3-.2-.5-.1l-2.3 1.2c.2-.7.4-1.4.7-2 .6-1 1-1.8 1.5-2.6zm9.2 28.5c-.4-.5-.8-.9-1.2-1.4-.4-.5-.8-1-1-1.6 0 .6.3 1.3.6 1.8.3.6.7 1.1 1.1 1.6.8 1 1.7 1.9 2.7 2.7l.1.1c.2 0 .3-.1.3-.2.2-.8.3-1.7.5-2.6-.3.6-.6 1.3-.8 1.9l-2.3-2.3zm16.2 8.5c-.6-.6-1.1-1.3-1.6-1.9-.5-.6-1-1.3-1.5-2v-.1s-.1-.2-.2-.2c-.1-.1-.2-.1-.3-.1-.1 0-.2.1-.2.1l-.1.1c-.1.1-.2.2-.2.3l-.3.6-.3.6c-.7-.8-1.4-1.6-2-2.5-.7-1-1.5-2-2.1-3.1.4 1.2 1 2.3 1.7 3.4s1.4 2.1 2.2 3.1l.1.1c.2.1.4 0 .5-.2l.5-1.1c.1-.1.1-.3.2-.4.4.6.9 1.2 1.3 1.8 1.1 1.3 2.2 2.6 3.6 3.6h.1c.1 0 .2 0 .2-.1l.9-3c-.4.9-.8 1.7-1.2 2.6-.4-.5-.9-1.1-1.3-1.6zm-3.8-3.7s-.1-.1 0 0zm-4.5-12.5c.7.7 1.4 1.4 2.4 1.8.1 0 .1 0 .1-.1.1-.6.1-1.2.1-1.9-.1.6-.2 1.1-.3 1.6-.8-.5-1.4-1.1-2-1.8-.6-.7-1.1-1.6-1.6-2.4-.1-.1-.2-.2-.3-.2-.2 0-.3.2-.3.4l.3 2.1-1.8-1.6-1.2-1.1-.6-.6c-.1-.1-.2-.2-.2-.3v-.1l-.1-.2c-.4-1-.9-2.1-1.3-3.1-.4-1.1-.8-2.1-.9-3.2-.1.6 0 1.1.1 1.7.1.6.2 1.1.4 1.7.3 1.1.7 2.2 1.1 3.2l.1.2v.1c0 .1.1.1.1.2.1.2.2.2.3.4l.6.6 1.2 1.2c.8.8 1.7 1.5 2.5 2.3.1.1.2.1.3.1.2 0 .3-.2.3-.4l-.3-1.6c.4.3.7.7 1 1zm26.6 29.5c-.4-.8-.9-1.6-1.4-2.3-.7-.9-1.2-1.8-2.2-2.6-.9-.6-1.7-1.3-2.5-2.1s-1.6-1.5-2.2-2.4c.4 1 1.1 1.9 1.8 2.8.7.9 1.5 1.7 2.4 2.3.8.6 1.4 1.5 2.1 2.4.6.9 1.3 1.8 1.9 2.7 0 .1.1.1.2.1s.2-.1.2-.2v-2.9c0 .8-.2 1.5-.3 2.2zM66 158.6c.4-1.3 1-2.6 1.6-3.8v-.1c0-.2-.1-.4-.3-.4l-1.7-.1c.6-.7 1.3-1.3 2.1-1.9.9-.7 1.9-1.3 3-1.8.1 0 .1-.1.2-.2.1-.2 0-.4-.2-.4-.8-.4-1.6-.7-2.4-1.1 1.1-.5 2.1-1 3.2-1.5.6-.3 1.3-.6 1.9-.8.7-.2 1.3-.5 2-.6-.7 0-1.4.2-2.1.4-.7.2-1.3.4-2 .7-1.3.5-2.6 1.1-3.9 1.6-.1 0-.1.1-.1.1-.1.1 0 .3.1.4.8.4 1.5.8 2.3 1.1-.9.4-1.7.9-2.5 1.5-1 .7-1.9 1.6-2.6 2.6 0 .1-.1.1-.1.2 0 .2.1.4.3.4l1.8.1c-.5 1.1-.9 2.3-1.3 3.4-.4 1.3-.7 2.7-.7 4.1v.1c.1.1.1.1.2 0 .7-.6 1.4-1.3 2.1-2-.7.5-1.3 1-2 1.6.4-1.2.7-2.4 1.1-3.6zm71.1-4.8c1.4.8 2.8 1.6 4.1 2.4l-2.1.5h-.1c-.1.1-.1.2-.1.4.9 1.3 1.8 2.7 2.5 4.1.6 1.2 1.1 2.5 1.4 3.8l-1.8-.9c-.1 0-.2-.1-.2 0-.2.1-.3.2-.3.4.3 1.4.6 2.8.7 4.3.1 1.4.1 2.9-.1 4.3s-.6 2.8-1.1 4.2c-.4 1-.8 2.1-1.3 3l-.7-5.1c0-.1-.1-.2-.2-.2s-.3 0-.3.2c-.4 1.6-1 3.1-1.6 4.6-.6 1.4-1.2 2.9-2 4.2l-.4-2.4.2 2.6v.1h.1c.9-1.4 1.6-2.8 2.3-4.3.5-1.2.9-2.4 1.4-3.6l.6 5.1c0 .1.1.2.2.2.1.1.4 0 .4-.1.7-1.3 1.3-2.7 1.8-4.1.5-1.4.9-2.8 1.2-4.3.2-1.5.3-3 .1-4.5-.1-1.2-.3-2.5-.6-3.7l1.8.9h.2c.2 0 .3-.2.3-.4-.2-1.7-.9-3.2-1.7-4.6-.7-1.3-1.5-2.6-2.4-3.8l2.2-.6c.1 0 .1-.1.1-.1.1-.1 0-.2-.1-.3-1.6-.9-3.1-1.7-4.8-2.5l-2.4-1.2c-.8-.4-1.6-.8-2.5-.9.9.2 1.7.7 2.5 1 1.2.4 2 .9 2.7 1.3zm-16.9 46.3c.2-1 .5-2 .7-3.1-.4 1.1-.7 2.2-1.1 3.4v.1c0 .1.1.1.2.1 1.1-.5 2.1-1 3.1-1.5l1.5-.9c.5-.3 1-.8 1.4-1.2 1.4-1.5 2.7-3.1 4-4.6l.2 2.1c0 .1.1.1.1.2.1.1.3.1.5 0 1.1-1.2 2-2.6 3-3.9.5-.7.9-1.4 1.3-2.1.4-.7.8-1.4 1-2.2-.3.8-.8 1.4-1.2 2.1-.5.7-1 1.3-1.5 1.9-.8 1.1-1.7 2.1-2.6 3.2l-.2-2.2c0-.1-.1-.2-.1-.2-.1-.1-.4-.1-.5.1l-2.2 2.7c-.7.9-1.5 1.8-2.2 2.6-.4.4-.8.8-1.2 1.1-.5.3-.9.6-1.4.9-1 .4-1.9.9-2.8 1.4zm-6.1-22.5c.9.1 1.8.1 2.6.1-.7-.1-1.4-.3-2.1-.4.6-.3 1.1-.6 1.7-1 .7-.5 1.3-.9 1.9-1.5 1.2-1 2.4-2.1 3.6-3.2.1-.1.1-.1.1-.2 0-.2-.1-.4-.3-.4l-2.4-.2c.8-.7 1.6-1.4 2.4-2.2.5-.5.9-1 1.3-1.6.4-.6.8-1.2.9-1.8-.3.6-.7 1.2-1.1 1.7-.4.5-.9 1-1.4 1.4-1 .9-2 1.7-3.1 2.5-.1.1-.1.1-.1.2 0 .2.1.4.3.4l2.4.2c-1 .9-1.9 1.8-2.9 2.7-1.2 1-2.4 2.1-3.7 2.9-.1 0-.1.1-.1.1-.2.2-.1.3 0 .3z" fill="#470071" stroke-width="none" opacity="1"></path><path id="SvgjsPath52727" d="M173.8 199.7c-.3-3.4-.7-6.8-1.4-10.1-.2-.9-.4-1.7-.6-2.5-.3-.9-.5-1.7-1.1-2.6-.2-.2-.4-.5-.7-.7-.3-.2-.4-.2-.6-.3-.4-.2-.9-.4-1.3-.5s-.9-.2-1.5-.3h-.8c-1-1.7-2.5-2.9-3.9-3.9-1.7-1.2-3.4-2.1-5.2-3l-3.6-1.5c-.3-2.6-.8-5.1-1.5-7.6-.8-2.6-1.8-5.2-3.3-7.5l4.4 1.1h.3c.2-.1.3-.3.2-.5-.6-1.4-1.5-2.4-2.4-3.6-.9-1.2-2.2-2.3-3.3-3.3-1.9-1.7-3.6-2.3-6-3.1l1.6-.6c.1 0 .2-.1.2-.2.1-.2 0-.5-.2-.6-1.1-.6-2.1-1-3.2-1.4-1.1-.4-2.2-.7-3.4-1-1.1-.2-2.3-.4-3.5-.4-.8 0-1.5.1-2.3.1.1-.1.2-.3.3-.4.1-.1.1-.2.2-.3 0-.1.1-.2.1-.5 0-.1-.1-.2-.2-.4-.1-.1-.2-.1-.3-.1h-.1l-.3-.1-.6-.1-1.1-.2c-1.5-.3-4.6-.4-6.2-.5-.4 0-.8 0-1.3.1-.1 0-.3.1-.4.2-.1.1-.3.4-.3.5l-.1.6c-.1.8-.2 1.5-.4 2.2-.3 1.5-.6 3-1.1 4.4v.3c.1.2.3.4.6.4l.7-.2c-.1.3-.5.9-1 1.6-.5.7-.9 1.4-1.4 2.2-.2.4-.4.8-.6 1.3-.1.5-.2 1.1.1 1.7v.1c.2.2.4.3.7.1l1.5-1.1c-.7.9-1.5 1.8-2 3.1-.3 1.1-1.1 2.1-1.9 3-.8.9-1.7 1.9-2.6 2.7-.1.1-.2.3-.1.5s.4.4.6.3l4.4-1.6c-.4.3-.7.6-1.1.9-1 .8-2.1 1.5-3.2 2.1-.6.3-1.1.6-1.7.9-.6.3-1.2.7-1.7 1.1-1.1.9-2 1.8-2.5 3.3v.2c0 .3.2.5.5.4l2.5-.2c-1 .4-2 1-2.9 1.7-1 .7-1.8 1.7-2.4 2.7-.6 1.1-1.1 2.2-1.3 3.4v.2c.1.2.3.3.6.2l1.5-.6-1.4 2.4c-.7-1.1-1.3-2.2-1.9-3.4-.4-.7-.7-1.3-1.1-2.1-.4-.7-1-1.3-1.6-1.8l-1.8-1.5-.9-.7-.1-.1c.5.1 1.1.2 1.7.3.7.2 1.5.4 2.2.6.1 0 .2 0 .3-.1.1-.1.1-.3 0-.5-1.7-1.6-3.6-2.9-5.5-4-1-.6-2-1.1-3.1-1.5-.8-.3-1.7-.6-2.5-.8l1.8-.9c.1 0 .2-.1.2-.2s-.1-.3-.2-.3c-1.4-.1-2.8-.4-4.1-.9-1.3-.5-2.5-1.2-3.4-2.3-.9-1-1.7-2.2-2.4-3.4-.7-1.1-1.2-2.2-1.8-3.3l2.1.8h.2c.1-.1.1-.2.1-.2-.9-1.4-1.8-2.9-2.4-4.5-.3-.7-.2-2.7-.1-4.1v-1.6L80 145c-.1-.6-.3-1.2-.8-1.7l-.3-.3c-.3-.2-.5-.4-.8-.5-.2-.1-.5-.1-.7-.2-1.1-.1-2.2-.1-3.5-.1s-2.6.2-3.8.4c-1.3.2-2.5.5-3.7.9-1.2.4-2.4.9-3.5 1.5l-.1.1c0 .1 0 .2.1.2l2 1c-1.1.4-2.1.8-3.1 1.4-1.1.6-2.2 1.3-3.2 2.1-2 1.6-3.6 3.7-4.7 6v.1c0 .1.1.3.2.3l1.8.2c-1.5 1.9-2.9 3.9-4 6-.6 1.1-1.2 2.3-1.6 3.5-.5 1.2-.8 2.4-1.2 3.7v.1c0 .2.2.3.3.3l1.7-.1c-.4 1.4-.8 2.8-1 4.2l-.9.3c-1.8.6-3.7 1.3-5.5 2.1-1.8.8-3.5 1.7-5.2 2.8-1.5 1-3 2.3-4 4-.8-.1-1.6 0-2.4.1-.4.1-.9.3-1.3.5l-.6.3c-.3.2-.5.4-.6.6-.6.8-.9 1.6-1.1 2.5-.3.8-.5 1.7-.7 2.5-.7 3.4-1.2 6.7-1.5 10.1-.6 6.8-.9 13.5-1 20.3 0 .5.4.9.8.9 6.1 0 12.3.1 18.4 0 6.2 0 12.3 0 18.4-.1l18.4-.2 9.2-.1 9.2-.1h2.7v.1h4v-.1h11.8c6.2 0 12.3 0 18.4.1l36.9.4c.4 0 .8-.4.8-.8.3-7.1.1-13.9-.5-20.6zm-71.1 20H100l-9.2-.1-9.2-.1-18.4-.2c-6.2-.1-12.3-.1-18.4-.1h-1.4c.2-2.9.3-5.8.2-8.6 0-3-.2-5.9-.5-8.9-.2-1.5-.3-2.9-.6-4.4-.1-.7-.3-1.5-.5-2.2-.2-.8-.5-1.5-.9-2.2-1.4-2.7-3.1-5.1-5.2-7.3 1.3 2.7 2.7 5.3 3.7 7.9.3.7.5 1.4.6 2l.3 2.1c.2 1.4.3 2.9.5 4.3.3 2.9.6 5.8 1 8.8.3 2.8.7 5.7 1.3 8.5H27.2c0-6.4.2-12.9.8-19.3.3-3.4.6-6.7 1.3-10l.6-2.4c.2-.8.5-1.6.9-2.1l.3-.3c.1-.1.3-.2.5-.3.4-.2.7-.3 1.1-.4.7-.2 1.6-.3 2.2-.1.2.1.5-.1.6-.3.7-1.6 2.2-2.9 3.8-4.1 1.5-1.1 3.2-2.1 5-2.9s3.5-1.6 5.3-2.3c.2-.1.4-.2.7-.2 0 .1 0 .2-.1.4-.1.9-.2 1.9-.2 2.9s.2 1.9.6 2.9c0 0 0 .1.1.1.2.1.4.1.5-.1l1.4-1.7c.8 1.8 1.7 3.6 2.8 5.2.6.9 1.3 1.8 2 2.6s1.6 1.5 2.4 2.2c.1.1.2.1.3.1.2 0 .4-.2.4-.4l-.2-2.3c.7 1 1.5 1.9 2.2 2.8 1.2 1.3 2.4 2.6 3.7 3.7 1.3 1.1 2.7 2.2 4.1 3.2 1.4 1 2.9 1.9 4.4 2.7.1 0 .2.1.2.1.2 0 .4-.2.4-.5L75 195c1.5 1.6 3.1 3.1 4.8 4.6 2 1.7 4.2 3.2 6.6 4.3.1 0 .2.1.3 0 .2-.1.3-.3.2-.5l-1-3c2.1 1.9 4.3 3.9 6.5 5.8.1 0 .1.1.2.1.2 0 .3-.1.4-.3l.3-2.3c1 .9 2 1.8 3.1 2.7 1.2 1 2.5 2 3.8 2.8 1.1.5 1.9 1.4 2.5 2.5v8zm3.6-8.2-1.6 4.3c-.2-1.2-.5-2.4-1-3.6-.3-.7-.7-1.5-1.2-2.1l-.9-.9c-.3-.3-.7-.5-1-.7-1.3-.8-2.6-1.8-3.8-2.8-1.2-1-2.4-2.1-3.5-3.1-.1 0-.1-.1-.2-.1-.2 0-.3.1-.4.3l-.3 2.3c-2.3-2-4.6-4.1-6.9-6.2-.1-.1-.2-.1-.3-.1-.2.1-.3.3-.2.4l1.1 3.4c-2-1.1-3.9-2.4-5.6-3.8-2-1.7-3.8-3.5-5.5-5.4-.1-.1-.2-.1-.3-.1-.2 0-.4.2-.4.4l.3 3.9c-1.2-.7-2.5-1.4-3.6-2.3-1.4-1-2.7-2.1-4-3.2a30.6 30.6 0 0 1-3.6-3.6c-1.1-1.3-2.2-2.6-3.1-4-.1-.1-.2-.2-.4-.2s-.4.2-.4.4l.3 2.9c-.5-.5-1.1-1-1.6-1.5-.7-.8-1.4-1.6-2-2.5-1.2-1.7-2.3-3.6-3-5.6 0-.1-.1-.1-.1-.1-.2-.1-.4-.1-.5.1l-1.4 1.7c-.2-.6-.3-1.3-.4-2 0-.9 0-1.8.1-2.7.2-1.8.7-3.6 1.2-5.4v-.1c0-.2-.2-.3-.3-.3l-1.7.2c.3-1.1.6-2.2 1-3.2.5-1.2 1-2.3 1.6-3.5 1.2-2.2 2.6-4.4 4.2-6.3l.1-.1c0-.1-.1-.3-.2-.3l-1.9-.2c1-2.1 2.5-4 4.3-5.5 1.9-1.6 4.1-2.9 6.5-3.6l.1-.1c.1-.1 0-.2-.1-.2l-2-1c1-.5 2.1-1 3.2-1.4 1.2-.4 2.4-.7 3.7-.9 1.2-.2 2.5-.4 3.8-.4 1.2-.1 2.3 0 3.5 0 .2.1.4.1.6.2.7.4 1.2.7 1.4 1.3.5 1.6-.1 6.1 0 7.1.1.9.4 1.7.7 2.5.6 1.4 1.3 2.9 2.1 4.2l-2.1-.8h-.2c-.1 0-.1.2-.1.2.6 1.3 1.2 2.6 2 3.8.7 1.2 1.5 2.4 2.5 3.5.9 1.1 2.3 1.9 3.6 2.4 1.1.4 2.1.7 3.2.9l-1.7.8c-.1 0-.1.1-.2.2 0 .1.1.3.2.3 1.1.3 2.2.6 3.2 1s2 .9 3 1.4c1.5.9 3 1.9 4.3 3-.3-.1-.6-.2-.9-.2-.8-.2-1.5-.4-2.3-.4H97c-.1 0-.1 0-.2.1-.1 0-.2.2-.2.4s.1.2.1.3c0 .1.1.1.1.1l.4.4.9.7c.6.5 1.2 1 1.7 1.5s1.1 1.1 1.4 1.7c.3.6.7 1.4 1.1 2 .7 1.4 1.5 2.7 2.3 4 0 .1.1.1.1.1.2.1.4.1.5-.1.9.9 1.8 1.8 2.6 2.7.7.9 1.3 1.9 1.7 2.9l-2.8-1.5c-.1-.1-.3-.1-.4.1-.2.1-.2.4 0 .5.9 1 1.7 2 2.4 3.1s1.4 2.2 1.8 3.4c.2.5.2 1 .3 1.6.1.6.1 1.6.1 2.2 0 .8-.1 1.5-.2 2.3l-1.3-2.9c-.1-.2-.3-.3-.5-.3s-.4.2-.4.5c.2 2 .3 3.9.3 5.9 0 1-.1 2-.3 2.9-.2.8-.5 1.6-.9 2.2l-.5-2.4c0-.1-.1-.1-.1-.1-.1 0-.1.1-.1.1 0 1-.1 1.9-.1 2.9-.4 0-.5 0-.5.1zm.2-.1c.1-.6.1-1.2.2-1.8l.2 1.8v.1c.1.1.2.1.3.1.5-.4.8-.8 1-1.3.2-.5.4-1 .5-1.5.3-1 .4-2 .4-3 .1-1.1.1-2.3 0-3.4l.9 2.1.3.3c.3.1.5-.1.6-.4.3-1.3.4-2.7.4-4 0-.7 0-1.4-.1-2 0-.3-.1-.7-.1-1-.1-.4-.1-.7-.3-1-.4-1.3-1.2-2.5-1.9-3.6-.4-.6-.8-1.1-1.3-1.7l1.8.8h.2c.2-.1.2-.2.2-.4-.4-1.4-1.3-2.6-2.2-3.6-.8-.9-1.8-1.8-2.8-2.5l2.6-4.1c.1-.1.1-.3 0-.4-.1-.2-.3-.3-.6-.2l-2 .8c.2-.8.6-1.6 1-2.3.6-.9 1.3-1.8 2.2-2.4.9-.7 1.9-1.2 2.9-1.6 1.1-.4 2.2-.8 3.2-1 .2-.1.4-.3.4-.5 0-.3-.2-.5-.5-.5l-5.4.3c.4-.8 1.1-1.5 1.8-2.1.5-.4 1-.7 1.6-1 .5-.3 1.1-.6 1.7-.9 1.2-.6 2.3-1.4 3.3-2.2 1.1-.8 2-1.7 3-2.6.1-.1.2-.3.1-.5s-.4-.4-.6-.3l-4.6 1.6c.4-.4.8-.8 1.1-1.3l1.2-1.5c.2-.3.4-.6.5-.9.1-.2.2-.3.2-.5l.2-.5c.4-1 1.2-2 2-3s1.6-1.9 2.5-2.8c.2-.2.2-.4 0-.6-.2-.2-.5-.3-.7-.1l-4.2 3c.1-.4 0-1.3 1.7-3.6 1.1-1.4.9-1.4 2.1-2.6.1-.1.2-.3.1-.4-.1-.3-.3-.4-.6-.4l-1.5.4c.4-1.2.7-2.5.9-3.7.1-.8.3-1.5.4-2.3l.1-.6h.1c.2-.1.6-.1 1-.1 1.4.1 4.6.1 6 .5l1.1.2.6.1c-.1.1-.2.3-.3.4-.2.3-.5.6-.7.9-.1.1-.1.3-.1.4.1.2.3.4.6.4 1.1-.2 2.2-.4 3.3-.4 1.1 0 2.2.1 3.3.4 1.1.2 2.2.5 3.2.9l2.1.9-1.9.6-.3.3c-.1.2.1.5.3.6 2.7.8 3.8 1.4 6.8 3.4 1.1.9 2.4 1.9 3.2 3 .7.9 1.6 1.7 2.1 2.7l-4.6-1.1c-.1 0-.2 0-.3.1-.2.1-.2.4-.1.6 1.9 2.4 3.1 5.2 3.9 8.1.7 2.3 1.3 5.6 1.6 8-.4-.1-1.8-1.5-2-1.6l-.9-.8c-.1-.1-.1-.1-.2-.1-.2 0-.3.1-.3.3.1 2.4-.2 4.8-.7 7.2-.5 2.1-1.1 4.1-2 6.1l-.4-2.1c0-.1-.1-.2-.2-.2-.1-.1-.3 0-.3.1-.5 1.2-1.1 2.4-1.8 3.5s-1.5 2.2-2.3 3.3c-1.5 2-3.2 3.9-4.9 5.7l-.3-2.1c0-.1-.1-.1-.1-.2-.1-.1-.2 0-.3.1-.5 1.1-1.3 2.1-2.1 3.1-.8.9-1.8 1.8-2.7 2.6-1.8 1.6-3.7 3-5.7 4.3l.7-3.6v-.1c-.1-.1-.2-.1-.2 0l-7.1 6.9-1.4-.7c-.1 0-.2 0-.2.1l-2.2 3.2v-1.5c0-.1 0-.1-.1-.1-.1-.1-.2-.1-.3 0l-6.4 5.4-1-2.1c.2-.2.2-.3.1-.3.1 0 0 0 0 0zm50.1 8c.6-2.9.9-5.9 1.3-8.8.4-2.9.6-5.9 1-8.8.1-1.4.3-2.9.5-4.3l.3-2.1c.1-.6.4-1.3.6-2 1.1-2.7 2.4-5.3 3.7-7.9-2 2.2-3.8 4.6-5.1 7.3-.4.7-.7 1.4-.9 2.2-.2.8-.4 1.5-.5 2.2-.3 1.5-.4 2.9-.6 4.4-.3 2.9-.5 5.9-.5 8.9-.1 2.9-.1 5.9.2 8.9l-19.7.2c-6.1.1-12.3.1-18.4.1h-11.7v-7.2l.8 1.6v.1c.1.1.2.1.3 0l6.3-5.4v1.7c0 .1 0 .1.1.2s.2 0 .3-.1l2.4-3.6 1.4.7h.2l6.8-6.6-.7 3.6v.1c.1.1.2.1.2.1 2.1-1.4 4.2-2.9 6.1-4.6 1-.8 1.9-1.7 2.8-2.7.7-.8 1.4-1.6 1.9-2.6l.3 1.9c0 .1 0 .1.1.1.1.1.2.1.3 0 1.9-1.9 3.6-4 5.3-6.1.8-1.1 1.6-2.1 2.3-3.3.6-.9 1.1-1.8 1.6-2.8l.4 2.1c0 .1.1.1.1.2.1.1.3 0 .4-.1.6-1.1 1.1-2.2 1.5-3.4.4-1.2.8-2.3 1-3.5.4-1.6.6-3.2.7-4.8 2.1.7 4.1 1.5 6.1 2.4 1.7.8 3.4 1.7 4.9 2.8 1.5 1 2.9 2.3 3.6 3.8l1.3.5h.8c.3 0 .7.1 1 .2.4.1.7.2 1 .4.1.1.4.2.5.2l.2.2c.3.5.6 1.3.9 2l.6 2.4c.7 3.2 1.1 6.6 1.4 9.9.6 6.4.9 12.9 1 19.3h-16.4z" fill="#470071" stroke-width="none" opacity="1"></path></g><g id="svga-group-head" transform="matrix(1,0,0,1,0,0)"><g id="svga-group-ears-left-move" transform="matrix(1,0,0,1,0,0)"><g id="svga-group-ears-left" transform="matrix(1,0,0,1,0,0)"><path id="SvgjsPath52543" d="M64.2 96.3c-.2-.3-3.1-4-5.5-6.3-2.5-2.3-3.2-2.2-4.4-.8s-2.7 8.5-2.3 11.7 3.3 8.2 4.9 11c1.6 2.8 3.1 6.3 4.8 6 1.8-.3 4.2-4.3 5.3-7.3 1.2-3 .6-10.3-2.8-14.3z" fill="#ffd0bc" stroke-width="none" opacity="1" stroke="none"></path><path id="SvgjsPath52544" d="M67.9 104.8c.1.8.2 1.6.2 2.4s0 1.6-.2 2.4l-.3 1.2c-.1.4-.3.7-.4 1-.3.7-.6 1.3-.9 2-.7 1.2-1.4 2.4-2.4 3.4-.5.5-1 1-1.7 1.2-.3.1-.8.1-1.2 0-.4-.2-.7-.4-1-.7-1.2-1.2-1.8-2.6-2.5-4s-1.4-2.7-2.1-4.1c-.7-1.4-1.4-2.8-2-4.2-.3-.7-.6-1.4-.9-2.2-.3-.7-.5-1.5-.6-2.3-.2-1.6 0-3.2.1-4.7.2-1.5.4-3 .8-4.5.2-.7.4-1.5.7-2.2.1-.2.2-.3.3-.5s.2-.4.3-.5c.2-.3.5-.5.8-.7s.7-.3 1.1-.3c.4.1.7.2 1.1.4.6.4 1.1.9 1.7 1.4 2 2.1 3.7 4.5 5.6 6.8 1.8 2.5 2.9 5.6 3.5 8.7zm-9.6-14.6c-1-.8-2.2-1.7-2.9-1.2-.2.1-.4.3-.6.6-.1.1-.2.2-.2.3-.1.1-.1.3-.2.4-.3.6-.5 1.2-.7 1.9-.4 1.3-.8 2.8-1.1 4.2-.3 1.4-.5 3-.4 4.4.1.7.3 1.5.5 2.2l.9 2.1c.6 1.4 1.4 2.7 2.2 4s1.6 2.6 2.3 3.9c.4.7.7 1.3 1.1 1.9.4.6.8 1.2 1.2 1.6s.8.6 1.2.4.9-.5 1.3-1c.8-.9 1.5-2 2.2-3.2l.9-1.8c.1-.3.3-.6.4-.9l.2-.4c0-.2.1-.3.1-.5.3-1.3.3-2.8.3-4.3-.1-1.5-.3-3-.8-4.5s-1.2-2.9-2.1-4c-1.7-2.2-3.7-4.4-5.8-6.1z" fill="#f0b399" stroke-width="none" opacity="1" stroke="none"></path><path id="SvgjsPath52545" d="M54.1 102.4c-.2-2.1-.4-7.4.8-9 2-2.7 5.6 6.1 6.5 8.8 0 .1.1.2.1.2.1.3-.1.7-.4.6-.4-.2-.8-.6-1.2-.8-1.1-.5-1.5.4-1.2 1.7.4 1.7 1.3 2.7 2.1 4 .1.2 0 .4-.2.3-1.5-.9-3.3-4.2-2.9-6.2.3-1.8 1.8-1.7 2.9-.8-.7-1.6-1.4-3.1-2.3-4.5-.6-.9-1.1-1.9-2-2-1.1-.2-.9.3-1.1 1.7-.8 4.6-.3 9.7 2.4 13.7.1.1 0 .2-.1.1-2-2.2-3.1-4.7-3.4-7.8z" fill="#e09879" stroke-width="none" opacity="1" stroke="none"></path></g></g><g id="svga-group-ears-right-move" transform="matrix(1,0,0,1,0,0)"><g id="svga-group-ears-right" transform="matrix(1,0,0,1,0,0)"><path id="SvgjsPath52546" d="M135.8 96.3c.2-.3 3.1-4 5.5-6.3 2.5-2.3 3.2-2.2 4.4-.8s2.7 8.5 2.3 11.7-3.3 8.2-4.9 11c-1.6 2.8-3.1 6.3-4.8 6-1.8-.3-4.2-4.3-5.3-7.3-1.2-3-.6-10.3 2.8-14.3z" fill="#ffd0bc" stroke-width="none" opacity="1" stroke="none"></path><path id="SvgjsPath52547" d="M135.7 96.3c1.8-2.3 3.5-4.7 5.6-6.8.5-.5 1-1 1.7-1.4.3-.2.7-.4 1.1-.4.4-.1.8.1 1.1.3.3.2.6.5.8.7.1.1.2.3.3.5s.2.3.3.5c.3.7.5 1.4.7 2.2.4 1.5.6 3 .8 4.5.1 1.5.3 3.1.1 4.7-.1.8-.3 1.6-.6 2.3-.3.8-.6 1.5-.9 2.2-.6 1.4-1.3 2.8-2 4.2-.7 1.4-1.4 2.7-2.1 4.1-.7 1.4-1.4 2.8-2.5 4-.3.3-.6.6-1 .7s-.9.2-1.2 0c-.7-.2-1.2-.7-1.7-1.2-1-1-1.7-2.2-2.4-3.4-.3-.6-.6-1.3-.9-2-.1-.3-.3-.7-.4-1l-.3-1.2c-.1-.8-.2-1.6-.2-2.4s.1-1.6.2-2.4c.5-3.3 1.6-6.4 3.5-8.7zm.1.1c-.9 1.1-1.6 2.5-2.1 4s-.7 3-.8 4.5 0 3 .3 4.3c0 .2.1.3.1.5l.2.4c.1.3.3.6.4.9l.9 1.8c.6 1.2 1.4 2.3 2.2 3.2.4.4.9.8 1.3 1 .4.2.8 0 1.2-.4s.8-1 1.2-1.6.8-1.3 1.1-1.9c.7-1.3 1.6-2.6 2.3-3.9.8-1.3 1.5-2.6 2.2-4l.9-2.1c.3-.7.5-1.5.5-2.2.1-1.5-.1-3-.4-4.4-.3-1.4-.6-2.9-1.1-4.2-.2-.7-.5-1.3-.7-1.9-.1-.1-.1-.3-.2-.4-.1-.1-.1-.2-.2-.3l-.6-.6c-.7-.6-1.8.4-2.9 1.2-2 1.6-4 3.8-5.8 6.1z" fill="#f0b399" stroke-width="none" opacity="1" stroke="none"></path><path id="SvgjsPath52548" d="M145.9 102.4c.2-2.1.4-7.4-.8-9-2-2.7-5.6 6.1-6.5 8.8 0 .1-.1.2-.1.2-.1.3.1.7.4.6.4-.2.8-.6 1.2-.8 1.1-.5 1.5.4 1.2 1.7-.4 1.7-1.3 2.7-2.1 4-.1.2 0 .4.2.3 1.5-.9 3.3-4.2 2.9-6.2-.3-1.8-1.8-1.7-2.9-.8.7-1.6 1.4-3.1 2.3-4.5.6-.9 1.1-1.9 2-2 1.1-.2.9.3 1.1 1.7.8 4.6.3 9.7-2.4 13.7-.1.1 0 .2.1.1 2-2.2 3.1-4.7 3.4-7.8z" fill="#e09879" stroke-width="none" opacity="1" stroke="none"></path></g></g><g id="svga-group-faceshape-wrap" transform="matrix(1,0,0,1,0,0)"><g id="svga-group-faceshape-single"><path id="SvgjsPath52575" d="M141 85.4c-1.2-28.5-19.61-43.51-40.91-43.51S60.2 57 59 85.4c0 0-.4 25.9 5.4 37.3 14.4 28.4 35.62 26.95 35.62 26.95s21.18 1.45 35.58-26.95c5.8-11.4 5.4-37.3 5.4-37.3z" fill="#ffd0bc" stroke-width="none" opacity="1" stroke="none"></path><path id="SvgjsPath52576" d="M135.6 122.7c5.8-11.4 5.49-37.32 5.49-37.32-1.2-28.5-19.79-44.08-41.09-44.08S60.2 57 59 85.4c0 0-.4 25.9 5.4 37.3 14.4 28.4 35.6 27.5 35.6 27.5s21.2.9 35.6-27.5zm-41.7 25.17c-2-.51-4-1.31-6-2.22-3.9-1.82-7.4-4.45-10.5-7.48-1.6-1.52-3-3.14-4.4-4.85 0 0-3.2-4.45-3.9-5.36-.3-.51-.6-.91-.9-1.42-.3-.51-.6-.91-.9-1.42l-1.8-3.24s-.9-2.12-1.1-2.63-.4-1.01-.5-1.62c-.2-.51-.3-1.11-.5-1.62-.6-2.12-1.1-4.35-1.5-6.57s-.8-4.45-1-6.78c-.6-4.55-.9-9.1-1.1-13.75v-3.34l.1-1.72c0-.61.1-1.11.1-1.72.1-1.11.3-2.22.4-3.44.1-.61.2-1.11.3-1.72 0 0 .3-1.31.4-1.62 1-4.45 2.5-8.8 4.8-12.64.5-1.01 1.2-1.92 1.8-2.83l1-1.31c.3-.4.7-.91 1.1-1.31 1.4-1.72 3-3.34 4.7-4.75 3.4-2.83 7.3-4.96 11.4-6.47 4.1-1.42 8.4-2.12 12.8-2.22 2.2-.1 11 1.11 11.3 1.21 4.91 1.22 9.7 3.54 13.3 5.97.9.61 1.8 1.31 2.6 2.02l1.3 1.11 1.2 1.11c1.6 1.62 3 3.34 4.3 5.16.3.51 1.9 2.83 1.9 2.83.3.51 1.6 3.03 1.6 3.03.5 1.01.9 2.12 1.4 3.14.4 1.11.8 2.12 1.1 3.24.4 1.11.6 2.22.9 3.34.1.61.7 3.34.7 3.34l.28 1.94c.1.61.18 2.74.18 2.74l.06.93s-.01 8.78-.31 12.32-.51 6.76-1.11 10.3c-.3 1.72-.7 3.54-1.1 5.26-.4 1.72-.9 3.44-1.5 5.06s-1.2 3.24-2 4.75l-1.3 2.22c-.4.81-.9 1.52-1.4 2.22-1.9 2.93-4 5.66-6.3 8.19s-4.8 4.85-7.5 6.88c-1.4 1.01-2.8 1.92-4.2 2.73-1.5.81-3 1.52-4.5 2.12-.4.2-2 .71-2.4.81-.8.2-1.6.4-2.4.61s-6.63.63-10.9-.53z" fill="#d17f5b" stroke-width="none" opacity="1" stroke="none"></path></g></g><g id="svga-group-mouth-single-move" transform="matrix(1,0,0,1,0,0)"><g id="svga-group-mouth-single" transform="matrix(1,0,0,1,0,0)"><path id="SvgjsPath52531" d="M86.9 128.6s2-.5 3.7-2.3c1.8-1.8 2.3-2.2 3.2-2.6 1-.4 3.2-1 4.9.4 1.6 1.3 2 .5 2.7 0s2-1.4 4.2-.6 4.3 3.4 5.6 4.1 2.2.9 2.2.9-1.7 2.4-3.1 3.8c-1.9 2-4.3 2.7-8.6 3-4.3.3-7.2-.5-9-1.7-1.9-1.2-3.5-3.2-3.9-3.6-.5-.5-1.9-1.4-1.9-1.4z" fill="#fe856a" stroke-width="none" opacity="1" transform="translate(0 3)" stroke="none"></path><path id="SvgjsPath52532" d="M86.2 128.6c1.8.9 3.6.8 5.5.4 1.4-.3 2.9-.6 4.3-.5s2.7.8 4.2.9c1.1 0 2-.4 3-.7 1.9-.6 3.5-.3 5.4.1 1.9.4 4 1 5.7-.2.3-.2.1-.6-.2-.6-2.7.5-4.7-.2-7.4-.6-2.4-.4-4.4 1.1-6.8.8-2-.2-3.5-1-5.5-.7-2.7.3-5.2 1.4-7.9.4-.4 0-.6.6-.3.7z" fill="#ef694c" stroke-width="none" opacity="1" transform="translate(0 3)" stroke="none"></path><path id="SvgjsPath52533" d="M109.8 130.3c-4.4.3-8.6 1.8-13 1.6-.2 0-.3.3-.1.4 4.3 1.1 9.6 1.4 13.2-1.8.1-.1 0-.2-.1-.2z" fill="#ff9a84" stroke-width="none" opacity="1" transform="translate(0 3)" stroke="none"></path></g></g><g id="svga-group-eyes-left-move" transform="matrix(1,0,0,1,0,0)"><g id="svga-group-eyes-left" transform="matrix(1,0,0,1,0,0)"><g id="svga-group-eyesback-left"><path id="SvgjsPath52634" d="M90.3 96s-2.1 5.1-7.1 6.9-8.2-1.4-8.9-2.9c-.6-1.5-.2-3.3.6-4.4.8-1.1 3.5-4.1 7.3-4 3.8.1 7.1 1.7 8.1 4.4z" fill="#ffffff" stroke-width="none" opacity="1"></path></g><g id="svga-group-eyesiriswrapper-left" transform="matrix(1,0,0,1,0,0)"><g id="svga-group-eyesiriscontrol-left" transform="matrix(1,0,0,1,0,0)"><g id="svga-group-eyesiris-left" transform="matrix(1,0,0,1,0,0)"><path id="SvgjsPath52590" d="M82 91.2c2.9 0 5.2 2.3 5.2 5.2s-2.3 5.2-5.2 5.2-5.2-2.3-5.2-5.2 2.3-5.2 5.2-5.2z" fill="#8ab42d" stroke-width="none" opacity="1"></path><path id="SvgjsPath52591" d="M82 101.8c-3 0-5.4-2.4-5.4-5.4S79 91 82 91s5.4 2.4 5.4 5.4-2.4 5.4-5.4 5.4zm0-10.3c-2.7 0-4.9 2.2-4.9 4.9s2.2 4.9 4.9 4.9 4.9-2.2 4.9-4.9-2.2-4.9-4.9-4.9z" fill="#699507" stroke-width="none" opacity="1"></path><path id="SvgjsPath52592" d="M86.9 96.4c-.6 0-1.3-.1-1.9 0 0-.3 0-.5-.1-.8.7-.1 1.5-.3 2.2-.6.2-.1.1-.3-.1-.3-.7.1-1.5.4-2.2.6 0-.1-.1-.2-.1-.3.3-.1.6-.3.8-.4.4-.2.8-.2 1.1-.4.1-.1.1-.2-.1-.2-.6.1-1.4.4-2 .8 0-.1-.1-.1-.1-.2.2-.2.4-.3.7-.5.3-.2.7-.5 1-.8.1-.1 0-.3-.2-.2-.3.3-.7.5-1 .8-.2.2-.4.3-.6.5l-.3-.3c.5-.6.9-1.2 1.2-1.9.1-.1-.1-.2-.1-.1-.5.5-1 1.2-1.3 1.8-.1-.1-.2-.1-.3-.2.2-.7.3-1.5.3-2.2 0-.2-.2-.2-.3 0-.1.5-.2 1.1-.2 1.6 0 .2-.1.3-.1.5-.2-.1-.3-.1-.5-.1 0-.7-.1-1.5-.3-2.2 0-.1-.1 0-.1 0-.1.7-.1 1.4-.1 2.1h-.4c0-.2-.1-.4-.1-.6-.1-.5-.1-.9-.2-1.4 0-.1-.2-.1-.2 0-.1.6 0 1.3.2 2-.1 0-.2 0-.2.1-.2-.7-.4-1.4-.7-2.1 0-.1-.2-.1-.2 0 .1.7.3 1.4.6 2.1 0 0-.1 0-.1.1-.3-.7-.8-1.3-1.3-1.9-.1-.1-.2 0-.1.1.3.6.7 1.3 1.2 1.9-.1.1-.2.1-.2.2-.1-.1-.2-.3-.3-.4-.3-.4-.7-.9-1.1-1.2-.1-.1-.2 0-.2.1.2.4.6.8.9 1.2.1.2.3.3.4.5-.1.1-.2.2-.3.4-.6-.4-1.2-.9-1.8-1.2-.1 0-.1.1-.1.1.5.5 1.1.9 1.7 1.3-.1.2-.2.3-.2.5-.1 0-.2-.1-.3-.1-.6-.2-1.2-.5-1.7-.7-.1-.1-.2.2-.1.2.5.2 1 .5 1.5.7.2.1.3.1.5.2 0 .1 0 .2-.1.3-.2 0-.3-.1-.5-.1-.5-.1-1.1-.2-1.6-.1-.1 0-.1.2 0 .2.6.2 1.4.3 2.1.4v.4c-.3.1-.6.2-.9.4-.4.2-.8.2-1.1.5-.1.1-.1.3.1.3.4 0 .9-.2 1.3-.4.2-.1.5-.2.7-.3 0 .2.1.3.1.4-.1.1-.2.1-.3.2-.5.3-1 .6-1.4 1-.1.1 0 .3.2.2.6-.3 1.1-.6 1.6-.9.1 0 .1-.1.2-.1.1.1.2.3.2.4-.5.4-1 1-1.5 1.5-.1.1 0 .2.1.1.5-.4 1.1-.9 1.6-1.4l.3.3c-.2.2-.3.4-.4.6-.3.4-.6.8-.9 1.3-.1.1.1.2.2.1.3-.4.7-.8 1-1.2.2-.2.3-.4.5-.6.1 0 .1.1.2.1-.1.2-.1.3-.2.4-.2.4-.5.9-.6 1.4 0 .1.2.2.2.1.3-.4.5-.9.8-1.4.1-.1.1-.2.2-.4h.1c-.3.7-.5 1.4-.6 2.1 0 .1.2.1.2 0 .2-.7.5-1.4.7-2.1.1 0 .2 0 .3.1-.2.7-.2 1.5-.3 2.2 0 .2.3.2.3 0 0-.7.2-1.5.2-2.2h.2c-.1.7-.1 1.4 0 2.1 0 .2.3.2.3 0-.1-.7 0-1.4-.1-2.1.2 0 .4-.1.6-.1.1.3.3.7.4 1 .2.3.2.7.6.9.1 0 .1 0 .1-.1 0-.3-.2-.7-.4-1-.2-.3-.3-.7-.5-1 .1 0 .1-.1.2-.1.1.3.3.6.4.8.2.3.3.8.6 1 .1.1.2 0 .2-.1-.1-.4-.4-.7-.6-1.1-.2-.3-.3-.6-.5-.8.1-.1.2-.1.3-.2.3.6.8 1.2 1.3 1.7.2.2.4-.1.2-.2-.5-.5-.9-1-1.3-1.6.2-.2.4-.4.5-.6.6.4 1.1.8 1.7 1.2.1.1.3-.1.2-.2-.5-.4-1.2-.8-1.8-1.2 0-.1.1-.1.1-.2.6.3 1.3.7 1.9.9.1.1.2-.2.1-.2-.6-.3-1.3-.6-1.9-.8.1-.2.2-.5.2-.8.7.1 1.3.1 2 .1-.2.3-.2-.2-.5-.2z" fill="#699507" stroke-width="none" opacity="1"></path><path id="SvgjsPath52593" d="M82 93.6c1.5 0 2.8 1.3 2.8 2.8s-1.3 2.8-2.8 2.8-2.8-1.3-2.8-2.8 1.3-2.8 2.8-2.8z" fill="#000000" stroke-width="none" opacity="1"></path><path id="SvgjsPath52594" d="M80.4 94c.6 0 1.1.5 1.1 1.1s-.5 1.1-1.1 1.1-1.1-.5-1.1-1.1.5-1.1 1.1-1.1zm3.4 4c.3 0 .6.3.6.6s-.3.6-.6.6-.6-.3-.6-.6.3-.6.6-.6z" fill="#ffffff" stroke-width="none" opacity="1"></path></g></g></g><g id="svga-group-eyesfront-left"><path id="SvgjsPath52642" d="M70.73 98.03c0 6.9 4.93 12.5 11.02 12.5s11.02-5.6 11.02-12.5-4.93-12.5-11.02-12.5-11.02 5.59-11.02 12.5zm3.64 1.97c-.63-1.51-.23-3.3.57-4.36.8-1.05 3.5-4.13 7.29-4.04s7.12 1.71 8.06 4.44c0 0-2.11 5.13-7.06 6.89-4.96 1.77-8.23-1.42-8.86-2.93z" fill="#ffd0bc" stroke-width="none" opacity="1" stroke="none"></path><path id="SvgjsPath52643" d="M89.59 92.53c-1.75-1.79-4.06-3.11-6.64-3.07-2.48.04-4.29 1.11-6.21 2.55-.12.09-.23-.09-.15-.19 3.36-4.14 10.03-3.33 13.09.64.04.05-.04.11-.09.07z" fill="#f0b399" stroke-width="none" opacity="1" stroke="none"></path><path id="SvgjsPath52644" d="M72.93 98.19c-.07.14-.13.28-.19.43-.08.19.09.36.28.28.05-.02.09-.05.14-.07.06.51.22 1.03.45 1.5-.8.26-1.47 1.01-1.8 1.72-.05.1.08.22.16.12.32-.37.73-.71 1.15-.96.25-.15.52-.26.79-.37l.06.09c.32.47.72.87 1.15 1.23-.64.44-1.27 1.09-1.37 1.84-.02.15.16.31.28.16.28-.32.49-.72.76-1.06.2-.25.44-.48.68-.69.77.55 1.66.96 2.57 1.2-.26.49-.42 1.07-.28 1.61.05.18.29.16.35 0 .17-.5.27-1 .46-1.48.26.05.52.09.78.11.85.08 1.71.04 2.55-.11-.14.54-.2 1.14.02 1.64.07.15.33.11.36-.05.05-.28.03-.57.05-.86.02-.3.08-.58.16-.86 3.07-.74 5.83-2.91 7.1-5.79.22.06.49-.11.67-.24.14-.1.27-.22.38-.36.26-.02.5-.24.42-.59-.84-3.85-5.37-6.21-9.07-6.03-.07 0-.14.01-.22.02-.11-.53-.1-1.07-.13-1.63-.01-.11-.17-.18-.22-.06-.24.56-.18 1.16 0 1.72-.7.07-1.35.22-1.95.43-.29-.55-.33-1.16-.3-1.81.01-.12-.18-.18-.24-.06-.34.66-.22 1.42.15 2.03-.65.27-1.24.61-1.79 1.01-.16-.05-.52-.53-.57-.58-.26-.28-.54-.52-.82-.77-.08-.07-.21.02-.16.12.29.52.6 1.21 1.09 1.58-.42.35-.82.75-1.19 1.17-.7-.23-1.28-.74-1.72-1.35-.08-.12-.27-.05-.23.1.21.83.88 1.39 1.66 1.61-.36.45-.7.93-1.02 1.43-.93.2-1.82-.18-2.63-.7-.15-.1-.35.1-.25.25.58.86 1.6 1.12 2.56.97-.15.26-.3.53-.44.8-.1.14-.18.29-.24.44-.63.3-1.34.28-2.13.1-.19-.04-.37.21-.2.35.55.51 1.27.6 1.93.42zm16.95-1.1c.03-.1.07-.2.1-.3v-.04c.04.06.09.12.13.17-.07.07-.15.12-.23.17zm-15.01.14c.43-.57.82-1.19 1.29-1.7 1.23-1.37 2.65-2.46 4.45-2.96 4.12-1.15 6.91 1.06 9.27 4.08a.15.15 0 0 0-.15.05c-2.03 2.83-4.05 5.52-7.73 6.15-2.11.36-4.79-.17-6.22-1.87-1.05-1.25-.79-2.41-.91-3.75z" fill="#2a150e" stroke-width="none" opacity="1" stroke="none"></path></g></g></g><g id="svga-group-eyes-right-move" transform="matrix(1,0,0,1,0,0)"><g id="svga-group-eyes-right" transform="matrix(1,0,0,1,0,0)"><g id="svga-group-eyesback-right"><path id="SvgjsPath52635" d="M109.7 96s2.1 5.1 7.1 6.9 8.2-1.4 8.9-2.9c.6-1.5.2-3.3-.6-4.4-.8-1.1-3.5-4.1-7.3-4-3.8.1-7.1 1.7-8.1 4.4z" fill="#ffffff" stroke-width="none" opacity="1"></path></g><g id="svga-group-eyesiriswrapper-right" transform="matrix(1,0,0,1,0,0)"><g id="svga-group-eyesiriscontrol-right" transform="matrix(1,0,0,1,0,0)"><g id="svga-group-eyesiris-right" transform="matrix(1,0,0,1,0,0)"><path id="SvgjsPath52595" d="M118 91.2c2.9 0 5.2 2.3 5.2 5.2s-2.3 5.2-5.2 5.2-5.2-2.3-5.2-5.2 2.3-5.2 5.2-5.2z" fill="#8ab42d" stroke-width="none" opacity="1"></path><path id="SvgjsPath52596" d="M118 101.8c-3 0-5.4-2.4-5.4-5.4S115 91 118 91s5.4 2.4 5.4 5.4-2.4 5.4-5.4 5.4zm0-10.3c-2.7 0-4.9 2.2-4.9 4.9s2.2 4.9 4.9 4.9 4.9-2.2 4.9-4.9-2.2-4.9-4.9-4.9z" fill="#699507" stroke-width="none" opacity="1"></path><path id="SvgjsPath52597" d="M122.9 96.4c-.6 0-1.3-.1-1.9 0 0-.3 0-.5-.1-.8.7-.1 1.5-.3 2.2-.6.2-.1.1-.3-.1-.3-.7.1-1.5.4-2.2.6 0-.1-.1-.2-.1-.3.3-.1.6-.3.8-.4.4-.2.8-.2 1.1-.4.1-.1.1-.2-.1-.2-.6.1-1.4.4-2 .8 0-.1-.1-.1-.1-.2.2-.2.4-.3.7-.5.3-.2.7-.5 1-.8.1-.1 0-.3-.2-.2-.3.3-.7.5-1 .8-.2.2-.4.3-.6.5l-.3-.3c.5-.6.9-1.2 1.2-1.9.1-.1-.1-.2-.1-.1-.5.5-1 1.2-1.3 1.8-.1-.1-.2-.1-.3-.2.2-.7.3-1.5.3-2.2 0-.2-.2-.2-.3 0-.1.5-.2 1.1-.2 1.6 0 .2-.1.3-.1.5-.2-.1-.3-.1-.5-.1 0-.7-.1-1.5-.3-2.2 0-.1-.1 0-.1 0-.1.7-.1 1.4-.1 2.1h-.4c0-.2-.1-.4-.1-.6-.1-.5-.1-.9-.2-1.4 0-.1-.2-.1-.2 0-.1.6 0 1.3.2 2-.1 0-.2 0-.2.1-.2-.7-.4-1.4-.7-2.1 0-.1-.2-.1-.2 0 .1.7.3 1.4.6 2.1 0 0-.1 0-.1.1-.3-.7-.8-1.3-1.3-1.9-.1-.1-.2 0-.1.1.3.6.7 1.3 1.2 1.9-.1.1-.2.1-.2.2-.1-.1-.2-.3-.3-.4-.3-.4-.7-.9-1.1-1.2-.1-.1-.2 0-.2.1.2.4.6.8.9 1.2.1.2.3.3.4.5-.1.1-.2.2-.3.4-.6-.4-1.2-.9-1.8-1.2-.1 0-.1.1-.1.1.5.5 1.1.9 1.7 1.3-.1.2-.2.3-.2.5-.1 0-.2-.1-.3-.1-.6-.2-1.2-.5-1.7-.7-.1-.1-.2.2-.1.2.5.2 1 .5 1.5.7.2.1.3.1.5.2 0 .1 0 .2-.1.3-.2 0-.3-.1-.5-.1-.5-.1-1.1-.2-1.6-.1-.1 0-.1.2 0 .2.6.2 1.4.3 2.1.4v.4c-.3.1-.6.2-.9.4-.4.2-.8.2-1.1.5-.1.1-.1.3.1.3.4 0 .9-.2 1.3-.4.2-.1.5-.2.7-.3 0 .2.1.3.1.4-.1.1-.2.1-.3.2-.5.3-1 .6-1.4 1-.1.1 0 .3.2.2.6-.3 1.1-.6 1.6-.9.1 0 .1-.1.2-.1.1.1.2.3.2.4-.5.4-1 1-1.5 1.5-.1.1 0 .2.1.1.5-.4 1.1-.9 1.6-1.4l.3.3c-.2.2-.3.4-.4.6-.3.4-.6.8-.9 1.3-.1.1.1.2.2.1.3-.4.7-.8 1-1.2.2-.2.3-.4.5-.6.1 0 .1.1.2.1-.1.2-.1.3-.2.4-.2.4-.5.9-.6 1.4 0 .1.2.2.2.1.3-.4.5-.9.8-1.4.1-.1.1-.2.2-.4h.1c-.3.7-.5 1.4-.6 2.1 0 .1.2.1.2 0 .2-.7.5-1.4.7-2.1.1 0 .2 0 .3.1-.2.7-.2 1.5-.3 2.2 0 .2.3.2.3 0 0-.7.2-1.5.2-2.2h.2c-.1.7-.1 1.4 0 2.1 0 .2.3.2.3 0-.1-.7 0-1.4-.1-2.1.2 0 .4-.1.6-.1.1.3.3.7.4 1 .2.3.2.7.6.9.1 0 .1 0 .1-.1 0-.3-.2-.7-.4-1-.2-.3-.3-.7-.5-1 .1 0 .1-.1.2-.1.1.3.3.6.4.8.2.3.3.8.6 1 .1.1.2 0 .2-.1-.1-.4-.4-.7-.6-1.1-.2-.3-.3-.6-.5-.8.1-.1.2-.1.3-.2.3.6.8 1.2 1.3 1.7.2.2.4-.1.2-.2-.5-.5-.9-1-1.3-1.6.2-.2.4-.4.5-.6.6.4 1.1.8 1.7 1.2.1.1.3-.1.2-.2-.5-.4-1.2-.8-1.8-1.2 0-.1.1-.1.1-.2.6.3 1.3.7 1.9.9.1.1.2-.2.1-.2-.6-.3-1.3-.6-1.9-.8.1-.2.2-.5.2-.8.7.1 1.3.1 2 .1-.2.3-.2-.2-.5-.2z" fill="#699507" stroke-width="none" opacity="1"></path><path id="SvgjsPath52598" d="M118 93.6c1.5 0 2.8 1.3 2.8 2.8s-1.3 2.8-2.8 2.8-2.8-1.3-2.8-2.8 1.3-2.8 2.8-2.8z" fill="#000000" stroke-width="none" opacity="1"></path><path id="SvgjsPath52599" d="M116.5 94c.6 0 1.1.5 1.1 1.1s-.5 1.1-1.1 1.1-1.1-.5-1.1-1.1.5-1.1 1.1-1.1zm3.4 4c.3 0 .6.3.6.6s-.3.6-.6.6-.6-.3-.6-.6.3-.6.6-.6z" fill="#ffffff" stroke-width="none" opacity="1"></path></g></g></g><g id="svga-group-eyesfront-right"><path id="SvgjsPath52645" d="M118.26 85.53c-6.08 0-11.02 5.6-11.02 12.5s4.93 12.5 11.02 12.5 11.02-5.6 11.02-12.5-4.94-12.5-11.02-12.5zm-1.49 17.4c-4.95-1.77-7.06-6.89-7.06-6.89.94-2.73 4.27-4.36 8.06-4.44s6.49 2.99 7.29 4.04c.8 1.05 1.2 2.85.57 4.36-.63 1.51-3.9 4.7-8.86 2.93z" fill="#ffd0bc" stroke-width="none" opacity="1" stroke="none"></path><path id="SvgjsPath52648" d="M110.41 92.53c1.75-1.79 4.06-3.11 6.64-3.07 2.48.04 4.29 1.11 6.21 2.55.12.09.23-.09.15-.19-3.36-4.14-10.03-3.33-13.09.64-.04.05.04.11.09.07z" fill="#f0b399" stroke-width="none" opacity="1" stroke="none"></path><path id="SvgjsPath52649" d="M129.02 97.79c.17-.14-.01-.39-.2-.35-.79.18-1.5.19-2.13-.1-.06-.16-.15-.3-.24-.44-.14-.27-.29-.54-.44-.8.96.15 1.98-.11 2.56-.97.1-.15-.1-.34-.25-.25-.81.52-1.7.89-2.63.7-.32-.5-.66-.98-1.02-1.43.78-.22 1.45-.78 1.66-1.61.04-.15-.15-.21-.23-.1-.43.61-1.02 1.12-1.72 1.35-.37-.42-.76-.82-1.19-1.17.5-.37.8-1.06 1.09-1.58.06-.1-.07-.19-.16-.12-.29.25-.56.49-.82.77-.05.05-.41.53-.57.58-.55-.4-1.15-.74-1.79-1.01.36-.62.49-1.38.15-2.03-.06-.11-.24-.06-.24.06.03.65-.01 1.26-.3 1.81-.6-.21-1.26-.35-1.95-.43.18-.57.23-1.17 0-1.72-.05-.12-.22-.05-.22.06-.04.56-.02 1.1-.13 1.63-.07-.01-.14-.02-.22-.02-3.69-.17-8.23 2.19-9.07 6.03-.08.35.16.57.42.59.1.14.24.26.38.36.18.13.44.3.67.24 1.27 2.88 4.04 5.05 7.1 5.79.08.28.14.57.16.86.02.29 0 .58.05.86.03.16.29.2.36.05.22-.49.16-1.1.02-1.64.84.15 1.7.19 2.55.11.26-.03.52-.06.78-.11.2.48.3.98.46 1.48.05.16.3.18.35 0 .13-.54-.02-1.11-.28-1.61.92-.24 1.8-.65 2.57-1.2.24.21.48.44.68.69.27.34.48.73.76 1.06.13.14.3-.02.28-.16-.1-.75-.73-1.41-1.37-1.84.44-.36.83-.77 1.15-1.23l.06-.09c.27.11.54.21.79.37.42.25.83.59 1.15.96.08.09.21-.03.16-.12-.33-.71-1-1.46-1.8-1.72.23-.47.39-.98.45-1.5.05.02.09.05.14.07.19.08.36-.08.28-.28-.06-.14-.13-.29-.19-.43.64.16 1.36.07 1.93-.42zm-19.13-.86c.04-.06.09-.12.13-.17 0 .01-.01.02 0 .04.03.1.07.2.1.3-.08-.06-.16-.11-.23-.17zm14.33 4.05c-1.43 1.7-4.11 2.23-6.22 1.87-3.69-.63-5.71-3.32-7.73-6.15-.04-.05-.1-.06-.15-.05 2.36-3.02 5.15-5.23 9.27-4.08 1.8.5 3.23 1.59 4.45 2.96.46.52.86 1.13 1.29 1.7-.12 1.34.14 2.5-.91 3.75z" fill="#2a150e" stroke-width="none" opacity="1" stroke="none"></path></g></g></g><g id="svga-group-facehighlight-single"></g><g id="svga-group-eyebrows-left-move" transform="matrix(1,0,0,1,0,0)"><g id="svga-group-eyebrows-left-rotate" transform="matrix(1,0,0,1,0,0)"><g id="svga-group-eyebrows-left" transform="matrix(1,0,0,1,0,0)"><path id="SvgjsPath52702" d="M76.7 85.3c.9-.1 7.5 1.2 8.8 1.4 3.3.4 5.5-.3 5.8-.8s1.1-1.2.5-2.3c-.6-1.1-7.4-1.9-11.8-.7-8.7 2.4-13.2 7.4-13.2 7.4 2.5-2.5 9-4.9 9.9-5z" fill="#504543" stroke-width="none" opacity="1"></path><path id="SvgjsPath52703" d="M77.2 85.1c1.2 0 2.4-.4 3.5-.7.1 0 0-.2-.1-.2-1.1.3-2.3.4-3.4.7-.1.1-.1.2 0 .2zm2.3.2c-.1 0-.1.2.1.2 1.3-.1 2.6-.5 3.8-.8.8-.2 1.5-.5 1.9-1 .1-.1-.1-.2-.2-.1-1.2 1-3.9 1-5.6 1.7zm3.8.6c2.3.3 5.1-.7 6.3-2.2.1-.1-.1-.2-.2-.1-.8.7-1.6 1.2-2.7 1.6s-2.2.4-3.3.6c-.2 0-.2.1-.1.1zm3.2.2c1.8.2 4.4-1.1 4.4-2.5 0-.1-.3-.2-.3 0-.1.7-1 1.3-1.7 1.6-.8.4-1.6.4-2.4.7-.1.1-.1.2 0 .2zm-12.2-.2c.8-.3 1.6-.8 2.4-1.2.1-.1 0-.2-.1-.1-.8.4-1.8.7-2.3 1.3-.2 0-.1.1 0 0z" fill="#5f5a59" stroke-width="none" opacity="1"></path><path id="SvgjsPath52704" d="M66.6 90.6s.1.1.2 0c.8-.6 1.5-1.2 2.2-1.7.8-.5 1.7-.9 2.5-1.3 1.7-.8 3.3-1.6 5.2-2.2 3.9.2 16.6 4.2 15.4-1.7v-.2c0-.1-.2-.1-.3 0v.1c-.1-.3-.4-.7-.9-.8-.1 0-.1 0-.1.1 0 0 .1 0 .1.1-.5-.3-1.3-.5-1.8-.4-3.9-1.1-9.3.2-12.8 1.3-4.1 1.4-7.7 3.6-9.8 6.5 0 .1 0 .1.1.2zm2.2-2c5.1-4.2 13.7-7.8 21.1-5.6.1 0 .2 0 .1-.1h.2c.5.1.8.3 1 .7.1.1.2 0 .2 0 0-.1 0-.2-.1-.3 0 0 .1 0 .1.1.2.2.3.4.2.7-.1.1-.2.1-.2.2 0 0 0 .1.1.1.2 0 .4-.1.5-.2-.4 5.1-11.9.6-15.5 1.2 0 0-.1 0-.1.1-2 .3-3.6 1.3-5.3 2.1-.9.2-1.6.6-2.3 1z" fill="#413230" stroke-width="none" opacity="1"></path></g></g></g><g id="svga-group-eyebrows-right-move" transform="matrix(1,0,0,1,0,0)"><g id="svga-group-eyebrows-right-rotate" transform="matrix(1,0,0,1,0,0)"><g id="svga-group-eyebrows-right" transform="matrix(1,0,0,1,0,0)"><path id="SvgjsPath52705" d="M133.1 90.3s-4.4-5-13.2-7.4c-4.4-1.2-11.1-.4-11.8.7-.6 1.1.2 1.8.5 2.3s2.5 1.2 5.8.8c1.3-.2 7.9-1.5 8.8-1.4 1 .1 7.5 2.5 9.9 5z" fill="#504543" stroke-width="none" opacity="1"></path><path id="SvgjsPath52706" d="M122.8 84.9c-1.1-.3-2.3-.4-3.4-.7-.1 0-.2.1-.1.2 1.1.3 2.3.7 3.5.7.1 0 .1-.1 0-.2zm-7.9-1.5c-.1-.1-.2 0-.2.1.4.6 1.1.8 1.9 1 1.2.3 2.5.7 3.8.8.1 0 .1-.1.1-.2-1.7-.5-4.3-.5-5.6-1.7zm1.8 2.3c-1.1-.2-2.3-.3-3.3-.6s-1.9-.9-2.7-1.6c-.1-.1-.3 0-.2.1 1.2 1.5 3.9 2.5 6.3 2.2 0 .1 0 0-.1-.1zm-3.2.2c-.8-.2-1.7-.3-2.4-.7-.8-.4-1.6-.9-1.7-1.6 0-.1-.3-.1-.3 0 .1 1.4 2.6 2.7 4.4 2.5.2 0 .1-.1 0-.2zm12.3 0c-.6-.5-1.6-.9-2.4-1.2-.1 0-.2.1-.1.1.8.4 1.6.9 2.5 1.1 0 .1.1 0 0 0z" fill="#5f5a59" stroke-width="none" opacity="1"></path><path id="SvgjsPath52707" d="M133.5 90.4c-2.1-2.9-5.8-5.2-9.8-6.5-3.5-1.2-8.9-2.4-12.8-1.3-.5-.1-1.3.1-1.8.4 0 0 .1 0 .1-.1l-.1-.1c-.4.1-.8.4-.9.8v-.1c0-.1-.2-.1-.3 0v.2c-1.1 5.9 11.5 1.9 15.4 1.7 1.9.5 3.5 1.3 5.2 2.2.9.4 1.8.8 2.5 1.3.8.6 1.4 1.2 2.2 1.7h.2c.1-.1.1-.1.1-.2zm-4.6-3c-1.7-.8-3.3-1.8-5.3-2.1l-.1-.1c-3.6-.6-15 4-15.5-1.2.1.1.3.3.5.2.1 0 .1-.1.1-.1 0-.1-.1-.2-.2-.2-.1-.2 0-.5.2-.7 0 0 .1 0 .1-.1-.1.1-.1.2-.1.3 0 .1.2.1.2 0 .2-.3.5-.6 1-.7h.2c0 .1.1.1.1.1 7.4-2.1 15.9 1.5 21.1 5.6-.7-.2-1.4-.6-2.3-1z" fill="#413230" stroke-width="none" opacity="1"></path></g></g></g><g id="svga-group-nose-single-move" transform="matrix(1,0,0,1,0,0)"><g id="svga-group-nose-single" transform="matrix(1,0,0,1,0,0)"><path id="SvgjsPath52678" d="M95.88 109.44c.1.1.43.5.52.6.03.03.08.04.12.03-.11.33-.22.66-.36.99-.09.22.26.35.38.16 1.96-3.23 1.22-7.09.77-10.63-.55-4.42.04-8.25 1.14-12.53.02-.07-.09-.12-.12-.05-1.58 3.17-1.95 7.08-1.67 10.57.31 3.88 1.07 7.49-.05 11.21-.62-1.35-2.51-2.33-3.74-1.13-1.51 1.47-1.32 5.18-.76 6.99.07.24.48.21.45-.06-.17-1.46-.35-2.83-.13-4.31.06-.37.11-.76.22-1.12.26-.84.31-.87 1.23-1.22 1.04-.38 1.25-.23 2 .5z" fill="#d17f5b" stroke-width="none" opacity="1" transform="translate(0 2)" stroke="none"></path><path id="SvgjsPath52679" d="M97.44 117.02c.15.15.35.02.37-.15.27-2.15-3.58-3.25-4.61-1.4-.09.16.06.34.23.3.85-.18 1.57-.57 2.44-.19.68.29 1.07.94 1.57 1.44z" fill="#d17f5b" stroke-width="none" opacity="1" transform="translate(0 2)" stroke="none"></path><path id="SvgjsPath52680" d="M104.32 115.67c-.58.2-1.18.65-1.26 1.29-.03.22.28.31.42.17.36-.36.62-.71 1.16-.82.42-.09.86.15 1.25-.02.09-.04.13-.17.1-.26-.19-.63-1.2-.52-1.67-.36z" fill="#d17f5b" stroke-width="none" opacity="1" transform="translate(0 2)" stroke="none"></path><path id="SvgjsPath52681" d="M107.29 109.37c-.92-1.7-2.43-1.58-3.38.06-.06.11.08.22.17.13.8-.8 2-1.05 2.74.08.34.52.52 1.25.65 1.86.29 1.44-.01 2.7-.27 4.11-.05.25.3.43.43.18 1.02-1.91.66-4.57-.34-6.42z" fill="#d17f5b" stroke-width="none" opacity="1" transform="translate(0 2)" stroke="none"></path><path id="SvgjsPath52682" d="M102.52 107.67c-.08-3.33.07-6.58.58-9.88.01-.07-.08-.09-.1-.03-1.12 3.2-1.37 6.6-.62 9.92.02.09.14.07.14-.01z" fill="#d17f5b" stroke-width="none" opacity="1" transform="translate(0 2)" stroke="none"></path><path id="SvgjsPath52683" d="M102.86 117.55c-.33 1.62-.75 4.1-2.83 4.06-.78-.01-.94-.16-1.43-.72-.32-.37-.6-.79-.85-1.2-.5-.8-.92-1.66-1.23-2.56-.05-.14-.25-.08-.22.06.34 1.79 1.53 5.61 3.96 5.4 2.14-.18 3.63-3.15 3-5.04-.07-.18-.36-.21-.4 0z" fill="#d17f5b" stroke-width="none" opacity="1" transform="translate(0 2)" stroke="none"></path><path id="SvgjsPath52684" d="M106.46 110.51c-.72-.75-1.83-.94-2.54-.12-.17.19-.01.54.26.45.52-.16 1.25.2 1.5.65.36.65.08 1.39.34 2.04.11.29.53.5.77.2.72-.86.41-2.44-.33-3.22z" fill="#ffd9c9" stroke-width="none" opacity="1" transform="translate(0 2)" stroke="none"></path><path id="SvgjsPath52685" d="M102.49 111.88c-.06-2.27-.67-4.55-1.1-6.77-.52-2.61.78-4.84.95-7.41.16-2.38-.29-4.75-.9-7.04-.11-.41-.68-.23-.62.17.38 2.64 1.01 5.33.58 8.01-.32 1.98-1.18 3.84-1.39 5.85-.22 2.14.19 4.37.12 6.53-.03 1.07.01 2.15-.04 3.22-.05 1.14-.33 2.29.06 3.38.15.43.79.74 1.14.3 1.24-1.53 1.25-4.33 1.2-6.24z" fill="#ffd9c9" stroke-width="none" opacity="1" transform="translate(0 2)" stroke="none"></path></g></g><g id="svga-group-hair-front" transform="matrix(1,0,0,1,0,0)"><path id="SvgjsPath52753" d="M121.5 56s-6.3 13.8-31.2 17-29.8 16-26.9 21.6c2.9 5.6 9.7 9.2 2.4 19.9s-.5 12.6 1.7 16-1.7 5.3-1.9 7.5c-.2 2.2 1.9 4.6 1.9 4.6s-4.8-3.1-3.4-9c1.4-5.8-9-8.7-6.1-16.2 2.9-7.5 5.3-9.4 1-22.3s-5.8-22.5-1.5-34.2c6.1-16.2 41.7-39.7 65.9-13.3 0 0 11.4-1.2 17.4 16 6.1 17.2 1.2 27.4-.7 29.8 0 0-.7.5-2.4-6.1-1.7-6.5-7.5-9.2-11.6-18.4S121.5 56 121.5 56z" fill="#584f4e" stroke-width="none" opacity="1" stroke="none"></path><path id="SvgjsPath52754" d="M70 170.9c5.4-4.9 4.1-10.9 1.7-15.8 3.3-10.5-3.9-15.3-3.9-15.3S55 144 54.4 151.6c-.3 4.1-.3 7.3.2 9.8-1.1.3-2.2.8-3 1.4-6.4 5.1-3.4 11.7-2.8 14.9s2.4 5.1 2.4 5.1c-1.4 2.3-4.3 7.4-1 16.4s12.9 13.6 12.9 13.6c-4.5-5.6-3.9-14-3.9-14s.6 2.9 2.3 8.6c1.8 5.6 8.2 10.3 8.2 10.3s-1.4-3.1 0-8.8 1.6-8.6 1.6-8.6c-.2 5.3 2.9 10.7 2.9 10.7-1-4.5 1.4-9.7 0-17.7S65 183.1 65 183.1c6.1-6 5-12.2 5-12.2zm53-121.7s.4 2.2-1.5 6.8-7.2 16-32.4 17.7-25.4 19.7-24.3 21.6 6.6 9.3 3.4 14.4c0 0 .8-5.7-3.6-11.6s-5.3-10.4-.4-17.3S77.7 72 92.7 70.5s21.4-5.5 24.3-9.7c3-4.2 4.9-8.9 6-11.6zm-5.1.4s-3.4 7.8-20.5 10.8-33.2 5.9-38.3 21c0 0-.4-6.3 8.5-14.2s32.6-9.3 38.1-10.4c5.4-1.1 10.3-5.1 12.2-7.2zm-9.5-6.4s-29-3.2-43.8 17.4c0 0 4.9-10.8 17.6-16.3s26.2-1.1 26.2-1.1zM125.5 54s1.7 11.2 7.2 18.8c5.5 7.6 8.7 16.1 8.7 16.1s0-8.5-4.9-15.7c-4.9-7.1-8.9-12-11-19.2zm1.3-2.5s11.4 10.8 15.4 27.7c0 0-.6-10.6-5.3-17.6-4.6-6.9-10.1-10.1-10.1-10.1z" fill="#504543" stroke-width="none" opacity="1" stroke="none"></path><path id="SvgjsPath52755" d="M119.2 54.9s-5.2 11.4-24.9 13c-19.7 1.7-25.4 4.3-29.9 8.5 0 0 6.4-9.7 18.5-11.6s26.3-3 36.3-9.9zm-2.2-8.1s-4.5 7.1-20.2 8.5-27.5 4.5-34.6 13.5c0 0 5.5-16.4 22.8-20.6s16.1.5 32-1.4zM127.9 57s2.4 5.2 5.9 10.2 6.4 10.4 7.4 14.5c0 0-.7-9.5-5.2-16.1s-8.1-8.6-8.1-8.6z" fill="#5f5a59" stroke-width="none" opacity="1" stroke="none"></path><path id="SvgjsPath52756" d="M57.9 172.9c-2.2 2.4-1.2 6.4-1.2 6.4s.4-4.1 3.7-5.7c3.3-1.6 7.8-2.5 9.6-2.6 0 0 4.2-4.9 2.1-12.9 0 0-1 8.3-5.3 9.4-4.2 1-6.7 3-8.9 5.4zm8.2 18.5c-1-4.1-5.8-6.9-7.6-7.9 1.7 0 3 .1 3 .1s-2.4-.1-6.4-1.9c-4-1.7-5.7-7.8-5.4-11 .2-2.3 2.3-4.8 3.6-5.9 2.4 2.4 5.7 3.6 5.7 3.6-5-6-2.8-11.8-1.6-14.2 4.4 3.6 8 3.6 8 3.6-14.2-8.4-12-22.7-12-22.7-1.5 2.5-4.5 9.9 1.1 16.4-3.2 1.3-4.8 7.4-2.9 11-1.5 1-3.7 3.1-4.6 7.5-1.5 7 2.9 12.2 4.2 12.8 0 0-3.3 4.3-.2 16.2 3 11.9 12.1 13.8 12.1 13.8-6-3.8-9.9-12.9-10.5-18.7-.5-4.7 1.3-9.2 2.1-10.8 1.1.1 2.3.1 3.4.1.9 1 3.5 4.4 4.9 9.3 1.6 6 .5 9.9 1.2 14.2.7 4.2 4.4 9.1 4.4 9.1s-3.1-6.5-2.9-11.5c0-4.9 1.6-8.1.4-13.1zm5.1-.9c-2.2-5.2-6.5-6.1-6.5-6.1 4.5 3.7 5.7 7.8 6 11.9.3 4.1 2 8.4 2 8.4-.3-3.1.8-9.1-1.5-14.2zm-.1-38.1c.8-3.7-.7-9.5-2.6-11.8 0 0 3.5 7.5-.8 17.6 0 0 2.5-2.1 3.4-5.8zm-8.1-8.3s-7.2-7.4-10.6-20.9c0 0-2.1 16.7 10.6 20.9z" fill="#483b39" stroke-width="none" opacity="1" stroke="none"></path></g><g id="svga-group-glasses-single-move" transform="matrix(1,0,0,1,0,0)"><g id="svga-group-glasses-single" transform="matrix(1,0,0,1,0,0)"></g></g></g></g></g><rect id="svga-credit-rect" width="200" height="15" x="0" y="185" fill="#ecf0f1" opacity="0.5" style="display: none;"></rect><text id="svga-credit-text" font-family="Avenir Next, Roboto, Helvetica, Arial, sans-serif" font-size="10px" text-anchor="start" font-weight="400" size="10px" anchor="start" weight="400" fill="#333333" x="33.41004180908203" y="182.53461003303528" style="display: none;"><tspan id="SvgjsTspan51995" dy="13" x="33.41004180908203">Created on AvatarMaker.com</tspan></text></g></svg>