<svg xmlns="http://www.w3.org/2000/svg" version="1.1" width="600px" height="600px" viewBox="0 0 200 200" style="overflow:hidden!important;"><defs id="SvgjsDefs60180"></defs><g id="svga-group-wrapper"><g id="svga-group-backs-single"><path id="SvgjsPath60651" d="M0 0h200v200H0V0z" fill="#036564" stroke-width="none" opacity="1"></path></g><g id="svga-group-humanwrap-move" transform="matrix(1,0,0,1,0,0)"><g id="svga-group-humanwrap" transform="matrix(1,0,0,1,0,0)"><g id="svga-group-hair-back-move" transform="matrix(1,0,0,1,0,0)"><g id="svga-group-hair-back" transform="matrix(1,0,0,1,0,0)"></g></g><g id="svga-group-humanbody-back"><path id="SvgjsPath60484" d="m168.2 200-4.6-14.2-34.9-13.4-10.8-9.7-1.4-50.5h-33l-1.4 50.5-10.8 9.7-34.9 13.4-4.6 14.2-3 20h142.4z" fill="#f6e4e2" stroke-width="none" opacity="1" stroke="none"></path><path id="SvgjsPath60485" d="m83.5 112.2-1.4 50.5-10.8 9.7-34.9 13.4-4.6 14.2-3 20H39v-20l1.7-13.3 32.1-12.9 14.1-9.5 2-52.1z" fill="#d7a19b" stroke-width="none" opacity="1" stroke="none"></path></g><g id="svga-group-chinshadow-single"><path id="SvgjsPath60710" d="m117.6 154.2-1.1-42.1h-33l-1.2 44.4c2.5 1 4.3 1.7 4.3 1.7h21.3c0 .1 4.7-1.7 9.7-4z" fill="#c8837c" stroke-width="none" opacity="1" stroke="none"></path></g><g id="svga-group-humanbody-front"></g><g id="svga-group-clothes-single"><path id="SvgjsPath60822" d="M53.7 208.5 52 220h95.9l-2.2-11.5z" fill="#162126" stroke-width="none" opacity="1"></path><path id="SvgjsPath60823" d="m174.5 197.5-11-11.7-25.4 10-38.2 1.9-38.1-1.9-25.4-10-11 11.7 3.5 3.1-1.7 3.2 15.8 9.1.9 2.5 16.7.1-.3 1.9 19.9-1.5.4 1.5 10.7 2.3 4.4-.5h8.5l.2-1.3 13.1 1.9 2.5-1.1 19.6-1.3-.3-1.9 15 .3 2.6-2.9 14.5-8.4-.4-3.9z" fill="#1d282e" stroke-width="none" opacity="1"></path><path id="SvgjsPath60824" d="m29.7 200.2 8.8-11.6L28 198.8l1.7 1.4zm20.6-6.3-6.8 18.6 1 2.8 5.8-21.4zm14 4.4-3.5 18.8s2.9-.4 2.9-.8.6-18 .6-18zm16.4 18.6c.1-.4 2-17.3 2-17.3l2.7 18.2-4.7-.9zm21.7 1.9V200l1.9 17.4-1.9 1.4zm14.2.4c0-.4-2-19.9-2-19.9l4.4 18.8-2.4 1.1zm20.9-2.4-3.9-19.2 5.4 19.2h-1.5zm16.7-1.4-7.6-21.5 10.1 18.3-2.5 3.2zm16.8-11s-12.4-15.9-11.9-15.9 11.5 11.9 11.6 12.3.3 3.6.3 3.6zm1-7.3-9.1-10.5 9.7 9.9-.6.6z" fill="#162126" stroke-width="none" opacity="1"></path><path id="SvgjsPath60825" d="m158.2 189.2 11.2 15.3-7.1 4.4-6.3-19.1 2.2-.6zm-12.8 5.7 7.8 19.9-7.8-.1-4.6-18.4 4.6-1.4zm-13.5 3c.2.5 4.1 18.5 4.1 18.5l-4.8.6-.8-18.7 1.5-.4zM114 202l1.4 16.3H112l2-16.3zm-12.8 0 .2 16.3-5.4-.5 2.8-16.6 2.4.8zm-20.1-2.6-1.7 15.3-4.6.6 6.3-15.9zm-18-.4c0 .6-2.7 15.7-2.7 15.7l-12.5-.8 11.2-17.1 4 2.2zM40 189.3c-.5.5-11.5 14.1-11.5 14.1l7.9 3.3 5.1-16.9-1.5-.5z" fill="#253036" stroke-width="none" opacity="1"></path></g><g id="svga-group-head" transform="matrix(1,0,0,1,0,0)"><g id="svga-group-ears-left-move" transform="matrix(1,0,0,1,0,0)"><g id="svga-group-ears-left" transform="matrix(1,0,0,1,0,0)"><path id="SvgjsPath60668" d="M61.9 93s-5.5-3-7.7-3.9c0 0-3.9 5.4-5.1 7.2 0 0 3.1 14.7 3.9 17.3l5 6.5 5.4-1.7 4.2-14.2L61.9 93z" fill="#f6e4e2" stroke-width="none" opacity="1" stroke="none"></path><path id="SvgjsPath60669" d="M59.8 104.7c-.2-.4-6-10-6-10l-2.3 7.9 2.6-2.4 1.6 2.9s-.3 5-.2 5.5c0 .5 2.4 4.3 2.4 4.3l1.9-8.2z" fill="#d7a19b" stroke-width="none" opacity="1" stroke="none"></path><path id="SvgjsPath60670" d="m59.4 98-5.2-8.9c2.2.9 7.7 1.8 7.7 1.8l5.7 13.3-4.2 14.2-5.4 1.7 3.6-3.4L59.4 98z" fill="#e7c1bd" stroke-width="none" opacity="1" stroke="none"></path></g></g><g id="svga-group-ears-right-move" transform="matrix(1,0,0,1,0,0)"><g id="svga-group-ears-right" transform="matrix(1,0,0,1,0,0)"><path id="SvgjsPath60671" d="M138.1 93s5.5-3 7.7-3.9c0 0 3.9 5.4 5.1 7.2 0 0-3.1 14.7-3.9 17.3l-5 6.5-5.4-1.7-4.2-14.2 5.7-11.2z" fill="#f6e4e2" stroke-width="none" opacity="1" stroke="none"></path><path id="SvgjsPath60672" d="M140.2 104.7c.2-.4 6-10 6-10l2.3 7.9-2.6-2.4-1.6 2.9s.3 5 .2 5.5c0 .5-2.4 4.3-2.4 4.3l-1.9-8.2z" fill="#d7a19b" stroke-width="none" opacity="1" stroke="none"></path><path id="SvgjsPath60673" d="m140.6 98 5.2-8.9c-2.2.9-7.7 1.8-7.7 1.8l-5.7 13.3 4.2 14.2 5.37 1.68-3.57-3.38 2.2-18.7z" fill="#e7c1bd" stroke-width="none" opacity="1" stroke="none"></path></g></g><g id="svga-group-faceshape-wrap" transform="matrix(1,0,0,1,0,0)"><g id="svga-group-faceshape-single"><path id="SvgjsPath60700" d="M136.8 61c-6.7-11.2-19-18.9-19-18.9-7-1.5-17.8-2.2-17.8-2.2s-10.8.8-17.8 2.2c0 0-12.4 7.6-19 18.9 0 0-5 14-5.2 23.9l.9 19.9 5.4 26.7 3.6 9.7c4.1 3.8 21.5 10.1 21.5 10.1h21.3s17.4-6.3 21.5-10.1l3.6-9.7 5.4-26.7.8-19.8c-.3-9.9-5.2-24-5.2-24z" fill="#f6e4e2" stroke-width="none" opacity="1" stroke="none"></path><path id="SvgjsPath60701" d="m110.3 149.4-22.6-.3L71.9 138l-8.7-32L62 82.8c0-3.1 4.6-20.8 4.6-20.8l17.7-16.1 15.5-3.7 18-.1c-7-1.5-17.8-2.2-17.8-2.2s-10.8.8-17.8 2.2c0 0-12.4 7.6-19 18.9 0 0-5 14-5.2 23.9l.9 19.9 5.4 26.7 3.6 9.7c4.1 3.8 21.5 10.1 21.5 10.1h21.3s17.4-6.3 21.5-10.1c-.3-.6-21.9 8.2-21.9 8.2z" fill="#d7a19b" stroke-width="none" opacity="1" stroke="none"></path></g></g><g id="svga-group-mouth-single-move" transform="matrix(1,0,0,1,0,0)"><g id="svga-group-mouth-single" transform="matrix(1,0,0,1,0,0)"><path id="SvgjsPath60656" d="m90.86 133.49.13 1.07 6.52 3.88 11.26-1.42 5.5-6.18s-14.32-.27-14.52-.27-8.89 2.92-8.89 2.92z" fill="#9D6D5F" stroke-width="none" opacity="1" transform="translate(0 3)" stroke="none"></path><path id="SvgjsPath60657" d="m87.85 133.25 3.14 1.31 9.34-2.99 13.94-.73 3.94-3.5 1.03.51-2.27-2.56.29 1.97-3.57 2.05-8.83-2.27-3.94 2.34-4.89-1.39-6.94 4.89z" fill="#8e5748" stroke-width="none" opacity="1" transform="translate(0 3)" stroke="none"></path><path id="SvgjsPath60658" d="m96.42 133.72 4.19-1.4 6.91-.15-6.6 1.63z" fill="#ac8579" stroke-width="none" opacity="1" transform="translate(0 3)" stroke="none"></path></g></g><g id="svga-group-eyes-left-move" transform="matrix(1,0,0,1,0,0)"><g id="svga-group-eyes-left" transform="matrix(1,0,0,1,0,0)"><g id="svga-group-eyesback-left"><path id="SvgjsPath60742" d="m90.6 103.9-3.9-7s-12.7-.2-17.6.2c0 0 7.4 5.5 9.3 6.7 0 0 8.1.3 12.2.1z" fill="#ffffff" stroke-width="none" opacity="1"></path></g><g id="svga-group-eyesiriswrapper-left" transform="matrix(1,0,0,1,0,0)"><g id="svga-group-eyesiriscontrol-left" transform="matrix(1,0,0,1,0,0)"><g id="svga-group-eyesiris-left" transform="matrix(1,0,0,1,0,0)"><path id="SvgjsPath60714" d="m82.59 104.53-4.96-1.82-.91-5.21 4.06-3.39 4.96 1.82.91 5.21z" fill="#ea02f5" stroke-width="none" opacity="1"></path><path id="SvgjsPath60715" d="m78.19 100.47.77-3.59 3.49-1.14 2.73 2.46-.77 3.59-3.49 1.13z" fill="#000000" stroke-width="none" opacity="1"></path><path id="SvgjsPath60716" d="m78.52 96.52 3.23 3.6-1.39-5.36z" fill="#ffffff" stroke-width="none" opacity="1"></path></g></g></g><g id="svga-group-eyesfront-left"><path id="SvgjsPath60750" d="M68 94.5v11.1l7.7 7.9h10.9l7.7-7.9V94.5l-7.7-7.9H75.7L68 94.5zm1.1 2.6c4.9-.4 17.6-.2 17.6-.2l3.9 7c-4.1.3-12.2-.1-12.2-.1-1.9-1.3-9.3-6.7-9.3-6.7z" fill="#f6e4e2" stroke-width="none" opacity="1" stroke="none"></path><path id="SvgjsPath60751" d="m93.4 106.5-1 .3-2-2.1-12.2-.5-4.2-3.5 4.5 2.8 11.7.2z" fill="#e7c1bd" stroke-width="none" opacity="1" stroke="none"></path><path id="SvgjsPath60752" d="m68.1 97.2-5.2-2.6 4.9 1.3h2.3L66 93.6l6.5 2.4 3.2.1-5.6-2.6 7.5 2.6 10 .2 5.8 10.2-3.2-2.8-3.4-6.1-16.9-.2 8.6 6.1z" fill="#587d90" stroke-width="none" opacity="1" stroke="none"></path></g></g></g><g id="svga-group-eyes-right-move" transform="matrix(1,0,0,1,0,0)"><g id="svga-group-eyes-right" transform="matrix(1,0,0,1,0,0)"><g id="svga-group-eyesback-right"><path id="SvgjsPath60743" d="m109.4 103.9 3.9-7s12.7-.2 17.6.2c0 0-7.4 5.5-9.3 6.7 0 0-8.1.3-12.2.1z" fill="#ffffff" stroke-width="none" opacity="1"></path></g><g id="svga-group-eyesiriswrapper-right" transform="matrix(1,0,0,1,0,0)"><g id="svga-group-eyesiriscontrol-right" transform="matrix(1,0,0,1,0,0)"><g id="svga-group-eyesiris-right" transform="matrix(1,0,0,1,0,0)"><path id="SvgjsPath60717" d="m119.22 104.53-4.96-1.82-.91-5.21 4.06-3.39 4.96 1.82.91 5.21z" fill="#ea02f5" stroke-width="none" opacity="1"></path><path id="SvgjsPath60718" d="m114.82 100.47.77-3.59 3.49-1.14 2.73 2.46-.77 3.59-3.49 1.13z" fill="#000000" stroke-width="none" opacity="1"></path><path id="SvgjsPath60719" d="m115.15 96.52 3.23 3.6-1.39-5.36z" fill="#ffffff" stroke-width="none" opacity="1"></path></g></g></g><g id="svga-group-eyesfront-right"><path id="SvgjsPath60753" d="M124.3 86.6h-10.9l-7.7 7.9v11.1l7.7 7.9h10.9l7.7-7.9V94.5l-7.7-7.9zm-2.7 17.2s-8.1.4-12.2.1l3.9-7s12.7-.2 17.6.2c0 0-7.4 5.4-9.3 6.7z" fill="#f6e4e2" stroke-width="none" opacity="1" stroke="none"></path><path id="SvgjsPath60756" d="m106.6 106.5 1 .3 2-2.1 12.2-.5 4.2-3.5-4.5 2.8-11.7.2z" fill="#e7c1bd" stroke-width="none" opacity="1" stroke="none"></path><path id="SvgjsPath60757" d="m131.9 97.2 5.2-2.6-4.9 1.3h-2.3l4.1-2.3-6.5 2.4-3.2.1 5.6-2.6-7.5 2.6-10 .2-5.8 10.2 3.2-2.8 3.4-6.1 16.9-.2-8.6 6.1z" fill="#587d90" stroke-width="none" opacity="1" stroke="none"></path></g></g></g><g id="svga-group-facehighlight-single"></g><g id="svga-group-eyebrows-left-move" transform="matrix(1,0,0,1,0,0)"><g id="svga-group-eyebrows-left-rotate" transform="matrix(1,0,0,1,0,0)"><g id="svga-group-eyebrows-left" transform="matrix(1,0,0,1,0,0)"><path id="SvgjsPath60796" d="m92.2 86.7.3 3.1-3.2 1.6-14.9-6.7-8.2 5.2 7.6-8.3 9.4 1.6z" fill="#b79675" stroke-width="none" opacity="1"></path><path id="SvgjsPath60797" d="m78.1 85.6-1.2-2.2 3.6 3.1 5.9 2.9-1-3.6 3.7 5.1s1.8-.7 3.4-1.3v.4l-3.2 1.6-14.8-6.7-8.2 5.2 7.5-6 4.3 1.5z" fill="#a8815a" stroke-width="none" opacity="1"></path><path id="SvgjsPath60798" d="m79.2 82.5 1.9 3.1-3.6-3.4 1.7.3zm9.8 3 .6 3.7-2.2-4.4 1.6.7zm-15.2-3.9 2 1.8-2.4-1.4.4-.4z" fill="#c6ac93" stroke-width="none" opacity="1"></path></g></g></g><g id="svga-group-eyebrows-right-move" transform="matrix(1,0,0,1,0,0)"><g id="svga-group-eyebrows-right-rotate" transform="matrix(1,0,0,1,0,0)"><g id="svga-group-eyebrows-right" transform="matrix(1,0,0,1,0,0)"><path id="SvgjsPath60799" d="m107.8 87-.2 3.1 3.2 1.5 14.8-7 8.3 5.1-7.8-8.3-9.3 1.8z" fill="#b79675" stroke-width="none" opacity="1"></path><path id="SvgjsPath60800" d="m121.9 85.5 1.2-2.2-3.5 3.1-5.9 3 1-3.6L111 91s-1.8-.6-3.4-1.3v.4l3.3 1.5 14.7-7 8.3 5.1-7.6-5.8-4.4 1.6z" fill="#a8815a" stroke-width="none" opacity="1"></path><path id="SvgjsPath60801" d="m120.7 82.5-1.9 3.1 3.5-3.4-1.6.3zm-9.8 3.2-.5 3.8 2.2-4.4-1.7.6zm15.2-4.3-2 1.8 2.4-1.4-.4-.4z" fill="#c6ac93" stroke-width="none" opacity="1"></path></g></g></g><g id="svga-group-nose-single-move" transform="matrix(1,0,0,1,0,0)"><g id="svga-group-nose-single" transform="matrix(1,0,0,1,0,0)"><path id="SvgjsPath60784" d="m105.55 110.57 3.31 6.99-1.46 2.7-2.53-.2.19-.4 2.63-.9-3.21.2-2.53 3.5H98.06l-2.52-3.5-3.21-.2 2.62.9.2.4-2.53.2-1.46-2.7 3.31-6.99-4.09 7.09 1.95 3.5 3.69-.5 1.85 2.5h4.28l1.84-2.5 3.7.5 1.94-3.5z" fill="#d7a19b" stroke-width="none" opacity="1" transform="translate(0 2)" stroke="none"></path><path id="SvgjsPath60785" d="m93.56 113.36 2.55 4.19 6.9.11-6.96.45z" fill="#d7a19b" stroke-width="none" opacity="1" transform="translate(0 2)" stroke="none"></path><path id="SvgjsPath60786" d="m95.6 111.94 1.93 4.42 5.56.17 1.51-4.81z" fill="#fef7f6" stroke-width="none" opacity="1" transform="translate(0 2)" stroke="none"></path></g></g><g id="svga-group-hair-front" transform="matrix(1,0,0,1,0,0)"><path id="SvgjsPath60845" d="m61 99.3-6.1-11.6L53 72.1l-10.6-1.3-5.1-8.4 2.8-14.8 7.1-7.2 5.1-10.1 15.2-7.8 12.3 3.1 1.5 2.6 5 6.5-.4 3.4 8.7.2 4.8 1.1 4-1.1 10.6.7-.4-3.6 6.3-7.9 9.1 1.1 13.3-.2 9.7 7 2.7 7.3 8 13.3-.2 6.6-4.2 6.3-5.3 3-6.7.2-.7 12.2-1 4.9-5.3 8.9.6-14.4-5-10.6-11.4-9.5-14.4-2.5-8 2.8-10.4-2.8-12.6 3.4-11 9.3L61 83.9z" fill="#b79675" stroke-width="none" opacity="1" stroke="none"></path><path id="SvgjsPath60846" d="m85.5 59-6.1 10.2 4.9 13.7-2.1-12.7 7.4-10.1h5.1l6.3 3.8-6-6.2-9.5 1.3zM70.2 44.1l-3.6-14.6 1.7 13.4L61 54.4l-9.2-.8-2.6-9.6 1.5 11 11.5 1.5 8-12.4zm-29.8 8.7 3.2 12-1.5-11.7 5.4-9.5-7.1 9.2zm111.8-12.4-5.9-2.9-9.8 2.9-.7 10.7 9.3 8.5-7.6-9.2 1-7.8 6.8-3 5.9 1.9 3.6 5.1-2.6-6.2zm-38.6 19.8 13.9-.7 7.1-6.1-7.8 4.6-13.2 2.2zm-2.7-12.7-7.6 4.8 8.1-2.9 17.1-1-17.6-.9zM73.1 60.4l4.7 2.5-8.6-8.1 3.9 5.6zm-10.5.7c-.2.5-.7 8.5-.7 8.5l2.9 5.8-1.5-7.4-.7-6.9z" fill="#bfa183" stroke-width="none" opacity="1" stroke="none"></path><path id="SvgjsPath60847" d="M77.3 45.9h11.8l11 2.5-4-3.2-8.4-1.9-10.4 2.6zm47.9-1.5-6.1-1.5-11.8 1.7-5.9 4.8 8.9-3.4 14.9-1.6zm.4 8.3-14.4 1.1-10.6 5.5 19.2-2.3 13.1-5.1-7.3.8zm30.8-1.1-6.6-7.4-6.8 1.9-.6 5.5 3.2-3.6 8.7 4.2-.8 7.2 2.9-7.8zM54.1 61.2l2.2-.4h-2.1l1-3.8-1.8 3.8H49l-3.8-8.4 2.1-12-3.9 4-.8 4.2.8 6.7 5.5 7 4.3-.9-3.4 6.9-7 .2-4-3.5 3.6 5.8 6.1.8h.3l3.8-4.7 1.5-5.7zm16.4-9.6 2-1.7 12.5.6 11.2 4.9 3 2.5-5.9-7.8-12.9-1.9-7.8 1.6 9.1-7.9 6.6-3.8L86 38l.4-3.4-4.9-6.5-.9-1.1c-3.8-1.2-9.3-3-13.6-4.2L64.7 24c3.8.8 11.1 2.4 15.9 3.4-1 4.7-2.3 10.1-2.3 10.1s-9.5 2.3-8.9 2.3c.4 0 4.7 1.2 7.8 2l-9.4 6.8-7-2.5-2.5-4.2s2-11.5 3.1-16.3L58.8 27c-2.1 7.2-5.2 18.7-5.2 18.7l8.9 5.9h8zm-5.6 4.8 4.2-3.6-9.6 6.2-7 13 .6.1L55 87.7l6 11.6V83.9l1.8-3-2.6-4.4 1-16.9 3.7-3.2c.1 1.6.7 8.2 1 8.7.2.3 3.1 2.8 5.6 4.9l2.8-2.3-5.3-3.6-4.1-7.7zm54.4-16.6 10.4 6.1-9.3-9.9 3.5-8-4.1-.5-6.3 8 .5 3.5 5.3.8zm22.3-2.8h6.8l5.7 4.2-2.1-5.7-6.6-2.3-12.7 3.6s-.2 13.1-.2 13.7l3-10.1 6.1-3.4zm17.8 28.3-5.9 4.2-4.6-1.1-1.5-3.2 4-2.7s-5.5-.4-6.6-.6-5.7-6.8-5.7-6.8l1.5-9.5-3.2 9.7v.1l-7.1 6.2L124 64l3.5 2.9 5.3-2.6 4.7-8.7.8 3.7 1.9 3c-.8 3.2-1.9 7.7-1.9 8 0 .3-1.5 1.9-3.1 3.4l2.3 4.9 3.6-7.6-.1-7.4 4 6.4-1.3 12.8-4.1 8.2-.3 7.2 5.3-8.9.9-4.9.8-12.2 6.6-.2 5.3-3 4.2-6.3.2-6.7-3.2 9.3zm-69.7-5.2-7.4 10.1 6.9-7.8 5.4-1.2 6.5 2.7-6.3-3.8h-5.1z" fill="#af8b67" stroke-width="none" opacity="1" stroke="none"></path></g><g id="svga-group-glasses-single-move" transform="matrix(1,0,0,1,0,0)"><g id="svga-group-glasses-single" transform="matrix(1,0,0,1,0,0)"></g></g></g></g></g><rect id="svga-credit-rect" width="200" height="15" x="0" y="185" fill="#ecf0f1" opacity="0.5" style="display: none;"></rect><text id="svga-credit-text" font-family="Avenir Next, Roboto, Helvetica, Arial, sans-serif" font-size="10px" text-anchor="start" font-weight="400" size="10px" anchor="start" weight="400" fill="#333333" x="33.41004180908203" y="182.53461003303528" style="display: none;"><tspan id="SvgjsTspan60228" dy="13" x="33.41004180908203">Created on AvatarMaker.com</tspan></text></g></svg>