<svg xmlns="http://www.w3.org/2000/svg" version="1.1" width="600px" height="600px" viewBox="0 0 200 200" style="overflow:hidden!important;"><defs id="SvgjsDefs182501"><linearGradient id="SvgjsLinearGradient183186" x1="100.0394" y1="79.6722" x2="100.0394" y2="122.2396" gradientUnits="userSpaceOnUse" class="svga-on-canvas-nose-gradient-single-0-null"><stop id="SvgjsStop183187" stop-opacity="0" stop-color="#c18553" offset="0" ></stop><stop id="SvgjsStop183188" stop-opacity="0.9727" stop-color="#b2713b" offset="0.7584" ></stop><stop id="SvgjsStop183189" stop-opacity="0.9769" stop-color="#aa6730" offset="0.7953" ></stop><stop id="SvgjsStop183190" stop-opacity="0.9852" stop-color="#a35e26" offset="0.8691" ></stop><stop id="SvgjsStop183191" stop-opacity="0.9968" stop-color="#934d13" offset="0.972" ></stop><stop id="SvgjsStop183192" stop-opacity="1" stop-color="#843e04" offset="1" ></stop></linearGradient></defs><g id="svga-group-wrapper"><g id="svga-group-backs-single"><path id="SvgjsPath183471" d="M0 0h200v200H0V0z" fill="#594f4f" stroke-width="none" opacity="1"></path><path id="SvgjsPath183472" d="M100 124.2c-13.3 0-24.2-10.8-24.2-24.2S86.7 75.8 100 75.8s24.2 10.8 24.2 24.2-10.9 24.2-24.2 24.2zm0-42.4c-10 0-18.2 8.2-18.2 18.2s8.2 18.2 18.2 18.2 18.2-8.2 18.2-18.2S110 81.8 100 81.8zm0 57.4c-21.6 0-39.2-17.6-39.2-39.2S78.4 60.8 100 60.8s39.2 17.6 39.2 39.2-17.6 39.2-39.2 39.2zm0-72.4c-18.3 0-33.2 14.9-33.2 33.2s14.9 33.2 33.2 33.2 33.2-14.9 33.2-33.2-14.9-33.2-33.2-33.2zm0 87.5c-29.9 0-54.3-24.4-54.3-54.3S70.1 45.7 100 45.7 154.3 70 154.3 100s-24.4 54.3-54.3 54.3zm0-102.6c-26.6 0-48.3 21.7-48.3 48.3 0 26.6 21.7 48.3 48.3 48.3 26.6 0 48.3-21.7 48.3-48.3 0-26.6-21.7-48.3-48.3-48.3zm0 116.4c-37.6 0-68.1-30.6-68.1-68.1S62.4 31.9 100 31.9s68.1 30.6 68.1 68.1-30.5 68.1-68.1 68.1zm0-130.2c-34.2 0-62.1 27.9-62.1 62.1s27.9 62.1 62.1 62.1 62.1-27.9 62.1-62.1-27.9-62.1-62.1-62.1zm0 146.2c-46.4 0-84.1-37.7-84.1-84.1S53.6 15.9 100 15.9s84.1 37.7 84.1 84.1-37.7 84.1-84.1 84.1zm0-162.2c-43.1 0-78.1 35-78.1 78.1s35 78.1 78.1 78.1 78.1-35.1 78.1-78.1-35-78.1-78.1-78.1zm0 90c-6.6 0-11.9-5.4-11.9-11.9 0-6.6 5.4-11.9 11.9-11.9 6.6 0 11.9 5.4 11.9 11.9 0 6.6-5.3 11.9-11.9 11.9zm0-17.8c-3.3 0-5.9 2.7-5.9 5.9 0 3.3 2.7 5.9 5.9 5.9 3.3 0 5.9-2.7 5.9-5.9 0-3.3-2.6-5.9-5.9-5.9zM0 146.7v12.8c9.9 16.6 23.9 30.6 40.5 40.5h12.8C29.9 189 11 170.1 0 146.7zm200 0c-11 23.4-29.9 42.3-53.3 53.3h12.8c16.6-9.9 30.6-23.9 40.5-40.5v-12.8zm0-93.4V40.5C190.1 23.9 176.1 9.9 159.5 0h-12.8C170.1 11 189 29.9 200 53.3zm-200 0C11 29.9 29.9 11 53.3 0H40.5C23.9 9.9 9.9 23.9 0 40.5v12.8zm200 36.3C195.1 42.5 157.6 4.9 110.4 0H89.6C42.5 4.9 4.9 42.5 0 89.6v20.8c4.9 47.1 42.5 84.7 89.6 89.6h20.8c47.1-4.9 84.7-42.4 89.6-89.6V89.6zM100 194.5c-52.1 0-94.5-42.4-94.5-94.5S47.9 5.5 100 5.5s94.5 42.4 94.5 94.5-42.4 94.5-94.5 94.5zM0 176.2v9.5c4.4 5.1 9.1 9.9 14.3 14.3h9.5c-9-6.8-17-14.8-23.8-23.8zm200 0c-6.8 8.9-14.8 16.9-23.8 23.8h9.5c5.1-4.4 9.9-9.1 14.3-14.3v-9.5zM0 23.8c6.8-9 14.8-17 23.8-23.8h-9.5C9.1 4.4 4.4 9.1 0 14.3v9.5zm200 0v-9.5c-4.4-5.1-9.1-9.9-14.3-14.3h-9.5c9 6.8 17 14.8 23.8 23.8z" fill="#4a3a3a" stroke-width="none" opacity="1"></path></g><g id="svga-group-humanwrap-move" transform="matrix(1,0,0,1,0,0)"><g id="svga-group-humanwrap" transform="matrix(1,0,0,1,0,0)"><g id="svga-group-hair-back-move" transform="matrix(1,0,0,1,0,0)"><g id="svga-group-hair-back" transform="matrix(1,0,0,1,0,0)"></g></g><g id="svga-group-humanbody-back"><path id="SvgjsPath183408" d="M180.8 184.9c-2.3-3.4-38.9-17.8-38.9-17.8l-13.4-5.2-5.6-68.8H76.8L71.3 162l-13.4 5.2S21.4 181.6 19 185c-2.3 3.4-3.3 14.9-3.3 14.9V219h168.5v-19.2c-.1.1-1-11.5-3.4-14.9z" fill="#fabe8c" stroke-width="none" opacity="1" stroke="none"></path></g><g id="svga-group-chinshadow-single"><path id="SvgjsPath183404" d="M80.4 152.5c5 8 14 6.5 14 6.5s9 1.4 14-6.6c0 0 2.7 0 12.7-1.3 2.4-.3 4.5-1.1 6.4-2.2L123 93.1H76.8l-4.7 58.7c6.5.7 8.3.7 8.3.7z" fill="#db8f4f" stroke-width="none" opacity="1" stroke="none"></path></g><g id="svga-group-humanbody-front"><path id="SvgjsPath183409" d="M184.5 219c-.1-6.4-.1-12.8-.1-19.2l-.3-.1s.1-.1.2 0c.1 0 .1.1.1.1v-.4l-.1-.5-.1-.9-.2-1.9c-.2-1.3-.4-2.5-.6-3.8-.2-1.3-.5-2.5-.9-3.8-.4-1.2-.8-2.5-1.5-3.6-.8-.9-1.9-1.5-2.9-2.1-1-.6-2.1-1.1-3.2-1.7-2.1-1.1-4.3-2.1-6.5-3.1-4.4-2-8.7-3.9-13.1-5.7-4.4-1.9-8.8-3.7-13.2-5.5l-13-5.2-1.2-16.9c-.4-5.7-.9-11.5-1.3-17.2l-1.3-17.2-1.5-17.3-.1-.8h-.8c-7.7 0-15.4.1-23.1.1l-23.1.2h-.5v.5L75 110.2l-1.3 17.2c-.8 11.4-1.8 22.8-2.8 34.2-5.6 2.1-11.2 4.2-16.7 6.4-5.6 2.2-11.2 4.5-16.8 6.9-2.8 1.2-5.6 2.4-8.3 3.6-2.8 1.3-5.5 2.5-8.2 4.1-.7.4-1.3.8-2 1.4-.2.1-.4.4-.5.6l-.3.6c-.2.4-.4.7-.5 1.1-.6 1.5-1 3-1.3 4.5-.6 3-1.1 6-1.4 9.1l-.1 19.1v.9h.9l42.1.1H100c14 0 28.1-.1 42.1-.2l42.1-.5h.3v-.3zm-84.5-1-42.1-.1-41.2.1-.1-18.1c.3-3 .6-5.9 1.2-8.9.3-1.4.6-2.9 1.1-4.2.1-.3.3-.7.4-.9l.2-.4.3-.3c.5-.4 1.1-.8 1.8-1.2 2.5-1.5 5.3-2.8 8-4.1 2.7-1.3 5.5-2.5 8.2-3.7 5.5-2.4 11.1-4.8 16.7-7.1s11.2-4.5 16.9-6.7l.2-.1v-.2c.9-11.5 1.7-23 2.7-34.4l1.4-17.2 1.5-16.7 22.6.2c7.4.1 14.8.1 22.3.1l1.3 16.4 1.5 17.2c.5 5.7 1 11.5 1.5 17.2l1.6 17.2v.3l.3.1 13.4 5c4.4 1.7 8.9 3.4 13.3 5.2 4.4 1.8 8.8 3.7 13.2 5.6 2.2 1 4.3 2 6.5 3 1.1.5 2.1 1.1 3.2 1.6 1 .6 2.1 1.2 2.9 2 .7 1.1 1.1 2.3 1.4 3.5.3 1.2.6 2.5.8 3.7.2 1.3.4 2.5.6 3.8l.2 1.9.1.9.1.5v.4c0 6.3 0 12.6-.1 18.9l-41.8-.5c-14 .1-28.1 0-42.1 0z" fill="#cc7a35" stroke-width="none" opacity="1" stroke="none"></path><path id="SvgjsPath183410" d="M125.1 142.4s-1.8 23-9.1 32.9c0 0 7.9-25 9.1-32.9zm-34.5 16s5 7.9 11.5 10.1c0 0-9.5 2.2-11.5-10.1zM73.4 140c6.7 25.6 6.7 25.6 8.5 30.7 0 0 .4-12.6-8.5-30.7z" fill="#db8f4f" stroke-width="none" opacity="1" stroke="none"></path></g><g id="svga-group-clothes-single"><path id="SvgjsPath183287" d="M61.8 186.6s14.4 11.8 17.6 14.6c3.2 2.8 21.3 12 21.3 12s19.2-9.9 22.4-12.5c3.2-2.6 14.4-17.4 14.4-17.4V220H66.4l-4.6-33.4z" fill="#efefef" stroke-width="none" opacity="1"></path><path id="SvgjsPath183288" d="M67 148.7s-7.2 5.3-11 8.6-9.9 6.6-9.9 6.6l2.9 1.6s-5.5 3.2-10.9 4.8c-5.5 1.6-20.1 5.2-21.1 5.7s-2.3 2.9-2.3 2.9-4.4.9-4.9 11.1c-.6 10.2-1.3 30-1.3 30h64.1s-5.8-35.1-6.3-39.2c0-.4 1.2-16.6 1.2-18 0-1 4.4-11.7 4.3-15.4-.1-1.5-4.8 1.3-4.8 1.3zm66 0s7.2 5.3 11 8.6 9.9 6.6 9.9 6.6l-2.9 1.6s5.5 3.2 10.9 4.8c5.5 1.6 20.1 5.2 21.1 5.7s2.3 2.9 2.3 2.9 4.4.9 4.9 11.1 1.3 29.9 1.3 29.9h-64.1s5.8-35.1 6.3-39.2c0-.4-1.1-16.6-1.1-18 0-1-3.5-12.8-3.7-15.9-.1-1.2 4.1 1.9 4.1 1.9z" fill="#335529" stroke-width="none" opacity="1"></path><path id="SvgjsPath183289" d="M138.2 164.1s4.9 11.3 6.3 13.8c1.4 2.6 12.2 10.8 12.2 10.8s-15.5 12.9-15.7 14.5c-.2 1.6-3.1 11.7-3.1 11.7l4.2-9.9s6.6-5.6 8.2-6.6 14.1-9.9 14.1-9.9-16.2-11-17.8-12.7c-1.6-1.4-8.4-11.7-8.4-11.7zm26.3 9.6c-3.5-.9-10.1-4.2-12.7-5.6 0 0 8 5.4 10.6 6.8 2.6 1.4 15.5 3.8 15.5 4.5 0 .7-4 5.2-4.9 7.5-.9 2.4-.9 9.1-.9 9.1s1.9-5.9 3.1-8.9 7.7-7.3 7.7-7.3 0-1.6-.9-2.6-14-2.6-17.5-3.5zm24.1 12.9c-.2-2.6-2.1-4.5-3.8-5.2 0 0 .9 1.6 1.2 2.6s.7 11.5.7 15.9 3.1 16.9 3.1 16.9-.9-27.6-1.2-30.2zM65.5 161.7c-.5 5.4-2.6 17.6-3.5 21.4-.9 3.8-.2 18.1-.2 18.1s.7-12.7 1.9-15.5c1.2-2.8 2.6-10.3 2.4-12.4-.4-2.2-.6-11.6-.6-11.6zm-43.1 14.5c-1.6.4-4.3 1.2-5.1 2.2 0 0 0 1.4 7.5-.8 5.3-1.5 14.7-5.8 19.7-8.2-6.9 2.7-20.8 6.5-22.1 6.8zm22.1-6.8c1.6-.6 2.9-1.2 3.5-1.6-.1 0-1.4.6-3.5 1.6zm-2.1 22.9c-2.2-1-5.7-2.4-5.7-2.4 4.1 1.8 21.2 14.6 21.2 14.6l6.3 13.8s-4.5-14.6-5.5-15.5c-.9-1-14.1-9.5-16.3-10.5z" fill="#44643a" stroke-width="none" opacity="1"></path><path id="SvgjsPath183290" d="M190.8 190.1c-.5-9.2-4.1-11.1-5.1-11.4-.4-.6-1.4-2.5-2.4-2.9-.5-.3-3.8-1.1-9.1-2.5-4.4-1.1-9.3-2.4-12-3.2-4.1-1.3-8.4-3.4-10.1-4.4l2.9-1.7-.8-.4c-.1 0-6.1-3.3-9.8-6.5-3.8-3.3-10.9-8.6-11-8.6l-.8-.6-4.8-2.4 1.1 16.4 3.1 1.2c0 1.1.4 6.1.7 10.5.2 3.5.5 7 .5 7.3-.1 1.2-.7 4.9-1.4 9.7-.6.8-1.2 1.5-1.8 2.2-1.3 1.6-2.6 3.1-3.9 4.6-.7.8-1.3 1.5-2 2.2-.3.4-.7.7-1.1 1-.4.3-.8.6-1.2.8-3.4 2.1-7 4-10.5 5.9-3.5 1.9-7 3.7-10.5 5.5-3.4-1.7-6.9-3.5-10.3-5.3-1.7-.9-3.5-1.9-5.2-2.9-1.7-1-3.4-1.9-5-3.1L68.5 192c-.9-5.4-1.6-9.9-1.7-11.1 0-.3.2-3.9.5-7.3.3-4.4.6-8.9.7-10.2l3.1-1.4 1.3-15.9-5 1.7-.8.6c-.1.1-7.2 5.4-11 8.6-3.7 3.2-9.8 6.5-9.8 6.5l-.8.4 2.9 1.7c-1.7.9-5.9 3.1-10 4.4-2.7.8-7.6 2.1-12 3.2-5.3 1.4-8.6 2.2-9.1 2.5-1 .5-2.1 2.3-2.4 2.9-1 .4-4.6 2.2-5.1 11.4-.6 10.1-1.3 29.8-1.3 30v.5h184.1v-.5c-.1-.2-.8-19.9-1.3-29.9zM30.4 219.5c-.1-3.5-.3-6.9-.9-10.4-.7-3.7-1.4-7.4-2.3-11-.5-1.8-.9-3.6-1.5-5.4-.6-1.8-1.2-3.6-2.2-5.2-1.1-1.6-2.3-3-3.6-4.4-.6-.7-1.3-1.4-2-2-.7-.6-1.3-1.4-2.2-1.8.4.2.7.6 1 .9.3.3.6.7.9 1l1.8 2.1c1.2 1.4 2.4 2.9 3.3 4.5.9 1.6 1.5 3.4 2 5.1.5 1.8 1 3.6 1.4 5.4.9 3.6 1.6 7.3 2.5 10.9.4 1.8.7 3.7.9 5.5.4 1.6.6 3.2.9 4.8H9c.1-3.2.8-20.3 1.2-29.4.5-9.6 4.5-10.6 4.6-10.6l.2-.1.1-.2c.5-.9 1.4-2.4 2.1-2.7.5-.2 4.8-1.4 8.9-2.4 4.4-1.1 9.4-2.4 12.1-3.2 4.9-1.5 9.8-4.2 10.8-4.8.6.4 1.2.7 1.8 1.1l2.5 1.5c.4.2.8.5 1.2.8l.6.3c-2.1 2.2-4.3 4.2-6.7 6l-8.4 6.1c-2.8 2.1-5.6 4.1-8.4 6.2l-1.1.8 1.2.8 6.1 4.1 6.1 4.1 6.2 4.1c1 .7 2.1 1.4 3 2l2.8 2.2c1.2 2.3 2.3 4.6 3.5 6.9l3.3 6.3H30.4zm32.4 0c-.9-2.2-1.8-4.4-2.7-6.7-1-2.4-2-4.9-3.1-7.3v-.1l-.1-.1c-.9-.8-1.8-1.7-2.8-2.5-1-.8-2-1.5-3-2.2-2-1.4-4-2.8-6-4.3s-4-2.8-6.1-4.2c-1.7-1.1-3.3-2.3-5-3.4 2.4-1.8 4.8-3.6 7.2-5.5 2.7-2.1 5.5-4.2 8.2-6.4 2.8-2.2 5.2-4.8 7.4-7.5s4.3-5.5 6-8.5c-2.1 2.7-4.4 5.4-6.8 7.9-.2.3-.5.5-.7.8-.2-.1-.4-.3-.6-.4-.4-.3-.7-.7-1.1-1-.8-.6-1.6-1.2-2.4-1.7-.8-.5-1.6-1.1-2.5-1.6l-1.2-.6-.6-.4c1.8-1 6.2-3.6 9.2-6.2 3-2.6 10.2-8 10.2-8l4.1-2.1s-3.7 14.6-3.7 15.3c0 .8-.4 5.9-.7 10.5-.4 5.7-.5 7.3-.5 7.5 0 .1 0 .3.1.4-.2.6-.4 1.2-.5 1.9l-.9 3.9c-.3 1.3-.5 2.6-.8 3.9-.2 1.3-.5 2.6-.7 3.9-.1 2.3-.2 4.5-.1 6.8.4-2.2.7-4.5 1-6.7.3-1.3.5-2.6.8-3.9.2-1.3.5-2.6.7-3.9l.6-3.9c0-.2.1-.5.1-.7 1.1 7.5 5.2 32.6 6 36.9l-9 .1zm57 0H84.2c-3.7 0-7.4 0-11.2.1-.4-2.4-2.8-16.6-4.4-27.2.8.7 1.6 1.4 2.4 2 3 2.6 5.9 5.1 8.9 7.6 1.6 1.2 3.3 2.2 5 3.2 1.7 1 3.4 1.9 5.2 2.9 3.5 1.9 7 3.7 10.5 5.5l.2.1.2-.1c3.6-1.9 7.1-3.7 10.7-5.7 3.5-1.9 7.1-3.9 10.4-6.1l1.2-.9c.4-.4.8-.7 1.1-1.1.7-.7 1.4-1.5 2-2.3 1.3-1.5 2.6-3.1 3.8-4.7.5-.6.9-1.1 1.4-1.7-1.7 10.7-4.2 25.9-4.7 28.4h-7.1zm8.2 0c.7-4.3 4.9-29.4 6-36.9 0 .2.1.5.1.7l.6 3.9c.2 1.3.5 2.6.7 3.9.3 1.3.5 2.6.8 3.9.2 2.2.6 4.5 1 6.7.1-2.3 0-4.6-.1-6.8-.2-1.3-.4-2.6-.7-3.9-.2-1.3-.5-2.6-.8-3.9l-.9-3.9c-.1-.6-.3-1.2-.5-1.9 0-.2 0-.3.1-.4 0-.2-.1-1.8-.5-7.5-.3-4.6-.7-9.8-.7-10.6 0-.9-3.7-15.8-3.7-15.8l4.2 2.6s7.2 5.4 10.2 8c3 2.6 7.4 5.2 9.2 6.2l-.6.4-1.2.6c-.9.5-1.7 1-2.5 1.6-.8.6-1.6 1.1-2.4 1.7-.4.3-.7.7-1.1 1-.2.2-.4.3-.6.4-.2-.2-.5-.5-.7-.8-2.4-2.5-4.6-5.2-6.8-7.9 1.8 3 3.9 5.8 6.1 8.5 2.2 2.7 4.6 5.3 7.4 7.5 2.7 2.2 5.5 4.3 8.2 6.4 2.4 1.9 4.8 3.7 7.2 5.5-1.7 1.1-3.3 2.2-5 3.4-2 1.4-4.1 2.8-6.1 4.2-2 1.4-4 2.8-6 4.3-1 .7-2 1.4-3 2.2-.9.8-1.9 1.6-2.8 2.5l-.1.1-.1.1c-1 2.4-2.1 4.9-3.1 7.3l-2.7 6.6-9.1.1zm41.7 0c.2-1.6.4-3.1.6-4.7.3-1.9.5-3.7.9-5.5.9-3.6 1.6-7.3 2.5-10.9.4-1.8.9-3.6 1.4-5.4s1.1-3.6 2-5.1c.9-1.5 2.1-3 3.3-4.5l1.8-2.1c.3-.4.6-.7.9-1 .3-.3.6-.7 1-.9-.8.4-1.5 1.2-2.2 1.8l-2 2c-1.3 1.4-2.5 2.8-3.6 4.4-1.1 1.6-1.6 3.4-2.2 5.2-.6 1.8-1.1 3.6-1.5 5.4-.9 3.7-1.6 7.3-2.3 11-.4 3.4-.6 6.8-.6 10.3h-32.4l3.3-6.3c1.2-2.3 2.4-4.6 3.5-6.9l2.8-2.2c1-.7 2-1.4 3-2l6.1-4.1 6.1-4.1 6.1-4.1 1.2-.8-1.1-.8c-2.8-2.1-5.6-4.2-8.4-6.2l-8.4-6.1c-2.4-1.8-4.6-3.8-6.7-6l.6-.3c.4-.2.8-.5 1.2-.8l2.5-1.5c.6-.3 1.2-.7 1.8-1.1 1 .6 5.9 3.3 10.8 4.8 2.7.8 7.7 2.1 12.1 3.2 4.2 1.1 8.5 2.2 8.9 2.4.6.3 1.6 1.8 2.1 2.7l.1.2.2.1s4.1 1 4.6 10.6c.5 9.1 1.1 26.2 1.2 29.4h-21.2zm22.4 1z" fill="#0e2707" stroke-width="none" opacity="1"></path></g><g id="svga-group-head" transform="matrix(1,0,0,1,0,0)"><g id="svga-group-ears-left-move" transform="matrix(1,0,0,1,0,0)"><g id="svga-group-ears-left" transform="matrix(1,0,0,1,0,0)"><path id="SvgjsPath183306" d="M64.76 80.15s-6.05-5.71-11.65-8.37c0 0-2.9.43-6.25 3.44 0 0 2.32 4.96 4.4 7.42 2.07 2.46 5.01 10.72 5.25 13.08.24 2.36-.73 6.67-.59 8.06.14 1.39 3.24 1.5 3.24 1.5s5.71-3.24 9.27-8.23c0-.01-1.08-9.31-3.67-16.9z" fill="#fabe8c" stroke-width="none" opacity="1" stroke="none"></path><path id="SvgjsPath183307" d="M65.07 87.27c.04-.28-8.52-10.28-14.7-11.44 0 0 1.73 5.62 2.89 7.46s4.94 11 4.61 15.67c0 0 3.96-2.27 6.18-4.1 0 0 .54-4.33 1.02-7.59z" fill="#eba66c" stroke-width="none" opacity="1" stroke="none"></path><path id="SvgjsPath183308" d="m46.65 74.98-.18.16.11.21c.65 1.31 1.35 2.58 2.1 3.83s1.55 2.47 2.5 3.58c.88 1.11 1.53 2.42 2.14 3.72.59 1.32 1.11 2.67 1.59 4.03.46 1.37.89 2.75 1.2 4.15.35 1.38.16 2.81 0 4.24-.16 1.43-.44 2.84-.54 4.34-.01.19-.01.38.01.59.04.25.13.49.28.67.3.37.68.56 1.04.71.74.28 1.48.39 2.24.44l.1.01.1-.06c1.83-1.07 3.53-2.3 5.11-3.7.8-.69 1.55-1.43 2.27-2.2.73-.77 1.38-1.6 2.01-2.45l.09-.12-.02-.15c-.4-2.88-.92-5.72-1.56-8.54-.32-1.41-.69-2.81-1.08-4.2-.41-1.39-.87-2.76-1.37-4.12-.86-.87-1.74-1.67-2.64-2.46-.9-.8-1.84-1.55-2.79-2.29-1.91-1.47-3.93-2.81-6.11-3.89l-.09-.04-.1.02c-.65.12-1.22.31-1.8.54-.57.23-1.13.5-1.66.81-.53.31-1.05.64-1.54 1.01-.49.36-.96.75-1.41 1.16zm.6.32c.39-.33.79-.66 1.2-.95.48-.35.98-.66 1.48-.95.52-.28 1.04-.55 1.58-.77.51-.21 1.04-.39 1.55-.5 1.03.5 2.04 1.06 3.02 1.66 1 .64 2.01 1.28 2.98 1.98.98.69 1.92 1.42 2.87 2.15.94.73 1.88 1.5 2.78 2.26a65.5 65.5 0 0 1 1.1 4.17c.33 1.4.64 2.81.9 4.22.52 2.77.98 5.57 1.3 8.37-.59.78-1.2 1.54-1.87 2.24-.71.74-1.44 1.46-2.23 2.13-1.53 1.31-3.16 2.54-4.87 3.58-.64-.04-1.32-.14-1.9-.35-.3-.12-.59-.27-.75-.47-.08-.1-.12-.2-.14-.31-.01-.15-.02-.32-.01-.49.06-1.4.29-2.85.43-4.29.12-1.43.25-2.96-.17-4.4-.37-1.42-.84-2.79-1.35-4.15a54.07 54.07 0 0 0-1.65-4.03c-.6-1.32-1.22-2.64-2.12-3.82-.9-1.12-1.63-2.37-2.32-3.63-.64-1.2-1.24-2.42-1.81-3.65z" fill="#eba66c" stroke-width="none" opacity="1" stroke="none"></path><path id="SvgjsPath183309" d="M55.9 80.14c.92.98 1.71 2.06 2.44 3.17.74 1.11 1.44 2.24 2.05 3.42.63 1.17 1.22 2.36 1.71 3.59l-.07.03c-.67-1.14-1.37-2.27-2.06-3.38-.72-1.11-1.41-2.23-2.18-3.29-.77-1.07-1.53-2.13-2.37-3.14-.69-.85-1.43-1.67-2.27-2.37l1.72 3.94c.67 1.51 1.31 3.03 1.88 4.58a38.98 38.98 0 0 1 1.44 4.76c.26 1.14.48 2.31.53 3.5.14-.27.27-.55.38-.83.28-.73.44-1.5.5-2.28-.46-1.67-.91-3.34-1.32-5.02l.07-.02c.64 1.63 1.22 3.29 1.81 4.94l.01.04v.06c-.02.86-.15 1.71-.42 2.53-.13.41-.29.81-.47 1.19-.19.39-.4.75-.66 1.13l-.8 1.12.09-1.39c.1-1.57-.17-3.19-.49-4.78-.33-1.59-.77-3.17-1.25-4.73-.48-1.56-.99-3.13-1.57-4.67-.6-1.53-1.23-3.05-1.99-4.51l-.26-.5.49.31c1.16.7 2.14 1.63 3.06 2.6z" fill="#cc7a35" stroke-width="none" opacity="1" stroke="none"></path></g></g><g id="svga-group-ears-right-move" transform="matrix(1,0,0,1,0,0)"><g id="svga-group-ears-right" transform="matrix(1,0,0,1,0,0)"><path id="SvgjsPath183310" d="M135.24 80.15s6.05-5.71 11.65-8.37c0 0 2.9.43 6.25 3.44 0 0-2.32 4.96-4.4 7.42s-5.01 10.72-5.25 13.08c-.24 2.36.73 6.67.59 8.06-.14 1.39-3.24 1.5-3.24 1.5s-5.71-3.24-9.27-8.23c0-.01 1.08-9.31 3.67-16.9z" fill="#fabe8c" stroke-width="none" opacity="1" stroke="none"></path><path id="SvgjsPath183311" d="M134.93 87.27c-.04-.28 8.52-10.28 14.7-11.44 0 0-1.73 5.62-2.89 7.46s-4.94 11-4.61 15.67c0 0-3.96-2.27-6.18-4.1 0 0-.54-4.33-1.02-7.59z" fill="#eba66c" stroke-width="none" opacity="1" stroke="none"></path><path id="SvgjsPath183312" d="M151.93 73.82c-.49-.37-1.01-.7-1.54-1.01-.53-.31-1.09-.58-1.66-.81-.58-.23-1.15-.42-1.8-.54l-.1-.02-.09.04c-2.18 1.08-4.2 2.42-6.11 3.89-.95.74-1.89 1.49-2.79 2.29-.9.8-1.79 1.59-2.64 2.46-.5 1.36-.96 2.74-1.37 4.12-.39 1.39-.76 2.79-1.08 4.2-.65 2.82-1.16 5.67-1.56 8.54l-.02.15.09.12c.63.85 1.29 1.68 2.01 2.45.72.77 1.48 1.51 2.27 2.2 1.58 1.39 3.28 2.62 5.11 3.7l.1.06.1-.01c.77-.05 1.5-.16 2.24-.44.36-.15.74-.34 1.04-.71.15-.18.25-.42.28-.67.02-.21.02-.41.01-.59-.1-1.5-.37-2.9-.54-4.34-.16-1.43-.35-2.86 0-4.24.31-1.4.74-2.78 1.2-4.15.48-1.36 1-2.71 1.59-4.03.61-1.3 1.26-2.61 2.14-3.72.94-1.12 1.75-2.34 2.5-3.58.75-1.25 1.45-2.52 2.1-3.83l.11-.21-.18-.16c-.44-.41-.91-.8-1.41-1.16zm-1.01 5.12c-.7 1.26-1.42 2.51-2.32 3.63-.9 1.18-1.52 2.5-2.12 3.82a54.07 54.07 0 0 0-1.65 4.03c-.51 1.36-.98 2.73-1.35 4.15-.42 1.44-.28 2.96-.17 4.4.13 1.44.37 2.9.43 4.29.01.17 0 .34-.01.49-.02.11-.06.21-.14.31-.16.2-.44.36-.75.47-.58.21-1.26.31-1.9.35-1.71-1.04-3.34-2.27-4.87-3.58-.78-.67-1.52-1.38-2.23-2.13-.68-.71-1.29-1.47-1.87-2.24.32-2.8.77-5.59 1.3-8.37.26-1.42.57-2.82.9-4.22.32-1.41.7-2.79 1.1-4.17.9-.76 1.84-1.53 2.78-2.26.95-.73 1.9-1.46 2.87-2.15.97-.69 1.98-1.34 2.98-1.98.98-.6 1.99-1.16 3.02-1.66.51.11 1.05.29 1.55.5.54.23 1.06.49 1.58.77.51.29 1.01.6 1.48.95.42.3.81.62 1.2.95-.55 1.24-1.15 2.46-1.81 3.65z" fill="#eba66c" stroke-width="none" opacity="1" stroke="none"></path><path id="SvgjsPath183313" d="M144.1 80.14c-.92.98-1.71 2.06-2.44 3.17-.74 1.11-1.44 2.24-2.05 3.42-.63 1.17-1.22 2.36-1.71 3.59l.07.03c.67-1.14 1.37-2.27 2.06-3.38.72-1.11 1.41-2.23 2.18-3.29.77-1.07 1.53-2.13 2.37-3.14.69-.85 1.43-1.67 2.27-2.37l-1.72 3.94c-.67 1.51-1.31 3.03-1.88 4.58a38.98 38.98 0 0 0-1.44 4.76c-.26 1.14-.48 2.31-.53 3.5a8.84 8.84 0 0 1-.38-.83c-.28-.73-.44-1.5-.5-2.28.46-1.67.91-3.34 1.32-5.02l-.07-.02c-.64 1.63-1.22 3.29-1.81 4.94l-.01.04v.06c.02.86.15 1.71.42 2.53.13.41.29.81.47 1.19.19.39.4.75.66 1.13l.8 1.12-.09-1.39c-.1-1.57.17-3.19.49-4.78.33-1.59.77-3.17 1.25-4.73.48-1.56.99-3.13 1.57-4.67.6-1.53 1.23-3.05 1.99-4.51l.26-.5-.49.31c-1.16.7-2.14 1.63-3.06 2.6z" fill="#cc7a35" stroke-width="none" opacity="1" stroke="none"></path></g></g><g id="svga-group-faceshape-wrap" transform="matrix(1,0,0,1,0,0)"><g id="svga-group-faceshape-single"><path id="SvgjsPath183388" d="M143.2 113.8c-.6-7.1-3.8-21.3-4-26.7s.5-17.6.5-17.6l.3-3.2s.8-7.3-.1-11.5c-2.2-10-6.1-15.8-15-20.6-9.3-5-25-4.9-25-4.9s-15.8-.2-25.1 4.8C66.1 39 62 44.7 59.8 54.7c-.9 4 .1 13.8.1 13.8s1.2 13.7 1 19.1-1.6 19.2-2.2 26.4c-.6 7.1 1.3 24.2 15 26 10.1 1.3 12.6 1.4 12.6 1.4 5 8 13.7 6.4 13.7 6.4s8.8 1.4 13.8-6.6c0 0 2.9.3 12.9-1 13.9-1.8 17.2-19.3 16.5-26.4z" fill="#fabe8c" stroke-width="none" opacity="1" stroke="none"></path><path id="SvgjsPath183389" d="M143.2 113.8c-.5-5.6-1.6-11.1-2.5-16.6-.5-2.8-.9-5.5-1.2-8.3-.2-2.8-.1-5.6 0-8.4.1-2.8.3-5.6.5-8.4.1-2.8.5-5.5.7-8.4.2-2.8.3-5.6-.2-8.5-.6-2.8-1.3-5.5-2.5-8.2-1.1-2.7-2.7-5.1-4.7-7.2-2-2.1-4.3-3.8-6.8-5.2-1.2-.7-2.5-1.4-3.8-1.9-1.3-.5-2.7-1-4-1.4-2.7-.8-5.5-1.3-8.3-1.6-5.6-.7-11.2-.9-16.8-.4-5.6.5-11.2 1.4-16.4 3.5-1.3.5-2.6 1.2-3.8 1.9-1.2.7-2.4 1.5-3.5 2.4-2.2 1.7-4.3 3.7-5.8 6.1-1.6 2.3-2.7 5-3.6 7.6-.4 1.3-.8 2.7-1.1 4.1-.3 1.4-.3 2.8-.4 4.2-.1 5.7.6 11.2.9 16.8.2 2.8.3 5.6.4 8.4.1 2.8-.1 5.5-.4 8.3l-1.6 16.7-.4 4.2c-.1 1.4-.2 2.9-.1 4.3.1 2.8.5 5.7 1.2 8.5.8 2.8 1.9 5.5 3.5 7.9 1.7 2.4 4 4.4 6.8 5.5 1.4.6 2.8.9 4.2 1.1l4.2.5 8 .9c.7 1 1.5 2.1 2.5 2.9 1 1 2.2 1.7 3.5 2.3 1.3.6 2.6 1 4 1.2 1.4.2 2.7.2 4.1 0 1.4.1 2.8.1 4.1-.1 1.4-.2 2.8-.6 4-1.3 1.3-.6 2.5-1.4 3.5-2.4 1-.9 1.8-1.9 2.5-3 1.9 0 3.8-.2 5.6-.3 2-.2 3.9-.4 5.9-.7 1.9-.2 3.9-.8 5.8-1.6.5-.2.9-.5 1.3-.7.4-.3.9-.5 1.3-.8.8-.6 1.6-1.2 2.2-2 2.8-2.9 4.6-6.5 5.7-10.3.6-1.9 1-3.8 1.2-5.8.4-1.8.5-3.8.3-5.8zm-.3 5.9c-.2 1.9-.7 3.9-1.3 5.7-.6 1.9-1.4 3.7-2.3 5.4-1 1.7-2.1 3.3-3.5 4.6-.6.7-1.4 1.3-2.2 1.9-.4.3-.8.5-1.2.8-.4.2-.8.5-1.3.7-1.8.8-3.6 1.2-5.6 1.4-1.9.2-3.9.4-5.8.6-1.9.1-3.9.3-5.8.2h-.3l-.2.3c-.8 1.1-1.5 2.1-2.5 2.9-.9.9-2.1 1.6-3.2 2.1-1.2.5-2.4.9-3.7 1.1-1.3.2-2.6.2-3.8.1h-.2c-1.2.2-2.5.1-3.8-.1-1.2-.2-2.5-.6-3.6-1.1s-2.2-1.2-3.1-2.1c-.9-.8-1.7-1.9-2.4-2.9l-.2-.3-.4-.1-8.3-1-4.2-.5c-1.3-.2-2.6-.5-3.8-1-2.4-1-4.5-2.8-6.1-5-1.6-2.2-2.6-4.7-3.4-7.3-.7-2.6-1.1-5.4-1.2-8.1 0-1.4 0-2.7.1-4.1l.4-4.2c.5-5.6 1-11.2 1.4-16.8 1.1-11.3-1.3-22.5-1.4-33.6 0-1.4 0-2.8.3-4.1.3-1.3.6-2.7 1-4 .8-2.7 1.9-5.2 3.5-7.5 1.5-2.3 3.5-4.3 5.7-6 2.2-1.7 4.6-3.2 7.2-4.2 2.6-1 5.3-1.7 8-2.2 2.7-.5 5.5-.9 8.3-1 5.6-.4 11.2-.1 16.7.7 5.5.8 11 2.2 15.7 5 2.4 1.4 4.6 3.1 6.4 5.1 1.9 2 3.3 4.3 4.4 6.8 1.1 2.5 1.9 5.2 2.5 7.9.5 2.7.4 5.5.3 8.2-.1 2.7-.4 5.6-.5 8.4-.1 2.8-.2 5.6-.2 8.4 0 2.8-.1 5.6.2 8.4.3 2.8.9 5.5 1.3 8.3.9 5.5 2.1 11 2.7 16.6-.2 1.7-.4 3.7-.6 5.6z" fill="#cc7a35" stroke-width="none" opacity="1" stroke="none"></path><path id="SvgjsPath183390" d="M98.2 142.9s.8-3.7 4.1-4.6c3.3-1-4.1 4.6-4.1 4.6z" fill="#db8f4f" stroke-width="none" opacity="1" stroke="none"></path></g></g><g id="svga-group-mouth-single-move" transform="matrix(1,0,0,1,0,0)"><g id="svga-group-mouth-single" transform="matrix(1,0,0,1,0,0)"><path id="SvgjsPath183496" d="M119.9 121.9c-.2-.3-.6-.6-.9-.8-.3-.1-.8-.1-.8.4 0 .3.2.6.5.8-.66 1.22-2.4 1.46-3.8 1.56-1.5.1-2.71.22-4.49-.17-3.42-.92-6.52-1.82-9.62-1.62-2.9.1-5.13.98-7.93 1.78-3.3.9-7.66 2.74-9.96-.66.3-.2.6-.4.8-.7.4-.4 0-1-.5-.9-1 .3-2.3 1.6-2.2 2.7 0 .2.3.4.5.3.4-.3.7-.7 1-1 .9 1.7 2.7 2.5 4.7 2.7 2 .1 3.9-.5 5.9-.9 2.2-.5 4.4-.7 6.6-.8 4.1-.1 8.1.2 12.2.4 2.4.1 5.7.4 7.5-1.5.1.3.2.6.5.8.1.1.3 0 .4-.1.7-.59 0-1.69-.4-2.29z" fill="#9B565F" stroke-width="none" opacity="1" stroke="none"></path><path id="SvgjsPath183497" d="M105.6 128.4c-3.4.2-6.6.7-10 .5-.3 0-.3.4-.1.4 3.2.7 7 .9 10.2-.2.4-.1.4-.7-.1-.7z" fill="#db8f4f" stroke-width="none" opacity="1" stroke="none"></path></g></g><g id="svga-group-eyes-left-move" transform="matrix(1,0,0,1,0,0)"><g id="svga-group-eyes-left" transform="matrix(1,0,0,1,0,0)"><g id="svga-group-eyesback-left"><path id="SvgjsPath183350" d="M80.2 74.2c7.5 0 13.5 5.8 13.5 13s-6 13-13.5 13-13.5-5.8-13.5-13 6-13 13.5-13z" fill="#ffffff" stroke-width="none" opacity="1"></path></g><g id="svga-group-eyesiriswrapper-left" transform="matrix(1,0,0,1,0,0)"><g id="svga-group-eyesiriscontrol-left" transform="matrix(1,0,0,1,0,0)"><g id="svga-group-eyesiris-left" transform="matrix(1,0,0,1,0,0)"><path id="SvgjsPath183425" d="M80.2 81.9c2.9 0 5.3 2.4 5.3 5.3s-2.4 5.3-5.3 5.3-5.3-2.4-5.3-5.3 2.4-5.3 5.3-5.3z" fill="#681711" stroke-width="none" opacity="1"></path><path id="SvgjsPath183426" d="M80.2 82.2c2.8 0 5.1 2.3 5.1 5.1s-2.3 5.1-5.1 5.1-5.1-2.3-5.1-5.1 2.3-5.1 5.1-5.1m0-.6c-3.1 0-5.6 2.5-5.6 5.6s2.5 5.6 5.6 5.6 5.6-2.5 5.6-5.6-2.5-5.6-5.6-5.6z" fill="#490500" stroke-width="none" opacity="1"></path><path id="SvgjsPath183427" d="M77.4 88.7c0 1.3.5 2.5 1.3 3.3.5.1 1 .2 1.5.2 2.8 0 5.1-2.3 5.1-5.1 0-1-.3-2-.8-2.8-.7-.3-1.4-.5-2.2-.5-2.8.1-4.9 2.3-4.9 4.9z" fill="#77251f" stroke-width="none" opacity="1"></path><path id="SvgjsPath183428" d="M80.2 84.5c1.5 0 2.7 1.2 2.7 2.7s-1.2 2.7-2.7 2.7-2.7-1.2-2.7-2.7 1.2-2.7 2.7-2.7z" fill="#000000" stroke-width="none" opacity="1"></path><path id="SvgjsPath183429" d="M79 84.3c.8 0 1.4.6 1.4 1.4s-.6 1.4-1.4 1.4-1.4-.6-1.4-1.4.7-1.4 1.4-1.4zm2.7 4c.5 0 .9.4.9.9s-.4.9-.9.9-.9-.4-.9-.9.4-.9.9-.9z" fill="#ffffff" stroke-width="none" opacity="1"></path></g></g></g><g id="svga-group-eyesfront-left"><path id="SvgjsPath183358" d="M80.2 73.7c-7.8 0-14.1 6.1-14.1 13.6s6.3 13.6 14.1 13.6 14.1-6.1 14.1-13.6S88 73.7 80.2 73.7zm3.3 22c-4.4-.2-18.8-8.9-15.5-11.3s9.4-2 12.2-1.1c2.8.9 9.5 11.1 9.5 11.1.2.4-1.7 1.4-6.2 1.3z" fill="#fabe8c" stroke-width="none" opacity="1" stroke="none"></path><path id="SvgjsPath183359" d="M90.2 94.4s-6.6-8.9-7.4-10.2c-.8-1.2-.6-1.4-.6-1.4s2.2 0 2.5-.1c.3-.2-4.1-1.8-5.4-2s-12.3 0-12.4 4.2c0 0 .2-.1.6-.2-.1.1-.1.2-.1.3-.1.3 0 .7.1.9.2.6.6 1.1.9 1.5.8.9 1.6 1.6 2.5 2.3 1.8 1.4 3.8 2.6 5.8 3.7 1 .5 2.1 1 3.1 1.4 1.1.4 2.2.8 3.4.9 1.2 0 2.3 0 3.4-.2.6-.1 1.1-.2 1.7-.4.3-.1.5-.2.8-.3.1-.1.2-.1.4-.2.1-.1.2-.2.2-.4-.2-.4-.5-.7-.7-1.1.4.6.8 1.1 1.2 1.3zm-.5-.1c0 .1-.1.2-.2.3-.1.1-.2.2-.4.2-.2.1-.5.2-.8.3-.5.2-1.1.3-1.7.3-1.1.1-2.3.1-3.4 0-1.1-.2-2.2-.6-3.2-1s-2-.8-3-1.4c-2-1.1-3.9-2.2-5.7-3.6-.9-.7-1.8-1.4-2.5-2.2-.4-.4-.7-.8-.9-1.3-.1-.2-.2-.5-.1-.7 0-.2.1-.4.3-.5 2.1-.5 6.7-1.7 7.9-1.6h2.2l1.5.3c.3.1.6.2.8.2.2.1.5.3.7.4.9.7 1.6 1.5 2.4 2.3.5.5.9 1.1 1.4 1.6 1.2 1.6 2.5 3.3 3.6 4.6.2.6.6 1.2 1.1 1.8z" fill="#0f190c" stroke-width="none" opacity="1" stroke="none"></path></g></g></g><g id="svga-group-eyes-right-move" transform="matrix(1,0,0,1,0,0)"><g id="svga-group-eyes-right" transform="matrix(1,0,0,1,0,0)"><g id="svga-group-eyesback-right"><path id="SvgjsPath183351" d="M119.8 74.2c7.5 0 13.5 5.8 13.5 13s-6 13-13.5 13-13.5-5.8-13.5-13 6-13 13.5-13z" fill="#ffffff" stroke-width="none" opacity="1"></path></g><g id="svga-group-eyesiriswrapper-right" transform="matrix(1,0,0,1,0,0)"><g id="svga-group-eyesiriscontrol-right" transform="matrix(1,0,0,1,0,0)"><g id="svga-group-eyesiris-right" transform="matrix(1,0,0,1,0,0)"><path id="SvgjsPath183430" d="M119.8 82.5c2.6 0 4.7 2.1 4.7 4.7s-2.1 4.7-4.7 4.7-4.7-2.1-4.7-4.7 2.1-4.7 4.7-4.7z" fill="#681711" stroke-width="none" opacity="1"></path><path id="SvgjsPath183431" d="M119.8 82.8c2.4 0 4.4 2 4.4 4.4s-2 4.4-4.4 4.4-4.4-2-4.4-4.4 1.9-4.4 4.4-4.4m0-.5c-2.7 0-4.9 2.2-4.9 4.9s2.2 4.9 4.9 4.9 4.9-2.2 4.9-4.9-2.2-4.9-4.9-4.9z" fill="#490500" stroke-width="none" opacity="1"></path><path id="SvgjsPath183432" d="M117.3 88.5c0 1.1.4 2.2 1.2 2.9.4.1.8.2 1.3.2 2.4 0 4.4-2 4.4-4.4 0-.9-.3-1.8-.7-2.4-.6-.3-1.2-.5-1.9-.5-2.4 0-4.3 1.9-4.3 4.2z" fill="#77251f" stroke-width="none" opacity="1"></path><path id="SvgjsPath183433" d="M119.8 84.8c1.3 0 2.4 1.1 2.4 2.4s-1.1 2.4-2.4 2.4-2.4-1.1-2.4-2.4 1.1-2.4 2.4-2.4z" fill="#000000" stroke-width="none" opacity="1"></path><path id="SvgjsPath183434" d="M118.8 84.7c.7 0 1.2.5 1.2 1.2s-.5 1.2-1.2 1.2-1.2-.5-1.2-1.2.5-1.2 1.2-1.2zm2.3 3.5c.4 0 .8.4.8.8s-.4.8-.8.8-.8-.4-.8-.8.4-.8.8-.8z" fill="#ffffff" stroke-width="none" opacity="1"></path></g></g></g><g id="svga-group-eyesfront-right"><path id="SvgjsPath183360" d="M119.8 73.7c-7.8 0-14.1 6.1-14.1 13.6s6.3 13.6 14.1 13.6 14.1-6.1 14.1-13.6-6.3-13.6-14.1-13.6zm-3.7 21.6c-4.4.4-5.9.1-5.8-.3 0 0 6-10.6 8.7-11.7s8.2-1.1 11.6 1.1c3.4 2.2-10.1 10.4-14.5 10.9z" fill="#fabe8c" stroke-width="none" opacity="1" stroke="none"></path><path id="SvgjsPath183363" d="M131 84.5c-.2-.2-.5-.3-.7-.5-.9-.5-1.9-.8-2.8-1.1 1.8.2 3.4.4 3.4.4-1.5-1.6-10.1-1.5-11.4-1.2s-5.3.7-5 .8c.3.2 2.5 0 2.5 0s.2.1-.5 1.4-6.7 10.7-6.7 10.7c.3-.3.7-.7 1.1-1.2-.2.4-.4.8-.6 1.1 0 .1 0 .2.1.2.1.1.1.1.2.1.1.1.3.1.4.1.3.1.5.1.8.1h1.6c.5 0 1.1 0 1.6-.1.6 0 1.1 0 1.7-.1 2.2-.4 4.2-1.4 6.1-2.4 1.9-1 3.8-2.2 5.5-3.6.9-.7 1.7-1.4 2.4-2.4.3-.5.6-1 .7-1.6 0-.2-.2-.5-.4-.7zm-.7 2.2c-.7.8-1.5 1.5-2.3 2.2-1.7 1.3-3.6 2.5-5.4 3.5-.9.5-1.9 1-2.9 1.5-1 .4-2 .9-3 1.1-1 .2-2.2.3-3.2.4-.5 0-1.1.1-1.6 0-.3 0-.5 0-.8-.1-.1 0-.3-.1-.4-.1-.1 0-.2-.1-.2-.2.4-.6.8-1.2 1.1-1.9 1-1.4 2.2-3.2 3.3-4.9 1-1.3 2-2.7 3.1-3.8.4-.4.8-.7 1.2-.9.5-.2 1-.3 1.5-.5.4-.1.9-.2 1.3-.2.5 0 .9 0 1.3-.1h.8c1 0 2 .1 3 .4 1.1.2 2.1.6 3 1.2.2.1.5.3.6.4.1.2.2.4.2.6 0 .5-.3 1-.6 1.4z" fill="#0f190c" stroke-width="none" opacity="1" stroke="none"></path></g></g></g><g id="svga-group-facehighlight-single"></g><g id="svga-group-eyebrows-left-move" transform="matrix(1,0,0,1,0,0)"><g id="svga-group-eyebrows-left-rotate" transform="matrix(1,0,0,1,0,0)"><g id="svga-group-eyebrows-left" transform="matrix(1,0,0,1,0,0)"><path id="SvgjsPath183265" d="M91.5 72.22s-1.28 2.06-2.36 1.59c-1.08-.48-6.27-3.19-9.56-2.78-3.29.41-5.17 2.39-5.17 2.39l-1.48.75.48.39s-3.13 2.59-3.97 2.55c-.84-.04-2.04-1.27-1.97-3.59.07-2.32 3.08-5.09 3.08-5.09s-.48.18-1.49.66c0 0 1.23-1.86 4.52-3.33 3.3-1.47 9.08-1.46 10.9-.54L84 64.16s4.38 1.8 5.44 3.25l.17-1.09c-.01-.01 2.89 2.54 1.89 5.9z" fill="#a68469" stroke-width="none" opacity="1"></path><path id="SvgjsPath183266" d="M91.49 68.91c-.18-.54-.44-1.04-.74-1.5-.3-.46-.63-.89-1.03-1.27l-.24-.24-.07.37-.11.62c-.3-.32-.63-.57-.97-.8-.45-.31-.91-.59-1.38-.85-.94-.52-1.88-.99-2.86-1.42l-.75-.33.37.82.13.29c-.45-.13-.9-.21-1.35-.28-.7-.09-1.4-.13-2.1-.13-1.4 0-2.79.12-4.17.4-.69.14-1.37.32-2.04.56-.67.25-1.31.56-1.94.91-.63.35-1.23.76-1.8 1.23-.57.47-1.11.97-1.57 1.63l-.57.81.85-.4.47-.22c-.59.67-1.12 1.39-1.57 2.19-.31.58-.58 1.22-.67 1.92-.07.7 0 1.4.21 2.07.21.66.58 1.27 1.11 1.65.27.18.58.32.92.25.31-.08.58-.23.85-.37 1.06-.62 2.06-1.35 3.04-2.11l.2-.16-.21-.18-.2-.17 1.19-.57.02-.01.04-.03c.56-.52 1.23-.95 1.91-1.29.68-.35 1.4-.61 2.13-.78.74-.17 1.47-.28 2.22-.21.75.06 1.5.2 2.25.38 1.49.39 2.96.93 4.41 1.55l1.08.48c.18.08.36.16.55.23.21.08.44.07.64.01.4-.13.72-.41 1.01-.71.29-.31.53-.65.75-1.02.15-.53.28-1.09.25-1.66.02-.56-.07-1.13-.26-1.66zm.1 2.7-.04.2-.08.4c-.23.33-.51.64-.8.92-.29.27-.62.51-.96.59-.17.03-.35.03-.5-.04-.17-.08-.35-.17-.53-.26l-1.07-.53c-1.43-.69-2.9-1.32-4.42-1.75-.76-.21-1.54-.38-2.33-.44l-.6-.02c-.2 0-.4.02-.6.03a9.226 9.226 0 0 0-3.41 1.05c-.7.38-1.35.84-1.95 1.43l-1.44.78-.31.16.28.22.28.22c-.87.74-1.77 1.46-2.72 2.05-.26.15-.52.3-.79.37-.25.06-.54-.06-.78-.22-.49-.34-.84-.92-1.02-1.54-.19-.62-.25-1.31-.18-1.95.08-.64.35-1.24.67-1.79.65-1.09 1.5-2.04 2.4-2.87l.95-.87-1.14.47-.45.19c.23-.21.47-.42.71-.61.55-.43 1.14-.8 1.75-1.13.61-.33 1.24-.62 1.87-.84.64-.21 1.3-.38 1.97-.5.67-.12 1.34-.21 2.02-.26.68-.07 1.36-.08 2.04-.09.68.01 1.36.04 2.03.12.66.09 1.35.2 1.92.47l.82.38-.42-.88-.11-.24c.7.3 1.39.62 2.07.97.46.24.92.5 1.36.79.43.28.87.6 1.18.98l.31.38.07-.49.1-.7c.27.27.52.57.75.88.3.42.56.89.76 1.38.21.49.32 1.03.37 1.57l.02.41-.03.41c-.01.06-.01.13-.02.2z" fill="#976f50" stroke-width="none" opacity="1"></path></g></g></g><g id="svga-group-eyebrows-right-move" transform="matrix(1,0,0,1,0,0)"><g id="svga-group-eyebrows-right-rotate" transform="matrix(1,0,0,1,0,0)"><g id="svga-group-eyebrows-right" transform="matrix(1,0,0,1,0,0)"><path id="SvgjsPath183267" d="M109.22 76.81s1.57 1.57 2.57.99 5.71-3.72 9.02-3.89c3.31-.17 5.46 1.24 5.46 1.24l1.57.41-.41.41s3.48 1.74 4.3 1.57c.83-.17 1.82-1.41 1.41-3.39-.41-1.99-3.81-3.89-3.81-3.89s.5.08 1.57.33c0 0-1.49-1.41-4.96-2.15s-9.18.17-10.84 1.24l.33-.99s-4.05 2.23-4.88 3.64l-.33-.91c-.01.01-2.49 2.66-1 5.39z" fill="#a68469" stroke-width="none" opacity="1"></path><path id="SvgjsPath183268" d="M133.17 73.9c-.19-.59-.55-1.09-.95-1.55-.56-.62-1.2-1.16-1.88-1.64l.5.12.9.21-.69-.61c-.56-.49-1.16-.84-1.8-1.15-.63-.31-1.29-.57-1.96-.77-.67-.2-1.35-.37-2.05-.48-.7-.1-1.4-.15-2.1-.16-1.4-.03-2.79.09-4.17.31-.69.11-1.37.25-2.05.44-.43.13-.87.27-1.29.45l.09-.27.25-.76-.69.4c-.9.52-1.76 1.07-2.61 1.66-.42.3-.83.61-1.23.95-.3.25-.58.54-.83.86l-.21-.54-.12-.31-.21.24c-.33.39-.6.81-.83 1.25-.23.44-.4.91-.5 1.4-.11.49-.11 1-.04 1.49.05.5.27.96.5 1.39.28.29.57.54.89.76.33.21.69.4 1.11.45.21.02.43-.01.63-.11.18-.09.34-.19.51-.29l1-.58c1.34-.76 2.71-1.45 4.12-2.02.71-.27 1.43-.52 2.16-.68.73-.17 1.47-.2 2.23-.17.75.03 1.5.15 2.22.34.72.19 1.45.45 2.08.81l.04.02.03.01 1.26.3-.17.18-.18.19.22.1c1.08.5 2.17.97 3.31 1.34.29.08.58.17.9.19.34 0 .63-.17.87-.36.47-.41.74-1 .85-1.6.1-.6.06-1.22-.11-1.81zm-.09 1.78c-.09.56-.35 1.12-.78 1.48-.21.17-.48.32-.74.31-.27-.02-.56-.11-.84-.19-1.03-.35-2.02-.84-2.99-1.33l.24-.23.24-.23-.33-.09-1.54-.44a8.24 8.24 0 0 0-2.14-.92 10.3 10.3 0 0 0-2.34-.38c-.4-.02-.79-.02-1.19.01-.2.02-.4.04-.6.07l-.59.11c-.77.18-1.51.44-2.23.75-1.44.61-2.79 1.38-4.11 2.19l-.98.62c-.16.1-.32.22-.48.31-.14.08-.31.12-.49.11-.36-.02-.71-.17-1.04-.36-.32-.19-.64-.42-.92-.67l-.14-.33-.07-.16c-.02-.06-.03-.12-.05-.17l-.09-.35-.04-.35c-.04-.47 0-.95.13-1.41.13-.46.31-.89.54-1.31.18-.31.39-.6.61-.88l.2.59.14.41.25-.37c.25-.38.63-.72 1.02-1.03.39-.31.8-.61 1.22-.89.62-.41 1.25-.79 1.9-1.16l-.08.22-.28.82.76-.45c.53-.32 1.19-.53 1.83-.7a26 26 0 0 1 1.99-.42c.67-.1 1.35-.2 2.02-.25.68-.06 1.36-.09 2.03-.09.68 0 1.35.04 2.02.12.66.09 1.32.24 1.97.43.65.19 1.29.41 1.9.7.27.12.54.26.8.41l-.47-.09-1.2-.23 1.06.6c1.01.57 1.99 1.25 2.8 2.09.4.42.76.89.93 1.43.19.53.24 1.13.15 1.7z" fill="#976f50" stroke-width="none" opacity="1"></path></g></g></g><g id="svga-group-beardwrap" transform="matrix(1,0,0,1,0,0)"><g id="svga-group-beard-single-move" transform="matrix(1,0,0,1,0,0)"><g id="svga-group-beard-single" transform="matrix(1,0,0,1,0,0)"></g></g></g><g id="svga-group-mustache-single-move" transform="matrix(1,0,0,1,0,0)"><g id="svga-group-mustache-single" transform="matrix(1,0,0,1,0,0)"></g></g><g id="svga-group-nose-single-move" transform="matrix(1,0,0,1,0,0)"><g id="svga-group-nose-single" transform="matrix(1,0,0,1,0,0)"><path id="SvgjsPath183481" d="M99.1 116.5c.67.12 4.53-3.31 4.53-3.31s2.06 1.59 3.62 1.43c1.56-.16 2.44-1.08 3-1.96.56-.88-.89-3.1-1.78-4.41-.9-1.31-3.54-5.22-4.09-7.02-1.07-3.45-3-4.76-4.92-4.64-1.92.12-4.04 1.52-4.6 3.44-.56 1.92-.72 4.28-1.8 5.76s-3.32 4-3.56 4.72c-.24.72-.11 2.8 1.24 3.56 1.73.97 4.3-.51 4.3-.51s3.18 2.78 4.06 2.94z" fill="#fabe8c" stroke-width="none" opacity="1" stroke="none"></path><path id="SvgjsPath183482" d="M110.28 110.87c-.42-1.01-1.08-1.86-1.81-2.61.57.88 1.08 1.8 1.39 2.76.15.48.24.97.16 1.42-.05.23-.12.41-.26.6-.13.2-.29.39-.47.54-.69.66-1.7.91-2.68.78-.49-.06-.99-.2-1.46-.39-.45-.16-.86-.39-1.29-.62.38-.56.72-1.15 1.02-1.76-.97.91-1.89 1.83-2.87 2.64-.49.4-.98.8-1.51 1.09-.51.3-1.07.55-1.51.52-.12.01-.21-.02-.31-.04-.09-.05-.17-.06-.3-.16-.24-.15-.49-.36-.74-.55-.5-.39-.99-.82-1.49-1.23-.99-.84-1.99-1.69-3.07-2.48a21.8 21.8 0 0 0 1.68 2.24c-.5.22-1.01.41-1.53.52-.64.12-1.3.15-1.84-.1-1.09-.53-1.72-1.83-1.54-2.94.05-.28.13-.5.3-.74.17-.26.36-.53.56-.79.4-.52.82-1.02 1.26-1.52l.66-.74c.26-.28.46-.56.67-.84.41-.57.77-1.18 1.07-1.83.3-.65.48-1.4.59-2.06.12-.68.22-1.35.3-2.02.15-1.35.27-2.69.31-4.04.1-2.7.03-5.42-.51-8.07.05 2.69-.14 5.35-.4 8-.15 1.32-.29 2.65-.5 3.96-.1.66-.2 1.31-.32 1.96-.12.66-.27 1.22-.54 1.79a9.34 9.34 0 0 1-.94 1.65c-.18.26-.37.53-.57.74-.23.26-.45.51-.66.78-.43.53-.85 1.07-1.24 1.63-.2.28-.39.57-.57.88-.2.33-.34.76-.37 1.14-.13 1.57.85 3.05 2.25 3.55.73.23 1.47.11 2.12-.11.54-.19 1.03-.46 1.49-.77.24.28.47.57.71.84.44.5.91.96 1.41 1.42.25.23.51.44.82.65.13.1.36.22.57.3.22.06.44.12.66.11.88 0 1.55-.38 2.14-.76.58-.41 1.1-.86 1.55-1.37.44-.48.84-.99 1.21-1.53.75.66 1.64 1.25 2.68 1.45.54.12 1.11.12 1.66 0 .55-.14 1.07-.41 1.49-.8.21-.19.39-.42.54-.65.17-.23.29-.54.32-.84.06-.55-.08-1.1-.29-1.6z" fill="#cc7a35" stroke-width="none" opacity="1" stroke="none"></path></g></g><g id="svga-group-hair-front" transform="matrix(1,0,0,1,0,0)"><path id="SvgjsPath183517" d="M59.3 57.3s.5-22.6.5-31c0 0 17.5-2.6 42.2-2.2l.4 2.6 1.4-3 1.4 2.8.8-2.6s13.1.6 18.5.8l.4 4.8 1.4-4.6s8 .4 12.1 1.4l1.4.2s.7 26.9.5 29.8c0 0-4.7-13.3-9.6-14.9-4.8-1.6-21.3 2.4-26.7 4S82 39 78.1 39.2 66 44.6 64.2 47.4c-1.7 2.8-4.9 9.9-4.9 9.9z" fill="#a68469" stroke-width="none" opacity="1" stroke="none"></path><path id="SvgjsPath183518" d="m140.7 48.8-.2-7.4-.4-14.9v-.2h-.2l-1.4-.2c-2-.5-4-.7-6-.9-2-.2-4-.4-6.1-.5h-.2l-.1.1-1.1 3.7-.3-3.9v-.1h-.1l-9.2-.4-9.2-.5h-.2l-.1.2-.6 2-1.1-2.2-.3-.5-.3.5-1 2.1-.2-1.6v-.3h-.3c-3.5-.1-7.1-.1-10.6-.1s-7.1.2-10.6.3c-3.5.2-7.1.4-10.6.7-3.5.3-7 .7-10.5 1.2h-.3v.3c0 5.2 0 10.3-.1 15.5l-.1 7.8v7.8l.1-.1v-.1l.1-.2.2-.3.3-.7.7-1.4 1.4-2.8 1.5-2.7c.5-.9 1-1.8 1.8-2.5 1.4-1.4 3.2-2.6 4.9-3.7 1.8-1.1 3.6-2 5.5-2.7 1-.3 2-.6 2.9-.5 1 .1 2 .4 3 .7 2 .6 3.9 1.3 5.9 2 3.9 1.4 7.8 2.8 12 3.6 1 .2 2.1.3 3.2.3.5 0 1.1-.1 1.7-.2l1.5-.4 6-1.5c4-.9 8.1-1.7 12.2-2.2 2-.2 4.1-.4 6.1 0 .9.2 1.7.7 2.4 1.4s1.4 1.5 1.9 2.3c2.3 3.4 4 7.2 5.5 11l.8 2.2.1-2.3c-.1-2.8-.2-5.2-.3-7.7zm-7.5-6.5c-.4-.4-.8-.7-1.3-1-.5-.3-1.1-.5-1.6-.6-2.2-.4-4.3-.2-6.4 0-4.2.5-8.2 1.3-12.3 2.2-2 .5-4.1 1-6.1 1.5l-1.5.4c-.5.1-.9.2-1.4.2-1 0-2-.1-3-.2-4-.7-8-2.1-11.9-3.4-2-.7-3.9-1.3-5.9-1.9-1-.3-2-.6-3.1-.7-1.2-.1-2.2.3-3.2.6-2 .7-3.8 1.8-5.6 2.9-1.8 1.1-3.5 2.3-4.9 3.9-.8.8-1.3 1.7-1.8 2.6-.5.9-1 1.8-1.4 2.8l-1.3 2.8-.6 1.4-.3.7-.2.4v.1-1.7l.1-1.9.1-3.9.3-7.8c.1-5 .3-10.1.3-15.2 6.9-.9 13.8-1.4 20.7-1.8 3.5-.2 7-.3 10.6-.4 3.4-.1 6.8-.1 10.3-.1l.4 2.3.2 1 .4-1 1.1-2.5 1.2 2.3.3.6.2-.6.7-2.5 9.1.3 9.1.4.4 4.7.1.9.3-.9 1.4-4.5c2 .1 3.9.3 5.9.5 2 .2 4 .5 6 1l1.2.2.2 14.7.1 7.4v5.1c-1.3-3.2-2.7-6.2-4.7-9.1-.8-.6-1.4-1.4-2.2-2.2zM86.6 26c-.2 2.3-.2 4.6-.1 7 .1 2.3.3 4.6.8 6.9v-3.5c0-1.2 0-2.3-.1-3.5-.1-2.3-.3-4.6-.6-6.9zm49.2 9.5c-.1 2.3-.1 4.6.3 7 .1-1.2.2-2.3.3-3.5.1-1.2.1-2.3.2-3.5.1-2.3.1-4.6-.1-6.9-.5 2.2-.6 4.6-.7 6.9zm-32.6-1.3c-.3 1.4-.3 2.8-.3 4.2.1 1.4.2 2.8.5 4.2.3-1.4.3-2.8.3-4.2-.1-1.4-.2-2.8-.5-4.2zm-40.7-5.9c-.3 1.4-.3 2.8-.3 4.2 0 1.4.2 2.8.5 4.2.3-1.4.3-2.8.3-4.2-.1-1.4-.2-2.8-.5-4.2zm70 6c0 1.4.1 2.8.3 4.2.3-1.4.4-2.8.4-4.2 0-1.4-.1-2.8-.3-4.2-.3 1.5-.4 2.9-.4 4.2zm-3.3-.5c0 1.7 0 3.5.3 5.2.3-1.7.4-3.4.5-5.2 0-1.7 0-3.5-.3-5.2-.4 1.8-.5 3.5-.5 5.2zm-44.5-7.1c-.3 1.4-.3 2.8-.3 4.2.1 1.4.2 2.8.5 4.1.3-1.4.3-2.8.3-4.2-.1-1.3-.2-2.7-.5-4.1z" fill="#976f50" stroke-width="none" opacity="1" stroke="none"></path></g><g id="svga-group-glasses-single-move" transform="matrix(1,0,0,1,0,0)"><g id="svga-group-glasses-single" transform="matrix(1,0,0,1,0,0)"></g></g></g></g></g><rect id="svga-credit-rect" width="200" height="15" x="0" y="185" fill="#ecf0f1" opacity="0.5" style="display: none;"></rect><text id="svga-credit-text" font-family="Avenir Next, Roboto, Helvetica, Arial, sans-serif" font-size="10px" text-anchor="start" font-weight="400" size="10px" anchor="start" weight="400" fill="#333333" x="33.41004180908203" y="182.53461003303528" style="display: none;"><tspan id="SvgjsTspan182554" dy="13" x="33.41004180908203">Created on AvatarMaker.com</tspan></text></g></svg>