<svg xmlns="http://www.w3.org/2000/svg" version="1.1" width="600px" height="600px" viewBox="0 0 200 200" style="overflow:hidden!important;"><defs id="SvgjsDefs157486"><linearGradient id="SvgjsLinearGradient158178" x1="99.7642" y1="100.53" x2="99.7642" y2="113.2523" gradientUnits="userSpaceOnUse" class="svga-on-canvas-nose-gradient-single-0-null"><stop id="SvgjsStop158179" stop-opacity="0" stop-color="#ffd0bc" offset="0" ></stop><stop id="SvgjsStop158180" stop-opacity="1" stop-color="#f7c1aa" offset="1" ></stop></linearGradient><linearGradient id="SvgjsLinearGradient158210" x1="79.1" y1="71.7" x2="79.1" y2="105.64" gradientUnits="userSpaceOnUse" class="svga-on-canvas-glasses-gradient-single-0-null"><stop id="SvgjsStop158211" stop-opacity="1" stop-color="#b4c0cf" offset="0" ></stop><stop id="SvgjsStop158212" stop-opacity="0.9374" stop-color="#abbace" offset="0.0626" ></stop><stop id="SvgjsStop158213" stop-opacity="0.679" stop-color="#8aa3ca" offset="0.321" ></stop><stop id="SvgjsStop158214" stop-opacity="0.4305" stop-color="#7393c6" offset="0.5695" ></stop><stop id="SvgjsStop158215" stop-opacity="0.1987" stop-color="#6589c5" offset="0.8013" ></stop><stop id="SvgjsStop158216" stop-opacity="0" stop-color="#6086c4" offset="1" ></stop></linearGradient><linearGradient id="SvgjsLinearGradient158218" x1="121.5" y1="71.7" x2="121.5" y2="105.64" gradientUnits="userSpaceOnUse" class="svga-on-canvas-glasses-gradient-single-1-null"><stop id="SvgjsStop158219" stop-opacity="1" stop-color="#b4c0cf" offset="0" ></stop><stop id="SvgjsStop158220" stop-opacity="0.9374" stop-color="#abbace" offset="0.0626" ></stop><stop id="SvgjsStop158221" stop-opacity="0.679" stop-color="#8aa3ca" offset="0.321" ></stop><stop id="SvgjsStop158222" stop-opacity="0.4305" stop-color="#7393c6" offset="0.5695" ></stop><stop id="SvgjsStop158223" stop-opacity="0.1987" stop-color="#6589c5" offset="0.8013" ></stop><stop id="SvgjsStop158224" stop-opacity="0" stop-color="#6086c4" offset="1" ></stop></linearGradient></defs><g id="svga-group-wrapper"><g id="svga-group-backs-single"><path id="SvgjsPath158167" d="M0 0h200v200H0V0z" fill="#ce6130" stroke-width="none" opacity="1"></path><path id="SvgjsPath158168" d="M100 124.2c-13.3 0-24.2-10.8-24.2-24.2S86.7 75.8 100 75.8s24.2 10.8 24.2 24.2-10.9 24.2-24.2 24.2zm0-42.4c-10 0-18.2 8.2-18.2 18.2s8.2 18.2 18.2 18.2 18.2-8.2 18.2-18.2S110 81.8 100 81.8zm0 57.4c-21.6 0-39.2-17.6-39.2-39.2S78.4 60.8 100 60.8s39.2 17.6 39.2 39.2-17.6 39.2-39.2 39.2zm0-72.4c-18.3 0-33.2 14.9-33.2 33.2s14.9 33.2 33.2 33.2 33.2-14.9 33.2-33.2-14.9-33.2-33.2-33.2zm0 87.5c-29.9 0-54.3-24.4-54.3-54.3S70.1 45.7 100 45.7 154.3 70 154.3 100s-24.4 54.3-54.3 54.3zm0-102.6c-26.6 0-48.3 21.7-48.3 48.3 0 26.6 21.7 48.3 48.3 48.3 26.6 0 48.3-21.7 48.3-48.3 0-26.6-21.7-48.3-48.3-48.3zm0 116.4c-37.6 0-68.1-30.6-68.1-68.1S62.4 31.9 100 31.9s68.1 30.6 68.1 68.1-30.5 68.1-68.1 68.1zm0-130.2c-34.2 0-62.1 27.9-62.1 62.1s27.9 62.1 62.1 62.1 62.1-27.9 62.1-62.1-27.9-62.1-62.1-62.1zm0 146.2c-46.4 0-84.1-37.7-84.1-84.1S53.6 15.9 100 15.9s84.1 37.7 84.1 84.1-37.7 84.1-84.1 84.1zm0-162.2c-43.1 0-78.1 35-78.1 78.1s35 78.1 78.1 78.1 78.1-35.1 78.1-78.1-35-78.1-78.1-78.1zm0 90c-6.6 0-11.9-5.4-11.9-11.9 0-6.6 5.4-11.9 11.9-11.9 6.6 0 11.9 5.4 11.9 11.9 0 6.6-5.3 11.9-11.9 11.9zm0-17.8c-3.3 0-5.9 2.7-5.9 5.9 0 3.3 2.7 5.9 5.9 5.9 3.3 0 5.9-2.7 5.9-5.9 0-3.3-2.6-5.9-5.9-5.9zM0 146.7v12.8c9.9 16.6 23.9 30.6 40.5 40.5h12.8C29.9 189 11 170.1 0 146.7zm200 0c-11 23.4-29.9 42.3-53.3 53.3h12.8c16.6-9.9 30.6-23.9 40.5-40.5v-12.8zm0-93.4V40.5C190.1 23.9 176.1 9.9 159.5 0h-12.8C170.1 11 189 29.9 200 53.3zm-200 0C11 29.9 29.9 11 53.3 0H40.5C23.9 9.9 9.9 23.9 0 40.5v12.8zm200 36.3C195.1 42.5 157.6 4.9 110.4 0H89.6C42.5 4.9 4.9 42.5 0 89.6v20.8c4.9 47.1 42.5 84.7 89.6 89.6h20.8c47.1-4.9 84.7-42.4 89.6-89.6V89.6zM100 194.5c-52.1 0-94.5-42.4-94.5-94.5S47.9 5.5 100 5.5s94.5 42.4 94.5 94.5-42.4 94.5-94.5 94.5zM0 176.2v9.5c4.4 5.1 9.1 9.9 14.3 14.3h9.5c-9-6.8-17-14.8-23.8-23.8zm200 0c-6.8 8.9-14.8 16.9-23.8 23.8h9.5c5.1-4.4 9.9-9.1 14.3-14.3v-9.5zM0 23.8c6.8-9 14.8-17 23.8-23.8h-9.5C9.1 4.4 4.4 9.1 0 14.3v9.5zm200 0v-9.5c-4.4-5.1-9.1-9.9-14.3-14.3h-9.5c9 6.8 17 14.8 23.8 23.8z" fill="#bf4d19" stroke-width="none" opacity="1"></path></g><g id="svga-group-humanwrap-move" transform="matrix(1,0,0,1,0,0)"><g id="svga-group-humanwrap" transform="matrix(1,0,0,1,0,0)"><g id="svga-group-hair-back-move" transform="matrix(1,0,0,1,0,0)"><g id="svga-group-hair-back" transform="matrix(1,0,0,1,0,0)"><path id="SvgjsPath158300" d="M61.6 38.2S52 52.5 51.1 62.3s1.6 31 1.6 38-.7 25.9-11.6 35.1c0 0 8.2-4.3 12.3-11.6 0 0-2.5 10.5-9.8 16.2 0 0 9.6-4.3 15.7-15.2 0 0-4.8 13.2-12.8 16.8 0 0 9.8-2.7 16.4-14.8 0 0-2.7 16.6-7.3 22.3 0 0 8.6-11.6 10.9-19.4 0 0-3.6 13.7-3.2 20.5 0 0 1.6-10.9 9.8-18.4 0 0 1.1 12.8.2 18.4 0 0 4.6-7.7 5.2-14.6 0 0 3.6 10.9 6.2 15.5 0 0-1.6-9.6-.5-13.9l37.3-2.1s3.2 14.3 6.2 18.7c0 0-2.5-14.8-.9-20.3 0 0 .9 12.1 14.8 19.1 0 0-12.1-12.1-11.1-22.5 0 0 2.7 10.2 10.5 15.9 0 0-6.4-11.4-4.8-20 0 0 5.9 15.7 11.1 19.8 0 0-6.1-10.2-5.7-19.1 0 0 4.1 10 9.1 13 0 0-5.7-7.1-6.4-17.5 0 0 3.6 10 12.3 15 0 0-8.9-7.3-10.7-21.8-1.8-14.6 1.1-37.8 1.4-44.8s0-12.3-2.7-18.4-2.1-12.1-18.4-15.5c-16.4-3.5-64.6 1.5-64.6 1.5z" fill="#543c32" stroke-width="none" opacity="1" stroke="none"></path><path id="SvgjsPath158301" d="M50.7 120.8c.7-2.1 1.3-4.2 1.7-6.3 1.8-8.6 1.3-17.4.7-25.9-.7-8.6-1.6-17.1-.9-25.6.4-4.2 1.1-8.4 2.4-12.5.7-2 1.5-4 2.4-5.9 1-1.9 2.1-3.7 3.4-5.4-1.5 1.6-2.8 3.3-3.9 5.2-1.1 1.9-2.1 3.8-2.9 5.8-.8 2-1.4 4.1-1.9 6.2-.5 2.1-.8 4.3-1.1 6.4-1 8.7-.2 17.3.5 25.9.3 4.3.6 8.5.7 12.8 0 2.1 0 4.2-.2 6.4-.2 2.1-.4 4.2-.8 6.3-.7 4.2-1.9 8.3-3.7 12.1-.9 1.9-2 3.8-3.2 5.5-1.3 1.7-2.7 3.3-4.3 4.8 1.7-1.3 3.3-2.8 4.7-4.5 1.4-1.7 2.6-3.5 3.7-5.4 1.1-1.9 1.9-3.9 2.7-5.9zm11.6-6.7c-1.1 2.7-2.1 5.5-3.1 8.2-1 2.7-2.1 5.3-3.5 7.8-1.3 2.5-2.9 4.9-4.7 7-1.9 2.1-4 4-6.5 5.6 2.8-.8 5.5-2.4 7.6-4.5 2.2-2.1 4-4.5 5.4-7.2 1.4-2.6 2.4-5.4 3.2-8.3.8-2.8 1.3-5.6 1.6-8.6zm7.3-1.7c0-4.2-.4-8.5-1.4-12.6.2 4.2.2 8.4-.1 12.6-.3 4.2-.9 8.3-1.8 12.3-.8 4.1-2 8.1-3.4 12-1.4 3.9-3.1 7.7-5 11.5 2.6-3.3 4.7-7 6.5-10.9 1.7-3.9 3-8 3.9-12.1.9-4.3 1.3-8.6 1.3-12.8zm8.1-5.1c.2 3.9.2 7.7-.1 11.5-.3 3.8-.9 7.6-1.9 11.2-.9 3.7-2.2 7.3-3.7 10.8-1.5 3.5-3.3 6.9-5.3 10.2 2.7-2.8 4.9-6.1 6.7-9.5 1.8-3.5 3.2-7.2 4.2-11 .9-3.8 1.5-7.7 1.5-11.6 0-3.9-.4-7.9-1.4-11.6zm8.3 18c-.2 3.3-.7 6.7-1.4 9.9-.7 3.3-1.6 6.5-2.7 9.6-1.1 3.2-2.5 6.2-4 9.3 2.2-2.6 4-5.6 5.5-8.7 1.5-3.1 2.5-6.4 3.2-9.8.7-3.4 1.1-6.9 1-10.3-.1-3.4-.5-6.9-1.5-10.2.1 3.4.1 6.8-.1 10.2zm67.8 8c-1.3-1.9-2.4-4-3.4-6.1-1.9-4.2-3-8.8-3.7-13.4a80.289 80.289 0 0 1-.6-13.9c.2-4.7.6-9.3 1-14 .4-4.7.8-9.4.9-14.1 0-2.4 0-4.7-.1-7.1-.2-2.4-.4-4.7-.9-7.1-.4-2.3-1-4.7-1.7-6.9-.8-2.2-1.6-4.5-2.7-6.6-1.1-2.1-2.4-4.1-3.9-5.9-1.5-1.8-3.2-3.5-5.1-4.9 1.7 1.6 3.3 3.3 4.7 5.2 1.3 1.9 2.5 3.9 3.4 6 1.9 4.2 3.1 8.8 3.8 13.3a80.289 80.289 0 0 1 .6 13.9c-.2 4.7-.6 9.3-1 14-.4 4.7-.8 9.4-.9 14.1 0 2.4 0 4.7.1 7.1.1 2.4.4 4.7.8 7.1.4 2.3.9 4.7 1.7 6.9.7 2.3 1.6 4.5 2.7 6.6 1.1 2.1 2.4 4.1 3.8 6 1.5 1.9 3.2 3.5 5 5-1.6-1.6-3.2-3.3-4.5-5.2zm-17-10.8c-.9-4.6-1.4-9.3-1.6-14.1-.2-4.7-.1-9.5 0-14.2.2-9.5.7-19.1-.3-28.7-.3-2.4-.6-4.8-1.1-7.1-.5-2.3-1.1-4.7-2-7-.9-2.2-2.1-4.4-3.8-6.2-.8-.9-1.8-1.7-2.8-2.3-1.1-.6-2.2-1-3.4-1.1 2.3.5 4.4 1.9 5.8 3.7 1.5 1.8 2.5 4 3.2 6.2.8 2.2 1.2 4.5 1.6 6.9.4 2.3.7 4.7.9 7 .7 9.4.2 19-.1 28.5-.2 9.5-.2 19.3 2.1 28.7 1.1 4.7 2.8 9.3 5.1 13.5 2.3 4.2 5.3 8.1 8.9 11.2-3.3-3.4-6-7.4-8-11.7-2.2-4.1-3.6-8.7-4.5-13.3zm-7.4 6.5c-2.8-9.2-4.1-18.8-4.7-28.4-.8-9.6-1-19.3-2.1-29-.3-2.4-.6-4.8-1-7.2-.4-2.4-.8-4.8-1.6-7.2-.8-2.3-2-4.6-3.7-6.3-1.7-1.8-4-3-6.5-3.1 2.4.3 4.5 1.7 6.1 3.5 1.6 1.8 2.6 4 3.2 6.3.6 2.3.9 4.7 1.2 7.1.3 2.4.5 4.8.7 7.2.8 9.6.9 19.3 1.7 29 .7 9.7 2.1 19.4 5.2 28.7 1.6 4.6 3.5 9.1 6 13.3 2.6 4.1 5.6 8 9.2 11.3-3.3-3.6-6.1-7.5-8.3-11.8-2.2-4.4-4-8.9-5.4-13.4zm-15.6-11.7c-3.5-13.1-5.2-26.6-5.3-40.2-1.5 13.6-.2 27.5 3.4 40.7 1.8 6.6 4.1 13.1 7 19.3 2.9 6.2 6.4 12.1 10.4 17.6-3.4-5.9-6.3-12-9-18.3-2.6-6.2-4.8-12.6-6.5-19.1z" fill="#452c22" stroke-width="none" opacity="1" stroke="none"></path></g></g><g id="svga-group-humanbody-back"><path id="SvgjsPath157885" d="M180.8 184.9c-2.3-3.4-38.9-17.8-38.9-17.8l-13.4-5.2-5.6-68.8H76.8L71.3 162l-13.4 5.2S21.4 181.6 19 185c-2.3 3.4-3.3 14.9-3.3 14.9V219h168.5v-19.2c-.1.1-1-11.5-3.4-14.9z" fill="#ffd0bc" stroke-width="none" opacity="1" stroke="none"></path></g><g id="svga-group-chinshadow-single"><path id="SvgjsPath158125" d="M75.6 165.2c1.5 1.4 18.8 1.3 18.8 1.3s17.3.1 18.8-1.3c2.75-2.52 8.61-13.24 13.71-23.28l-3.97-48.82H76.82l-5.31 66.77c1.64 2.55 3.07 4.47 4.09 5.33z" fill="#e09879" stroke-width="none" opacity="1" stroke="none"></path></g><g id="svga-group-humanbody-front"><path id="SvgjsPath157886" d="M184.5 219c-.1-6.4-.1-12.8-.1-19.2l-.3-.1s.1-.1.2 0c.1 0 .1.1.1.1v-.4l-.1-.5-.1-.9-.2-1.9c-.2-1.3-.4-2.5-.6-3.8-.2-1.3-.5-2.5-.9-3.8-.4-1.2-.8-2.5-1.5-3.6-.8-.9-1.9-1.5-2.9-2.1-1-.6-2.1-1.1-3.2-1.7-2.1-1.1-4.3-2.1-6.5-3.1-4.4-2-8.7-3.9-13.1-5.7-4.4-1.9-8.8-3.7-13.2-5.5l-13-5.2-1.2-16.9c-.4-5.7-.9-11.5-1.3-17.2l-1.3-17.2-1.5-17.3-.1-.8h-.8c-7.7 0-15.4.1-23.1.1l-23.1.2h-.5v.5L75 110.2l-1.3 17.2c-.8 11.4-1.8 22.8-2.8 34.2-5.6 2.1-11.2 4.2-16.7 6.4-5.6 2.2-11.2 4.5-16.8 6.9-2.8 1.2-5.6 2.4-8.3 3.6-2.8 1.3-5.5 2.5-8.2 4.1-.7.4-1.3.8-2 1.4-.2.1-.4.4-.5.6l-.3.6c-.2.4-.4.7-.5 1.1-.6 1.5-1 3-1.3 4.5-.6 3-1.1 6-1.4 9.1l-.1 19.1v.9h.9l42.1.1H100c14 0 28.1-.1 42.1-.2l42.1-.5h.3v-.3zm-84.5-1-42.1-.1-41.2.1-.1-18.1c.3-3 .6-5.9 1.2-8.9.3-1.4.6-2.9 1.1-4.2.1-.3.3-.7.4-.9l.2-.4.3-.3c.5-.4 1.1-.8 1.8-1.2 2.5-1.5 5.3-2.8 8-4.1 2.7-1.3 5.5-2.5 8.2-3.7 5.5-2.4 11.1-4.8 16.7-7.1s11.2-4.5 16.9-6.7l.2-.1v-.2c.9-11.5 1.7-23 2.7-34.4l1.4-17.2 1.5-16.7 22.6.2c7.4.1 14.8.1 22.3.1l1.3 16.4 1.5 17.2c.5 5.7 1 11.5 1.5 17.2l1.6 17.2v.3l.3.1 13.4 5c4.4 1.7 8.9 3.4 13.3 5.2 4.4 1.8 8.8 3.7 13.2 5.6 2.2 1 4.3 2 6.5 3 1.1.5 2.1 1.1 3.2 1.6 1 .6 2.1 1.2 2.9 2 .7 1.1 1.1 2.3 1.4 3.5.3 1.2.6 2.5.8 3.7.2 1.3.4 2.5.6 3.8l.2 1.9.1.9.1.5v.4c0 6.3 0 12.6-.1 18.9l-41.8-.5c-14 .1-28.1 0-42.1 0z" fill="#d17f5b" stroke-width="none" opacity="1" stroke="none"></path><path id="SvgjsPath157887" d="M125.1 142.4s-1.8 23-9.1 32.9c0 0 7.9-25 9.1-32.9zm-34.5 16s5 7.9 11.5 10.1c0 0-9.5 2.2-11.5-10.1zM73.4 140c6.7 25.6 6.7 25.6 8.5 30.7 0 0 .4-12.6-8.5-30.7z" fill="#e09879" stroke-width="none" opacity="1" stroke="none"></path></g><g id="svga-group-clothes-single"><path id="SvgjsPath158020" d="M61.8 186.6s14.4 11.8 17.6 14.6c3.2 2.8 21.3 12 21.3 12s19.2-9.9 22.4-12.5c3.2-2.6 14.4-17.4 14.4-17.4V220H66.4l-4.6-33.4z" fill="#efefef" stroke-width="none" opacity="1"></path><path id="SvgjsPath158021" d="M67 148.7s-7.2 5.3-11 8.6-9.9 6.6-9.9 6.6l2.9 1.6s-5.5 3.2-10.9 4.8c-5.5 1.6-20.1 5.2-21.1 5.7s-2.3 2.9-2.3 2.9-4.4.9-4.9 11.1c-.6 10.2-1.3 30-1.3 30h64.1s-5.8-35.1-6.3-39.2c0-.4 1.2-16.6 1.2-18 0-1 4.4-11.7 4.3-15.4-.1-1.5-4.8 1.3-4.8 1.3zm66 0s7.2 5.3 11 8.6 9.9 6.6 9.9 6.6l-2.9 1.6s5.5 3.2 10.9 4.8c5.5 1.6 20.1 5.2 21.1 5.7s2.3 2.9 2.3 2.9 4.4.9 4.9 11.1 1.3 29.9 1.3 29.9h-64.1s5.8-35.1 6.3-39.2c0-.4-1.1-16.6-1.1-18 0-1-3.5-12.8-3.7-15.9-.1-1.2 4.1 1.9 4.1 1.9z" fill="#39557e" stroke-width="none" opacity="1"></path><path id="SvgjsPath158022" d="M138.2 164.1s4.9 11.3 6.3 13.8c1.4 2.6 12.2 10.8 12.2 10.8s-15.5 12.9-15.7 14.5c-.2 1.6-3.1 11.7-3.1 11.7l4.2-9.9s6.6-5.6 8.2-6.6 14.1-9.9 14.1-9.9-16.2-11-17.8-12.7c-1.6-1.4-8.4-11.7-8.4-11.7zm26.3 9.6c-3.5-.9-10.1-4.2-12.7-5.6 0 0 8 5.4 10.6 6.8 2.6 1.4 15.5 3.8 15.5 4.5 0 .7-4 5.2-4.9 7.5-.9 2.4-.9 9.1-.9 9.1s1.9-5.9 3.1-8.9 7.7-7.3 7.7-7.3 0-1.6-.9-2.6-14-2.6-17.5-3.5zm24.1 12.9c-.2-2.6-2.1-4.5-3.8-5.2 0 0 .9 1.6 1.2 2.6s.7 11.5.7 15.9 3.1 16.9 3.1 16.9-.9-27.6-1.2-30.2zM65.5 161.7c-.5 5.4-2.6 17.6-3.5 21.4-.9 3.8-.2 18.1-.2 18.1s.7-12.7 1.9-15.5c1.2-2.8 2.6-10.3 2.4-12.4-.4-2.2-.6-11.6-.6-11.6zm-43.1 14.5c-1.6.4-4.3 1.2-5.1 2.2 0 0 0 1.4 7.5-.8 5.3-1.5 14.7-5.8 19.7-8.2-6.9 2.7-20.8 6.5-22.1 6.8zm22.1-6.8c1.6-.6 2.9-1.2 3.5-1.6-.1 0-1.4.6-3.5 1.6zm-2.1 22.9c-2.2-1-5.7-2.4-5.7-2.4 4.1 1.8 21.2 14.6 21.2 14.6l6.3 13.8s-4.5-14.6-5.5-15.5c-.9-1-14.1-9.5-16.3-10.5z" fill="#4e688d" stroke-width="none" opacity="1"></path><path id="SvgjsPath158023" d="M190.8 190.1c-.5-9.2-4.1-11.1-5.1-11.4-.4-.6-1.4-2.5-2.4-2.9-.5-.3-3.8-1.1-9.1-2.5-4.4-1.1-9.3-2.4-12-3.2-4.1-1.3-8.4-3.4-10.1-4.4l2.9-1.7-.8-.4c-.1 0-6.1-3.3-9.8-6.5-3.8-3.3-10.9-8.6-11-8.6l-.8-.6-4.8-2.4 1.1 16.4 3.1 1.2c0 1.1.4 6.1.7 10.5.2 3.5.5 7 .5 7.3-.1 1.2-.7 4.9-1.4 9.7-.6.8-1.2 1.5-1.8 2.2-1.3 1.6-2.6 3.1-3.9 4.6-.7.8-1.3 1.5-2 2.2-.3.4-.7.7-1.1 1-.4.3-.8.6-1.2.8-3.4 2.1-7 4-10.5 5.9-3.5 1.9-7 3.7-10.5 5.5-3.4-1.7-6.9-3.5-10.3-5.3-1.7-.9-3.5-1.9-5.2-2.9-1.7-1-3.4-1.9-5-3.1L68.5 192c-.9-5.4-1.6-9.9-1.7-11.1 0-.3.2-3.9.5-7.3.3-4.4.6-8.9.7-10.2l3.1-1.4 1.3-15.9-5 1.7-.8.6c-.1.1-7.2 5.4-11 8.6-3.7 3.2-9.8 6.5-9.8 6.5l-.8.4 2.9 1.7c-1.7.9-5.9 3.1-10 4.4-2.7.8-7.6 2.1-12 3.2-5.3 1.4-8.6 2.2-9.1 2.5-1 .5-2.1 2.3-2.4 2.9-1 .4-4.6 2.2-5.1 11.4-.6 10.1-1.3 29.8-1.3 30v.5h184.1v-.5c-.1-.2-.8-19.9-1.3-29.9zM30.4 219.5c-.1-3.5-.3-6.9-.9-10.4-.7-3.7-1.4-7.4-2.3-11-.5-1.8-.9-3.6-1.5-5.4-.6-1.8-1.2-3.6-2.2-5.2-1.1-1.6-2.3-3-3.6-4.4-.6-.7-1.3-1.4-2-2-.7-.6-1.3-1.4-2.2-1.8.4.2.7.6 1 .9.3.3.6.7.9 1l1.8 2.1c1.2 1.4 2.4 2.9 3.3 4.5.9 1.6 1.5 3.4 2 5.1.5 1.8 1 3.6 1.4 5.4.9 3.6 1.6 7.3 2.5 10.9.4 1.8.7 3.7.9 5.5.4 1.6.6 3.2.9 4.8H9c.1-3.2.8-20.3 1.2-29.4.5-9.6 4.5-10.6 4.6-10.6l.2-.1.1-.2c.5-.9 1.4-2.4 2.1-2.7.5-.2 4.8-1.4 8.9-2.4 4.4-1.1 9.4-2.4 12.1-3.2 4.9-1.5 9.8-4.2 10.8-4.8.6.4 1.2.7 1.8 1.1l2.5 1.5c.4.2.8.5 1.2.8l.6.3c-2.1 2.2-4.3 4.2-6.7 6l-8.4 6.1c-2.8 2.1-5.6 4.1-8.4 6.2l-1.1.8 1.2.8 6.1 4.1 6.1 4.1 6.2 4.1c1 .7 2.1 1.4 3 2l2.8 2.2c1.2 2.3 2.3 4.6 3.5 6.9l3.3 6.3H30.4zm32.4 0c-.9-2.2-1.8-4.4-2.7-6.7-1-2.4-2-4.9-3.1-7.3v-.1l-.1-.1c-.9-.8-1.8-1.7-2.8-2.5-1-.8-2-1.5-3-2.2-2-1.4-4-2.8-6-4.3s-4-2.8-6.1-4.2c-1.7-1.1-3.3-2.3-5-3.4 2.4-1.8 4.8-3.6 7.2-5.5 2.7-2.1 5.5-4.2 8.2-6.4 2.8-2.2 5.2-4.8 7.4-7.5s4.3-5.5 6-8.5c-2.1 2.7-4.4 5.4-6.8 7.9-.2.3-.5.5-.7.8-.2-.1-.4-.3-.6-.4-.4-.3-.7-.7-1.1-1-.8-.6-1.6-1.2-2.4-1.7-.8-.5-1.6-1.1-2.5-1.6l-1.2-.6-.6-.4c1.8-1 6.2-3.6 9.2-6.2 3-2.6 10.2-8 10.2-8l4.1-2.1s-3.7 14.6-3.7 15.3c0 .8-.4 5.9-.7 10.5-.4 5.7-.5 7.3-.5 7.5 0 .1 0 .3.1.4-.2.6-.4 1.2-.5 1.9l-.9 3.9c-.3 1.3-.5 2.6-.8 3.9-.2 1.3-.5 2.6-.7 3.9-.1 2.3-.2 4.5-.1 6.8.4-2.2.7-4.5 1-6.7.3-1.3.5-2.6.8-3.9.2-1.3.5-2.6.7-3.9l.6-3.9c0-.2.1-.5.1-.7 1.1 7.5 5.2 32.6 6 36.9l-9 .1zm57 0H84.2c-3.7 0-7.4 0-11.2.1-.4-2.4-2.8-16.6-4.4-27.2.8.7 1.6 1.4 2.4 2 3 2.6 5.9 5.1 8.9 7.6 1.6 1.2 3.3 2.2 5 3.2 1.7 1 3.4 1.9 5.2 2.9 3.5 1.9 7 3.7 10.5 5.5l.2.1.2-.1c3.6-1.9 7.1-3.7 10.7-5.7 3.5-1.9 7.1-3.9 10.4-6.1l1.2-.9c.4-.4.8-.7 1.1-1.1.7-.7 1.4-1.5 2-2.3 1.3-1.5 2.6-3.1 3.8-4.7.5-.6.9-1.1 1.4-1.7-1.7 10.7-4.2 25.9-4.7 28.4h-7.1zm8.2 0c.7-4.3 4.9-29.4 6-36.9 0 .2.1.5.1.7l.6 3.9c.2 1.3.5 2.6.7 3.9.3 1.3.5 2.6.8 3.9.2 2.2.6 4.5 1 6.7.1-2.3 0-4.6-.1-6.8-.2-1.3-.4-2.6-.7-3.9-.2-1.3-.5-2.6-.8-3.9l-.9-3.9c-.1-.6-.3-1.2-.5-1.9 0-.2 0-.3.1-.4 0-.2-.1-1.8-.5-7.5-.3-4.6-.7-9.8-.7-10.6 0-.9-3.7-15.8-3.7-15.8l4.2 2.6s7.2 5.4 10.2 8c3 2.6 7.4 5.2 9.2 6.2l-.6.4-1.2.6c-.9.5-1.7 1-2.5 1.6-.8.6-1.6 1.1-2.4 1.7-.4.3-.7.7-1.1 1-.2.2-.4.3-.6.4-.2-.2-.5-.5-.7-.8-2.4-2.5-4.6-5.2-6.8-7.9 1.8 3 3.9 5.8 6.1 8.5 2.2 2.7 4.6 5.3 7.4 7.5 2.7 2.2 5.5 4.3 8.2 6.4 2.4 1.9 4.8 3.7 7.2 5.5-1.7 1.1-3.3 2.2-5 3.4-2 1.4-4.1 2.8-6.1 4.2-2 1.4-4 2.8-6 4.3-1 .7-2 1.4-3 2.2-.9.8-1.9 1.6-2.8 2.5l-.1.1-.1.1c-1 2.4-2.1 4.9-3.1 7.3l-2.7 6.6-9.1.1zm41.7 0c.2-1.6.4-3.1.6-4.7.3-1.9.5-3.7.9-5.5.9-3.6 1.6-7.3 2.5-10.9.4-1.8.9-3.6 1.4-5.4s1.1-3.6 2-5.1c.9-1.5 2.1-3 3.3-4.5l1.8-2.1c.3-.4.6-.7.9-1 .3-.3.6-.7 1-.9-.8.4-1.5 1.2-2.2 1.8l-2 2c-1.3 1.4-2.5 2.8-3.6 4.4-1.1 1.6-1.6 3.4-2.2 5.2-.6 1.8-1.1 3.6-1.5 5.4-.9 3.7-1.6 7.3-2.3 11-.4 3.4-.6 6.8-.6 10.3h-32.4l3.3-6.3c1.2-2.3 2.4-4.6 3.5-6.9l2.8-2.2c1-.7 2-1.4 3-2l6.1-4.1 6.1-4.1 6.1-4.1 1.2-.8-1.1-.8c-2.8-2.1-5.6-4.2-8.4-6.2l-8.4-6.1c-2.4-1.8-4.6-3.8-6.7-6l.6-.3c.4-.2.8-.5 1.2-.8l2.5-1.5c.6-.3 1.2-.7 1.8-1.1 1 .6 5.9 3.3 10.8 4.8 2.7.8 7.7 2.1 12.1 3.2 4.2 1.1 8.5 2.2 8.9 2.4.6.3 1.6 1.8 2.1 2.7l.1.2.2.1s4.1 1 4.6 10.6c.5 9.1 1.1 26.2 1.2 29.4h-21.2zm22.4 1z" fill="#0c2850" stroke-width="none" opacity="1"></path></g><g id="svga-group-head" transform="matrix(1,0,0,1,0,0)"><g id="svga-group-ears-left-move" transform="matrix(1,0,0,1,0,0)"><g id="svga-group-ears-left" transform="matrix(1,0,0,1,0,0)"><path id="SvgjsPath158039" d="M68.53 80.36s-11.15-9.8-12.94-9.96c-1.54-.14-5.36 8.01-7.05 13.16-.45 1.36-.34 2.88.25 4.2 1.62 3.57 5.21 11.04 8.43 14.78 0 0 2.72.59 3.58.33.86-.25 7.58-5.67 8.27-7.77s.83-11.3-.54-14.74z" fill="#ffd0bc" stroke-width="none" opacity="1" stroke="none"></path><path id="SvgjsPath158040" d="M69.49 84.19c.18 1.31.28 2.64.33 3.96.05 1.32.06 2.65-.01 3.98a26.7 26.7 0 0 1-.17 1.99c-.05.34-.1.67-.2 1.02s-.28.7-.46.96c-.72 1.11-1.6 1.95-2.47 2.8-.88.84-1.78 1.63-2.71 2.4-.47.38-.93.75-1.42 1.11-.24.18-.49.35-.74.52l-.4.24c-.16.08-.35.17-.53.19-.67.08-1.23-.01-1.82-.09-.58-.08-1.15-.19-1.73-.32l-.13-.03-.08-.1c-1.45-1.74-2.63-3.68-3.74-5.65-1.1-1.98-2.1-4.03-3.06-6.1l-1.41-3.11c-.5-1.05-.71-2.29-.54-3.46.06-.59.26-1.14.44-1.67.18-.54.37-1.07.56-1.6.4-1.05.79-2.11 1.22-3.15.86-2.07 1.76-4.13 2.94-6.02.3-.47.62-.93 1-1.36.19-.21.4-.42.67-.59.13-.08.3-.16.52-.16.19.01.32.07.47.12 1.06.47 1.87 1.14 2.75 1.76 1.72 1.29 3.37 2.66 5 4.09 1.64 1.41 3.22 2.86 4.81 4.38.49 1.27.72 2.58.91 3.89zM58.4 72.51c-.85-.59-1.75-1.26-2.59-1.61-.09-.02-.2-.08-.26-.08-.04 0-.12.02-.2.07-.17.1-.35.25-.51.44-.34.36-.65.8-.94 1.24-1.16 1.8-2.18 3.77-3.11 5.77-.46 1.01-.92 2.02-1.32 3.06-.2.52-.4 1.04-.59 1.57-.19.53-.38 1.05-.45 1.6-.15 1.11.06 2.27.55 3.26.47 1.03.98 2.05 1.49 3.05 1.02 2.02 2.12 3.99 3.26 5.91 1.15 1.91 2.36 3.79 3.76 5.42l-.21-.13c1.09.2 2.3.43 3.29.33.11-.01.18-.06.28-.11l.35-.22.7-.5c.47-.34.93-.71 1.39-1.08.92-.74 1.81-1.52 2.68-2.34.85-.82 1.73-1.66 2.39-2.61.17-.25.29-.46.38-.72.08-.27.14-.58.19-.89.09-.63.17-1.27.21-1.91.1-1.29.14-2.6.15-3.9.01-1.31-.04-2.62-.15-3.92-.11-1.3-.27-2.62-.66-3.84-3.33-2.62-6.67-5.35-10.08-7.86z" fill="#f0b399" stroke-width="none" opacity="1" stroke="none"></path><path id="SvgjsPath158041" d="M68.79 88.66S58.04 75.08 56.02 76.21c-2.01 1.12-5.19 7.53-5.18 9.67.02 3.14 3.34 8.38 5.01 9.96s3.68 2.55 6.35 1.94c2.66-.61 6.59-9.12 6.59-9.12z" fill="#f0b399" stroke-width="none" opacity="1" stroke="none"></path><path id="SvgjsPath158042" d="M60.61 88.64c-.45-1.26-.95-2.5-1.45-3.74a49.61 49.61 0 0 0-1.66-3.64c-.61-1.18-1.22-2.36-1.97-3.45l-.08-.12-.08.12c-.75 1.18-1.45 2.38-2.12 3.62-.33.62-.66 1.25-.96 1.89-.31.64-.57 1.31-.84 1.98l-.04.1.04.12c.46 1.41.96 2.79 1.47 4.18.25.69.54 1.37.83 2.05.3.68.59 1.35.99 2.01l.19.31.25-.23c.34-.31.6-.65.87-1.02.26-.37.49-.76.69-1.17.4-.82.63-1.78.6-2.74v-.06l-.02-.04c-.5-.99-1.03-1.96-1.55-2.94l-.05.03c.42 1.01.83 2.03 1.26 3.03-.04.86-.3 1.68-.68 2.41-.33.62-.77 1.17-1.24 1.65-.26-.49-.5-1.02-.73-1.56l-.81-2.03c-.53-1.32-1.03-2.66-1.52-3.99.45-1.3.94-2.59 1.52-3.82.57-1.23 1.22-2.41 1.96-3.51.67 1.04 1.17 2.23 1.68 3.39l1.54 3.67 1.56 3.67c.52 1.22 1.05 2.45 1.6 3.66l.06-.03c-.41-1.27-.85-2.54-1.31-3.8z" fill="#d17f5b" stroke-width="none" opacity="1" stroke="none"></path></g></g><g id="svga-group-ears-right-move" transform="matrix(1,0,0,1,0,0)"><g id="svga-group-ears-right" transform="matrix(1,0,0,1,0,0)"><path id="SvgjsPath158043" d="M131.47 80.36s11.15-9.8 12.94-9.96c1.54-.14 5.36 8.01 7.05 13.16.45 1.36.34 2.88-.25 4.2-1.62 3.57-5.21 11.04-8.43 14.78 0 0-2.72.59-3.58.33-.86-.25-7.58-5.67-8.27-7.77s-.83-11.3.54-14.74z" fill="#ffd0bc" stroke-width="none" opacity="1" stroke="none"></path><path id="SvgjsPath158044" d="M131.44 80.33c1.58-1.52 3.17-2.97 4.81-4.38 1.62-1.42 3.28-2.8 5-4.09.88-.63 1.69-1.29 2.75-1.76.16-.04.28-.11.47-.12.21 0 .38.08.52.16.28.17.49.37.67.59.38.43.7.89 1 1.36 1.18 1.89 2.07 3.96 2.94 6.02.43 1.04.82 2.09 1.22 3.15.19.53.38 1.06.56 1.6.18.53.37 1.08.44 1.67.17 1.17-.04 2.41-.54 3.46l-1.41 3.11c-.97 2.06-1.96 4.11-3.06 6.1-1.11 1.98-2.29 3.92-3.74 5.65l-.08.1-.13.03c-.58.13-1.15.23-1.73.32-.59.07-1.16.16-1.82.09-.18-.02-.37-.11-.53-.19l-.4-.24c-.25-.17-.5-.34-.74-.52-.48-.36-.95-.73-1.42-1.11-.93-.76-1.83-1.56-2.71-2.4-.87-.86-1.75-1.69-2.47-2.8a3.42 3.42 0 0 1-.46-.96c-.1-.35-.14-.69-.2-1.02-.08-.67-.14-1.33-.17-1.99-.07-1.33-.07-2.65-.01-3.98.06-1.32.15-2.65.33-3.96.17-1.34.4-2.65.91-3.89zm.06.06c-.4 1.21-.56 2.54-.66 3.84-.1 1.3-.15 2.61-.15 3.92.01 1.31.06 2.61.15 3.9.05.65.12 1.29.21 1.91.06.31.11.62.19.89.09.26.2.47.38.72.66.94 1.54 1.79 2.39 2.61.86.81 1.76 1.59 2.68 2.34.46.37.92.73 1.39 1.08l.7.5.35.22c.1.05.17.1.28.11.99.1 2.2-.13 3.29-.33l-.21.13c1.4-1.63 2.61-3.51 3.76-5.42 1.14-1.92 2.24-3.89 3.26-5.91.51-1.01 1.02-2.02 1.49-3.05.49-.99.7-2.15.55-3.26-.07-.56-.26-1.07-.45-1.6s-.38-1.05-.59-1.57c-.4-1.04-.86-2.06-1.32-3.06-.93-2.01-1.95-3.97-3.11-5.77-.29-.44-.6-.88-.94-1.24-.17-.18-.35-.34-.51-.44a.431.431 0 0 0-.2-.07c-.06 0-.17.06-.26.08-.84.35-1.74 1.02-2.59 1.61-3.39 2.49-6.73 5.22-10.08 7.86z" fill="#f0b399" stroke-width="none" opacity="1" stroke="none"></path><path id="SvgjsPath158045" d="M131.21 88.66s10.75-13.58 12.77-12.45c2.01 1.12 5.19 7.53 5.18 9.67-.02 3.14-3.34 8.38-5.01 9.96s-3.68 2.55-6.35 1.94c-2.66-.61-6.59-9.12-6.59-9.12z" fill="#f0b399" stroke-width="none" opacity="1" stroke="none"></path><path id="SvgjsPath158046" d="M148.54 85.31c-.26-.67-.52-1.34-.84-1.98-.3-.64-.62-1.27-.96-1.89-.67-1.24-1.38-2.44-2.12-3.62l-.08-.12-.08.12c-.74 1.1-1.36 2.27-1.97 3.45-.6 1.18-1.14 2.4-1.66 3.64-.49 1.24-1 2.48-1.45 3.74-.46 1.26-.9 2.53-1.28 3.81l.06.03c.55-1.21 1.07-2.44 1.6-3.66l1.56-3.67 1.54-3.67c.51-1.16 1.01-2.35 1.68-3.39.74 1.1 1.39 2.29 1.96 3.51.58 1.24 1.08 2.52 1.52 3.82-.5 1.34-.99 2.67-1.52 3.99l-.81 2.03c-.23.53-.47 1.07-.73 1.56-.47-.48-.91-1.03-1.24-1.65-.39-.73-.64-1.55-.68-2.41.43-1 .84-2.02 1.26-3.03l-.05-.03c-.52.98-1.05 1.95-1.55 2.94l-.02.04v.06c-.03.96.2 1.92.6 2.74.2.41.43.81.69 1.17.26.36.53.71.87 1.02l.25.23.19-.31c.4-.67.69-1.34.99-2.01.29-.68.57-1.36.83-2.05.51-1.38 1.01-2.77 1.47-4.18l.04-.12-.07-.11z" fill="#d17f5b" stroke-width="none" opacity="1" stroke="none"></path></g></g><g id="svga-group-faceshape-wrap" transform="matrix(1,0,0,1,0,0)"><g id="svga-group-faceshape-single"><path id="SvgjsPath158115" d="M139.24 92.97c.2-5.9.88-22.43.88-22.43l.19-2.65s.68-8.8-.22-12.9c-2.2-10-5.99-16.09-14.89-20.89-9.3-5-25.2-4.8-25.2-4.8s-15.9-.2-25.2 4.8C66 38.9 62.01 44.94 59.81 54.94c-.9 4 0 13.53 0 13.53s.79 19.24.99 25.14 1.4 15.97 1.8 18.17c.4 2.2 13.69 35.49 19.09 40.39 1.5 1.4 18.31 1.22 18.31 1.22s17.01.15 18.51-1.25c5.4-4.9 18.48-37.78 18.84-40.56.6-2.2 1.59-12.71 1.89-18.61z" fill="#ffd0bc" stroke-width="none" opacity="1" stroke="none"></path><path id="SvgjsPath158116" d="M139.12 92.96c.26-6.81.49-13.61.62-20.43.01-1.7.11-3.41.19-5.11.08-1.69.11-3.39.1-5.08-.01-1.69-.07-3.38-.25-5.04-.08-.84-.22-1.63-.42-2.43-.21-.81-.41-1.63-.66-2.43-.94-3.22-2.25-6.31-4.13-8.99-.93-1.34-2-2.58-3.19-3.7-1.2-1.11-2.51-2.09-3.88-3.01-5.47-3.73-12.17-5.03-18.82-5.87-3.34-.38-6.71-.6-10.06-.6-3.36.02-6.74.23-10.08.66-3.34.44-6.66 1.07-9.83 2.13-1.57.57-3.11 1.18-4.57 2.03-1.47.81-2.89 1.72-4.2 2.76a23.742 23.742 0 0 0-6.44 7.61c-.79 1.48-1.43 3.04-1.99 4.63-.54 1.6-.95 3.24-1.32 4.89-.32 1.61-.37 3.31-.37 5s.07 3.38.18 5.08c.28 3.37.45 6.8.62 10.19l1.12 20.39c.27 3.37.64 6.75 1.05 10.11.21 1.68.43 3.37.69 5.02.11.88.33 1.41.63 2.26.28.78.6 1.57.9 2.36 2.5 6.3 5.17 12.56 8 18.72 1.43 3.07 2.89 6.13 4.46 9.11.8 1.48 1.59 2.97 2.47 4.36.41.73.89 1.38 1.35 2.04l.34.5.37.41.36.41.18.21c.08.07-.08-.07-.04-.03.1.06.51.17.87.23.37.07.77.13 1.17.18.81.1 1.64.17 2.47.23 1.67.11 3.36.18 5.04.22 3.39.09 6.75.09 10.17.11 3.39 0 6.78-.04 10.14-.22 1.65-.1 3.4-.19 4.85-.5.18-.04.34-.09.44-.12.05-.02.1-.04.04-.01-.06.08.06-.06.11-.11l.75-.83c.48-.63.95-1.3 1.41-1.98 1.81-2.78 3.37-5.81 4.91-8.81 1.55-3.01 3-6.09 4.43-9.17 1.42-3.09 2.79-6.2 4.12-9.33.65-1.57 1.31-3.14 1.93-4.72.6-1.57 1.28-3.19 1.68-4.75l.01-.04c.36-1.47.54-3.04.76-4.57.2-1.54.38-3.09.54-4.64.33-3.11.6-6.22.78-9.33zm.24.02c-.15 3.12-.39 6.23-.66 9.34-.13 1.56-.27 3.11-.43 4.66-.18 1.56-.31 3.1-.65 4.67l.01-.04c-.37 1.76-.96 3.32-1.51 4.95-.56 1.61-1.15 3.21-1.74 4.82-1.2 3.19-2.44 6.37-3.72 9.54-2.61 6.32-5.21 12.61-8.74 18.62-.48.74-.97 1.48-1.51 2.21l-.94 1.08c-.1.1-.1.15-.35.33-.23.17-.37.22-.52.29-.3.12-.54.2-.78.25-1.87.43-3.54.54-5.28.67-3.44.22-6.86.29-10.28.32-3.39.01-6.84.08-10.25-.04-1.71-.05-3.43-.11-5.16-.23-.87-.06-1.73-.13-2.62-.24-.44-.06-.89-.12-1.35-.21-.47-.1-.91-.17-1.57-.48-.14-.06-.49-.31-.56-.39l-.24-.27-.48-.54-.48-.55-.38-.55c-.51-.74-1.03-1.48-1.45-2.23-.91-1.5-1.7-3.02-2.51-4.55-1.56-3.06-3.01-6.17-4.41-9.29-2.77-6.25-5.41-12.54-7.81-18.95-.29-.81-.59-1.6-.87-2.43-.27-.75-.61-1.84-.68-2.66-.23-1.71-.42-3.41-.6-5.11-.35-3.4-.64-6.8-.79-10.23l-.52-20.43c-.09-3.41-.14-6.79-.41-10.21-.09-1.71-.14-3.42-.13-5.13.02-1.71.08-3.44.44-5.17.77-3.33 1.79-6.65 3.39-9.72 1.63-3.04 3.85-5.8 6.55-7.97 1.33-1.1 2.77-2.08 4.25-2.96 1.46-.92 3.08-1.63 4.68-2.27 3.25-1.21 6.63-1.97 10.02-2.53 3.4-.55 6.82-.87 10.27-1.01 3.46-.13 6.9.03 10.33.37 3.43.33 6.85.93 10.22 1.85.85.21 1.67.52 2.51.78.82.32 1.65.63 2.45 1 1.63.76 3.13 1.62 4.59 2.6 1.46.99 2.84 2.09 4.11 3.33 1.25 1.25 2.38 2.64 3.35 4.12s1.74 3.08 2.38 4.7c.65 1.62 1.16 3.29 1.57 4.97.22.84.39 1.68.57 2.52.18.86.29 1.76.33 2.62.11 1.74.1 3.45.04 5.16-.06 1.71-.17 3.42-.31 5.12-.16 1.7-.33 3.38-.41 5.09-.37 6.8-.68 13.6-.96 20.41z" fill="#d17f5b" stroke-width="none" opacity="1" stroke="none"></path></g></g><g id="svga-group-mouth-single-move" transform="matrix(1,0,0,1,0,0)"><g id="svga-group-mouth-single" transform="matrix(1,0,0,1,0,0)"><path id="SvgjsPath158198" d="M114.32 126.8c-.74 1.7-1.79 3.4-4.63 2.9-2.1-.4-2.53-1.9-4.1-2.8-2.21-1.2-3.47 0-4.42 1.4-.21.5-2.25 2.18-4.15-.1-.54-.58-1.28-1.9-3.32-2.1-1.05-.1-1.89.2-2.63.8-.74.5-1.05 1.1-2.32 1.2-1.37.1-2.42-.6-3.26-1.4-.42-.4-1.37-.2-1.16.4.74 2.3 4.42 3.2 6.73 1.9 1.16-.6.87-1.1 2.55-1.2 1.58-.1 2.3.94 3.24 1.8.84.7 2.1 1 3.37.8 1.47-.3 1.58-1.3 2.63-2 2-1.4 4.31 1.4 6.1 1.9 2.84.8 6.73-.5 7.05-2.9.1-1-1.37-1.4-1.68-.6z" fill="#ff5027" stroke-width="none" opacity="1" stroke="none"></path></g></g><g id="svga-group-eyes-left-move" transform="matrix(1,0,0,1,0,0)"><g id="svga-group-eyes-left" transform="matrix(1,0,0,1,0,0)"><g id="svga-group-eyesback-left"><path id="SvgjsPath158073" d="M80.2 74.2c7.5 0 13.5 5.8 13.5 13s-6 13-13.5 13-13.5-5.8-13.5-13 6-13 13.5-13z" fill="#ffffff" stroke-width="none" opacity="1"></path></g><g id="svga-group-eyesiriswrapper-left" transform="matrix(1,0,0,1,0,0)"><g id="svga-group-eyesiriscontrol-left" transform="matrix(1,0,0,1,0,0)"><g id="svga-group-eyesiris-left" transform="matrix(1,0,0,1,0,0)"><path id="SvgjsPath158129" d="M80.2 81.9c2.9 0 5.3 2.4 5.3 5.3s-2.4 5.3-5.3 5.3-5.3-2.4-5.3-5.3 2.4-5.3 5.3-5.3z" fill="#7b5c33" stroke-width="none" opacity="1"></path><path id="SvgjsPath158130" d="M80.2 81.6c-3.1 0-5.6 2.5-5.6 5.6s2.5 5.6 5.6 5.6 5.6-2.5 5.6-5.6c0-3-2.5-5.6-5.6-5.6zm4.7 7.5c-.6-.3-1.2-.6-1.8-.8.1-.2.2-.5.2-.8.6.1 1.3.1 1.9.1 0 .6-.1 1.1-.3 1.5zm-.4.7c-.5-.4-1.1-.8-1.7-1.1 0-.1.1-.1.1-.2.6.3 1.2.6 1.8.8 0 .2-.1.3-.2.5zm.1-5c-.6.1-1.3.4-1.8.8 0-.1-.1-.1-.1-.2.2-.2.5-.3.7-.5.3-.2.6-.5.9-.7l.3.6zm.3.8c-.6.1-1.3.3-1.9.6 0-.1-.1-.2-.1-.3.3-.1.6-.3.9-.4s.6-.2.9-.4c.1.1.2.3.2.5zm-1.6 1.6c0-.3 0-.6-.1-.8.6-.1 1.3-.3 1.9-.5.1.4.2.9.2 1.3h-2zm.8-3.2c-.3.2-.6.5-.9.7-.2.2-.4.3-.7.5l-.3-.3c.4-.5.8-1.1 1.1-1.6.3.2.5.5.8.7zm-3.6 6.3c.2 0 .4-.1.7-.2.1.3.3.7.4 1s.2.6.4.8c-.4.2-.9.3-1.4.3 0-.6 0-1.3-.1-1.9zm1.4-7.8c.4.2.9.4 1.2.6-.4.5-.8 1-1.2 1.6-.1-.1-.2-.1-.3-.2.2-.7.3-1.4.3-2zm-1.5-.3c.4 0 .8.1 1.1.2-.1.5-.1 1-.2 1.5 0 .2-.1.3-.1.5-.2-.1-.4-.1-.6-.1.1-.8 0-1.5-.2-2.1zm1.5 8.8c-.2-.3-.3-.7-.5-1 .1 0 .1-.1.2-.1.1.3.3.6.5.9.1.3.3.6.5.8-.1.1-.2.1-.3.2-.1-.3-.2-.5-.4-.8zm.5-.3c-.2-.3-.3-.6-.5-.8.1-.1.2-.1.3-.2.3.6.7 1.1 1.2 1.6-.1.1-.3.2-.4.3-.2-.4-.5-.7-.6-.9zm-2.1-8.5c-.1.6-.1 1.3-.1 2h-.4c0-.2-.1-.4-.1-.6-.1-.4-.1-.9-.2-1.3.2 0 .4-.1.6-.1h.2zm-2.7.7c.3.6.6 1.2 1.1 1.7-.1.1-.2.1-.2.2-.1-.1-.2-.3-.3-.4-.3-.4-.6-.8-.9-1.1 0-.2.2-.3.3-.4zm2 1.3c-.1 0-.2 0-.2.1-.2-.6-.4-1.3-.6-1.9.2-.1.4-.1.6-.2-.1.7 0 1.4.2 2zm-.6.2s-.1 0 0 0l-1.2-1.5c.2-.1.5-.2.7-.3.2.5.3 1.2.5 1.8zm-.4 5.5c.1 0 .1.1.2.1-.1.2-.2.3-.2.4-.2.4-.4.9-.6 1.3l-.6-.3c.3-.3.5-.6.8-.9.1-.2.3-.4.4-.6zm.3.6c.1-.1.1-.3.2-.4h.1c-.3.6-.4 1.2-.6 1.9-.2-.1-.3-.1-.5-.2.4-.4.6-.9.8-1.3zm.7-.3c.1 0 .2 0 .3.1-.2.6-.2 1.3-.3 1.9-.2 0-.5-.1-.7-.1.2-.6.5-1.2.7-1.9zM77 83.4c.2.4.5.7.8 1 .1.2.3.4.4.5l-.4.4c-.5-.4-1.1-.8-1.6-1.1.2-.3.5-.6.8-.8zm-1.2 6.3 1.5-.9c.1 0 .1-.1.2-.1.1.1.2.3.3.4-.5.4-.9.9-1.4 1.4-.2-.2-.4-.5-.6-.8zm-.4-1.1c.4-.1.8-.2 1.1-.4.2-.1.5-.2.7-.3 0 .2.1.3.1.5-.1.1-.2.1-.3.2-.5.3-.9.6-1.3.9l-.3-.9zm-.2-1.4c0-.2 0-.3.1-.5.6.2 1.3.3 1.9.3v.5c-.3.1-.6.2-.9.4s-.7.2-.9.4c-.2-.4-.2-.7-.2-1.1zm.2-1.5c.4.2.9.4 1.3.6.2.1.3.2.5.2 0 .1 0 .2-.1.3-.2 0-.3-.1-.5-.1-.5-.1-1-.2-1.4-.1.1-.4.1-.7.2-.9zm.7-1.4c.5.4 1 .9 1.6 1.2-.1.2-.2.3-.3.5H77l-1.5-.6c.2-.4.3-.7.6-1.1zm.4 6.4c.5-.4 1-.8 1.5-1.3l.3.3c-.2.2-.3.4-.4.6-.2.3-.5.7-.7 1-.3-.2-.5-.4-.7-.6zm3.4 1.5c.1-.7.2-1.3.2-2h.2c-.1.6-.1 1.3 0 2h-.1c-.1.1-.2 0-.3 0zm3.7-1.2c-.4-.5-.9-1-1.3-1.5.2-.2.4-.4.5-.6.5.4 1.1.8 1.6 1.1-.2.4-.5.7-.8 1z" fill="#5c3d14" stroke-width="none" opacity="1"></path><path id="SvgjsPath158131" d="M80.2 84.3c1.6 0 2.9 1.3 2.9 2.9s-1.3 2.9-2.9 2.9-2.9-1.3-2.9-2.9 1.3-2.9 2.9-2.9z" fill="#000000" stroke-width="none" opacity="1"></path><path id="SvgjsPath158132" d="M78.6 84.7c.6 0 1.1.5 1.1 1.1s-.5 1.2-1.1 1.2-1.1-.5-1.1-1.1.5-1.2 1.1-1.2zm3.5 4.1c.3 0 .6.3.6.6s-.2.6-.6.6-.6-.3-.6-.6.3-.6.6-.6z" fill="#ffffff" stroke-width="none" opacity="1"></path></g></g></g><g id="svga-group-eyesfront-left"><path id="SvgjsPath158081" d="M80.2 73.7c-7.8 0-14.1 6.1-14.1 13.6s6.3 13.6 14.1 13.6 14.1-6.1 14.1-13.6S88 73.7 80.2 73.7zm7 20.8c-2.8 3.7-12.1 3-14 1.9-1.8-1.1-4.5-5.7-4.1-9.1 4.2-2.7 12.6-3.6 14.8-3.4 1.6.1 4.7 1.1 6.5 1.7-.3 2.3-1.2 6.4-3.2 8.9z" fill="#ffd0bc" stroke-width="none" opacity="1" stroke="none"></path><path id="SvgjsPath158082" d="M91.8 86c-1.9-.7-3.9-1.4-5.9-1.9l-1.5-.3c-.5-.1-1.1-.1-1.6-.1-1 0-2.1.1-3.1.2-2.1.2-4.1.6-6.1 1.2-1.8.6-3.7 1.2-5.3 2.4-.2-1.4-.3-2.8-.2-4.2 0-.4.1-.8.1-1.1.1-.3.2-.7.4-1 .4-.7.9-1.2 1.4-1.8 1-1.1 2.2-2.2 3.5-3 .2-.1.3-.2.5-.3.2-.1.3-.1.5-.2.4-.1.7-.1 1.1-.1.8 0 1.5.1 2.3.2 1.5.2 3.1.5 4.6.9 1.5.4 3 .8 4.4 1.6.7.4 1.3.9 1.8 1.4.6.5 1.1 1.1 1.5 1.8 1 1.2 1.5 2.7 1.6 4.3-.1-1.6-.5-3.1-1.3-4.5s-2-2.5-3.3-3.3c-1.4-.8-2.9-1.2-4.4-1.7-1.5-.4-3.1-.7-4.6-.9-.8-.1-1.6-.2-2.4-.2-.4 0-.8 0-1.2.1-.2 0-.4.1-.6.2-.2.1-.4.2-.5.3-1.4.8-2.6 1.9-3.7 3.1-.5.6-1.1 1.2-1.5 1.9-.2.3-.4.8-.5 1.2-.1.4-.1.8-.2 1.2-.1 1.6.1 3.2.3 4.8l.1.5.4-.3c.2-.1.3-.2.5-.4v.1c0 .7.1 1.3.3 1.9.3 1.2.8 2.4 1.5 3.5s1.4 2.2 2.5 2.9c.6.4 1.2.5 1.8.7.3.1.6.1.9.2l.9.1c2.5.2 5.1.2 7.6-.6 1.2-.4 2.4-1.1 3.2-2.2.8-1.1 1.3-2.2 1.7-3.4.6-1.8 1-3.6 1.2-5.5.5 0 .9.2 1.3.3zm-3 4.9c-.4 1.2-1 2.3-1.7 3.3s-1.8 1.6-3 2c-1.2.4-2.4.7-3.6.8-1.2.1-2.5.2-3.8.1-.6-.1-1.2-.1-1.9-.3-.6-.1-1.2-.3-1.7-.7-1-.7-1.7-1.8-2.3-2.9-.6-1.1-1-2.3-1.3-3.5-.1-.6-.2-1.2-.2-1.8v-.5c1.3-.8 2.9-1.4 4.4-1.9 2-.6 4-1 6-1.3 2-.2 4.1-.6 6.1 0 1.5.3 3 .8 4.4 1.2-.2 1.9-.7 3.8-1.4 5.5z" fill="#092e0c" stroke-width="none" opacity="1" stroke="none"></path></g></g></g><g id="svga-group-eyes-right-move" transform="matrix(1,0,0,1,0,0)"><g id="svga-group-eyes-right" transform="matrix(1,0,0,1,0,0)"><g id="svga-group-eyesback-right"><path id="SvgjsPath158074" d="M119.8 74.2c7.5 0 13.5 5.8 13.5 13s-6 13-13.5 13-13.5-5.8-13.5-13 6-13 13.5-13z" fill="#ffffff" stroke-width="none" opacity="1"></path></g><g id="svga-group-eyesiriswrapper-right" transform="matrix(1,0,0,1,0,0)"><g id="svga-group-eyesiriscontrol-right" transform="matrix(1,0,0,1,0,0)"><g id="svga-group-eyesiris-right" transform="matrix(1,0,0,1,0,0)"><path id="SvgjsPath158133" d="M119.8 82.5c2.6 0 4.7 2.1 4.7 4.7s-2.1 4.7-4.7 4.7-4.7-2.1-4.7-4.7 2.1-4.7 4.7-4.7z" fill="#7b5c33" stroke-width="none" opacity="1"></path><path id="SvgjsPath158134" d="M119.8 82.3c-2.7 0-4.9 2.2-4.9 4.9s2.2 4.9 4.9 4.9 4.9-2.2 4.9-4.9-2.2-4.9-4.9-4.9zm4.1 6.6c-.5-.3-1.1-.5-1.6-.7.1-.2.1-.4.2-.7.6.1 1.2.1 1.7.1-.1.4-.1.9-.3 1.3zm-.3.5c-.4-.3-.9-.7-1.4-.9 0-.1.1-.1.1-.2.5.3 1 .5 1.6.7-.2.2-.2.3-.3.4zm.1-4.3c-.5.1-1.1.4-1.6.7 0-.1-.1-.1-.1-.2.2-.1.4-.3.6-.4.3-.2.5-.4.8-.6 0 .2.2.3.3.5zm.2.7c-.6.1-1.1.3-1.6.5 0-.1-.1-.2-.1-.3.3-.1.5-.2.8-.3.3-.1.6-.2.8-.3 0 .1.1.2.1.4zm-1.4 1.4c0-.2 0-.5-.1-.7.6-.1 1.1-.2 1.7-.4.1.4.2.8.2 1.2-.6-.1-1.2-.1-1.8-.1zm.7-2.8c-.3.2-.5.4-.8.6-.2.1-.4.3-.6.4l-.3-.3c.4-.4.7-.9 1-1.4l.7.7zm-3.1 5.5c.2 0 .4-.1.6-.1.1.3.2.6.4.9.1.2.2.5.3.7-.4.2-.8.2-1.2.3 0-.7 0-1.2-.1-1.8zm1.2-6.8c.4.1.8.3 1.1.6-.4.4-.7.9-1 1.4-.1-.1-.2-.1-.3-.2.1-.6.2-1.3.2-1.8zm-1.3-.3c.3 0 .7.1 1 .2-.1.4-.1.9-.2 1.3 0 .1-.1.3-.1.4-.2-.1-.3-.1-.5-.1 0-.6-.1-1.2-.2-1.8zm1.3 7.8c-.1-.3-.3-.6-.4-.9.1 0 .1-.1.2-.1.1.3.3.5.4.8.1.2.2.5.4.7-.1 0-.2.1-.2.1-.1-.2-.3-.4-.4-.6zm.4-.4c-.2-.2-.3-.5-.5-.7.1-.1.2-.1.3-.2.3.5.6.9 1 1.4-.1.1-.2.2-.4.3-.1-.3-.3-.6-.4-.8zm-1.8-7.4c-.1.6-.1 1.1 0 1.7h-.4c0-.2-.1-.3-.1-.5-.1-.4-.1-.8-.2-1.2h.7c-.1 0 0 0 0 0zm-.7 1.8c-.1 0-.1 0-.2.1-.1-.6-.3-1.1-.5-1.6.2-.1.4-.1.6-.1-.1.4 0 1 .1 1.6zm-.4.1c0 .1-.1.1 0 0-.3-.5-.7-.9-1.1-1.4l.6-.3c.1.6.3 1.2.5 1.7zm-.3.2c-.1 0-.2.1-.2.1-.1-.1-.2-.2-.3-.4-.3-.3-.5-.7-.8-.9.1-.1.3-.2.4-.3.2.5.5 1.1.9 1.5zm-.1 4.6c.1 0 .1.1 0 0 0 .2 0 .4-.1.5-.2.4-.4.8-.5 1.2-.2-.1-.4-.2-.5-.3.2-.3.5-.6.7-.8.1-.2.3-.4.4-.6zm.3.6c.1-.1.1-.2.2-.3h.1c-.2.5-.4 1.1-.5 1.6-.1-.1-.3-.1-.4-.1l.6-1.2zm.5-.3h.3c-.2.5-.2 1.1-.2 1.7-.2 0-.4-.1-.6-.1.2-.5.4-1 .5-1.6zm-2.2-5.9c.2.3.4.6.7.9.1.2.2.3.4.5l-.3.3c-.4-.4-.9-.7-1.4-1 .1-.3.3-.5.6-.7zm-1 5.5c.4-.2.9-.5 1.3-.8.1 0 .1-.1.2-.1.1.1.1.2.2.3l-1.2 1.2c-.2-.1-.4-.3-.5-.6zm-.4-1c.3-.1.7-.2 1-.3l.6-.3c0 .1.1.3.1.4-.1.1-.2.1-.3.2-.4.3-.8.5-1.2.8 0-.2-.1-.5-.2-.8zm-.2-1.2v-.4c.5.2 1.1.2 1.7.3v.4c-.3.1-.5.2-.8.3-.3.1-.6.2-.8.3-.1-.3-.1-.6-.1-.9zm.2-1.4c.4.2.8.3 1.1.5.1.1.3.1.4.2 0 .1 0 .2-.1.2-.2 0-.3 0-.4-.1-.4-.1-.8-.1-1.3-.1.2-.2.2-.4.3-.7zm.6-1.1c.4.4.9.8 1.4 1.1-.1.1-.2.3-.2.4-.1 0-.2-.1-.3-.1-.4-.2-.9-.4-1.3-.5 0-.3.2-.6.4-.9zm.4 5.5c.4-.4.9-.7 1.3-1.2l.3.3c-.1.2-.3.3-.4.5l-.6.9c-.2-.1-.4-.3-.6-.5zm3 1.4c.1-.6.2-1.2.1-1.7h.2c-.1.6-.1 1.2 0 1.7H119.6zm3.1-1.1c-.4-.4-.8-.8-1.1-1.3.2-.2.3-.3.4-.5.5.3.9.7 1.4 1-.1.3-.4.5-.7.8z" fill="#5c3d14" stroke-width="none" opacity="1"></path><path id="SvgjsPath158135" d="M119.8 84.7c1.4 0 2.5 1.1 2.5 2.5s-1.1 2.5-2.5 2.5-2.5-1.1-2.5-2.5 1.1-2.5 2.5-2.5z" fill="#000000" stroke-width="none" opacity="1"></path><path id="SvgjsPath158136" d="M118.4 85c.5 0 1 .4 1 1s-.4 1-1 1-1-.4-1-1 .4-1 1-1zm3.1 3.6c.3 0 .5.2.5.5s-.2.5-.5.5-.5-.2-.5-.5.2-.5.5-.5z" fill="#ffffff" stroke-width="none" opacity="1"></path></g></g></g><g id="svga-group-eyesfront-right"><path id="SvgjsPath158083" d="M119.8 73.7c-7.8 0-14.1 6.1-14.1 13.6s6.3 13.6 14.1 13.6 14.1-6.1 14.1-13.6-6.3-13.6-14.1-13.6zm5.8 21.6c-1.8.9-10 .5-12.1-2.9-1.5-2.5-1.9-6.4-1.9-8.4 1.6.2 4.4.4 5.9.5 1.9.1 8.7 1.8 12.6 3.1.1 2.9-2.8 6.8-4.5 7.7z" fill="#ffd0bc" stroke-width="none" opacity="1" stroke="none"></path><path id="SvgjsPath158086" d="M131.6 86c0-.7-.2-1.3-.4-2-.5-1.2-1.2-2.3-2-3.4-.4-.5-.8-1-1.3-1.5-.2-.2-.5-.4-.8-.6s-.6-.3-.9-.4c-1.2-.5-2.4-.9-3.7-1.3-1.3-.3-2.6-.6-3.9-.6-.7 0-1.3.1-2 .4-.6.3-1.1.7-1.6 1.1-1 .8-2 1.7-2.8 2.7-.8 1-1.5 2.2-1.7 3.4.3-1.3 1-2.4 1.8-3.3.8-1 1.8-1.8 2.9-2.6.5-.4 1.1-.7 1.6-1 .6-.2 1.2-.3 1.8-.3 1.3 0 2.5.3 3.8.6 1.2.3 2.4.8 3.6 1.3.3.1.6.3.8.4.3.2.5.3.7.6.4.4.9.9 1.2 1.4.8 1 1.4 2.1 1.9 3.3.4 1 .5 2.2.4 3.3-1.6-.6-3.2-1-4.8-1.5-1.7-.5-3.4-.9-5.2-1.3-.9-.2-1.7-.4-2.6-.5-.9-.1-1.8-.1-2.7-.2-1.8-.1-3.5-.2-5.3-.4.3.1.7.1 1 .1 0 1.8.2 3.5.6 5.3.3 1.1.6 2.2 1.2 3.2.6 1.1 1.6 1.7 2.6 2.2 2.1.9 4.4 1.2 6.6 1.2h.8c.3 0 .6 0 .8-.1.6-.1 1.1-.1 1.7-.4 1-.6 1.8-1.4 2.4-2.3.7-.9 1.2-1.9 1.6-2.9.2-.5.4-1.1.4-1.7v-.4c.3.1.5.2.8.3l.3.1.1-.3c.3-.6.3-1.3.3-1.9zm-1.8 2.3c0 .5-.2 1.1-.4 1.6-.4 1-.8 2-1.5 2.9-.6.9-1.3 1.8-2.3 2.3-.5.2-1 .3-1.6.4-.6.1-1.1.1-1.7.1-1.1 0-2.2-.2-3.3-.4-1.1-.2-2.1-.6-3.1-1.1-1-.5-1.9-1.1-2.4-2-.6-.9-.9-2-1.2-3-.4-1.7-.7-3.4-.8-5.1 1.4.2 2.7.3 4.1.5.9.1 1.8.1 2.6.3.9.2 1.7.3 2.6.6 1.7.4 3.4.9 5.1 1.4 1.2.4 2.5.7 3.7 1.2.2-.1.2.1.2.3z" fill="#092e0c" stroke-width="none" opacity="1" stroke="none"></path></g></g></g><g id="svga-group-facehighlight-single"></g><g id="svga-group-eyebrows-left-move" transform="matrix(1,0,0,1,0,0)"><g id="svga-group-eyebrows-left-rotate" transform="matrix(1,0,0,1,0,0)"><g id="svga-group-eyebrows-left" transform="matrix(1,0,0,1,0,0)"><path id="SvgjsPath157998" d="M91.2 73.1s-11.8 1.1-14.3 1.1c-2.6.1-8.5.5-8.5.5s-1-3.4-.3-4.1c.7-.7 9.8-2.8 9.8-2.8l1.2.5-.1-.8s6-.5 7.3-.5h2.8l-.3 1.6 1.4-1.6.8 1 .7-.8s.4.8.1 2.5c-.2 1.6-.6 3.4-.6 3.4z" fill="#543c32" stroke-width="none" opacity="1"></path><path id="SvgjsPath157999" d="m91.9 67.1-.1-.2-.2.2-.6.6-.1-.1c.2-.4.4-.9.5-1.3-.3.4-.5.8-.7 1.2l-.4-.5-.2-.2-.1.2-.8.9.2-.8v-.3H86.7c-.8 0-1.7 0-2.5.1-1.7.1-3.5.3-5.2.4h-.3v.6l-.7-.3h-.2c-2.5.6-5 1.3-7.5 2-.6.2-1.2.4-1.8.7-.2.1-.3.1-.4.2-.2.1-.2.3-.2.4-.1.3-.1.5-.1.8 0 1.1.3 2.1.5 3v.1h.1c2.1-.1 4.2-.2 6.2-.3l1.5-.1c.5 0 1 0 1.5-.1 1 0 1.9-.1 2.9-.2 1.9-.2 3.7-.3 5.5-.5l2.7-.3 1.3-.2.7-.1h.6V72.7l.1-.3.2-.7.3-1.5c.1-.5.2-1 .2-1.5v-.8c-.1-.2-.1-.5-.2-.8zm-.3 3.2c-.1.5-.2 1-.2 1.5l-.1.7-.1.3V73.1H90l-1.3.1-2.7.2c-1.8.1-3.7.3-5.6.4l-2.9.2c-.5 0-1 .1-1.5.1l-1.5.1c-2 .1-4 .3-6.1.5-.3-.9-.5-1.9-.5-2.9 0-.3 0-.5.1-.8 0-.1.1-.2.2-.3.1-.1.2-.1.4-.2l1.8-.6c1.2-.3 2.5-.6 3.7-1 1.2-.3 2.4-.6 3.6-.8l1.1.5.4.2v-1c1.6-.1 3.3-.3 4.9-.4.8-.1 1.7-.1 2.5-.1h2.1l-.2 1.3-.1.8.6-.6 1.2-1.3.4.4c-.2.5-.5 1-.6 1.6.3-.4.6-.9.8-1.4l.1.1.1.1.2-.2.5-.5c0 .1.1.3.1.4v.8c0 .5-.1 1-.2 1.5zm-6.4-.4.6-2.4c-.1.8-.2 1.6-.4 2.4l-.3 1.2c-.1.4-.2.7-.4 1.1l-.2.3v-.3c-.1-.6-.2-1.2-.4-1.8l-.3-1.6-.8 1.4c-.1.3-.3.6-.5.9-.2.3-.3.6-.5.8.1-.3.3-.6.4-.9.1-.3.3-.6.4-.9l.9-1.8.2-.3.1.3.4 1.9.3 1.5c.1-.2.2-.5.3-.7 0-.3.1-.7.2-1.1z" fill="#452c22" stroke-width="none" opacity="1"></path></g></g></g><g id="svga-group-eyebrows-right-move" transform="matrix(1,0,0,1,0,0)"><g id="svga-group-eyebrows-right-rotate" transform="matrix(1,0,0,1,0,0)"><g id="svga-group-eyebrows-right" transform="matrix(1,0,0,1,0,0)"><path id="SvgjsPath158000" d="M110.7 74.9s12-.3 14.3-.6 7.6-.5 7.6-.5-.1-3.6-.8-4.2c-.7-.6-8.3-1.8-8.3-1.8l-.9.6v-.7s-5.2 0-6.3.1-2.6.2-2.6.2l.1 1.5-1.2-1.4-.9.9-.6-.7s-.5.8-.5 2.6c-.1 1.9.1 4 .1 4z" fill="#543c32" stroke-width="none" opacity="1"></path><path id="SvgjsPath158001" d="M110.7 74.9H112l1.4-.1 2.8-.2c1.8-.1 3.7-.2 5.5-.3l2.7-.1c.4 0 .9-.1 1.4-.1l1.4-.1c1.8-.1 3.7-.1 5.5-.2l-.1.1c0-1.1-.1-2.2-.4-3.2-.1-.3-.1-.5-.3-.7-.1-.1-.1-.2-.2-.3-.1-.1-.2-.1-.4-.1-.5-.2-1-.3-1.6-.4-1.1-.2-2.1-.4-3.2-.6s-2.1-.3-3.2-.5h.2l-.9.6-.4.2v-1.1l.2.2c-1.5 0-3 0-4.5.1-.8 0-1.5 0-2.2.1l-2.2.2.2-.3.1 1.5.1.8-.5-.6-1.2-1.4h.3l-.9.9-.2.2-.1-.2-.6-.7h.3c-.1.2-.2.5-.3.7s-.1.5-.2.8c-.1.5-.1 1.1-.1 1.6V74.7l.3.2zm0 .1c-.1 0-.1-.1 0 0v-.8l-.1-.8c0-.5-.1-1.1-.1-1.6v-1.7c0-.3.1-.6.1-.8.1-.3.1-.5.3-.8l.1-.2.2.2.6.7h-.3l.9-.9.2-.2.2.2 1.2 1.4-.4.2-.1-1.5v-.2h.3l2.2-.2c.8-.1 1.5-.1 2.2-.1h4.7V68.8l-.4-.2.9-.6.1-.1h.1c2.1.4 4.2.8 6.4 1.2.5.1 1.1.3 1.6.4.1.1.3.1.4.2l.3.3c.1.2.2.5.3.8.2 1.1.3 2.1.4 3.2h-.1c-1.8.1-3.7.2-5.5.4l-1.4.1c-.4.1-.9.1-1.4.1-.9.1-1.8.1-2.8.2-1.8.1-3.7.1-5.5.2h-5.6zm4.5-5.9c.2.8.3 1.6.5 2.4l.3 1.2c.1.4.2.8.4 1.1l-.2.1.3-2.1.4-2.1.1-.3.2.3.9 1.7c.2.3.3.6.4.9.1.3.3.6.4.9-.2-.3-.3-.6-.5-.8s-.3-.6-.5-.8l-.9-1.7h.2l-.3 2.1-.3 2.1-.1.3-.2-.3c-.2-.4-.3-.8-.4-1.2-.1-.4-.2-.8-.2-1.2-.3-.9-.4-1.7-.5-2.6zm-2.3 4.7-.9-1.5c-.3-.5-.5-1.1-.6-1.6l.9 1.5c.3.5.4 1 .6 1.6z" fill="#452c22" stroke-width="none" opacity="1"></path></g></g></g><g id="svga-group-beardwrap" transform="matrix(1,0,0,1,0,0)"><g id="svga-group-beard-single-move" transform="matrix(1,0,0,1,0,0)"><g id="svga-group-beard-single" transform="matrix(1,0,0,1,0,0)"></g></g></g><g id="svga-group-mustache-single-move" transform="matrix(1,0,0,1,0,0)"><g id="svga-group-mustache-single" transform="matrix(1,0,0,1,0,0)"></g></g><g id="svga-group-nose-single-move" transform="matrix(1,0,0,1,0,0)"><g id="svga-group-nose-single" transform="matrix(1,0,0,1,0,0)"><path id="SvgjsPath158177" d="M94.01 101.77c-.25.14-5.57 3.17-5.76 7.01-.19 3.84 2.21 5.19 4.23 3.55 2.02-1.63 2.69-1.25 3.94-.19s4.8 1.63 6.24.48c1.44-1.15 2.11-1.63 3.74 0 1.63 1.63 6.05-.77 4.61-5.95-1.44-5.19-11.62-7.88-17-4.9z" fill="url(#SvgjsLinearGradient158178)" opacity="1"></path><path id="SvgjsPath158181" d="M94.01 101.77c-1.1.65-2.14 1.42-3.07 2.3-.93.88-1.75 1.9-2.23 3.08-.14.29-.19.6-.28.91-.03.16-.04.31-.06.47-.02.16-.04.31-.03.47-.02.63.07 1.27.25 1.86.18.59.49 1.15.96 1.53.46.39 1.08.49 1.64.36.14-.03.28-.1.42-.14.13-.07.26-.14.39-.22l.36-.27c.13-.1.25-.21.38-.31.53-.38 1.09-.81 1.87-.87.39-.02.77.1 1.08.28.31.17.57.38.83.59.45.38 1.01.59 1.6.76 1.16.32 2.47.42 3.56.08.28-.08.5-.21.72-.36.25-.2.51-.41.79-.6s.6-.39 1-.49c.41-.1.87-.03 1.21.14.35.17.64.38.89.61.13.11.25.23.37.35.11.1.18.16.29.23.42.24.99.24 1.52.05 1.07-.37 1.91-1.36 2.24-2.49.36-1.13.27-2.42-.08-3.59-.37-1.15-1.18-2.16-2.16-2.94-.98-.79-2.11-1.4-3.29-1.87-1.19-.46-2.43-.79-3.69-.97-1.27-.17-2.56-.22-3.83-.06-1.26.15-2.52.5-3.65 1.11zm0 0c1.13-.62 2.38-.98 3.66-1.14 1.27-.17 2.57-.17 3.85-.03 2.55.29 5.11 1.06 7.23 2.61 1.05.77 1.98 1.8 2.45 3.09.23.64.36 1.29.42 1.96.05.67.01 1.36-.19 2.03-.37 1.32-1.3 2.56-2.68 3.06-.67.24-1.5.3-2.21-.1-.09-.05-.17-.11-.25-.17-.07-.06-.16-.14-.22-.19-.11-.1-.22-.22-.33-.31-.22-.2-.46-.36-.69-.47a.97.97 0 0 0-.66-.09c-.22.05-.47.19-.71.35-.25.17-.49.36-.74.56-.31.22-.65.41-.99.5-.69.21-1.38.24-2.05.2a8.96 8.96 0 0 1-1.98-.36c-.63-.2-1.29-.49-1.81-.96-.47-.41-.95-.8-1.46-.79-.52.01-1.08.34-1.59.69-.13.09-.25.19-.38.28l-.42.29c-.15.08-.31.16-.46.23-.17.05-.33.12-.5.15-.68.14-1.45-.03-1.96-.51-.52-.46-.83-1.09-.99-1.72a6.39 6.39 0 0 1-.18-1.94c0-.16.02-.32.05-.49.03-.16.04-.32.08-.48.11-.31.17-.63.32-.92.24-.6.62-1.13 1-1.65.41-.5.84-.97 1.32-1.4.91-.88 1.96-1.64 3.07-2.28z" fill="#d17f5b" stroke-width="none" opacity="1" stroke="none"></path></g></g><g id="svga-group-hair-front" transform="matrix(1,0,0,1,0,0)"><path id="SvgjsPath158298" d="M76.1 30.7s-5-.6-11.9 4.5-9.5 13.2-10.1 21.1c-.6 7.9 2.6 20.4 5.6 28.4s2.3 25.1-6 38.5c0 0 6.7-7.8 8.7-17.6 0 0-.6 15.7-4.8 25.4 0 0 6.7-10.7 7.6-22.9 0 0 1.9 21.7-8.9 33.9 0 0 10.1-10.6 11.3-28 1.2-17.4-3.4-31.2-3.8-42.1s1-19.8 8.1-23.8c7-4 12.2-1.2 12.2-1.2s5.4 1.6 8.1-.4c0 0 6.3 2.6 14.1.3 0 0 8.4-.3 10.8-3.5 0 0 .9.6 2.8-.2 1.9-.7 5.3-2.2 12.5 6s6.9 20.2 6.3 24.6c-.6 4.4-4.4 19.1-4.5 29.6s4.4 27.7 13.9 35.2c0 0-10.7-12.6-8.6-26.4 0 0 1.3 13.6 10 25.1 0 0-7.6-12.2-7.3-25.8s2.9-50.3 2.8-55.7-.4-19.2-6.6-30.6S122.1 9 111.8 7.3s-17.8.3-23.6 3.1-9.5 8.1-11.1 12.3-1 8-1 8z" fill="#543c32" stroke-width="none" opacity="1" stroke="none"></path><path id="SvgjsPath158299" d="M140.9 130.4c-2-3.3-3.4-7-4.4-10.7-2-7.5-2-15.4-1-23.1 1-7.7 2.6-15.4 4.1-23.1 1.5-7.7 2.7-15.6 2.4-23.5-.1-4-.7-8-1.8-11.8-1.1-3.9-2.7-7.6-5-10.9-2.3-3.3-5.3-6.2-9-8-3.6-1.9-7.8-2.6-11.8-2.4-4 .2-7.9 1.1-11.7 2.6-3.7 1.5-7.2 3.4-10.3 6-1.5 1.3-2.8 2.9-3.8 4.6-1 1.7-1.6 3.7-1.8 5.7-.1 2 .2 4 1 5.8.4.9.9 1.8 1.6 2.5.7.7 1.4 1.3 2.3 1.8-.8-.5-1.6-1.2-2.2-1.9-.6-.8-1.1-1.6-1.4-2.5-.7-1.8-.9-3.8-.7-5.7.4-3.9 2.8-7.2 5.7-9.6 2.9-2.5 6.4-4.2 10.1-5.6 3.6-1.3 7.4-2.1 11.2-2.2 3.8-.1 7.6.7 11 2.4 2.6 1.3 4.9 3.2 6.7 5.5-1.1-.9-2.4-1.7-3.7-2.4-2.1-1-4.4-1.6-6.7-1.8-2.3-.1-4.7.3-6.9 1-4.4 1.5-8.3 4.6-10.5 8.7-1.2 2-1.9 4.3-1.9 6.6 0 1.2.1 2.3.6 3.4.4 1.1 1.1 2 2 2.7-1.5-1.7-1.9-4-1.6-6 .2-2.1 1.1-4.1 2.3-5.9 1.2-1.8 2.6-3.4 4.3-4.6 1.7-1.3 3.5-2.3 5.5-3 4-1.4 8.4-1.4 12.3.3 2.6 1.1 5 2.7 7 4.8 1.5 2.6 2.7 5.5 3.5 8.4-.9-1-1.9-1.9-3.1-2.5-1.3-.7-2.7-1.1-4.2-1.4-2.9-.4-5.8 0-8.5 1.1-1.3.6-2.6 1.3-3.6 2.4-1 1-1.7 2.4-1.8 3.8.5-1.3 1.4-2.3 2.4-3.1 1-.8 2.3-1.3 3.5-1.7 2.5-.7 5.1-1 7.7-.6 2.5.4 4.9 1.4 6.7 3.2.7.7 1.3 1.5 1.8 2.4.5 2.6.8 5.2.8 7.8.1 1.9.1 3.9 0 5.8l-.3-1.2c-.4-1.7-1.1-3.4-2-5-.9-1.6-2.1-3-3.4-4.2-1.4-1.2-3-2.2-4.7-2.8-3.4-1.2-7.4-1-10.3 1 1.1-.4 2.3-.7 3.4-.7 3.5 1.3 6.3 3.6 8.5 6.4 2.2 2.9 3.8 6.2 4.7 9.6.9 3.5 1.2 7.2 1.3 10.8.1 2.2 0 4.3 0 6.5-1.3 6.6-2.6 13.3-3.3 20.1-.8 7.8-.6 15.9 1.6 23.5 1.2 3.8 2.7 7.4 4.9 10.7 2.1 3.3 4.9 6.2 8.1 8.4-2.9-2.1-5.6-5-7.6-8.4zm-8.5-82c-2.5-2.8-5.9-4.9-9.6-5.5 2.2-.1 4.3.3 6.2 1.2 3 1.3 5.4 3.7 6.9 6.5 1.6 2.8 2.5 6.1 2.9 9.4.2 2.2.2 4.3.1 6.6v.3c0-2.8-.3-5.6-1-8.4-1.1-3.7-2.9-7.3-5.5-10.1zM77 33.7c-1.2-4.3-.6-8.9 1.5-12.7 2-3.9 5.2-7.1 9-9.2C91.3 9.6 95.6 8.4 100 8c8.7-.8 17.9.7 25.3 5.3 3.7 2.3 6.9 5.4 9.4 8.9 2.5 3.6 4.4 7.6 5.7 11.8s2.1 8.5 2.5 12.9c.4 4.4.3 8.8 0 13.3-.6 8.9-2.3 17.7-3.4 26.6-1.2 8.9-1.8 18-.5 26.9.7 4.5 1.8 8.9 3.5 13 1.8 4.2 4.1 8 7.2 11.3-2.9-3.4-5.1-7.4-6.7-11.5-1.6-4.2-2.5-8.6-3.1-13-.5-4.4-.6-8.9-.4-13.3.2-4.4.8-8.9 1.4-13.3 1.3-8.8 3-17.7 3.7-26.7.4-4.5.5-9 .1-13.6-.4-4.5-1.2-9-2.6-13.4-1.4-4.3-3.4-8.5-6.1-12.3-2.7-3.7-6.1-7-10-9.4-3.9-2.4-8.3-3.9-12.8-4.8-4.5-.8-9.1-1-13.6-.4s-9 1.9-12.9 4.2c-3.9 2.3-7.2 5.8-9.3 9.9-1 2.1-1.7 4.3-1.9 6.6-.2 2.3.1 4.6.7 6.8.7 2.2 1.8 4.2 3.3 5.9 1.5 1.7 3.4 3 5.4 3.9-3.8-1.8-6.7-5.6-7.9-9.9zm.2 12.1c-2.4.3-4.7 1.2-6.7 2.6-1 .7-1.9 1.5-2.7 2.4-.8.9-1.5 1.9-2.1 3-1.2 2.1-2 4.4-2.6 6.7-1 4.7-1.1 9.5-1.1 14.2.1 4.7.5 9.4 1 14.1 1 9.3 2.2 18.6 1.5 27.9-.3 4.6-1 9.2-2.4 13.6-.7 2.2-1.6 4.4-2.6 6.4-1.1 2.1-2.3 4-3.8 5.9 1.6-1.7 3-3.6 4.2-5.6 1.2-2 2.2-4.2 3.1-6.4 1.6-4.4 2.6-9.1 3.1-13.8 1-9.5-.2-18.9-1.1-28.2-.5-4.7-.9-9.3-1-13.9-.1-4.6 0-9.3.8-13.8.4-2.2 1.2-4.4 2.2-6.4.5-1 1.1-2 1.8-2.9.7-.9 1.5-1.7 2.4-2.4 1.8-1.4 3.9-2.4 6.2-2.8 2.2-.4 4.7-.1 6.8 1-2.1-1.4-4.6-1.9-7-1.6zm-18.5 62.1c-.7 3-1.6 5.9-2.6 8.7-1 2.9-2.3 5.7-3.6 8.5 2-2.4 3.7-5 5.1-7.9 1.4-2.8 2.4-5.8 3.1-8.9.6-2.7 1-5.4 1.1-8.1.1 2.2.1 4.5 0 6.7-.3 8.6-2 17.1-4.8 25.2 1.8-3.9 3.2-8.1 4.3-12.2 1.1-4.2 1.7-8.5 2.1-12.9.3-4.3.2-8.7-.2-13.1s-1.4-8.6-2.3-12.8c-1-4.2-1.9-8.4-2.4-12.6-.5-4.2-.5-8.5.4-12.6s2.8-8 5.8-11c1.5-1.5 3.2-2.8 5.1-3.7 1.9-.9 4-1.4 6.2-1.5-2.2-.2-4.4.2-6.4 1s-3.9 2-5.6 3.5c-1.6 1.5-3.1 3.2-4.2 5.2-1.1 1.9-1.9 4-2.5 6.2-1.1 4.3-1.2 8.8-.8 13.2.4 4.4 1.4 8.6 2.3 12.9.2 1.1.5 2.2.7 3.2-.7-2.8-1.5-5.7-2.2-8.5-1.4-6.2-2.5-12.4-2.3-18.6.1-1.5.2-3.1.4-4.6.2-1.5.6-3 1-4.5s1-2.9 1.6-4.3c.7-1.4 1.5-2.7 2.3-4 1.8-2.5 4-4.7 6.6-6.4 1.3-.8 2.7-1.6 4.2-2.1s3-.9 4.6-1.1c-1.6 0-3.2.2-4.8.6-1.6.4-3.1 1-4.5 1.8s-2.7 1.7-4 2.8c-1.2 1.1-2.3 2.3-3.4 3.5-1 1.3-1.9 2.7-2.7 4.1-.7 1.5-1.3 3-1.8 4.5-1 3.1-1.4 6.4-1.6 9.6-.1 3.2.2 6.5.7 9.7.5 3.2 1.2 6.3 2.2 9.4 1.4 4.9 3.1 9.6 4.7 14.3 0 2.7-.2 5.3-.4 7.9-.3 3-.7 6-1.4 8.9z" fill="#452c22" stroke-width="none" opacity="1" stroke="none"></path></g><g id="svga-group-glasses-single-move" transform="matrix(1,0,0,1,0,0)"><g id="svga-group-glasses-single" transform="matrix(1,0,0,1,0,0)"><path id="SvgjsPath158209" d="M79.1 71.7c9.4 0 17 7.6 17 17s-7.6 17-17 17-17-7.6-17-17 7.6-17 17-17z" fill="url(#SvgjsLinearGradient158210)" opacity="1"></path><path id="SvgjsPath158217" d="M121.5 71.7c9.4 0 17 7.6 17 17s-7.6 17-17 17-17-7.6-17-17 7.6-17 17-17z" fill="url(#SvgjsLinearGradient158218)" opacity="1"></path><path id="SvgjsPath158225" d="M142.6 84.9c-2.3-.1-3.8-1.8-4.6-3-2.7-6.4-9-11-16.4-11-8 0-14.7 5.3-17 12.5-.2 0-.5 0-.9-.1-1.3-.3-2.2-1.1-3.3-1.1-1.1 0-2 .8-3.3 1.1-.4.1-.7.1-.9.1-2.2-7.2-9-12.5-17-12.5-7.4 0-13.7 4.5-16.4 11-.8 1.2-2.3 2.9-4.6 3 0 0-.3 2.6-.1 4.9 0 0 2.7.4 3.8 3 1.8 7.8 8.9 13.7 17.3 13.7 9.5 0 17.2-7.5 17.7-16.8.8-2.4 2-3.4 2.7-3.8.5-.3 1-.3 1.5 0 .8.4 2 1.4 2.8 3.8.5 9.4 8.2 16.8 17.7 16.8 8.4 0 15.4-5.9 17.3-13.7 1.1-2.5 3.8-3 3.8-3 .2-2.3-.1-4.9-.1-4.9zm-61.4 19.8C70.6 106 61.7 97.1 63 86.6c.9-7.2 6.7-13 13.9-13.9 10.6-1.3 19.5 7.6 18.2 18.2-.9 7.1-6.7 12.9-13.9 13.8zm42.4 0c-10.6 1.3-19.5-7.6-18.2-18.2.9-7.2 6.7-13 13.9-13.9 10.6-1.3 19.5 7.6 18.2 18.2-.8 7.2-6.7 13-13.9 13.9z" fill="#2c2c2c" stroke-width="none" opacity="1"></path><path id="SvgjsPath158226" d="M142.8 87.3c0-.4 0-.8-.1-1.2 0-.4-.1-.8-.1-1.2-1-.1-1.9-.4-2.6-.9-.8-.6-1.4-1.3-1.9-2.1-1.4-3.4-3.8-6.3-6.9-8.3-3.1-2-6.8-3-10.4-2.8-3.7.2-7.3 1.5-10.2 3.7-2.9 2.2-5 5.3-6.1 8.7-.6 0-1.3-.2-1.9-.5-.7-.3-1.4-.7-2.2-.7-.8 0-1.5.4-2.2.7-.6.3-1.3.5-1.9.5-1.1-3.4-3.3-6.5-6.1-8.7-2.9-2.2-6.5-3.6-10.1-3.7-3.7-.2-7.3.8-10.4 2.8s-5.5 4.9-6.9 8.2c-.5.8-1.2 1.5-1.9 2-.8.5-1.7.9-2.6.9H58v.1c-.2 1.6-.2 3.3-.1 4.9v.1h.1c.8.2 1.6.5 2.2 1 .7.5 1.2 1.1 1.5 1.9 1 4.2 3.5 7.9 6.9 10.4s7.8 3.8 12.1 3.4c4.3-.4 8.4-2.3 11.3-5.4 3-3.1 4.8-7.2 5-11.5.3-.8.7-1.7 1.2-2.4.3-.3.6-.7.9-.9.4-.3.7-.5 1.1-.5s.8.2 1.1.5c.3.3.7.6.9.9.5.7.9 1.5 1.2 2.4.2 4.3 2 8.4 5 11.5s7.1 5.1 11.3 5.4c4.3.4 8.6-.8 12.1-3.4 3.4-2.5 6-6.3 6.9-10.4.3-.7.9-1.4 1.5-1.9s1.4-.9 2.2-1h.1v-.1c.3-.7.3-1.6.3-2.4zm-.2 2.4c-.8.2-1.6.5-2.2 1-.7.5-1.2 1.2-1.6 2-1 4.1-3.5 7.8-6.9 10.2-3.4 2.5-7.7 3.6-11.8 3.2-4.2-.4-8.1-2.3-11-5.4-2.9-3-4.7-7.1-4.9-11.2-.3-.9-.7-1.8-1.3-2.6-.3-.4-.6-.7-1-1s-.8-.6-1.4-.6-1.1.3-1.4.6c-.4.3-.7.7-1 1-.6.8-1 1.7-1.3 2.6-.2 4.2-2 8.2-4.9 11.2s-6.9 4.9-11 5.3c-4.2.4-8.4-.8-11.8-3.2-3.4-2.4-5.9-6.1-6.9-10.2-.4-.8-.9-1.5-1.6-2-.7-.5-1.4-.8-2.2-1-.4-1.5-.4-3.1-.2-4.6.9-.1 1.9-.4 2.6-.9.8-.6 1.4-1.3 2-2.1 1.4-3.3 3.8-6.2 6.9-8.1 3-1.9 6.7-2.9 10.3-2.7 3.6.2 7.1 1.5 9.9 3.7s5 5.3 6 8.7v.1h.1c.8.1 1.6-.2 2.2-.5.7-.3 1.3-.7 2-.7s1.3.4 2 .7c.7.3 1.4.6 2.2.6h.2l.1-.2c1.1-3.4 3.2-6.5 6-8.7s6.3-3.5 9.9-3.7 7.2.8 10.3 2.7c3 1.9 5.5 4.8 6.9 8.1.5.8 1.2 1.5 2 2.1s1.7.9 2.7.9l.1 1.2c0 .4 0 .8.1 1.2 0 .7 0 1.5-.1 2.3zm-47.2-3.2c-.5-4.3-2.9-8.3-6.3-10.9-3.4-2.7-7.9-3.7-12.1-3.2-2.1.3-4.2 1-6 2.1s-3.4 2.5-4.8 4.2c-1.3 1.7-2.3 3.6-2.9 5.7-.6 2.1-.7 4.2-.5 6.4.5 4.3 2.9 8.3 6.3 10.8 3.4 2.6 7.9 3.6 12.1 3.1s8.2-2.8 10.8-6.1c1.3-1.7 2.3-3.6 2.9-5.7.3-1 .5-2.1.5-3.2.1-.5.1-1.1 0-1.6 0-.5.1-1 0-1.6zm-3.6 11.9c-1.3 1.7-2.8 3.1-4.7 4.2-1.8 1.1-3.8 1.8-5.9 2.1-4.2.5-8.6-.7-11.8-3.3-3.3-2.6-5.5-6.4-6.1-10.6-.2-2.1-.2-4.2.3-6.2s1.5-4 2.7-5.6c2.5-3.4 6.5-5.6 10.7-6.1 4.2-.4 8.5.7 11.8 3.3 3.3 2.6 5.6 6.4 6.1 10.6.4 3.9-.6 8.3-3.1 11.6zm46-11.9c-.5-4.3-2.9-8.3-6.3-10.9-3.4-2.7-7.9-3.7-12.1-3.2-2.1.3-4.2 1-6 2.1s-3.4 2.5-4.8 4.2c-1.3 1.7-2.3 3.6-2.9 5.7s-.7 4.2-.5 6.4c.5 4.3 2.9 8.3 6.3 10.8 3.4 2.6 7.9 3.6 12.1 3.1s8.2-2.8 10.8-6.1c1.3-1.7 2.3-3.6 2.9-5.7.3-1 .5-2.1.5-3.2.1-.5.1-1.1 0-1.6.1-.5.1-1 0-1.6zm-3.6 11.9c-1.3 1.7-2.8 3.1-4.6 4.2s-3.8 1.8-5.9 2.1c-4.2.5-8.6-.7-11.8-3.3-3.3-2.6-5.5-6.4-6.1-10.6-.2-2.1-.2-4.2.3-6.2s1.4-4 2.7-5.6c2.5-3.4 6.5-5.6 10.7-6.1 4.2-.4 8.5.7 11.8 3.3 3.3 2.6 5.6 6.4 6.1 10.6.4 3.9-.6 8.3-3.2 11.6z" fill="#0d0d0d" stroke-width="none" opacity="1"></path></g></g></g></g></g><rect id="svga-credit-rect" width="200" height="15" x="0" y="185" fill="#ecf0f1" opacity="0.5" style="display: none;"></rect><text id="svga-credit-text" font-family="Avenir Next, Roboto, Helvetica, Arial, sans-serif" font-size="10px" text-anchor="start" font-weight="400" size="10px" anchor="start" weight="400" fill="#333333" x="33.41004180908203" y="182.53461003303528" style="display: none;"><tspan id="SvgjsTspan157539" dy="13" x="33.41004180908203">Created on AvatarMaker.com</tspan></text></g></svg>