<svg xmlns="http://www.w3.org/2000/svg" version="1.1" width="600px" height="600px" viewBox="0 0 200 200" style="overflow:hidden!important;"><defs id="SvgjsDefs127214"><linearGradient id="SvgjsLinearGradient127920" x1="76.749" y1="123.1046" x2="76.749" y2="96.0963" gradientTransform="matrix(1 0 0 -1 0 202)" gradientUnits="userSpaceOnUse" class="svga-on-canvas-glasses-gradient-single-0-null"><stop id="SvgjsStop127921" stop-opacity="1" stop-color="#899ba1" offset="0" ></stop><stop id="SvgjsStop127922" stop-opacity="0.6554" stop-color="#7490b3" offset="0.3446" ></stop><stop id="SvgjsStop127923" stop-opacity="0.2966" stop-color="#6589c0" offset="0.7034" ></stop><stop id="SvgjsStop127924" stop-opacity="0" stop-color="#6086c4" offset="1" ></stop></linearGradient><linearGradient id="SvgjsLinearGradient127926" x1="-1740.6141" y1="122.2748" x2="-1740.6141" y2="96.09" gradientTransform="matrix(-1 0 0 -1 -1618 202)" gradientUnits="userSpaceOnUse" class="svga-on-canvas-glasses-gradient-single-1-null"><stop id="SvgjsStop127927" stop-opacity="1" stop-color="#899ba1" offset="0" ></stop><stop id="SvgjsStop127928" stop-opacity="0.6554" stop-color="#7490b3" offset="0.3446" ></stop><stop id="SvgjsStop127929" stop-opacity="0.2966" stop-color="#6589c0" offset="0.7034" ></stop><stop id="SvgjsStop127930" stop-opacity="0" stop-color="#6086c4" offset="1" ></stop></linearGradient><linearGradient id="SvgjsLinearGradient128517" x1="100.1029" y1="84.5527" x2="100.1029" y2="114.9561" gradientUnits="userSpaceOnUse" class="svga-on-canvas-nose-gradient-single-0-null"><stop id="SvgjsStop128518" stop-opacity="0" stop-color="#f3c7ae" offset="0" ></stop><stop id="SvgjsStop128519" stop-opacity="1" stop-color="#dc9f7d" offset="1" ></stop></linearGradient></defs><g id="svga-group-wrapper"><g id="svga-group-backs-single"><path id="SvgjsPath128303" d="M0 0h200v200H0V0z" fill="#c5e0dc" stroke-width="none" opacity="1" stroke="none"></path><path id="SvgjsPath128304" d="M88.8 158.9s-21.3-3-23.6-17.1c-1.5-9.3 10.5-9.3 14.8-5.5 0 0 3.3-8.7 9.9-7.2 8.4 1.9 9.2 12.7-1.1 29.8zM38.7 51s14.9-16.3 6.8-30.1c-5.3-9.2-14.9-1.5-15.7 4.6 0 0-8.8-5.6-13 0-5.4 7 1.6 17 21.9 25.5zM168 165s-2.6-14.4 1.6-22.7 14.8-4 13.3 4.9c0 0 8.2-2 10.6 4.5 2.3 6.4-10 12.7-25.5 13.3zm6.6-139.5s5.2-1.9 5.9-4.8c.8-3-3-3.5-4.5-1.6 0 0-1.1-2.8-3.1-2.2-1.9.5-2.2 2.6 1.7 8.6z" fill="#83c1b8" stroke-width="none" opacity="1" stroke="none"></path><path id="SvgjsPath128305" d="M125 33.1s-13-1.2-19.2-6.8.1-13.7 7.4-10.3c0 0 .2-7.6 6.3-8 6.2-.5 8.7 11.5 5.5 25.1zm15.9 84.9s3.6-4.2 2.8-7.1c-.8-3-4.4-1.6-4.7.8 0 0-2.4-1.9-3.8-.4s-.6 3.4 5.7 6.7zm12.2 66.9s7.1-.7 9-4.2-2.7-5.4-5.2-3.4c0 0-.5-3.9-3.2-3.8s-3.6 2.7-.6 11.4zm-122.9 5.7s23.3-3.5 29-15.3-9.8-17.2-17.5-10.6c0 0-2.3-12.8-11-11.9s-11.7 9.5-.5 37.8zm3.5-106.7s3.3-12.8-1.5-18.3-11 1.3-9.3 6.7c0 0-7.1-1.6-8.5 3-1.4 4.8 2.3 8.2 19.3 8.6z" fill="#a3d1ca" stroke-width="none" opacity="1" stroke="none"></path><path id="SvgjsPath128306" d="M149.4 76.1s-24.7-19.3-16.5-40.8c5.4-14.2 20.6-5.7 23.2 2.7 0 0 11-10 18.2-3.2 9.1 8.6 1.6 24.4-24.9 41.3zm7 29.6s-4.5-12.3-2-20.2 12.4-5.8 12.4 2.3c0 0 6.9-3 10 2.3 3 5.4-6.9 12.7-20.4 15.6zM53.9 143.9s-13-1.2-19.2-6.8.1-13.7 7.4-10.3c0 0 .2-7.6 6.3-8s8.7 11.6 5.5 25.1zm89.6 23.3s-4.6-9.3-3.3-15.7c1.2-6.5 9.3-5.6 10 .8 0 0 5.2-3 8 1s-4.3 10.5-14.7 13.9zM65.3 46s5.8-6.7 4.5-11.4-7-2.5-7.5 1.2c0 0-3.8-3.1-6-.7-2.2 2.4-1 5.6 9 10.9zm-40.7 81.2s4.7-5.4 3.7-9.3-5.7-2-6.1 1c0 0-3.1-2.5-4.9-.6s-.8 4.6 7.3 8.9zm53 60.3s5.2-1.9 5.9-4.8-3-3.5-4.5-1.6c0 0-1.1-2.8-3.1-2.2-1.8.6-2.1 2.7 1.7 8.6zm47.7-12.7s4.7-5.4 3.7-9.3c-1-3.9-5.7-2-6.1 1 0 0-3.1-2.5-4.9-.6-1.9 2-.9 4.6 7.3 8.9zm-22.6-132s4.7-5.4 3.7-9.3-5.7-2-6.1 1c0 0-3.1-2.5-4.9-.6-1.9 2-.9 4.6 7.3 8.9zM77.3 94.4s8.8-4.2 9.6-9.5-5.9-5.6-8.2-2.1c0 0-2.5-4.8-5.8-3.3-3.2 1.4-3.4 5.1 4.4 14.9z" fill="#b3d8d3" stroke-width="none" opacity="1" stroke="none"></path></g><g id="svga-group-humanwrap-move" transform="matrix(1,0,0,1,0,0)"><g id="svga-group-humanwrap" transform="matrix(1,0,0,1,0,0)"><g id="svga-group-hair-back-move" transform="matrix(1,0,0,1,0,0)"><g id="svga-group-hair-back" transform="matrix(1,0,0,1,0,0)"></g></g><g id="svga-group-humanbody-back"><path id="SvgjsPath128392" d="M77.8 105.9s4.8 37.7 10 55.8c0 0-6.4 8.8-14.5 11.9-28.7 11.2-35 11.2-39.6 15.2-2.4 2.1.2 11.1 1.8 17.2 1.3 5 1.7 13.2 1.7 13.2h132.2s1.6-33-.6-39.8-7.1-2.9-21.9-4.5c-14.8-1.6-28.7-10.3-31-13.2l.3-60-38.4 4.2z" fill="#fbd5c0" stroke-width="none" opacity="1"></path></g><g id="svga-group-chinshadow-single"><path id="SvgjsPath128388" d="M85.6 152.8c6.6 3.5 10.7 3.5 10.7 3.5s8 0 19.6-9.5l.2-45.2-38.4 4.2c.1.1 3.6 27.7 7.9 47z" fill="#dc9f7d" stroke-width="none" opacity="1"></path></g><g id="svga-group-humanbody-front"><path id="SvgjsPath128393" d="M72.1 183.1s14.6-.2 20.4 2.6c5.8 2.9 12.7 2.4 16.1-1s21.6-7 21.6-7-19.7 1.9-25 4.6c-5.3 2.7-22.3-2.8-33.1.8z" fill="#dc9f7d" stroke-width="none" opacity="1"></path><path id="SvgjsPath128394" d="M74.2 173.2c6.7-1.3 14.7-6.4 14.7-6.4l6.2 5.5c-4.3-7.9-12.7-41.1-12.7-41.1l-.7.7c1.7 10.5 3.9 21.9 6.1 29.7 0 0-6 8.2-13.6 11.6z" fill="#dc9f7d" stroke-width="none" opacity="1"></path><path id="SvgjsPath128395" d="M170.7 188.5c-.1-2.1-.2-4.1-.4-6.2-.1-1-.3-2.1-.6-3.2-.2-.5-.4-1-.6-1.6-.2-.5-.6-1-1-1.5s-.9-.9-1.5-1.1c-.6-.3-1.1-.4-1.7-.6-1.1-.2-2.2-.2-3.2-.2-2.1 0-4.1.1-6.1.1s-4-.1-6-.2-4-.4-6-.7c-1-.2-2-.4-2.9-.6l-1.5-.4c-.5-.1-1-.3-1.4-.4-3.8-1.1-7.6-2.6-11.2-4.4l-1.3-.7-1.3-.7c-.4-.2-.9-.5-1.3-.8s-.9-.5-1.3-.8-.8-.5-1.3-.8l-1.2-.9-.6-.5-.3-.2-.3-.2c-.2-.2-.4-.3-.5-.5l-.2-.3v-44.6l-.1-15v-.6l-.6.1c-6.4.8-12.9 1.5-19.3 2.3l-19.1 2.3v.5l.1.4.1.9.2 1.8c.1 1.2.3 2.3.4 3.5l.9 7c.6 4.7 1.3 9.4 2.1 14 .8 4.7 1.5 9.3 2.5 14 .9 4.5 1.8 9 3 13.5-1.1 1.4-2.3 2.7-3.6 4-1.3 1.3-2.8 2.6-4.3 3.8-1.5 1.1-3.1 2.2-4.8 3l-1.3.6c-.4.2-.9.3-1.3.5l-2.7 1c-7.2 2.7-14.5 5.3-21.8 7.7l-5.5 1.8c-1.8.6-3.7 1.3-5.5 2.2-.4.2-.9.5-1.3.7-.4.3-.9.5-1.3.9l-.6.5c-.2.2-.5.5-.6.8-.3.5-.4 1.1-.5 1.6-.2 1.1-.1 2.1 0 3.1s.3 2 .4 2.9c.4 1.9.8 3.8 1.3 5.7l.8 2.8c.3.9.5 1.8.7 2.8.4 1.9.7 3.8.9 5.7s.4 3.8.5 5.7v.8h133.4v-.8c.2-4.1.4-8.2.5-12.3s.2-8.2.2-12.3c0-1.8-.1-3.8-.1-5.9zm-67.4 30.3H70.2l-16.5-.1-16-.1c-.1-1.8-.2-3.5-.4-5.3-.2-1.9-.4-3.9-.8-5.8-.2-1-.4-1.9-.7-2.9l-.7-2.8c-.5-1.9-.9-3.7-1.2-5.6-.2-.9-.3-1.9-.4-2.8-.1-.9-.1-1.9 0-2.7.1-.4.2-.8.4-1.1.1-.2.2-.3.3-.4l.5-.4c.3-.3.7-.5 1.1-.8.4-.2.8-.5 1.2-.7 1.7-.8 3.5-1.4 5.3-2l5.5-1.8c7.3-2.4 14.6-5 21.8-7.8l2.7-1c.5-.2.9-.3 1.4-.5l1.4-.6c1.8-.9 3.4-2 5-3.2s3-2.5 4.4-3.9 2.7-2.9 3.8-4.5l.2-.3-.1-.3c-1.3-4.5-2.3-9.1-3.3-13.7s-1.9-9.3-2.7-13.9c-.8-4.6-1.6-9.3-2.4-14l-2.2-13.9 19.3-1.8c6.2-.6 12.3-1.2 18.5-1.8l-.2 14.4-.2 15-.3 30v.4l.2.2.6.7.6.6.3.3.3.2.6.5c.4.3.9.6 1.3.9.4.3.9.6 1.3.9.4.3.9.5 1.3.8s.9.5 1.3.8l1.4.8 1.4.7c.5.2.9.5 1.4.7l1.4.7c1 .4 1.9.8 2.9 1.2s1.9.8 2.9 1.1l1.5.5c.5.2 1 .3 1.5.4.5.1 1 .3 1.5.4l1.5.4c1 .3 2 .4 3 .6 2 .4 4.1.6 6.2.8 2.1.2 4.1.2 6.2.2 2.1 0 4.1-.1 6.1-.1s4 .1 5 1.3c.5.6.9 1.4 1.2 2.3.3.9.4 1.9.6 2.8.3 2 .4 4 .5 6s.1 4.1.2 6.1c.1 7.9-.1 15.8-.4 23.7-10.8.1-21.5.1-32.3.2h-33.1z" fill="#cd865f" stroke-width="none" opacity="1"></path><path id="SvgjsPath128396" d="M150.7 219.2 147 198l-.4 21.2z" fill="#dc9f7d" stroke-width="none" opacity="1"></path><path id="SvgjsPath128397" d="M47.3 203.5s2.2 11.5 2.9 15.7h3.5l-6.4-15.7z" fill="#dc9f7d" stroke-width="none" opacity="1"></path></g><g id="svga-group-clothes-single"><path id="SvgjsPath128550" d="M31.7 194.7c0 2.7-1.2 11.2-5.1 15.7 0 0 5.4-2 7.2.5 1.8 2.5 2.1 4.8 5.9 2.4 3.8-2.3 4.9-.3 5.8.4.9.7 3.3 1.4 5 .1s3.2-.5 4.3.9 3.9 2.1 7.7.5 6 .5 9.8 1c3.9.5 7.8.4 8.6-.1s2.8-2 4.3-1.9 2.8 1.9 4 2.5 3.1-.8 3.9-1.3 2.2-.1 3.6.5 8.9-.2 8.9-.2.3 1.6 1.8 1.6 2.4-2 2.4-2 .3.8 2.9.3 6.8-2.7 8-2.7 2.6-.1 3.3.9.4 2 1.9 2.3 2.5.5 4.9-.7 4-2.5 6.4-.8c0 0 1.2 3.1 4.7 2.2s2.5-2.4 4.4-2.4 4.7 1.4 6.1 1.1 2.5-1.5 2.9-2.4c.4-.9 1.1-3.1 3.5-3.3 0 0 2.5 1.1 4.2-.2s2.6-2.6 4.5-3.7 4.9.3 6 0 2.6-1.4 2.8-2.9.7-2.6 1-3.4c.3-.9 2-1.4 2-1.4s-5.6-8.4-6.4-9.8-2.3-4.3-2.3-4.3-5.2 6.4-26.4 9.3c-13.2 1.8-33.6 3.8-47.6 4.3s-43.4 1.4-52.5-.1c-8.8-1.5-12.4-2.9-12.4-2.9z" fill="#152c5e" stroke-width="none" opacity="1"></path><path id="SvgjsPath128551" d="M137.2 193.6c-11.7 1.3-23.5 2.4-35.2 3.1-11.8.7-23.5 1.1-35.3 1.3-5.9.1-11.8.1-17.7-.3-5.9-.3-11.7-1.3-17.3-3.1 5.5 2.2 11.4 3.4 17.2 4 5.9.6 11.8.8 17.7.9 11.8.2 23.7-.1 35.5-.8 11.8-.7 23.6-1.9 35.3-3.5 5.8-.8 11.7-1.6 17.5-3.1 5.7-1.5 11.4-3.9 15.7-8-4.6 3.7-10.2 5.9-15.9 7.1-5.7 1.2-11.6 1.7-17.5 2.4zm-107.9 9.3c-.5 1.3-1 2.6-1.5 4s-1.1 2.6-1.7 4.1c1.2-.9 2.2-2.1 3-3.3.8-1.2 1.5-2.6 2-4s.8-2.9.9-4.4c.1-1.5 0-3-.5-4.5-.4 1.5-.7 2.9-1.1 4.2-.2 1.2-.6 2.5-1.1 3.9zm.2 7.7c1.1.1 2.1.3 3 .8.4.2.8.6 1.1.9.3.4.5.7.7 1.3.3.5.6 1.2 1.4 1.7s1.8.5 2.5.2c.7-.2 1.3-.6 1.8-1s.9-.7 1.3-1c.4-.3.7-.4 1.1-.4.4 0 .9.1 1.3.3.9.4 1.9 1.1 3.2 1.5.6.2 1.3.2 1.9 0 .6-.2 1.1-.6 1.3-1.2-.8.9-2 .8-2.9.3-.9-.5-1.7-1.3-2.8-1.9-.5-.3-1.2-.6-2-.7-.8-.1-1.6.2-2.2.5-.6.3-1.1.7-1.5 1.1-.4.3-.8.5-1.2.6-.4.1-.7.1-.8 0-.2-.1-.5-.4-.7-.9-.3-.5-.7-1.1-1.2-1.6s-1.1-.9-1.7-1.1c-.6-.2-1.2-.4-1.9-.4s-1.2 0-1.8.1c-1.2.2-2.4.6-3.3 1.3 1.2-.4 2.3-.6 3.4-.4zM52 209c.1-.9.1-1.7 0-2.6-.1-.9-.2-1.8-.6-2.6-.5.8-.8 1.7-1 2.5-.2.9-.4 1.7-.4 2.6s-.1 1.7 0 2.6c.1.8.2 1.6.5 2.4 0 .1-.1.1-.1.2 0-.1.1-.1.1-.1v.1c.1-.1.2-.3.2-.4.4-.3.9-.3 1.3-.2.6.1 1.2.4 1.6.8.5.4.9.9 1.4 1.4.5.5 1.1 1 1.9 1.3.8.3 1.6.3 2.3.2.8-.1 1.5-.3 2.1-.5.7-.2 1.3-.4 1.9-.6.6-.1 1.2-.2 1.8-.2 2.4 0 5 1 7.9 1.3 2.8.3 5.7.1 8.3-.6l.6-.2-.1-.6c-.5-2.4-1.1-4.7-1.8-7 .1 2.2.3 4.4.5 6.6-1.1.1-2.2.2-3.4.2-1.3 0-2.6-.1-3.9-.3-2.6-.3-5.1-1.4-8.2-1.3-3.2.1-5.5 2.3-7.7 1.8-1.1-.2-2-1.3-3.2-2.1-.6-.4-1.4-.6-2.1-.6-.4 0-.8.1-1.2.4.3-.6.5-1.2.6-1.8.4-1 .6-1.8.7-2.7zm123.5-18.2c-.7-1.1-1.5-2.3-2.3-3.4s-1.6-2.2-2.5-3.3c.2 1.4.6 2.8 1.2 4.1s1.2 2.6 2 3.7c.8 1.2 1.6 2.3 2.5 3.4.9 1.1 1.9 2.1 3 2.9-.5-1.4-1.1-2.6-1.8-3.8-.7-1.3-1.4-2.4-2.1-3.6zm3 7.5c-.3.1-.6.3-.8.4-.5.4-.8.9-1.1 1.4-.6 1-.9 2.2-1.4 3.1-.5.9-1 1.5-1.8 1.5-.7.1-1.8-.3-3-.5-.6-.1-1.4-.1-2.1.1-.7.2-1.3.5-1.8.9-1 .7-1.8 1.6-2.5 2.5-.7.8-1.4 1.6-2.3 2-.8.4-1.8.6-2.8.3-.2-1.2-.5-2.3-.9-3.4-.3-1.1-.7-2.2-1.1-3.2s-.8-2.1-1.2-3.2c-.4-1.1-.9-2.1-1.4-3.2-.2 1.2-.2 2.4-.1 3.6.1 1.2.4 2.4.8 3.5s.9 2.2 1.5 3.2 1.3 1.9 2.2 2.7c-.1 0-.1 0-.2-.1.8.9 2.2 1 3.4.7 1.2-.3 2.2-1.1 3.1-1.9 1.7-1.5 3.2-2.9 5-2.6.5.1 1 .2 1.6.3.6.1 1.2.2 2 .1.7-.1 1.5-.5 1.9-1.1.5-.5.8-1.2.9-1.7.4-1.2.5-2.3.8-3.2.3-1 .8-2.1 1.9-2.3 0-.1-.3 0-.6.1zm-21.7 12.2c-.6.3-1.1.8-1.5 1.4-.7 1.1-1.3 2.3-2.1 2.6-.8.4-1.8.1-3-.4-.6-.2-1.2-.4-1.9-.6-.7-.1-1.6-.2-2.3 0-1.5.4-2.5 1.3-3.5 1.9-1 .6-1.9.8-2.8.4-.9-.4-1.8-1.3-2.2-2.3-.5-1.1-.8-2.3-1.1-3.6-.1 1.3-.1 2.6.2 3.9v.1c-.2-.1-.4-.2-.6-.2-.7-.2-1.4-.2-2 0-1.4.3-2.5 1.1-3.6 1.6-.6.3-1.1.5-1.6.6-.6.1-1.1.1-1.6 0s-.8-.4-1.1-.8c-.3-.4-.5-1.1-1-1.7-.5-.6-1.3-1.1-2-1.3-.8-.2-1.5-.3-2.3-.2-1.5.1-2.8.8-3.9 1.4-1.2.6-2.2 1.2-3.3 1.4-1.1.2-2.2.1-2.9-.4l-.9-.7-.6.9c-.4.6-.8 1.2-1.3 1.6-.5.3-.8.3-1.1-.1-.3-.4-.6-1.2-.9-2l-.8-2.4c-1.2-3.1-2.4-6.2-3.7-9.3.7 3.3 1.6 6.5 2.4 9.7l.7 2.4.3 1.1c-1.8-.2-3.6-.3-5.3-.4-1.1-.1-2.2 0-2.8-.3-.3-.1-.8-.4-1.5-.7-.3-.1-.8-.2-1.2-.1-.4.1-.8.2-1.1.3-.6.3-1.1.6-1.5.9-.4.3-.8.5-1 .5-.2 0-.3 0-.6-.3s-.8-.9-1.3-1.2c-1.1-.7-2.4-.8-3.6-.5-1.2.3-2.2 1-2.7 2 1.7-1.4 4-1.3 5.3-.2.3.3.5.6.9 1.1.2.2.4.5.8.8.4.2.8.3 1.3.3.9-.1 1.4-.5 1.9-.8.5-.3.9-.6 1.2-.8.4-.2.6-.2.8-.1.3.1.8.4 1.4.6.7.2 1.3.2 1.9.2.6 0 1.1-.1 1.6-.1 1.8-.2 3.6-.4 5.4-.8.1.4.3.8.6 1.2.3.5.9.9 1.6 1 .7.1 1.3-.1 1.8-.4.6-.4 1.1-.8 1.4-1.3.4.2.9.4 1.3.4.8.1 1.5.1 2.2-.1 1.5-.3 2.7-1 3.8-1.6 1.1-.6 2.2-1.1 3.2-1.3 1.1-.1 2.2.1 2.8.7.3.3.5.9 1 1.5.5.7 1.3 1.1 2.1 1.2 1.5.3 3-.4 4.1-1.1 1.1-.7 2.1-1.5 3.2-1.9.8-.3 1.7-.4 2.6-.1.4 1.2 1.1 2.3 2.3 3 .6.4 1.5.6 2.3.5.8-.1 1.5-.3 2.1-.6 1.2-.6 2.2-1.4 3.2-1.6.3-.1.7-.1 1.1-.1l.4 3.2c-7.9.1-15.8.2-23.7.2-8.1 0-16.2-.3-24.3-.4-8.1-.2-16.2-.1-24.3-.1-8 .1-16 .2-24 .4l-1.4-5.1c-.1.1-.2.1-.3.2l1.1 5.4.1.3h.3c8.1.2 16.2.4 24.3.5 8.1.1 16.2.1 24.3-.1 8.1-.1 16.2-.4 24.3-.4s16.2 0 24.3.2h.6l-.1-.6-.3-3.4c.3.1.5.2.8.2.6.2 1.3.4 2 .5.7.1 1.6 0 2.3-.5.7-.4 1.2-1.1 1.4-1.7.3-.6.5-1.2.7-1.8.2-.5.6-1 1-1.4.4-.4 1-.7 1.6-.5-.3-.3-1.1-.2-1.7.1z" fill="#01153f" stroke-width="none" opacity="1"></path><path id="SvgjsPath128552" d="M176.4 198.5c-2.7-3.3-4.9-6.3-6.5-10.3-.1-.1-.3-.1-.2.1.9 3.9 3 8.2 6.3 10.7.2.2.6-.2.4-.5zm-1.5.3c-.9.4-.9.8-1.4 1.5-1.2 1.7-2.9.7-4.6 1-2.5.4-5 3.1-6.4 5-.2.3.2.6.5.5 1.2-.7 2.2-1.6 3.2-2.5 1-.9 2.1-1.8 3.5-1.9.4 0 1.6.3 2.1.3 2.5-.2 1.6-2.2 3.3-3.4.3-.1.1-.7-.2-.5zm-20.1 9.9c-1.1-3.5-2.3-6.8-3.1-10.3-.1-.3-.7-.3-.6.1.4 3.6 1.4 7.4 3.3 10.4 0 .3.5.1.4-.2zm-.2.8c-.9.3-.4.6-1.2 1-3.6 1.8-3.1 0-5.7 0-.9 0-1.6.4-2.4.9-.4.3-1.6 1.3-1.8 1.4-1.7.6-3.4-.4-4.5-1.5-.3-.3-.7.1-.5.4 1.7 3.7 4.2 3.3 7.1 1.3 1.9-1.3 2.8-.7 4.9-.1.6.2 1.2.4 1.9.3 2.1-.4 1.3-1.9 2.6-3 .2-.3-.1-.8-.4-.7zm-21.7-6.6c-.3 1.8.5 3.9.2 5.5-1.4 7-4.9 3.6-7.2 2.4-.7-.4-1.4-.7-2.2-.9-4.9-1.4-8.1 2.7-12.8 1.8-.4-.1-.6.5-.2.6 3.8 1.4 4.2-.4 7.9-1.4 5-1.4 7.2 3.2 11.4 2.9 5.4-.3 3.1-7.8 3.1-10.9.1-.1-.2-.1-.2 0zm-29.3 1.5c.5 2.9 1.4 5.7 2.9 8.2.1.2.5.1.4-.2-1-2.7-2-5.4-2.9-8.2-.2-.2-.5-.1-.4.2zm-3.4 7.7c-2.6.7-4.3-1.5-6.7-1-.3.1-.7.3-1 .4-1.4.3-2 .2-3.5-.2-2.5-.7-4.6-.5-6.5 1.4-.2.2.1.6.3.4 1.4-1 3.1-1.7 4.9-1.2.9.2 1.6 1.1 2.4 1.3.6.2 1 .2 1.7.1 1.1-.3 1.3-.7 2.6-.9 1.3-.1 2 .4 3.2.6 1.2.2 1.8.3 2.8-.5.4-.1.2-.5-.2-.4zm-23-6.7c0 1.2.8 6.2-.2 6.6-.5.2-4.7-1.4-5.6-1.5-5.4-.5-10.5 3.4-15.4 1.2-.6-.3-1.1.5-.5.9 2.5 1.8 4 2 6.9 1 5.5-2 9.9-2.7 15.4 0 .3.2.9 0 .9-.5-.3-2.6-.4-5.3-.8-7.9-.2-.2-.7-.1-.7.2zm-29.3-.6c-.2 2-.5 3.9-.7 5.9-1.6-2-4.3-3-6.9-2.1-.6.2-1.3.9-1.9 1.1-2.4.5-1.5-.4-2.6-1-.7-.4-4.1-1.9-4.1-2.3 0-.3-.3-.5-.5-.2-.4.8-.6 1.1.1 1.9.4.4.9.4 1.3.6 1.2.6 2 1.5 3 2.2 1 .7 1.1 1.1 2.5.6.6-.2 1.6-1.2 1.7-1.3 2.8-1.6 5.7-.5 7.3 2 .2.4.8.2.8-.2.1-2.4.3-4.8.4-7.1.1-.4-.3-.4-.4-.1z" fill="#233b6d" stroke-width="none" opacity="1"></path></g><g id="svga-group-head" transform="matrix(1,0,0,1,0,0)"><g id="svga-group-ears-left-move" transform="matrix(1,0,0,1,0,0)"><g id="svga-group-ears-left" transform="matrix(1,0,0,1,0,0)"><path id="SvgjsPath128338" d="M61.04 91.08s-5.83-5.5-11.22-8.06c0 0-2.8.42-6.02 3.31 0 0 2.24 4.78 4.24 7.15s4.83 10.33 5.06 12.61c.23 2.28-.7 6.43-.57 7.76.13 1.34 3.12 1.44 3.12 1.44s5.5-3.12 8.94-7.93c-.01-.01-1.05-8.96-3.55-16.28z" fill="#fbd5c0" stroke-width="none" opacity="1"></path><path id="SvgjsPath128339" d="M61.34 97.94c.04-.27-8.21-9.91-14.16-11.02 0 0 1.66 5.41 2.79 7.19 1.12 1.78 4.76 10.6 4.44 15.1 0 0 3.82-2.19 5.96-3.95-.01 0 .52-4.18.97-7.32z" fill="#ecb99d" stroke-width="none" opacity="1"></path><path id="SvgjsPath128340" d="m43.59 86.1-.17.15.1.2c.63 1.26 1.3 2.48 2.02 3.69.72 1.2 1.5 2.38 2.41 3.45.85 1.07 1.48 2.33 2.06 3.59.56 1.27 1.07 2.57 1.53 3.88.44 1.32.85 2.65 1.15 4 .34 1.33.15 2.7 0 4.08-.16 1.38-.42 2.74-.52 4.18-.01.18-.01.37.01.57.04.24.13.47.27.65.29.35.66.54 1.01.68.72.27 1.42.38 2.16.43l.1.01.09-.05c1.76-1.03 3.4-2.22 4.93-3.56.77-.66 1.49-1.37 2.19-2.12.7-.74 1.33-1.54 1.94-2.36l.09-.12-.02-.14a95.27 95.27 0 0 0-1.51-8.23 92.39 92.39 0 0 0-1.04-4.05c-.39-1.33-.84-2.66-1.32-3.97-.83-.84-1.68-1.6-2.55-2.37-.87-.77-1.77-1.49-2.69-2.2-1.84-1.42-3.78-2.71-5.88-3.75l-.09-.04-.09.02c-.63.11-1.17.3-1.73.52-.55.22-1.09.48-1.6.78-.51.3-1.01.62-1.48.98-.48.33-.93.71-1.37 1.1zm.59.31c.38-.32.76-.63 1.16-.92.46-.34.94-.64 1.43-.92.5-.27 1-.53 1.52-.74.49-.2 1.01-.38 1.5-.48.99.48 1.96 1.02 2.91 1.6.97.62 1.94 1.24 2.87 1.9.94.67 1.85 1.37 2.77 2.07.91.7 1.81 1.45 2.68 2.18.39 1.33.75 2.66 1.06 4.02.32 1.35.62 2.7.87 4.07.51 2.67.94 5.37 1.25 8.06-.56.75-1.15 1.48-1.81 2.16-.68.72-1.39 1.41-2.14 2.05-1.47 1.26-3.04 2.45-4.69 3.45-.62-.04-1.27-.13-1.83-.34-.29-.11-.57-.26-.72-.45a.69.69 0 0 1-.14-.3c-.01-.14-.02-.31-.01-.47.06-1.35.28-2.75.41-4.14.11-1.38.24-2.85-.16-4.24-.35-1.36-.81-2.69-1.3-4-.48-1.31-1-2.61-1.59-3.88-.58-1.27-1.17-2.55-2.04-3.68-.86-1.08-1.57-2.28-2.24-3.49-.63-1.15-1.21-2.33-1.76-3.51z" fill="#ecb99d" stroke-width="none" opacity="1"></path><path id="SvgjsPath128341" d="M52.51 91.07c.88.94 1.65 1.98 2.36 3.05.71 1.07 1.38 2.16 1.98 3.3.61 1.13 1.17 2.28 1.65 3.46l-.07.03c-.65-1.1-1.32-2.18-1.99-3.26-.69-1.07-1.36-2.14-2.1-3.17-.74-1.03-1.48-2.05-2.28-3.02-.67-.82-1.38-1.61-2.19-2.29l1.66 3.8a76.96 76.96 0 0 1 1.81 4.41c.56 1.49 1.02 3.02 1.38 4.59.25 1.1.46 2.22.51 3.37a7.534 7.534 0 0 0 .84-3c-.44-1.61-.88-3.21-1.27-4.84l.07-.02c.62 1.57 1.18 3.17 1.75 4.76l.01.04v.05c-.01.82-.15 1.65-.41 2.43-.12.39-.28.78-.46 1.15-.18.38-.38.72-.64 1.09l-.77 1.07.09-1.34c.1-1.51-.17-3.07-.47-4.6-.31-1.53-.74-3.05-1.21-4.56-.46-1.51-.95-3.01-1.51-4.5-.58-1.47-1.18-2.94-1.91-4.34l-.25-.48.47.3c1.12.69 2.07 1.58 2.95 2.52z" fill="#cd865f" stroke-width="none" opacity="1"></path></g></g><g id="svga-group-ears-right-move" transform="matrix(1,0,0,1,0,0)"><g id="svga-group-ears-right" transform="matrix(1,0,0,1,0,0)"><path id="SvgjsPath128342" d="M138.96 91.08s5.83-5.5 11.22-8.06c0 0 2.8.42 6.02 3.31 0 0-2.24 4.78-4.24 7.15s-4.83 10.33-5.06 12.61c-.23 2.28.7 6.43.57 7.76-.13 1.34-3.12 1.44-3.12 1.44s-5.5-3.12-8.94-7.93c.01-.01 1.05-8.96 3.55-16.28z" fill="#fbd5c0" stroke-width="none" opacity="1"></path><path id="SvgjsPath128343" d="M138.66 97.94c-.04-.27 8.21-9.91 14.16-11.02 0 0-1.66 5.41-2.79 7.19-1.12 1.78-4.76 10.6-4.44 15.1 0 0-3.82-2.19-5.96-3.95.01 0-.52-4.18-.97-7.32z" fill="#ecb99d" stroke-width="none" opacity="1"></path><path id="SvgjsPath128344" d="M155.04 84.98c-.47-.35-.97-.67-1.48-.98-.51-.3-1.05-.56-1.6-.78-.56-.22-1.11-.41-1.73-.52l-.09-.02-.09.04c-2.1 1.04-4.05 2.33-5.88 3.75-.92.71-1.82 1.43-2.69 2.2-.87.77-1.72 1.54-2.55 2.37-.48 1.31-.93 2.64-1.32 3.97-.38 1.34-.73 2.69-1.04 4.05-.62 2.72-1.12 5.46-1.51 8.23l-.02.14.09.12c.61.82 1.24 1.62 1.94 2.36.7.74 1.42 1.45 2.19 2.12 1.53 1.34 3.16 2.53 4.93 3.56l.09.05.1-.01c.74-.05 1.45-.16 2.16-.43.35-.14.72-.33 1.01-.68.14-.18.24-.41.27-.65.02-.2.02-.39.01-.57-.09-1.44-.36-2.8-.52-4.18-.15-1.38-.34-2.75 0-4.08.3-1.35.71-2.68 1.15-4 .46-1.31.97-2.61 1.53-3.88.58-1.26 1.21-2.52 2.06-3.59.91-1.08 1.68-2.25 2.41-3.45.72-1.2 1.39-2.43 2.02-3.69l.1-.2-.17-.15c-.44-.37-.89-.75-1.37-1.1zm-.97 4.94c-.67 1.21-1.37 2.42-2.24 3.49-.87 1.13-1.47 2.41-2.04 3.68-.58 1.27-1.11 2.57-1.59 3.88-.49 1.31-.94 2.63-1.3 4-.4 1.39-.27 2.85-.16 4.24.13 1.39.35 2.79.41 4.14.01.17 0 .33-.01.47-.02.11-.06.21-.14.3-.15.19-.43.34-.72.45-.56.21-1.21.3-1.83.34-1.65-1-3.22-2.19-4.69-3.45-.75-.64-1.46-1.33-2.14-2.05-.65-.68-1.24-1.41-1.81-2.16.31-2.69.74-5.39 1.25-8.06.25-1.36.55-2.72.87-4.07.31-1.36.67-2.69 1.06-4.02.87-.73 1.77-1.48 2.68-2.18.91-.7 1.83-1.41 2.77-2.07.94-.67 1.91-1.29 2.87-1.9.95-.58 1.92-1.12 2.91-1.6.49.1 1.01.28 1.5.48.52.22 1.02.47 1.52.74.49.28.97.58 1.43.92.4.29.78.6 1.16.92-.56 1.18-1.14 2.36-1.76 3.51z" fill="#ecb99d" stroke-width="none" opacity="1"></path><path id="SvgjsPath128345" d="M147.49 91.07c-.88.94-1.65 1.98-2.36 3.05-.71 1.07-1.38 2.16-1.98 3.3-.61 1.13-1.17 2.28-1.65 3.46l.07.03c.65-1.1 1.32-2.18 1.99-3.26.69-1.07 1.36-2.14 2.1-3.17.74-1.03 1.48-2.05 2.28-3.02.67-.82 1.38-1.61 2.19-2.29l-1.66 3.8a76.96 76.96 0 0 0-1.81 4.41c-.56 1.49-1.02 3.02-1.38 4.59-.25 1.1-.46 2.22-.51 3.37a7.534 7.534 0 0 1-.84-3c.44-1.61.88-3.21 1.27-4.84l-.07-.02c-.62 1.57-1.18 3.17-1.75 4.76l-.01.04v.05c.01.82.15 1.65.41 2.43.12.39.28.78.46 1.15.18.38.38.72.64 1.09l.77 1.07-.09-1.34c-.1-1.51.17-3.07.47-4.6.31-1.53.74-3.05 1.21-4.56.46-1.51.95-3.01 1.51-4.5.58-1.47 1.18-2.94 1.91-4.34l.25-.48-.47.3c-1.12.69-2.07 1.58-2.95 2.52z" fill="#cd865f" stroke-width="none" opacity="1"></path></g></g><g id="svga-group-faceshape-wrap" transform="matrix(1,0,0,1,0,0)"><g id="svga-group-faceshape-single"><path id="SvgjsPath128374" d="M135.9 49.8c-6.7-7.4-11.3-13.2-28.8-17.3-1.8-.4-12.3-.4-14.1 0-17.5 4.1-22.1 9.9-28.8 17.3-7.1 7.8-9.5 29-9.5 29 0 9.6 1.3 32.3 13.3 47.2 17.8 22.2 32.1 22.3 32.1 22.3s14.2 0 32.1-22.3c12-14.9 13.3-37.6 13.3-47.2-.1 0-2.5-21.2-9.6-29z" fill="#fbd5c0" stroke-width="none" opacity="1"></path><path id="SvgjsPath128375" d="M107.1 32.5c-1.8-.4-12.3-.4-14.1 0-17.5 4.1-22.1 9.9-28.8 17.3-7.1 7.8-9.5 29-9.5 29 0 9.6 1.3 32.3 13.3 47.2 17.8 22.2 32.1 22.3 32.1 22.3s14.2 0 32.1-22.3c12-14.9 13.3-37.6 13.3-47.2 0 0-2.4-21.2-9.5-29-6.9-7.4-11.5-13.2-28.9-17.3zM142 63.8c.7 2.5 1.1 5 1.6 7.5.4 2.5.7 5 1 7.5-.2 7.4-1.3 14.8-3 22-.9 3.6-1.9 7.1-3.3 10.5-.7 1.7-1.4 3.4-2.2 5s-1.7 3.2-2.7 4.7l-1.5 2.2c-.3.4-3.4 4.2-3.4 4.2l-3.7 4.1-6.1 5.7c-2.8 2.3-5.8 4.5-9 6.2l-1.2.6-1.2.6c-.8.4-1.6.7-2.5 1l-1.3.4c-.4.1-.8.2-1.3.3-.4.1-1.71.43-2.9.4 0 0-1.4-.2-1.9-.3-.4-.1-.9-.2-1.3-.3l-1.3-.4c-.8-.3-1.7-.6-2.5-1l-1.2-.5-1.2-.6c-3.2-1.6-6.3-3.7-9.1-6l-4.1-3.6-3.9-3.9-1-1-.9-1-1.8-2.1c-1.2-1.4-2.3-2.8-3.3-4.4-1-1.5-2-3.1-2.8-4.8-.8-1.6-1.6-3.3-2.3-5.1-.7-1.7-1.3-3.5-1.8-5.3s-1-3.6-1.4-5.4-.8-3.6-1-5.5c-.3-1.8-.5-3.7-.7-5.5-.4-3.7-.5-7.4-.5-11.1.3-2.3.8-4.6 1.2-6.9.5-2.3 1.1-4.6 1.7-6.8.7-2.2 1.4-4.5 2.3-6.6.4-1.1.9-2.1 1.4-3.1s2.59-4.47 6.3-8.1c1.6-1.7 3.3-3.3 5-4.7 3.5-2.8 7.7-4.9 12-6.5l1.6-.6c6.69-2.31 10.6-2.2 11.8-2.3 2.3-.1 4.71-.26 7-.1 3.16.22 6.8 1.4 6.8 1.4 2.3.6 4.5 1.3 6.7 2.3.3.1 1.6.7 1.6.7.5.3 2.6 1.3 3.1 1.7.5.3 5.3 3.7 6.9 5.4 1.7 1.7 3.3 3.4 4.9 5.2 1.7 1.9 2.9 4.2 3.9 6.6 1.1 2.4 1.9 4.8 2.5 7.3z" fill="#cd865f" stroke-width="none" opacity="1"></path></g></g><g id="svga-group-mouth-single-move" transform="matrix(1,0,0,1,0,0)"><g id="svga-group-mouth-single" transform="matrix(1,0,0,1,0,0)"><path id="SvgjsPath128323" d="M88.89 128.18s0 2.87 5.07 4.6c4.29 1.46 12.9 1.2 16.1-2.4 3.2-3.6 1.59-5.9-.34-7.68-2.13-1.97-8.97-4.61-15.91-1.21-6.94 3.4-4.92 6.69-4.92 6.69z" fill="#da7c87" stroke-width="none" opacity="1"></path><path id="SvgjsPath128324" d="M88.93 128.17c.22 1.22 1.08 2.16 2.05 2.84.97.7 2.1 1.15 3.24 1.51 2.3.67 4.76.78 7.17.69 1.21-.04 2.42-.18 3.61-.43.6-.12 1.18-.29 1.76-.47l.84-.34c.28-.13.54-.28.8-.42 1.05-.6 1.89-1.52 2.53-2.54.3-.52.56-1.07.67-1.65.11-.58.09-1.17-.09-1.72-.35-1.11-1.22-1.99-2.12-2.77-.9-.73-2-1.25-3.12-1.66-1.13-.4-2.3-.66-3.49-.79-1.19-.12-2.39-.16-3.58-.02-2.38.24-4.69 1.02-6.78 2.24-1.04.6-2.05 1.29-2.79 2.22-.38.45-.66.99-.82 1.55-.14.57-.13 1.19.12 1.76zm-.08.02c-.16-.25-.26-.57-.31-.88-.04-.31-.05-.64.01-.95.11-.63.36-1.24.74-1.75.73-1.05 1.73-1.86 2.78-2.53 2.09-1.37 4.52-2.27 7.03-2.57 2.51-.27 5.08.06 7.44.96 1.18.45 2.31 1.04 3.29 1.9.47.43.9.89 1.27 1.41.37.52.69 1.1.84 1.73.16.63.15 1.3 0 1.93-.16.62-.46 1.19-.78 1.72-.69 1.04-1.55 1.98-2.63 2.63-1.06.67-2.23 1.12-3.43 1.46-1.2.33-2.43.56-3.67.67-1.24.1-2.5.1-3.74-.02-1.24-.12-2.48-.34-3.68-.75-.6-.21-1.17-.45-1.73-.74-.28-.14-.55-.31-.82-.47-.25-.19-.53-.35-.76-.57-.49-.39-.93-.87-1.27-1.41-.33-.53-.58-1.16-.58-1.77z" fill="#d26d79" stroke-width="none" opacity="1"></path><path id="SvgjsPath128325" d="M85.24 127.03c1.51 1.69 4.1 2.26 6.29 2.06 3.38-.32 5.95-2.78 9.45-2.67 4.87.15 10.86 2.74 14.33-2.2.69-.98-.96-2.04-1.5-1.03-2.75 5.11-9.76 1.84-14.2 2.03-1.98.09-3.72.87-5.54 1.56-3.17 1.2-5.29.55-8.32-.5-.44-.16-.83.39-.51.75z" fill="#cb5f6c" stroke-width="none" opacity="1"></path></g></g><g id="svga-group-eyes-left-move" transform="matrix(1,0,0,1,0,0)"><g id="svga-group-eyes-left" transform="matrix(1,0,0,1,0,0)"><g id="svga-group-eyesback-left"><path id="SvgjsPath128474" d="M80.2 77.2c7.5 0 13.5 5.8 13.5 13s-6 13-13.5 13-13.5-5.8-13.5-13 6-13 13.5-13z" fill="#ffffff" stroke-width="none" opacity="1"></path></g><g id="svga-group-eyesiriswrapper-left" transform="matrix(1,0,0,1,0,0)"><g id="svga-group-eyesiriscontrol-left" transform="matrix(1,0,0,1,0,0)"><g id="svga-group-eyesiris-left" transform="matrix(1,0,0,1,0,0)"><path id="SvgjsPath128412" d="M80.2 84.9c2.9 0 5.3 2.4 5.3 5.3s-2.4 5.3-5.3 5.3-5.3-2.4-5.3-5.3 2.4-5.3 5.3-5.3z" fill="#bd1c1b" stroke-width="none" opacity="1"></path><path id="SvgjsPath128413" d="M80.2 85.2c2.8 0 5.1 2.3 5.1 5.1s-2.3 5.1-5.1 5.1-5.1-2.3-5.1-5.1 2.3-5.1 5.1-5.1m0-.6c-3.1 0-5.6 2.5-5.6 5.6s2.5 5.6 5.6 5.6 5.6-2.5 5.6-5.6-2.5-5.6-5.6-5.6z" fill="#9e0100" stroke-width="none" opacity="1"></path><path id="SvgjsPath128414" d="M77.4 91.7c0 1.3.5 2.5 1.3 3.3.5.1 1 .2 1.5.2 2.8 0 5.1-2.3 5.1-5.1 0-1-.3-2-.8-2.8-.7-.3-1.4-.5-2.2-.5-2.8.1-4.9 2.3-4.9 4.9z" fill="#cc3332" stroke-width="none" opacity="1"></path><path id="SvgjsPath128415" d="M80.2 87.5c1.5 0 2.7 1.2 2.7 2.7s-1.2 2.7-2.7 2.7-2.7-1.2-2.7-2.7 1.2-2.7 2.7-2.7z" fill="#000000" stroke-width="none" opacity="1"></path><path id="SvgjsPath128416" d="M79 87.5c.5 0 .9.4.9.9s-.4.9-.9.9-1-.4-1-.9.5-.9 1-.9zm3.1 4.3c.2 0 .4.2.4.4s-.2.4-.4.4-.4-.2-.4-.4.2-.4.4-.4z" fill="#ffffff" stroke-width="none" opacity="1"></path><path id="SvgjsPath128417" d="M80.2 95.3c.3 0 .5 0 .8-.1-.2 0-.3-.2-.4-.3-.1.2-.3.4-.4.4-.3 0-.5-.2-.5-.4-.1.2-.4.3-.6.2-.2-.1-.4-.3-.4-.5-.2.2-.4.2-.6.1s-.3-.3-.3-.5c-.2.1-.5.1-.7 0s-.2-.5-.1-.7c-.2.2-.5.1-.7 0-.2-.2-.2-.5 0-.7-.2 0-.5-.1-.7-.3.9 1.7 2.6 2.8 4.6 2.8zm-4.6-3zm8.8.7c-.1.1-.3.2-.5.1.1.4-.3.8-.8.7.1.2 0 .4-.2.6-.2.1-.4.1-.6 0 0 .2-.1.4-.3.5s-.4 0-.6-.2c0 .2-.1.4-.2.5 1.4-.3 2.5-1.1 3.2-2.2zm-1.8-7.1c.3-.1.6.2.5.5.3-.2.8.3.6.6.2-.1.4 0 .4.2s.1.3-.1.5c.2 0 .5.1.6.3.1.2.1.5-.1.7.2 0 .4.2.5.4.1.2 0 .5-.2.6.2.1.3.3.3.5s-.1.4-.3.5c.2.1.3.3.3.5s-.2.4-.4.4c.3.2.1.8-.2.8.1.1.1.3.1.5.4-.8.7-1.6.7-2.6 0-2-1.2-3.8-2.9-4.6.1 0 .2.1.2.2zm-.6-.2c.1-.1.2-.1.3 0-.5-.2-1-.4-1.5-.4v.1c.4-.2.9 0 1.2.3zm-5.5 7c.2 0 .3-.1.4-.2.2-.1.3-.2.4-.3v-.1c-.2.1-.3.1-.4.2-.1.2-.3.2-.4.4 0-.1 0 0 0 0zm-1.2-1.5c.1 0 .3 0 .4-.1.2 0 .3-.1.5-.1v-.1c-.2 0-.3 0-.5.1s-.3 0-.4.2c0-.1 0 0 0 0zm.5-2.5c.4.1.8.3 1.2.4 0 0 .1 0 0-.1-.4-.1-.8-.3-1.2-.3 0-.1 0 0 0 0zm.2-.7c.2.2.4.3.7.4 0 0 .1 0 0-.1-.2-.2-.5-.3-.7-.3-.1-.1-.1-.1 0 0zm3.7 6.5c.1-.3.2-.7.2-1 0 0-.1-.1-.1 0-.1.3-.1.7-.1 1zm3.5-4c.3.1.7.1 1.1.1v-.1h-1.1zm.2-.7c.3 0 .7.1 1 0v-.1c-.3 0-.6 0-1 .1zm.2-2.7c-.3.2-.6.5-.9.8 0 0 0 .1 0 0 .3-.2.6-.5.9-.8.1 0 0 0 0 0zm-2.8-1.3c-.1.3-.2.5-.2.8 0 .1.1.1.1 0 .1-.2.1-.5.1-.8zm-2.9.3c.1.2.2.5.3.7h.1c-.1-.2-.3-.4-.4-.7z" fill="#9e0100" stroke-width="none" opacity="1"></path></g></g></g><g id="svga-group-eyesfront-left"><path id="SvgjsPath128482" d="M80.2 76.7c-7.8 0-14.1 6.1-14.1 13.6s6.3 13.6 14.1 13.6 14.1-6.1 14.1-13.6S88 76.7 80.2 76.7zm0 20.5c-5.5 0-10.7-2.6-10.8-3.5s.9-3.9 3.2-6.4 8-3.3 12.8-1.4 5.9 7.5 5.9 7.5c.1 1.7-5.6 3.8-11.1 3.8z" fill="#fbd5c0" stroke-width="none" opacity="1"></path><path id="SvgjsPath128483" d="m90.2 90.3-.9-1.5c-1-1.5-2.4-2.8-4.2-3.7-2.2-1.1-4.8-1.4-7.2-1-1.2.2-2.4.6-3.5 1.1-1 .5-2 1.2-2.8 2.1h-.1c-.7-.4-1.4-.5-2-1-.6-.5-1-1.1-1.3-1.8-.1-.2-.5-.1-.5.1.1.9.5 1.7 1.1 2.3.5.5 1.3 1.2 2.1 1.3-.1.2-.3.4-.4.6-.7-.2-1.5-.1-2.2-.3-1.1-.3-1.8-1.1-2.6-1.9-.2-.2-.5 0-.4.2.4 1.1 1.3 1.8 2.4 2.3.6.3 1.5.7 2.3.7-.1.2-.2.5-.3.8h-.1c-.8 0-1.6.4-2.4.3-1.2.1-2.2-.6-2.8-1.5-.2-.2-.5 0-.4.2.9 1.4 3.6 2.9 5.4 2.2 0 .2-.1.4-.1.6-.1.3-.2.7-.2 1.1v.2c0 .1.1.2.1.3l.3.3.1.1c-1.1-.1-2.5.9-2.7 1.8 0 .2.2.4.4.3.4-.3.8-.7 1.2-.9.4-.2 1.3-.5 1.8-.7.1.1.2.1.3.2-.4.1-.7.4-1 .7-.4.5-.5 1.1-.4 1.7.1.2.4.2.4-.1 0-.5.3-.9.6-1.2.3-.3.8-.4 1.1-.7.1.1.2.1.4.2 2.1.9 4.4 1.5 6.8 1.7 2.4.2 4.7-.1 7-.7 1.1-.3 2.2-.7 3.3-1.1.5-.2 1-.5 1.5-.8.2-.2.4-.3.6-.6s.3-.5.3-.8c-.1-1-.5-2.1-1-3.1zm.8 3.9c-.2.2-.4.4-.6.5-.5.3-1 .6-1.5.8-1.1.4-2.2.7-3.3.9-2.3.4-4.6.6-6.8.4-2.3-.2-4.5-.8-6.6-1.6-.5-.2-1-.5-1.5-.7-.2-.1-.5-.3-.7-.5-.1-.1-.2-.2-.2-.3 0 0 0-.1-.1-.1v-.2c0-.4.1-.8.2-1.1.7-1.5 1.6-2.9 2.8-4 1.5-1.4 3.6-2.2 5.7-2.6 2.1-.4 4.3-.2 6.3.6 1.8.7 3.5 1.8 4.9 3.2.8 1.2 1.5 2.5 1.8 3.9-.1.3-.2.6-.4.8z" fill="#09152e" stroke-width="none" opacity="1"></path></g></g></g><g id="svga-group-eyes-right-move" transform="matrix(1,0,0,1,0,0)"><g id="svga-group-eyes-right" transform="matrix(1,0,0,1,0,0)"><g id="svga-group-eyesback-right"><path id="SvgjsPath128475" d="M119.8 77.2c7.5 0 13.5 5.8 13.5 13s-6 13-13.5 13-13.5-5.8-13.5-13 6-13 13.5-13z" fill="#ffffff" stroke-width="none" opacity="1"></path></g><g id="svga-group-eyesiriswrapper-right" transform="matrix(1,0,0,1,0,0)"><g id="svga-group-eyesiriscontrol-right" transform="matrix(1,0,0,1,0,0)"><g id="svga-group-eyesiris-right" transform="matrix(1,0,0,1,0,0)"><path id="SvgjsPath128418" d="M119.8 85.5c2.6 0 4.7 2.1 4.7 4.7s-2.1 4.7-4.7 4.7-4.7-2.1-4.7-4.7 2.1-4.7 4.7-4.7z" fill="#bd1c1b" stroke-width="none" opacity="1"></path><path id="SvgjsPath128419" d="M119.8 85.8c2.4 0 4.4 2 4.4 4.4s-2 4.4-4.4 4.4-4.4-2-4.4-4.4 1.9-4.4 4.4-4.4m0-.5c-2.7 0-4.9 2.2-4.9 4.9s2.2 4.9 4.9 4.9 4.9-2.2 4.9-4.9-2.2-4.9-4.9-4.9z" fill="#9e0100" stroke-width="none" opacity="1"></path><path id="SvgjsPath128420" d="M117.3 91.5c0 1.1.4 2.2 1.2 2.9.4.1.8.2 1.3.2 2.4 0 4.4-2 4.4-4.4 0-.9-.3-1.8-.7-2.4-.6-.3-1.2-.5-1.9-.5-2.4 0-4.3 1.9-4.3 4.2z" fill="#cc3332" stroke-width="none" opacity="1"></path><path id="SvgjsPath128421" d="M119.8 87.8c1.3 0 2.4 1.1 2.4 2.4s-1.1 2.4-2.4 2.4-2.4-1.1-2.4-2.4 1.1-2.4 2.4-2.4z" fill="#000000" stroke-width="none" opacity="1"></path><path id="SvgjsPath128422" d="M118.7 87.8c.5 0 .8.4.8.8s-.4.8-.8.8-.8-.4-.8-.8.4-.8.8-.8zm2.8 3.8c.2 0 .3.1.3.3s-.1.3-.3.3-.3-.1-.3-.3.1-.3.3-.3z" fill="#ffffff" stroke-width="none" opacity="1"></path><path id="SvgjsPath128423" d="M119.8 94.7c.2 0 .4 0 .7-.1-.2 0-.3-.2-.3-.3-.1.2-.3.3-.4.4-.2 0-.4-.2-.5-.3-.1.2-.3.3-.5.2-.2-.1-.3-.2-.3-.4-.1.1-.4.2-.5.1s-.3-.3-.3-.4c-.2.1-.4.1-.6 0s-.2-.4-.1-.6c-.2.1-.4.1-.6 0-.2-.2-.2-.4 0-.6-.2 0-.4-.1-.6-.2.8 1.2 2.3 2.2 4 2.2zm-4-2.6s0-.1 0 0c-.1-.1 0 0 0 0zm7.7.6c-.1.1-.3.2-.4.1.1.4-.3.7-.7.7.1.2 0 .4-.2.5s-.4.1-.5 0c0 .2-.1.4-.3.4s-.4 0-.5-.2c0 .2-.1.3-.2.4 1.2-.3 2.2-1 2.8-1.9zm-1.6-6.2c.2-.1.5.2.4.4.3-.1.7.2.5.5.1 0 .3 0 .4.2.1.1 0 .3-.1.4.2 0 .4.1.5.3.1.2.1.4-.1.6.2 0 .4.1.4.3s0 .4-.2.5c.2.1.3.2.3.4s-.1.4-.3.4c.2.1.3.3.2.5s-.2.3-.4.4c.2.2.1.7-.2.7.1.1.1.3.1.4.4-.7.6-1.4.6-2.3 0-1.8-1-3.3-2.5-4 .3.1.4.2.4.3zm-.5-.3c.1-.1.2-.1.3 0-.4-.2-.8-.3-1.3-.4v.1c.3-.1.7.1 1 .3zm-4.8 6.2c.1 0 .2-.1.4-.2.1-.1.3-.1.4-.2v-.1c-.1.1-.3.1-.4.2s-.3.1-.4.3c-.1-.1 0 0 0 0zm-1.1-1.4c.1 0 .2 0 .4-.1.1 0 .3-.1.4-.1v-.1c-.1 0-.3 0-.4.1s-.3.1-.4.2zm.5-2.1c.3.1.7.2 1 .3 0 0 .1 0 0 0-.3-.2-.7-.3-1-.3-.1-.1-.1 0 0 0zm.1-.7c.2.1.4.3.6.4 0 0 .1 0 0-.1l-.6-.3zm3.3 5.8c.1-.3.2-.6.2-.9 0 0-.1-.1-.1 0-.1.2-.1.6-.1.9-.1 0 0 0 0 0zm3-3.5c.3.1.6.1.9.1-.2-.1-.6-.1-.9-.1zm.2-.6h.8v-.1c-.2 0-.5 0-.8.1 0-.1 0 0 0 0zm.2-2.4c-.3.2-.6.4-.8.7.2-.2.5-.4.8-.7zm-2.5-1.1c-.1.2-.1.5-.1.7h.1v-.7zm-2.5.2.3.6h.1c-.2-.2-.3-.4-.4-.6z" fill="#9e0100" stroke-width="none" opacity="1"></path></g></g></g><g id="svga-group-eyesfront-right"><path id="SvgjsPath128484" d="M119.8 76.7c-7.8 0-14.1 6.1-14.1 13.6s6.3 13.6 14.1 13.6 14.1-6.1 14.1-13.6-6.3-13.6-14.1-13.6zm0 19.4c-5.5 0-11.3-1.9-11.1-3.4 0 0 1.2-5.1 5.9-6.9 4.8-1.8 9.7-.7 12 1.6s4.2 4.8 4 5.6c-.2.8-5.4 3.1-10.8 3.1z" fill="#fbd5c0" stroke-width="none" opacity="1"></path><path id="SvgjsPath128487" d="M134.7 89.1c-1.1 1.2-2.9 2.1-4.6 2-.1-.1-.2-.2-.2-.3-.1-.1-.1-.2-.2-.3.7.1 1.6-.4 2.1-.8.7-.6 1.2-1.2 1.4-2.1 0-.3-.3-.4-.4-.2-.4.6-.9 1.3-1.5 1.7-.5.3-1.4.3-1.9.6v-.1l-.9-1.2c.4-.1.8-.2 1.1-.4.8-.4 1.4-1 1.6-1.8.1-.3-.3-.4-.5-.2-.4.6-.9 1.1-1.6 1.4-.4.2-.9.2-1.3.2-.1-.1-.1-.2-.2-.2l-.3-.3-.4-.3-.9-.8-.8-.5-.4-.2-.4-.2c-.3-.1-.6-.3-.9-.4-1.2-.4-2.5-.6-3.8-.7-2.6 0-5.2.6-7.3 2.2-2 1.6-3.2 3.8-3.6 6.2 0 .1-.1.2-.1.2 0 .3.1.6.3.8.2.2.4.4.7.5.5.3 1 .5 1.5.8 1 .4 2.1.8 3.2 1 2.2.5 4.4.8 6.6.7 1.8-.1 3.6-.4 5.4-1 .3.3.6.7.8 1.1.2.4.2.8.4 1.1.1.2.4.2.5-.1.3-.8-.3-1.8-.9-2.4.1 0 .3-.1.4-.1.4-.2.8-.3 1.2-.5.5.2.9.5 1.3.9.3.4.4.9.8 1.2.1.1.4.1.4-.1.3-.6-.1-1.3-.6-1.8-.4-.3-.8-.6-1.2-.7.4-.2.8-.4 1.2-.7l.3-.3c.1-.1.1-.2.1-.3v-.3c0-.2-.1-.3-.2-.5 1.8.3 4.2-.8 4.5-2.8-.3 0-.5-.2-.7 0zm-4.3 3.7c0 .1 0 .1 0 0-.1.2-.2.2-.3.3-.8.6-1.9 1-2.9 1.4-2.1.7-4.2 1.1-6.4 1.3-2.2.1-4.4-.1-6.5-.4-1.1-.2-2.2-.4-3.2-.8-.5-.2-1-.4-1.5-.7-.2-.1-.5-.3-.7-.5-.2-.2-.3-.4-.3-.7 0-.1 0-.1.1-.2 1-2.1 2.5-4 4.3-5.1.9-.6 2-1 3.1-1.2 1.1-.3 2.2-.4 3.4-.4 1.1 0 2.2.2 3.3.5.3.1.5.2.8.3l.4.1.4.2.8.4.7.5c.5.3.9.7 1.4 1.1l1.2 1.2 1.1 1.4c.2.4.5.8.7 1.1v.2h.1z" fill="#09152e" stroke-width="none" opacity="1"></path></g></g></g><g id="svga-group-facehighlight-single"></g><g id="svga-group-eyebrows-left-move" transform="matrix(1,0,0,1,0,0)"><g id="svga-group-eyebrows-left-rotate" transform="matrix(1,0,0,1,0,0)"><g id="svga-group-eyebrows-left" transform="matrix(1,0,0,1,0,0)"><path id="SvgjsPath128536" d="M64.17 82.74c2.07-1.67 4.13-3.36 6.24-4.96 1.05-.81 2.1-1.61 3.17-2.38l.8-.57.81-.54.4-.25c.13-.08.29-.19.35-.19.15-.08.37-.09.61-.1.49 0 1.06.16 1.62.38s1.12.49 1.68.79c1.11.6 2.22 1.24 3.36 1.88 1.14.63 2.27 1.29 3.44 1.92 1.16.64 2.33 1.28 3.57 1.86l.14-.18c-.83-1.1-1.78-2.07-2.77-2.98-.99-.92-2.05-1.77-3.17-2.55-1.12-.78-2.32-1.46-3.61-1.99-.65-.26-1.33-.49-2.03-.67-.71-.17-1.45-.33-2.29-.27-.42.05-.88.11-1.32.36-.25.12-.35.22-.5.32l-.43.31-.81.63-.78.65c-1.02.88-2 1.79-2.98 2.7-1.93 1.85-3.82 3.72-5.65 5.66l.15.17z" fill="#3b3128" stroke-width="none" opacity="1"></path></g></g></g><g id="svga-group-eyebrows-right-move" transform="matrix(1,0,0,1,0,0)"><g id="svga-group-eyebrows-right-rotate" transform="matrix(1,0,0,1,0,0)"><g id="svga-group-eyebrows-right" transform="matrix(1,0,0,1,0,0)"><path id="SvgjsPath128537" d="M133.2 82.74c-1.89-1.44-3.77-2.89-5.7-4.27-.96-.69-1.92-1.39-2.9-2.04l-.73-.48-.73-.47-.37-.21c-.12-.07-.27-.16-.32-.16-.13-.06-.33-.07-.55-.07-.44.02-.95.17-1.44.38-.5.21-.99.47-1.47.75-.98.57-1.96 1.17-2.94 1.77-1 .6-2 1.2-3.02 1.8-1.02.6-2.05 1.2-3.14 1.76l-.14-.15c.71-1 1.54-1.89 2.39-2.74.86-.85 1.78-1.63 2.76-2.36.98-.72 2.03-1.37 3.17-1.87.58-.25 1.17-.48 1.8-.66.63-.17 1.28-.33 2.05-.3.38.03.79.08 1.19.29.23.11.31.18.45.28l.39.27.73.55.71.56c.93.76 1.83 1.55 2.73 2.33 1.77 1.61 3.51 3.22 5.19 4.91l-.11.13z" fill="#3b3128" stroke-width="none" opacity="1"></path></g></g></g><g id="svga-group-nose-single-move" transform="matrix(1,0,0,1,0,0)"><g id="svga-group-nose-single" transform="matrix(1,0,0,1,0,0)"><path id="SvgjsPath128516" d="M100.6 84.71s-1.85-.83-3.27 1.39-4.53 16.22-4.62 21.41.84 6.95 1.85 6.77c1.01-.19 1.76-2.78 2.35-2.32.59.46 1.93 3.34 3.19 2.97 1.26-.37 1.76-3.15 2.69-3.06.92.09 1.68 2.6 2.43 2.69s2.52-1.2 2.27-4.45c-.26-3.25-3.79-24.85-6.89-25.4z" fill="url(#SvgjsLinearGradient128517)" opacity="1"></path><path id="SvgjsPath128520" d="M100.6 84.71c-.75-.28-1.6-.16-2.26.31-.68.46-1.13 1.21-1.44 2-.62 1.59-1.04 3.27-1.46 4.94-.81 3.35-1.46 6.75-1.97 10.16-.24 1.71-.46 3.43-.51 5.14-.02 1.71.04 3.46.42 5.07.11.39.23.78.41 1.1.19.31.42.52.65.48.21 0 .48-.28.71-.59.23-.32.44-.68.68-1.04.12-.18.24-.37.45-.56.1-.09.25-.21.51-.21.12 0 .24.06.32.13l.15.14c.32.36.53.71.78 1.05.24.34.48.67.73.96.25.29.53.56.81.68.07.03.14.06.2.06.03 0 .06.02.09.01s.06-.01.09-.01c.06.01.12-.05.19-.06.06-.04.13-.08.19-.13.25-.21.47-.54.67-.89.21-.35.4-.73.63-1.11.11-.19.25-.39.44-.57.11-.09.21-.18.36-.24a.47.47 0 0 1 .24-.05c.09-.01.17-.01.24.02.31.07.51.25.67.42.17.17.3.36.42.54.25.37.45.74.67 1.08.11.17.22.33.33.46.06.05.11.12.16.14l.04.03h.02c.01 0 .01.01.02.01h.04c.25 0 .59-.19.84-.43.53-.5.86-1.26 1.01-2.05.14-.81.09-1.64-.01-2.5-.19-1.71-.45-3.43-.71-5.13-.54-3.41-1.16-6.82-1.94-10.18-.4-1.68-.83-3.35-1.38-4.97-.28-.81-.57-1.62-.94-2.38-.18-.38-.39-.76-.63-1.1-.25-.31-.54-.65-.93-.73zm0 0c.39.08.69.42.94.75.25.34.45.71.64 1.09.37.76.68 1.57.96 2.38.56 1.62 1.02 3.28 1.45 4.96.86 3.34 1.57 6.73 2.2 10.13.31 1.7.61 3.41.85 5.13.12.85.21 1.78.07 2.68-.14.9-.49 1.82-1.15 2.46-.17.16-.35.3-.56.41-.2.12-.43.2-.71.2h-.1l-.12-.03-.12-.04-.09-.06c-.13-.08-.21-.17-.3-.26-.16-.18-.29-.36-.41-.55-.24-.36-.45-.73-.68-1.05-.11-.16-.23-.32-.35-.44-.12-.13-.24-.22-.33-.23-.07-.01-.12 0-.24.1-.1.11-.21.26-.32.43-.21.34-.4.72-.62 1.1-.22.38-.47.77-.84 1.09-.1.08-.2.15-.31.21-.12.05-.23.12-.37.13l-.21.03c-.07 0-.13-.01-.2-.02-.14-.01-.25-.06-.37-.11-.45-.21-.77-.55-1.06-.87-.29-.33-.54-.68-.78-1.03-.24-.34-.48-.71-.7-.97-.02-.02-.05-.04-.07-.07 0 .01.02.01.05.02.06 0 .02-.01-.02.04-.1.09-.22.25-.33.41-.22.34-.44.71-.71 1.06-.14.18-.28.36-.47.52-.18.15-.43.31-.72.32a.966.966 0 0 1-.41-.05c-.12-.06-.26-.11-.35-.2-.22-.16-.35-.38-.48-.58-.24-.42-.36-.86-.47-1.3-.2-.88-.28-1.76-.32-2.64-.04-.88-.03-1.75 0-2.63.09-1.76.36-3.48.65-5.19.6-3.42 1.35-6.79 2.23-10.13.44-1.66.9-3.33 1.53-4.92.31-.79.77-1.55 1.45-2 .67-.45 1.52-.57 2.27-.28z" fill="#cd865f" stroke-width="none" opacity="1"></path></g></g><g id="svga-group-hair-front" transform="matrix(1,0,0,1,0,0)"><path id="SvgjsPath128572" d="M140.4 54.5C139.3 51.2 131 43 127 39.8c2.2-1.1 5.1-3 5.8-4.8 1.1-2.8-1.1-18.2-1.9-19.5-.8-1.3-15.5-10.4-24.1-11.6-8.5-1.1-30.7 3.6-31.2 4-.6.4-10 15-8.9 22 .8 5.2 5.7 7.9 8.2 8.9-2.7 1.8-5.2 3.5-6.7 4.8-3.3 3-8.3 10.4-8.3 10.4s-4.5 12.2-4.8 15.2c-.3 3.1-.9 14.1-.9 14.1l.7 1.5s1.6 5.1 1.8 6.2c.4 2 .7 5.7.7 5.7s2.6-17.1 4.1-22.1 6.9-13.7 11.6-17.5c4.8-3.8 19.7-9.6 27.1-9.9 7.4-.3 17.1 3.9 21.4 6.7 4.3 2.7 9.8 10.8 12.3 14.9 2.6 4.1 3.4 10.1 4.4 13.4s3.4 14.6 3.6 15.3 1.6-4.4 1.6-4.4.8-7 1-7.7c.2-.7 1.4-5.7 1.4-7s-4.3-20.3-5.5-23.9z" fill="#3b3128" stroke-width="none" opacity="1"></path><path id="SvgjsPath128573" d="M140.4 54.5c-.6-1.5-1.7-2.8-2.7-4.1-1.1-1.3-2.2-2.5-3.4-3.7-2.3-2.4-4.7-4.7-7.3-6.8l-.1-.1.1-.1c1.1-.6 2.2-1.3 3.2-2 1-.8 2-1.6 2.5-2.7.3-1.2.3-2.5.2-3.8-.1-1.3-.1-2.5-.3-3.8-.3-2.5-.6-5.1-1-7.6-.2-1.2-.4-2.5-.8-3.7 0-.2-.1-.3-.1-.4-.1-.1-.2-.2-.2-.3-.2-.2-.5-.4-.7-.6-.5-.4-1-.7-1.6-1.1-2.1-1.4-4.4-2.6-6.6-3.8-2.2-1.2-4.6-2.3-6.9-3.2-2.3-.9-4.8-1.8-7.2-2.2-2.5-.4-5-.2-7.5-.1-5.1.3-10.1 1.1-15.2 2-2.5.4-5 .9-7.5 1.5l-.9.2c-.3.1-.5.1-.6.3-.4.6-.8 1.1-1.1 1.6-.7 1.1-1.3 2.2-2 3.3-1.3 2.2-2.4 4.5-3.4 6.8s-1.9 4.7-2.2 7.2c0 .6-.2 1.2-.1 1.9 0 .6.1 1.2.3 1.8.3 1.2.9 2.3 1.7 3.3 1.6 2 3.7 3.4 6.1 4.4l.4.2-.3.2c-1.5 1-3 2-4.4 3-1.4 1-2.8 2.2-4 3.5-2.4 2.6-4.6 5.5-6.6 8.5-.8 2.4-1.7 4.7-2.5 7.1-.8 2.4-1.6 4.8-2.1 7.2-.1.3-.1.6-.2.9l-.1.9-.1 1.9-.2 3.8-.4 7.5v-.1l.7 1.5c.6 1.9 1.2 3.8 1.8 5.8.2 1 .3 2 .4 3l.4 3h-.6c.9-6.2 1.9-12.3 3.2-18.5.3-1.5.7-3.1 1.2-4.6.5-1.5 1.2-2.9 1.9-4.3 1.4-2.8 3.2-5.4 5.1-7.9 1-1.2 2-2.4 3.2-3.5 1.2-1.1 2.5-2 3.9-2.8 2.7-1.6 5.6-2.9 8.5-4 2.9-1.2 5.9-2.2 8.9-3 1.5-.4 3.1-.8 4.6-1 1.6-.3 3.2-.4 4.8-.3 1.6.1 3.2.3 4.7.7 1.6.3 3.1.8 4.6 1.3 3 1 5.9 2.3 8.7 3.8 1.4.7 2.8 1.7 3.9 2.8 1.2 1.1 2.2 2.2 3.2 3.5 2 2.4 3.8 5 5.6 7.6.8 1.3 1.7 2.6 2.4 4.1.7 1.4 1.2 2.9 1.6 4.5.4 1.5.8 3 1.1 4.6.2.8.4 1.5.6 2.2.2.7.4 1.5.6 2.3.8 3 1.4 6.1 2.1 9.1l.5 2.3.2 1.1.1.6.1.3v.1c0-.1-.2-.1-.2-.1-.1 0-.1.1-.1.1.1-.2.3-.6.4-1l.4-1.1c.2-.7.5-1.5.7-2.2l.6-4.9c.1-.8.2-1.6.4-2.4l.6-2.4c.4-1.6.8-3.2.9-4.8-.1-1.6-.6-3.2-.9-4.8-.7-3.2-1.4-6.4-2.2-9.6-1.1-3.6-1.9-6.7-2.8-9.9zm.1 0c1 3.1 1.7 6.3 2.5 9.5s1.6 6.4 2.3 9.6c.3 1.6.8 3.2.9 4.9-.1 1.7-.5 3.3-.9 4.9-.2.8-.4 1.6-.5 2.4l-.3 2.4-.5 4.8c-.2.8-.4 1.5-.6 2.3l-.4 1.1c-.1.4-.2.7-.5 1.2l-.1.1s-.1.1-.2.1-.2-.1-.3-.1c0 0 0-.1-.1-.1 0-.1 0-.1-.1-.2l-.1-.3-.1-.6-.3-1.1-.5-2.3c-.7-3-1.4-6.1-2.2-9.1-.2-.8-.4-1.5-.6-2.2-.2-.8-.4-1.5-.6-2.3l-1.2-4.5c-.4-1.5-1-2.9-1.6-4.3-.6-1.4-1.5-2.6-2.4-3.9-1.7-2.6-3.5-5.1-5.5-7.5-2-2.4-4.1-4.6-6.9-6-2.7-1.5-5.6-2.7-8.5-3.7-1.5-.5-2.9-.9-4.4-1.2-1.5-.3-3-.6-4.5-.7-1.5-.1-3 0-4.5.3-1.5.2-3 .6-4.5 1-3 .8-5.9 1.8-8.8 2.9-2.9 1.1-5.7 2.4-8.4 3.9s-4.9 3.6-6.8 6.1c-1.9 2.4-3.6 5-5.1 7.8-.7 1.4-1.4 2.8-1.9 4.2-.5 1.4-.9 2.9-1.2 4.5-1.3 6.1-2.3 12.2-3.3 18.4l-.3 2.2-.3-2.2-.4-3c-.1-1-.2-2-.4-3-.5-1.9-1.1-3.9-1.7-5.8l-.7-1.6v-.2l.5-7.5.3-3.8.1-1.9.1-.9c.1-.3.1-.6.2-.9.6-2.5 1.4-4.8 2.2-7.2.8-2.4 1.6-4.7 2.5-7.1 1-1.5 2.1-2.9 3.2-4.4 1.1-1.4 2.2-2.8 3.4-4.2 1.2-1.4 2.6-2.5 4.1-3.6 1.4-1.1 2.9-2.1 4.4-3.1v.4c-2.4-1-4.6-2.4-6.3-4.5-.8-1-1.5-2.2-1.8-3.4-.2-.6-.3-1.3-.3-1.9-.1-.7 0-1.3.1-2 .3-2.6 1.2-5 2.2-7.4 1-2.4 2.2-4.7 3.4-6.9.6-1.1 1.3-2.2 2-3.3.3-.5.7-1.1 1.1-1.6.1-.1.3-.4.5-.4l.3-.1.2-.1.9-.2c2.5-.6 5-1.1 7.5-1.5 5-.9 10.1-1.7 15.2-2.1 2.6-.2 5.2-.3 7.8.1 2.6.5 5 1.3 7.4 2.3 4.7 2 9.3 4.4 13.6 7.3.5.4 1.1.7 1.6 1.1.3.2.5.4.8.6l.4.4c.1.2.1.4.2.5.3 1.3.6 2.5.8 3.8.4 2.5.7 5.1.9 7.6.1 1.3.2 2.6.2 3.8 0 1.3.1 2.6-.3 3.9-.6 1.2-1.6 2.1-2.6 2.8-1.1.8-2.2 1.4-3.3 2v-.2c2.6 2.1 5 4.4 7.3 6.8 1.1 1.2 2.3 2.4 3.3 3.7.7 1.5 1.8 2.8 2.4 4.4z" fill="#2c2219" stroke-width="none" opacity="1"></path><path id="SvgjsPath128574" d="M55.3 70.9c-1 3.4-1.2 7.1-.7 10.7.5 3.6 1.6 7.1 3.5 10.1-1.2-3.4-2.1-6.7-2.5-10.2-.5-3.6-.5-7.1-.3-10.6zm3.9 7.9-.4-1.6-.3-1.6c-.4-2.1-.6-4.3-.7-6.5-.1-2.2 0-4.3.3-6.5s.7-4.3 1.3-6.4c-1 2-1.6 4.1-2 6.3-.4 2.2-.6 4.4-.5 6.6.1 2.2.4 4.4.9 6.6l.5 1.6.5 1.6.7 1.5c.2.5.5 1 .7 1.5-.2-.5-.3-1.1-.5-1.6l-.5-1.5zm2.5-26.7c-1.2 3.1-1.6 6.5-1.5 9.8.1 3.3.8 6.7 2.2 9.7-.6-3.2-1.1-6.5-1.2-9.7-.2-3.3.1-6.5.5-9.8zm6.4-1.4c.4-3.3 1.5-6.4 3.2-9.3-2.3 2.5-3.8 5.8-4.2 9.2-.4 3.4.1 7 1.7 10-.8-3.4-1.1-6.7-.7-9.9zm4-9.1c-1.3 2.1-2 4.5-2.2 6.9-.2 2.4.2 5 1.2 7.2-.2-2.4-.3-4.8-.2-7.1.2-2.3.6-4.6 1.2-7zm4.2 4.1c-.1 3 .6 6.1 2.3 8.5-1-2.8-1.4-5.6-1.3-8.5.1-2.8.8-5.6 1.9-8.3-1.8 2.3-2.8 5.3-2.9 8.3zm7.2-9.8c-1.1 2.1-1.7 4.6-1.7 7-.1 2.4.3 4.9 1.4 7.1-.3-2.4-.5-4.7-.4-7.1 0-2.3.3-4.6.7-7zm13.9-2.2c-.7 2-.9 4.2-.8 6.3.1 2.1.6 4.3 1.5 6.2-.1-2.1-.4-4.2-.5-6.2-.1-2.1-.1-4.2-.2-6.3zm23 3-3.1-1.2-3.2-1c-4.3-1.3-8.8-1.9-13.3-2.1-4.5-.1-9 .3-13.4 1.3l-3.4.8-3.2 1.1-3.1 1.3-3 1.5c1-.4 2.1-.8 3.1-1.3L81 36l3.2-.9 3.2-.7c4.4-.9 8.8-1.3 13.2-1.1 4.4.1 8.9.7 13.2 1.8s8.5 2.7 12.5 4.7c-1-.6-1.9-1.1-2.9-1.7l-3-1.4zm-42.7-.3c-1.1-2-1.9-4.1-2.7-6.3-.8-2.1-1.4-4.2-1.9-6.4 1.1-1.5 2.3-3 3.6-4.4 1.3-1.4 2.8-2.8 4.3-4 1.5-1.2 3.1-2.4 4.7-3.4 1.6-1.1 3.3-1.9 5.1-2.7 4.9 0 9.8.1 14.8.4 2.5.2 4.9.4 7.4.8 2.4.4 4.9.9 7.2 1.7 1.2.4 2.3.9 3.1 1.7.9.8 1.2 1.9 1.3 3.1l.4 7.4.2 3.7c.1 1.2.2 2.5-.1 3.6-.4 1.1-1.3 1.9-2.3 2.6-1.1.6-2.2 1-3.4 1.4v.1c1.2-.3 2.4-.6 3.6-1.1 1.1-.5 2.2-1.4 2.7-2.7.5-1.3.3-2.6.3-3.8l-.2-3.7c-.1-2.5-.2-4.9-.4-7.5-.1-.6-.2-1.3-.5-1.9-.3-.6-.7-1.2-1.2-1.6-1-.9-2.3-1.3-3.5-1.6-2.4-.7-4.9-1.1-7.3-1.5-2.5-.3-4.9-.6-7.4-.9-4.9-.5-9.9-.8-14.9-.9h-.2c-1.8.8-3.6 1.6-5.3 2.7-.9.5-1.7 1.1-2.5 1.6l-2.4 1.8c-1.5 1.3-3 2.6-4.3 4.1-1.3 1.5-2.6 3-3.7 4.7l-.1.1v.2c.6 2.2 1.3 4.4 2.2 6.5.9 2.1 1.9 4.2 3.1 6.1l.3.1zm24.4-13.8c.5.6.7 1.4.8 2.2.1.8 0 1.6.2 2.4.1.8.4 1.7 1.1 2.4.3.3.8.6 1.3.6.5.1.9 0 1.4-.1 1.6-.5 3.1-1.1 4.6-1.6l2.3-.9.6-.2c.2-.1.4-.2.6-.4.4-.3.7-.5 1-.8l.2-.2v-.2c0-.6-.1-1.1-.2-1.7-.2-.7-.4-1.1-.6-1.5l-1.3-2.9-.7-1.4c-.2-.5-.5-1-.8-1.4-.6-.9-1.3-1.7-2.1-2.4l-.1-.1h-.1c-1.6-.2-3.3-.3-4.9-.2-1.6.3-3.2.7-4.8 1.1-1.6.4-3.1.8-4.7 1.5-1.5.8-2.7 1.9-3.9 3.1l-.2.1v.1c-.3 1-.5 2-.7 3-.2 1-.3 2-.1 3.1.5 2 1.4 3.8 2.4 5.5h.1c-.7-1.8-1.5-3.7-1.8-5.6-.1-.9 0-1.9.2-2.8.2-.9.4-1.8.7-2.7 1.1-1 2.3-2.1 3.6-3 1.3-.8 2.9-1.3 4.4-1.8.8-.2 1.6-.5 2.3-.7.8-.2 1.6-.4 2.4-.5 1.6-.1 3.1.1 4.7.4l1.8 2.4c.3.4.5.9.7 1.3l.6 1.5 1.3 2.9c.2.5.5 1 .5 1.4.1.4.1.8.1 1.2-.2.2-.5.4-.7.6-.2.1-.3.2-.4.2l-.6.2-2.3.9-2.2.9c-.8.3-1.5.6-2.2.9-.7.2-1.4.2-1.9-.3-.5-.4-.8-1.2-1-1.9-.2-.8-.2-1.6-.3-2.4-.3-.8-.6-1.7-1.3-2.2zm2.1-1.6c-.8.3-1.5.8-2.1 1.4.8-.3 1.5-.7 2.3-1l1.8-.6c.1.5.2 1 .4 1.4.2.5.5 1 .8 1.4 0-.6-.2-1.1-.4-1.6s-.4-.9-.8-1.3c.1 0 .3-.1.4-.1-.7 0-1.6.2-2.4.4zm22.5 29.7c-.1 2.3-.3 4.7-.4 7 .9-2.2 1.3-4.6 1.4-7 .1-2.4-.1-4.8-.9-7.1 0 2.4 0 4.8-.1 7.1zm2 2.8c-.2 2.4-.4 4.7-.4 7.1.8-2.3 1.2-4.7 1.4-7.1.2-2.4.1-4.8-.3-7.2-.4 2.5-.5 4.9-.7 7.2zm6.1 8c.1 2.7-.1 5.4-.2 8.2.9-2.6 1.2-5.4 1.2-8.2-.1-2.8-.5-5.6-1.5-8.2.3 2.7.5 5.4.5 8.2zm2.1 8.2c-.2 1.6-.5 3.2-.5 4.8.8-1.5 1.2-3.1 1.5-4.7.2-1.6.3-3.3 0-4.9-.4 1.7-.7 3.2-1 4.8zm5.5.7c-.4 3.3-.6 6.5-.9 9.8-.3 3.2-.7 6.5-1 9.8 1.1-3.1 1.7-6.4 2-9.7.3-3.3.4-6.6-.1-9.9z" fill="#2c2219" stroke-width="none" opacity="1"></path></g><g id="svga-group-glasses-single-move" transform="matrix(1,0,0,1,0,0)"><g id="svga-group-glasses-single" transform="matrix(1,0,0,1,0,0)"></g></g></g></g></g><rect id="svga-credit-rect" width="200" height="15" x="0" y="185" fill="#ecf0f1" opacity="0.5" style="display: none;"></rect><text id="svga-credit-text" font-family="Avenir Next, Roboto, Helvetica, Arial, sans-serif" font-size="10px" text-anchor="start" font-weight="400" size="10px" anchor="start" weight="400" fill="#333333" x="33.41004180908203" y="182.53461003303528" style="display: none;"><tspan id="SvgjsTspan127262" dy="13" x="33.41004180908203">Created on AvatarMaker.com</tspan></text></g></svg>