<svg xmlns="http://www.w3.org/2000/svg" version="1.1" width="600px" height="600px" viewBox="0 0 200 200" style="overflow:hidden!important;"><defs id="SvgjsDefs8776"></defs><g id="svga-group-wrapper"><g id="svga-group-backs-single"><path id="SvgjsPath10081" d="M0 0h200v200H0V0z" fill="#9de0ad" stroke-width="none" opacity="1"></path></g><g id="svga-group-humanwrap-move" transform="matrix(1,0,0,1,0,0)"><g id="svga-group-humanwrap" transform="matrix(1,0,0,1,0,0)"><g id="svga-group-hair-back-move" transform="matrix(1,0,0,1,0,0)"><g id="svga-group-hair-back" transform="matrix(1,0,0,1,0,0)"></g></g><g id="svga-group-humanbody-back"><path id="SvgjsPath10154" d="m168.5 219.5-1.7-21.5s.7-9-8.8-15.3-23.4-10.1-29.5-14.2c-6.1-4.1-9.2-4.5-9-16.9s.9-40.3.9-40.3H79.6s.7 27.9.9 40.3c.2 12.4-2.9 12.8-9 16.9-6.1 4.1-20 7.9-29.5 14.2S33.2 198 33.2 198l-1.6 21.5h136.9z" fill="#fbd5c0" stroke-width="none" opacity="1" stroke="none"></path></g><g id="svga-group-chinshadow-single"><path id="SvgjsPath10150" d="M80.4 155.4c5.9 5.8 12.6 9.3 19.6 9.3s13.7-3.5 19.6-9.3c-.1-1.1-.1-2.4-.1-3.8.2-12.4.9-40.3.9-40.3H79.6s.7 27.9.9 40.3c0 1.4 0 2.7-.1 3.8z" fill="#dc9f7d" stroke-width="none" opacity="0.65" stroke="none"></path></g><g id="svga-group-humanbody-front"><path id="SvgjsPath10155" d="M73.8 175.9c5.1 2.9 11.8 5.2 17.6 5.7.4 0 .4-.6.1-.7-2.8-1.1-5.9-1.7-8.8-2.6-2.9-.9-5.8-2-8.8-2.7-.1-.1-.3.2-.1.3zm35.2 6.2c5.3-.6 11.3-3 15.9-5.8.3-.2.1-.6-.2-.5-2.6.9-5.2 2-7.8 2.9-2.6.9-5.4 1.5-8 2.5-.5.1-.5.9.1.9z" fill="#dc9f7d" stroke-width="none" opacity="1" stroke="none"></path><path id="SvgjsPath10156" d="m168.4 219.4-2.1-21.4c0-2.2-.5-4.5-1.5-6.6-.9-2.1-2.3-3.9-3.9-5.5s-3.5-2.8-5.5-4c-2-1.2-4.1-2.2-6.2-3.1-4.2-1.9-8.6-3.6-12.9-5.4-2.2-.9-4.3-1.9-6.4-3-1.1-.6-2.1-1.2-3-1.9-1-.6-2-1.2-3-1.9s-2-1.5-2.8-2.6c-.8-1-1.3-2.2-1.7-3.4-.7-2.4-.8-4.8-.8-7.2 0-4.7.2-9.4.3-14.1.2-9.4.6-18.7.9-28l.6.6-20.4-.2-20.4-.1.3-.3.7 28c.1 4.7.3 9.3.4 14 0 2.4-.1 4.7-.8 7.1-.3 1.2-.9 2.3-1.6 3.3-.8 1-1.7 1.8-2.7 2.5s-2 1.3-2.9 2c-.9.6-1.9 1.3-3 1.9-2.1 1.2-4.2 2.1-6.4 3.1-4.3 1.9-8.6 3.6-12.8 5.6-2.1 1-4.2 2.1-6.1 3.2-2 1.2-3.8 2.4-5.4 4-1.6 1.6-2.9 3.4-3.8 5.4-.4 1-.8 2.1-1 3.1-.2 1.1-.4 2.2-.3 3.2v.2l-1.5 21.5-1-1.1 34 .1c11.3 0 22.7.1 34.1.2l34.2.3 34.4.5zm.2.2-34 .4-34.2.3c-11.4.1-22.9.2-34.4.2l-34.4.1h-1.1l.1-1.1 1.7-21.5v.1c-.1-5.1 2.2-9.8 5.7-13.3 1.7-1.7 3.8-3.1 5.8-4.3 2-1.2 4.2-2.2 6.3-3.2 4.3-2 8.7-3.7 13-5.4 2.1-.9 4.3-1.8 6.3-2.9 1-.5 1.9-1.1 3-1.8 1-.6 2-1.2 2.9-1.9.9-.6 1.8-1.4 2.4-2.2.7-.9 1.2-1.9 1.5-2.9.6-2.1.8-4.5.8-6.8 0-4.6-.1-9.3-.2-14l-.6-28v-.3h.3l20.4-.1 20.4-.2h.6v.6c-.1 9.3-.2 18.7-.4 28-.1 4.7-.2 9.4-.2 14 .1 2.3.2 4.6.8 6.7.3 1.1.8 2 1.4 2.9.6.8 1.4 1.6 2.4 2.2.9.6 1.9 1.3 2.9 1.9 1 .7 1.9 1.3 2.9 1.8 2 1.1 4.1 2.1 6.3 3 4.3 1.8 8.6 3.6 12.9 5.6 2.1 1 4.2 2.1 6.2 3.3 2 1.2 4 2.6 5.7 4.3 3.4 3.4 5.6 8.1 5.4 13v-.1l1.4 21.6zm-112.8-.4 1.9-13.8.1 13.8h-2zm88.6 0-1.9-13.8-.1 13.8h2z" fill="#cd865f" stroke-width="none" opacity="1" stroke="none"></path></g><g id="svga-group-clothes-single"><path id="SvgjsPath10293" d="m50.8 220 8.2-26.1 40.6 18.4 41.4-18.4 8.2 26.1z" fill="#638e2f" stroke-width="none" opacity="1"></path><path id="SvgjsPath10294" d="m150.1 219.7-4.3-13-4.3-13 7.7-16.3-1.8-.8-6.5 16.9c-3.4 1.6-6.9 3.2-10.3 4.7-3.4 1.5-6.9 3.1-10.3 4.6-6.8 3-13.7 5.9-20.6 8.8l-9.8-4.7c-3.4-1.6-6.7-3.1-10.1-4.7-6.8-3.1-13.6-6.1-20.4-9.1h-.2l-5.9-17.3-1.9.7 7.1 16.8c-.1.1-.1.2-.1.3l-4 13.4-3.7 13 24.2.5 24.6.4 12.4.1h12.4l24.8-.1h.3c.6-.2.8-.7.7-1.2zm-37.4-.7-12.2.1-24.6.4-25 .5 4.5-13.1 4.1-11.9 19.5 9c3.4 1.5 6.8 3.1 10.2 4.5l10.2 4.4c.2.1.3.1.5 0 6.8-3.2 13.7-6.4 20.6-9.5 3.4-1.6 6.9-3 10.4-4.6 3.3-1.4 6.6-2.9 9.9-4.3l3.7 12.6 3.6 11.9-23.2-.1-12.2.1z" fill="#446f0f" stroke-width="none" opacity="1"></path></g><g id="svga-group-head" transform="matrix(1,0,0,1,0,0)"><g id="svga-group-ears-left-move" transform="matrix(1,0,0,1,0,0)"><g id="svga-group-ears-left" transform="matrix(1,0,0,1,0,0)"><path id="SvgjsPath10098" d="M63.5 96.9s-3-5.1-4.6-7.4c-1.7-2.3-3.8-4.7-4.6-.7s-.8 11.6.3 16.9c1.1 5.2 5.8 10.5 7.8 10.5s3.4-7.9 3.3-10.6c-.1-2.7-1.1-6.7-2.2-8.7z" fill="#fbd5c0" stroke-width="none" opacity="1" stroke="none"></path><path id="SvgjsPath10099" d="M65.1 96.3c.3.7-.2 4.1 0 4.9.4 1.5.7 3.1.8 4.7 0 1.6-.1 3.1-.4 4.5-.2 1.4-.6 2.8-1 4.1-.2.6-.5 1.2-.9 1.7-.2.2-.4.5-.7.6-.1.1-.3.1-.5.1s-.3 0-.5-.1c-.6-.2-1.1-.5-1.6-.9-.3-.2-.5-.4-.7-.6l-.7-.7c-.9-1-1.8-2.2-2.5-3.5s-1.4-2.7-1.8-4.3l-.3-1.2c-.1-.4-.1-.8-.2-1.2-.1-.8-.2-1.6-.3-2.3-.2-1.5-.2-3.1-.3-4.6-.1-3-.1-6.1.3-9 .1-.7.3-1.5.8-2l.2-.2c.1 0 .1-.1.2-.1.1-.1.3-.1.4-.2.1 0 5.3.5 6 1.8.8 1.4 3.5 7.8 3.7 8.5zM58.8 90c-.8-1-1.7-2.1-2.5-2.5-.4-.2-.8-.2-1 .2-.3.3-.5.9-.6 1.5-.3 1.3-.5 2.7-.6 4.1s-.2 2.9-.2 4.4.1 3 .3 4.5c.1.8.2 1.5.4 2.3.1.4.2.7.2 1.1.1.4.2.7.3 1.1.5 1.4 1.1 2.7 1.9 3.9.7 1.2 1.6 2.2 2.4 3.1.8.9 1.8 1.6 2.6 1.8.7.2 1.3-.9 1.7-1.9.4-1.1.8-2.4 1-3.7.3-1.3.5-2.7.6-4.1 0-1.4-.2-3-.5-4.5s-.8-3-1.5-4.3c-1.3-2.5-2.9-4.9-4.5-7z" fill="#ecb99d" stroke-width="none" opacity="1" stroke="none"></path><path id="SvgjsPath10100" d="M56.8 93.1c1.5 1.2 2.9 3.3 3.5 5.7 0 .2-.1.2-.2.1 0 0 0-.1-.1-.1-.4-.5-1-1.1-1.4-1-.8.1-.6 1.4-.3 2.5.4 1.5 1 2.8 1.7 4.1.1.1 0 .3-.1.2-1-1.4-2.5-4.4-2.3-6.4.2-1.7 1.4-1 2.2-.1-.6-1.3-1.2-2.4-2-3.4-1-1.2-3.2-3.1-3.5-.6 0 .1-.2.1-.2-.1-.1-2.3 1.7-1.7 2.7-.9z" fill="#dc9f7d" stroke-width="none" opacity="1" stroke="none"></path><path id="SvgjsPath10101" d="M60.7 107.4c.9 2.4-.6 3.1-1.6 2.1-1.6-1.6-2.9-5.2-3.2-8.2 0-.2.1-.2.2 0 .3 1.7.6 3.2 1.3 4.7.4.9.9 1.9 1.4 2.5.3.5.7.8 1.1 1 .8-.1 1.1-.8.7-2.1-.1 0 0-.1.1 0z" fill="#dc9f7d" stroke-width="none" opacity="1" stroke="none"></path></g></g><g id="svga-group-ears-right-move" transform="matrix(1,0,0,1,0,0)"><g id="svga-group-ears-right" transform="matrix(1,0,0,1,0,0)"><path id="SvgjsPath10102" d="M136.5 96.9s3-5.1 4.6-7.4c1.7-2.3 3.8-4.7 4.6-.7s.8 11.6-.3 16.9c-1.1 5.2-5.8 10.5-7.8 10.5s-3.4-7.9-3.3-10.6 1.1-6.7 2.2-8.7z" fill="#fbd5c0" stroke-width="none" opacity="1" stroke="none"></path><path id="SvgjsPath10103" d="M138.5 87.9c.7-1.3 5.9-1.8 6-1.8s.3.1.4.2c.1 0 .1.1.2.1l.2.2c.4.5.6 1.3.8 2 .5 2.9.4 6 .3 9-.1 1.5-.1 3.1-.3 4.6-.1.8-.2 1.5-.3 2.3-.1.4-.1.8-.2 1.2l-.3 1.2c-.4 1.6-1.1 3-1.8 4.3s-1.6 2.5-2.5 3.5c-.2.3-.5.5-.7.7s-.5.4-.7.6c-.5.4-1 .7-1.6.9-.2 0-.3.1-.5.1s-.3-.1-.5-.1c-.3-.1-.5-.4-.7-.6-.4-.5-.7-1.1-.9-1.7-.5-1.3-.8-2.6-1-4.1-.2-1.4-.4-2.9-.4-4.5.1-1.6.4-3.2.8-4.7.2-.8-.3-4.2 0-4.9.3-.8 3-7.2 3.7-8.5zm-1.9 9.1c-.7 1.3-1.1 2.8-1.5 4.3-.3 1.5-.5 3-.5 4.5.1 1.4.3 2.8.6 4.1.3 1.3.6 2.6 1 3.7s1 2.2 1.7 1.9c.8-.2 1.8-1 2.6-1.8.9-.9 1.7-1.9 2.4-3.1s1.4-2.4 1.9-3.9c.1-.4.2-.7.3-1.1s.2-.7.2-1.1c.1-.8.3-1.5.4-2.3.2-1.5.3-3 .3-4.5s0-3-.2-4.4c-.1-1.4-.3-2.8-.6-4.1-.1-.6-.3-1.2-.6-1.5s-.6-.4-1-.2c-.8.5-1.7 1.5-2.5 2.5-1.5 2.1-3.1 4.5-4.5 7z" fill="#ecb99d" stroke-width="none" opacity="1" stroke="none"></path><path id="SvgjsPath10104" d="M143.2 93.1c-1.5 1.2-2.9 3.3-3.5 5.7 0 .2.1.2.2.1 0 0 0-.1.1-.1.4-.5 1-1.1 1.4-1 .8.1.6 1.4.3 2.5-.4 1.5-1 2.8-1.7 4.1-.1.1 0 .3.1.2 1-1.4 2.5-4.4 2.3-6.4-.2-1.7-1.4-1-2.2-.1.6-1.3 1.2-2.4 2-3.4 1-1.2 3.2-3.1 3.5-.6 0 .1.2.1.2-.1.1-2.3-1.7-1.7-2.7-.9z" fill="#dc9f7d" stroke-width="none" opacity="1" stroke="none"></path><path id="SvgjsPath10105" d="M139.3 107.4c-.9 2.4.6 3.1 1.6 2.1 1.6-1.6 2.9-5.2 3.2-8.2 0-.2-.1-.2-.2 0-.3 1.7-.6 3.2-1.3 4.7-.4.9-.9 1.9-1.4 2.5-.3.5-.7.8-1.1 1-.8-.1-1.1-.8-.7-2.1.1 0 0-.1-.1 0z" fill="#dc9f7d" stroke-width="none" opacity="1" stroke="none"></path></g></g><g id="svga-group-faceshape-wrap" transform="matrix(1,0,0,1,0,0)"><g id="svga-group-faceshape-single"><path id="SvgjsPath10136" d="M141 88.4c0 30.3-18.9 65.2-41 65.2s-41-34.9-41-65.2 18.9-47 41-47 41 16.6 41 47z" fill="#fbd5c0" stroke-width="none" opacity="1" stroke="none"></path><path id="SvgjsPath10137" d="M100 41.3c-22.1 0-41.1 16.7-41.1 47s19 65.5 41.1 65.5 41.1-35.2 41.1-65.5-19-47-41.1-47zm28.2 13.6.8.8c.3.3.5.6.8.9.3.3.5.6.8.9l.7.9c.2.3.5.6.7.9l.7 1 .3.5.3.5c.4.7.9 1.3 1.2 2l.6 1c.2.3.4.7.5 1l.5 1.1.5 1.1c.2.4.3.7.5 1.1l.4 1.1c2.3 5.9 3.2 12.4 3.3 18.7 0 6.4-.9 12.8-2.6 18.9-.8 3.1-1.9 6.1-3.1 9-1.2 2.9-2.5 5.8-4 8.6s-3.1 5.5-4.8 8.1c-.9 1.3-1.8 2.6-2.7 3.8-.9 1.2-1.9 2.4-3 3.6-2 2.3-4.3 4.4-6.7 6.3-2.4 1.8-5 3.3-7.8 4.3-1.4.5-2.8.9-4.3 1-1.5.2-2.9.2-4.4.1-3-.2-5.9-1.2-8.6-2.6-2.7-1.4-5.3-3.3-7.6-5.4-2.3-2.1-4.4-4.5-6.3-7.1s-3.6-5.3-5-8.1c-1.5-2.8-2.8-5.7-3.9-8.7-.6-1.5-1.1-3-1.6-4.5s-.9-3-1.3-4.6c-.8-3.1-1.4-6.2-1.8-9.3-.4-3.1-.7-6.3-.8-9.4 0-1.6 0-3.1.1-4.7 0-.8.1-1.6.1-2.3l.2-2.3c.3-3.1.9-6.2 1.7-9.1.8-3 1.8-5.9 3.2-8.6.2-.4.3-.7.5-1l.5-1c.4-.7.8-1.3 1.2-2 .4-.6.8-1.3 1.3-1.9l.7-.9.3-.5.4-.4c1.9-2.4 4.1-4.5 6.5-6.3s5-3.3 7.8-4.5 5.7-2 8.6-2.5c.7-.2 1.5-.2 2.2-.3.4-.1.8-.1 1.1-.1l1.1-.1c.8 0 1.5-.1 2.3-.1H102.6l1.1.1c.4 0 .8.1 1.1.1.4 0 .8.1 1.1.1l1.1.2.6.1.6.1 1.1.2c.4.1.7.2 1.1.3s.7.2 1.1.3c1.4.4 2.9.9 4.3 1.5s2.8 1.2 4.1 2c2.7 1.5 5.2 3.3 7.4 5.4l.4.4.5.3z" fill="#cd865f" stroke-width="none" opacity="1" stroke="none"></path></g></g><g id="svga-group-mouth-single-move" transform="matrix(1,0,0,1,0,0)"><g id="svga-group-mouth-single" transform="matrix(1,0,0,1,0,0)"><path id="SvgjsPath10086" d="M90.5 128s.3-1 2.2-2.9c1.9-1.9 5.1-2.7 5.1-2.7s.4 1.5 2.2 1.5c1.8 0 2.5-.9 2.5-1.5 0 0 2.1.1 4.8 1.3s3.7 4.6 3.7 4.6-.1 2.5-.9 3.7-2.1 1.7-3.7 1.4-9.8.3-10.9.4c-1.1.1-3.1-.4-4-2.5-.7-2-1-3.3-1-3.3z" fill="#e0a4a0" stroke-width="none" opacity="1" transform="translate(0 3)" stroke="none"></path><path id="SvgjsPath10087" d="M87.8 128.2c2.3.9 3.8.6 6.1-.3 2.6-1 5-1.7 7.8-1.6 2.9.1 5.2 1 7.9 2.1 1.7.7 2.8.4 4.5-.4.6-.3.1-1.4-.6-1-1.5.8-2.4 1-4 .3-.8-.4-1.6-.8-2.5-1-1.9-.6-3.9-.9-5.9-.9-1.9 0-3.8.3-5.6 1-1 .4-2 .8-3 1.1-1.7.5-2.8.4-4.4-.2-.6-.2-.8.7-.3.9z" fill="#d18580" stroke-width="none" opacity="1" transform="translate(0 3)" stroke="none"></path><path id="SvgjsPath10088" d="M96.1 133.8c1.7.1 3.5-.1 5.2-.2 1.7 0 3.5.1 5.2-.1.2 0 .4-.4.1-.5-3.2-.7-7.3-.5-10.5.3-.4 0-.3.4 0 .5z" fill="#d18580" stroke-width="none" opacity="1" transform="translate(0 3)" stroke="none"></path></g></g><g id="svga-group-eyes-left-move" transform="matrix(1,0,0,1,0,0)"><g id="svga-group-eyes-left" transform="matrix(1,0,0,1,0,0)"><g id="svga-group-eyesback-left"><path id="SvgjsPath10207" d="M91.7 97.7s-.4.5-.9.7c-.5.2-4.9 1.4-7.9 1.6-3 .2-7.5-.2-8.7-.9-1.3-.6-1.6-1.1-1.6-1.5 0-.5.4-1.8 2.2-2.5 1.8-.7 3.7-1.2 6.2-1.2s6.1.9 7.9 2.1c1.7 1 2.8 1.7 2.8 1.7z" fill="#ffffff" stroke-width="none" opacity="1"></path></g><g id="svga-group-eyesiriswrapper-left" transform="matrix(1,0,0,1,0,0)"><g id="svga-group-eyesiriscontrol-left" transform="matrix(1,0,0,1,0,0)"><g id="svga-group-eyesiris-left" transform="matrix(1,0,0,1,0,0)"><path id="SvgjsPath10171" d="M82 91.3c2.8 0 5.2 2.3 5.2 5.2s-2.3 5.2-5.2 5.2-5.2-2.3-5.2-5.2 2.3-5.2 5.2-5.2z" fill="#3e4442" stroke-width="none" opacity="1"></path><path id="SvgjsPath10172" d="M82 92.9c2 0 3.6 1.6 3.6 3.6S83.9 100 82 100s-3.6-1.6-3.6-3.6 1.6-3.5 3.6-3.5z" fill="#000000" stroke-width="none" opacity="1"></path><path id="SvgjsPath10173" d="m78.2 94 4 2.9-1.6-4.7c-.3-.4-2.3.7-2.4 1.8z" fill="#ffffff" stroke-width="none" opacity="1"></path></g></g></g><g id="svga-group-eyesfront-left"><path id="SvgjsPath10215" d="M70.7 98c0 6.9 4.9 12.5 11 12.5s11-5.6 11-12.5-4.9-12.5-11-12.5-11 5.6-11 12.5zm1.8-.5c0-.5.4-1.8 2.2-2.5 1.8-.7 3.7-1.2 6.2-1.2s6.1.9 7.9 2.1c1.7 1.1 2.8 1.8 2.8 1.8s-.4.5-.9.7c-.5.2-4.9 1.4-7.9 1.6-3 .2-7.5-.2-8.7-.9-1.2-.7-1.5-1.1-1.6-1.6z" fill="#fbd5c0" stroke-width="none" opacity="1" stroke="none"></path><path id="SvgjsPath10216" d="M74.7 93.8c5.2-4.3 14.6-3.1 17 3.6 0 .1-.1.1-.2.1-1.8-2.7-3.8-5-7.2-5.5-3.2-.6-6.7.2-9.6 1.8 0 .2 0 .1 0 0z" fill="#ecb99d" stroke-width="none" opacity="1" stroke="none"></path><path id="SvgjsPath10217" d="M68.7 96.7c-.1-.1-.1-.3.1-.2 1.2.1 2.3.2 3.5-.1.1-.2.2-.4.4-.5-1 .2-2.2.1-3-.4-.1-.1-.1-.3.1-.3.6 0 1.2.2 1.8.2.6 0 1.1-.1 1.7-.1l.1-.1c-.8 0-1.5-.1-2.2-.4-.1 0-.1-.2.1-.2 1.2.1 2.2.1 3.3 0 .2-.1.4-.2.6-.2-1.1-.1-2.1-.4-3-.9-.1-.1 0-.2.1-.2 1.1.3 2.1.6 3.2.7h1.2c.3-.1.6-.1.8-.1-.2-.1-.4-.1-.6-.2-.1-.1-.1-.3.1-.3.5 0 1 .1 1.4.2.4 0 .7 0 1.1.1h1.2c3.9.1 8.1 1.6 10.9 4.2.1 0 0 .1-.1.1-2.9-1.8-5.7-3.3-9.2-3.6-2.8-.3-6.9 0-9.1 2.2-1.9 1.9 1.7 2.7 3 2.9 1.7.3 3.4.5 5.1.4 3.3-.1 6.4-.8 9.6-1.6.1 0 .2.2.1.2-3.8 1.7-8.5 2.2-12.6 1.9-1.2-.1-5-.2-6.2-1.6-.4.1-.7 0-1.1.1-.5.1-1 .2-1.5.2-.1 0-.2-.2-.1-.2.5-.4 1-.5 1.6-.6.2 0 .5-.1.7-.1-.1-.3-.1-.6 0-.9-.9 0-2.1-.1-3.1-.6z" fill="#5fa2a5" stroke-width="none" opacity="1" stroke="none"></path></g></g></g><g id="svga-group-eyes-right-move" transform="matrix(1,0,0,1,0,0)"><g id="svga-group-eyes-right" transform="matrix(1,0,0,1,0,0)"><g id="svga-group-eyesback-right"><path id="SvgjsPath10208" d="M108.3 97.7s.4.5.9.7c.5.2 4.9 1.4 7.9 1.6 3 .2 7.5-.2 8.7-.9 1.3-.6 1.6-1.1 1.6-1.5 0-.5-.4-1.8-2.2-2.5-1.8-.7-3.7-1.2-6.2-1.2s-6.1.9-7.9 2.1c-1.7 1-2.8 1.7-2.8 1.7z" fill="#ffffff" stroke-width="none" opacity="1"></path></g><g id="svga-group-eyesiriswrapper-right" transform="matrix(1,0,0,1,0,0)"><g id="svga-group-eyesiriscontrol-right" transform="matrix(1,0,0,1,0,0)"><g id="svga-group-eyesiris-right" transform="matrix(1,0,0,1,0,0)"><path id="SvgjsPath10174" d="M118 91.3c2.8 0 5.2 2.3 5.2 5.2s-2.3 5.2-5.2 5.2-5.2-2.3-5.2-5.2 2.4-5.2 5.2-5.2z" fill="#3e4442" stroke-width="none" opacity="1"></path><path id="SvgjsPath10175" d="M118 92.9c2 0 3.6 1.6 3.6 3.6S120 100 118 100s-3.6-1.6-3.6-3.6 1.7-3.5 3.6-3.5z" fill="#000000" stroke-width="none" opacity="1"></path><path id="SvgjsPath10176" d="m114.2 94 4 2.9-1.6-4.7c-.2-.4-2.2.7-2.4 1.8z" fill="#ffffff" stroke-width="none" opacity="1"></path></g></g></g><g id="svga-group-eyesfront-right"><path id="SvgjsPath10218" d="M118.3 85.5c-6.1 0-11 5.6-11 12.5s4.9 12.5 11 12.5 11-5.6 11-12.5-5-12.5-11-12.5zm7.5 13.5c-1.3.6-5.7 1.1-8.7.9-3-.2-7.4-1.4-7.9-1.6-.5-.2-.9-.7-.9-.7s1.1-.7 2.8-1.8c1.7-1.1 5.4-2.1 7.9-2.1s4.4.5 6.2 1.2c1.8.7 2.3 2.1 2.2 2.5 0 .6-.3 1-1.6 1.6z" fill="#fbd5c0" stroke-width="none" opacity="1" stroke="none"></path><path id="SvgjsPath10221" d="M125.3 93.8c-5.2-4.3-14.6-3.1-17 3.6 0 .1.1.1.2.1 1.8-2.7 3.8-5 7.2-5.5 3.2-.6 6.7.2 9.6 1.8 0 .2 0 .1 0 0z" fill="#ecb99d" stroke-width="none" opacity="1" stroke="none"></path><path id="SvgjsPath10222" d="M131.3 96.7c.1-.1.1-.3-.1-.2-1.2.1-2.3.2-3.5-.1-.1-.2-.2-.4-.4-.5 1 .2 2.2.1 3-.4.1-.1.1-.3-.1-.3-.6 0-1.2.2-1.8.2-.6 0-1.1-.1-1.7-.1l-.1-.1c.8 0 1.5-.1 2.2-.4.1 0 .1-.2-.1-.2-1.2.1-2.2.1-3.3 0-.2-.1-.4-.2-.6-.2 1.1-.1 2.1-.4 3-.9.1-.1 0-.2-.1-.2-1.1.3-2.1.6-3.2.7h-1.2c-.3-.1-.6-.1-.8-.1.2-.1.4-.1.6-.2.1-.1.1-.3-.1-.3-.5 0-1 .1-1.4.2-.4 0-.7 0-1.1.1h-1.2c-3.9.1-8.1 1.6-10.9 4.2-.1 0 0 .1.1.1 2.9-1.8 5.7-3.3 9.2-3.6 2.8-.3 6.9 0 9.1 2.2 1.9 1.9-1.7 2.7-3 2.9-1.7.3-3.4.5-5.1.4-3.3-.1-6.4-.8-9.6-1.6-.1 0-.2.2-.1.2 3.8 1.7 8.5 2.2 12.6 1.9 1.2-.1 5-.2 6.2-1.6.4.1.7 0 1.1.1.5.1 1 .2 1.5.2.1 0 .2-.2.1-.2-.5-.4-1-.5-1.6-.6-.2 0-.5-.1-.7-.1.1-.3.1-.6 0-.9.9 0 2.1-.1 3.1-.6z" fill="#5fa2a5" stroke-width="none" opacity="1" stroke="none"></path></g></g></g><g id="svga-group-facehighlight-single"></g><g id="svga-group-eyebrows-left-move" transform="matrix(1,0,0,1,0,0)"><g id="svga-group-eyebrows-left-rotate" transform="matrix(1,0,0,1,0,0)"><g id="svga-group-eyebrows-left" transform="matrix(1,0,0,1,0,0)"><path id="SvgjsPath10269" d="m69.1 87.3.2-.2.3-.3v-.1c.1-.2.2-.4.4-.5.3-.4.7-.7 1-.9.7-.6 1.4-1.2 2.3-1.4h.2c1.6-1.3 4-2.5 5.7-1.4 1.7-.2 3.5-.1 5 .4.8-.1 1.5.2 2.3.5 1.3.4 2.6.8 3.7 1.4.1.1.2.2.2.3 1.5.4 3 2.1 1.5 3.5-.8.7-1.8.7-2.7.3-.2-.1-.4-.1-.6-.2-1.7-.1-3.2-1.3-4.8-1.9-1.2-.5-2.5-.7-3.7-1-.9.1-1.7.2-2.6.3-.3 0-.6.1-.9.1-1.1.4-2.1.6-3.2.8-.2.1-.4.2-.7.3-.2.2-.6.3-.8.4-.1.1-.3.1-.4.2l-.9.3c-.3.1-.6.2-.9.2-.1 0-.3 0-.4-.1-.1 0-.1.1-.2.1-.3.1-.6-.1-.6-.4.1-.5.3-.7.6-.7z" fill="#4e4341" stroke-width="none" opacity="1"></path><path id="SvgjsPath10270" d="M88.3 87.9c.6-.2 1.3-.2 1.8-.6.6-.4 1-1 1.1-1.6.1-.2.4-.1.4.1-.2 1.4-1.7 3.2-3.3 2.5-.2 0-.2-.4 0-.4zm.5.9c1.4-.2 2.5-.7 3.3-1.9.1-.2.4-.1.3.2-.6 1.4-2.1 2.6-3.7 2.1-.1-.1-.1-.4.1-.4zm-3.7-6.3c-.1-.2.1-.5.3-.3 1.5 1.1 2.3 3.8.7 5.1-.2.1-.4 0-.3-.2.4-.7.7-1.8.5-2.6-.2-.8-.9-1.3-1.2-2zm-4.9-.2c1.9.1 3.2 2 3.5 3.8 0 .2-.2.3-.3.1-.4-.8-.7-1.7-1.4-2.3-.6-.6-1.3-.9-2-1.2-.1-.2 0-.5.2-.4zM72.4 84c2.6-1.7 6.2-.6 8.4 1.3.1.1 0 .2-.1.1-2.8-1.5-5.1-2.1-8.2-1.1-.2.1-.3-.2-.1-.3zm-3.6 3.7c1.8-2 5.2-2.7 7.8-1.9.1 0 .1.3 0 .2-1.2-.1-2.6 0-3.8.2-1.4.3-2.4 1.2-3.7 1.8-.3.1-.4-.2-.3-.3z" fill="#5d5857" stroke-width="none" opacity="1"></path><path id="SvgjsPath10271" d="M92.9 87.5c0-.3 0-.5-.1-.7 0-.5-.2-1-.7-1.3-.6-.8-1.6-1.3-2.5-1.7-2.5-1.2-5.4-2-8.2-2.2-4.8-.4-10 1.2-12.8 5.3-.1 0-.2 0-.3.1-.4.5-.4 1.1.2 1.6.9.8 2.3 0 3.2-.3 3.6-1.4 7.3-2.7 11.2-1.5 1.8.6 3.4 1.6 5.2 2.3 1 .4 2.2.6 3.2.1.6-.3 1-.8 1.2-1.4.3-.1.4-.1.4-.3zm-17-4.6s.1 0 0 0c2.2.5 3.8 1 5.5 2.4.1.1.3 0 .2-.2-1-1.3-2.6-2.3-4.2-2.6.9-.2 1.8-.2 2.7-.2v.1c.6.5 1.1.9 1.6 1.5.4.6.6 1.2.8 1.8-.6-.2-1.1-.3-1.7-.3-1.8-.2-3.7.1-5.4.6-1 .3-2 .7-2.9 1-.4.2-2.9 1.5-3.5.5.1 0 .1 0 .2-.1 1.7-2.2 4.1-3.7 6.7-4.5zm9.5.1c-.1.6.1 1.1.1 1.7 0 .7-.3 1.2-.5 1.8v.2c-.7-.3-1.4-.6-2.1-.8 0-1.3-.9-2.8-2.1-3.5 1.6 0 3.1.2 4.6.6zm6.9 3.6c.2 1-.9 1.9-1.9 2.1-.6.1-1.4-.2-1.9-.4-.3-.1-.6-.3-.9-.4.4-.2.9-.5 1.2-.8.7-.6 1.1-1.3 1.2-2.2 0-.2-.2-.2-.2-.1-.3.7-.7 1.3-1.3 1.8-.5.4-1.1.6-1.6.9-.4-.2-.8-.4-1.3-.6-.1 0-.1 0-.2-.1 0 0 .1 0 .1-.1.8-.6 1.2-2.8.4-3.6.6.2 1.2.3 1.7.5 1.1.4 2.4.8 3.3 1.5-.1.6-.4 1.2-.9 1.7-.5.4-1 .6-1.6.8-.2.1-.2.3 0 .4.7.2 1.6-.2 2.1-.8.5-.5.8-1.2.8-1.9.3.4.7.8 1 1.3z" fill="#3f312e" stroke-width="none" opacity="1"></path></g></g></g><g id="svga-group-eyebrows-right-move" transform="matrix(1,0,0,1,0,0)"><g id="svga-group-eyebrows-right-rotate" transform="matrix(1,0,0,1,0,0)"><g id="svga-group-eyebrows-right" transform="matrix(1,0,0,1,0,0)"><path id="SvgjsPath10272" d="m130.9 87.3-.2-.2-.3-.3v-.1c-.1-.2-.2-.4-.4-.5-.3-.4-.7-.7-1-.9-.7-.6-1.4-1.2-2.3-1.4h-.2c-1.6-1.3-4-2.5-5.7-1.4-1.7-.2-3.5-.1-5 .4-.8-.1-1.5.2-2.3.5-1.3.4-2.6.8-3.7 1.4-.1.1-.2.2-.2.3-1.5.4-3 2.1-1.5 3.5.8.7 1.8.7 2.7.3.2-.1.4-.1.6-.2 1.7-.1 3.2-1.3 4.8-1.9 1.2-.5 2.5-.7 3.7-1 .9.1 1.7.2 2.6.3.3 0 .6.1.9.1 1.1.4 2.1.6 3.2.8.2.1.4.2.7.3.2.2.6.3.8.4.1.1.3.1.4.2l.9.3c.3.1.6.2.9.2.1 0 .3 0 .4-.1.1 0 .1.1.2.1.3.1.6-.1.6-.4-.1-.5-.3-.7-.6-.7z" fill="#4e4341" stroke-width="none" opacity="1"></path><path id="SvgjsPath10273" d="M111.7 87.9c-.6-.2-1.3-.2-1.8-.6-.6-.4-1-1-1.1-1.6-.1-.2-.4-.1-.4.1.2 1.4 1.7 3.2 3.3 2.5.2 0 .2-.4 0-.4zm-.5.9c-1.4-.2-2.5-.7-3.3-1.9-.1-.2-.4-.1-.3.2.6 1.4 2.1 2.6 3.7 2.1.1-.1.1-.4-.1-.4zm3.7-6.3c.1-.2-.1-.5-.3-.3-1.5 1.1-2.3 3.8-.7 5.1.2.1.4 0 .3-.2-.4-.7-.7-1.8-.5-2.6.2-.8.9-1.3 1.2-2zm4.9-.2c-1.9.1-3.2 2-3.5 3.8 0 .2.2.3.3.1.4-.8.7-1.7 1.4-2.3.6-.6 1.3-.9 2-1.2.1-.2 0-.5-.2-.4zm7.8 1.7c-2.6-1.7-6.2-.6-8.4 1.3-.1.1 0 .2.1.1 2.8-1.5 5.1-2.1 8.2-1.1.2.1.3-.2.1-.3zm3.6 3.7c-1.9-2-5.2-2.7-7.8-1.9-.1 0-.1.3 0 .2 1.2-.1 2.6 0 3.8.2 1.4.3 2.5 1.2 3.7 1.8.3.1.4-.2.3-.3z" fill="#5d5857" stroke-width="none" opacity="1"></path><path id="SvgjsPath10274" d="M107.3 87.7c.2.6.6 1.1 1.2 1.4 1 .5 2.2.3 3.2-.1 1.8-.7 3.4-1.7 5.2-2.3 3.9-1.2 7.6.1 11.2 1.5.9.4 2.3 1.1 3.2.3.6-.5.6-1.1.2-1.6-.1-.1-.2-.1-.3-.1-2.8-4.1-8.1-5.7-12.8-5.3-2.8.2-5.6 1-8.2 2.2-.9.4-1.8 1-2.5 1.7-.4.3-.7.8-.7 1.3-.1.2-.1.5-.1.7.2.3.3.3.4.3zm23.6-.2c0 .1.1.1.1.1-.5.9-3.1-.4-3.5-.5-1-.4-1.9-.7-2.9-1-1.8-.5-3.6-.8-5.4-.6-.6.1-1.1.2-1.7.3.2-.6.4-1.3.8-1.8.4-.6 1-1.1 1.6-1.5v-.1c.9 0 1.8.1 2.7.2-1.7.2-3.3 1.3-4.2 2.6-.1.1.1.2.2.2 1.6-1.4 3.3-1.9 5.4-2.3 0 0 .1 0 .1-.1 2.6.7 5 2.2 6.8 4.5zm-11.7-5.2c-1.2.7-2.1 2.2-2.1 3.5-.7.2-1.4.5-2.1.8v-.2c-.1-.6-.4-1.2-.5-1.8 0-.5.2-1.1.1-1.6v-.1c1.5-.3 3-.5 4.6-.6zm-10.4 3c0 .7.3 1.4.8 1.9s1.3 1 2.1.8c.2-.1.2-.3 0-.4-.6-.2-1.1-.4-1.6-.8s-.8-1-.9-1.7c1-.7 2.2-1.1 3.3-1.5.6-.2 1.1-.3 1.7-.5-.8.8-.5 3 .4 3.6 0 0 .1 0 .1.1-.1 0-.1 0-.2.1-.4.2-.9.4-1.3.6-.5-.3-1.1-.4-1.6-.9-.6-.5-1-1.1-1.3-1.8-.1-.2-.3-.1-.2.1.1.9.5 1.6 1.2 2.2.3.3.7.6 1.2.8-.3.2-.6.3-.9.4-.5.2-1.3.6-1.9.4-1.1-.2-2.1-1.1-1.9-2.1.2-.5.6-.9 1-1.3z" fill="#3f312e" stroke-width="none" opacity="1"></path></g></g></g><g id="svga-group-nose-single-move" transform="matrix(1,0,0,1,0,0)"><g id="svga-group-nose-single" transform="matrix(1,0,0,1,0,0)"><path id="SvgjsPath10253" d="M106.75 109.06c-.14-.13-.4-.01-.34.2.39 1.23 1.61 1.94 2.03 3.16.29.85.04 1.89-.65 2.49-1.06.93-2.37.55-3.35-.25a.193.193 0 0 0-.1-.03c.38-.17.79-.29 1.26-.29.23 0 .29-.3.11-.42-1.49-1.03-2.69.78-3.88 1.42-2.41 1.3-4.51-1.6-6.9-1.44-.19.01-.23.27-.04.33.29.1.59.24.89.38-.41.19-.81.42-1.25.51-1.03.2-2.06-.29-2.59-1.18-1.15-1.92.57-3.53 1.79-4.8.09-.09-.02-.23-.13-.17-1.91 1.03-3.51 3.63-2.03 5.65.99 1.35 3.76 1.95 4.62.19 1.37.69 2.76 1.56 4.23 1.64 1.61.09 2.55-1.16 3.82-1.77-.05.04-.07.1-.03.18 1.13 1.64 3.6 1.43 4.62-.22 1.27-2.08-.59-4.22-2.08-5.58z" fill="#cd865f" stroke-width="none" opacity="1" transform="translate(0 2)" stroke="none"></path><path id="SvgjsPath10254" d="M95.24 108.25c1.08-.47 2.16-.9 3.33-1.1 1.16-.2 2.31-.07 3.48-.13.14-.01.16-.2.03-.24-1.44-.52-3.18-.36-4.74.18 1.41-2.2 1.99-5.13 1.49-7.67-.04-.18-.3-.13-.31.04-.1 2.83-.6 5.21-1.66 7.8-.64.26-1.23.57-1.74.93-.12.07-.01.24.12.19z" fill="#cd865f" stroke-width="none" opacity="1" transform="translate(0 2)" stroke="none"></path><path id="SvgjsPath10255" d="M105.07 109.02c-1.96-2.22-5.99-2.01-8.05-.09-.24.23-.14.72.21.79 1.07.19 2.08.09 3.16.11 1.29.03 2.11.47 3.12 1.23 1.22.91 2.47-1 1.56-2.04z" fill="#ffe1d0" stroke-width="none" opacity="1" transform="translate(0 2)" stroke="none"></path></g></g><g id="svga-group-hair-front" transform="matrix(1,0,0,1,0,0)"><path id="SvgjsPath10310" d="M96.3 39.2s-1.9-1.7-6.2-2.7c-4.3-1-14.5-.3-25.3 9.8s-16.2 22.4-19.3 32c-3.1 9.6-4.3 32-4.1 33.7s6 9.1 9.6 11.3c0 0-.5-10.8.2-14.8 0 0 1.2 12.6 1.9 16 0 0 8.4 4.4 14.9 5.4 0 0-3.1-17.9-3.8-33.9s1.4-31.4 5.1-38.8c0 0-2.5 14.6-3.2 22.5 0 0 25.2 4.3 49.4 2.4 0 0 1.4-9.1 1.4-13.1 0 0 .7 7.9.7 12.6 0 0 9.1 1 17.3-.7 0 0 3.8 30.3-5.5 48.8 0 0 9.6-1.5 13.7-3.7 0 0 1.4-4.7 1.9-7.1 0 0 .2 3.4-.5 6.2 0 0 4.8-2.7 8.1-5.4 0 0-.1-10.9-.5-15.9 0 0 2.4 7.5 2.2 14.4 0 0 1.9-2.5 3.6-4.4 0 0-1.8-20.4-8.5-40.9s-21.7-31.3-30.6-34.5-18.9-2.7-22.5.8z" fill="#4e4341" stroke-width="none" opacity="1" stroke="none"></path><path id="SvgjsPath10311" d="M91.2 39.9c-18.8.6-23.4 23.5-23.6 38.3 0 .4.6.5.7.1 2.1-15.3 4.3-34.8 23-37.8.4 0 .3-.6-.1-.6zM89 41.1c-12.8 6-16.7 20.6-16.1 33.7 0 .3.4.3.4 0 .2-13.2 3.3-26.7 15.8-33.4.3-.1.1-.4-.1-.3zm5.4.1c-5.6 8.9-7.9 20.7-4.9 30.9.1.3.7.3.6-.1-1.2-10.9-.1-20.6 4.8-30.5.2-.4-.3-.7-.5-.3zm-1-1.8C78 35.9 65.6 50.2 61.6 63.5c-2.8 9-3 18.6-2.9 28 .1 10.2.2 20.6 2.4 30.6.1.3.6.2.5-.1-2.4-16.8-4-35.5-.8-52.3 3-15.9 14.4-31.9 32.4-29.7.4 0 .5-.5.2-.6zm6 2.6c-.1-.2-.3 0-.3.2 2.8 5.6 5 11.5 6.2 17.6 1.2 6.3.8 12.3.7 18.6 0 .3.5.4.5.1 2.8-12.1-.9-26.1-7.1-36.5zm3.4-3.2c-.3 0-.4.4-.1.4 18.5 4 21 24.6 22.9 39.9 0 .3.5.3.5 0 .2-14.8-5.7-37.9-23.3-40.3zM140 74.5c-3.2-16-15.4-29.2-30-35.8-.2-.1-.3.2-.2.3 13.9 8.5 26.1 19.9 29 36.7 2.7 15.5 2 32.7-4 47.3-.1.4.4.6.6.3 4.1-6.8 5.5-14.7 5.9-22.6.6-8.6.4-17.8-1.3-26.2zM80.5 38.7c-12.8 4.3-21.3 16.6-26 28.7-5.8 15-9.7 33.6-7.5 49.6 0 .3.5.2.5-.1-.9-27.7 5.2-64.9 33.1-78 .1-.1.1-.3-.1-.2z" fill="#3f312e" stroke-width="none" opacity="1" stroke="none"></path><path id="SvgjsPath10312" d="M109.9 51.7c-2.1-5.3-5.1-10.4-10.8-12.1-.2 0-.3.2-.1.3 13.1 5.6 14.4 25.9 14.2 38 0 .3.4.3.4 0 .9-8.9-.4-18-3.7-26.2zm22.6 16.6c-.1-.2-.4-.1-.4.2 1 3.9 1.9 7.6 2.6 11.5.1.3.6.2.6-.1-.1-3.9-1-8.1-2.8-11.6zM99 44.8c-.1-.2-.3-.1-.3.1 2.2 9.6 2.8 18.8 3 28.6 0 .3.4.3.5 0 1-9.5-.5-19.6-3.2-28.7zm-.2 6.2c0-.2-.3-.1-.3 0 .8 7.2 1.1 14.3 1.3 21.6 0 .3.5.3.5 0 .5-7.2-.2-14.5-1.5-21.6zm-2.7-2.9c0-.2-.3-.2-.3 0 .8 10.2.7 20.5 1 30.7 0 .3.4.3.5 0 .5-10.3-.3-20.5-1.2-30.7zm-1.9 6.8c-.4 6.3-.6 12.6-.4 18.9 0 .3.4.3.5 0 .3-6.3.3-12.6.3-18.9 0-.3-.4-.3-.4 0zm-4.8-9.4c-5.3 8.7-6.4 19.2-6.6 29.1 0 .4.7.4.7 0 .9-10.1 1.3-19.8 6.4-28.9.1-.2-.3-.5-.5-.2zM84 50.3c-3.1 6.2-4.8 13-4.1 20 0 .3.4.3.4 0 .2-6.9 1.2-13.3 4.1-19.7.3-.4-.2-.7-.4-.3zm-2.1-.5c-3.2 5.7-5.5 11.8-6.2 18.3 0 .3.5.4.5.1 1.2-6.4 2.9-12.4 6-18.2.2-.2-.2-.5-.3-.2zm26.4-6.6c-.1-.1-.3 0-.2.1 4.7 7.3 7.1 15.4 7.7 24 0 .2.3.2.3 0-.1-8.9-2.9-16.9-7.8-24.1zm15 10.5c-.1-.1-.3 0-.2.2 4.4 5.7 5.2 12.6 6.4 19.5 0 .2.4.2.4-.1-.7-7-2-14.1-6.6-19.6zm-1-4c-.1-.1-.3.1-.2.2 5.1 5.5 8.3 11.6 10.7 18.6.1.3.5.2.4-.1-1.7-7.2-5.8-13.5-10.9-18.7zm-.9-8.1c-.2-.1-.4.2-.2.4 19.9 13.3 24.9 35.8 27.1 58.2 0 .3.4.3.4 0-.4-22-7.5-46.7-27.3-58.6zm25.7 29.8c-.1-.2-.3-.1-.3.1 2 8.2 3.1 16.4 3.7 24.8 0 .3.4.3.4 0 0-8.5-1.4-16.9-3.8-24.9zm1.2 31.9c0-.2-.3-.2-.3 0-.3 6.2-.7 12.4-1.3 18.6 0 .2.2.2.3 0 1-6.1 1.5-12.4 1.3-18.6zM57.5 70.8c0-.2-.3-.3-.3-.1-3 13.1-3.8 26.9-2.2 40.2 0 .2.4.2.4 0-.7-13.5-.1-26.7 2.1-40.1z" fill="#5d5857" stroke-width="none" opacity="1" stroke="none"></path></g><g id="svga-group-glasses-single-move" transform="matrix(1,0,0,1,0,0)"><g id="svga-group-glasses-single" transform="matrix(1,0,0,1,0,0)"></g></g></g></g></g><rect id="svga-credit-rect" width="200" height="15" x="0" y="185" fill="#ecf0f1" opacity="0.5" style="display: none;"></rect><text id="svga-credit-text" font-family="Avenir Next, Roboto, Helvetica, Arial, sans-serif" font-size="10px" text-anchor="start" font-weight="400" size="10px" anchor="start" weight="400" fill="#333333" x="33.41004180908203" y="182.53461003303528" style="display: none;"><tspan id="SvgjsTspan8824" dy="13" x="33.41004180908203">Created on AvatarMaker.com</tspan></text></g></svg>