<svg width="460.4" height="133.025" viewBox="0 0 460.4 133.025" xmlns="http://www.w3.org/2000/svg"><g id="svgGroup" stroke-linecap="round" fill-rule="evenodd" font-size="9pt" stroke="#f88d19" stroke-width="0.5mm" fill="#000" style="stroke:#f88d19;stroke-width:0.5mm;fill:#000"><path d="M 47.3 13.325 L 44.5 13.225 A 15.916 15.916 0 0 0 43.684 13.245 Q 42.85 13.288 42.3 13.425 Q 37.4 14.425 31.9 16.025 A 0.432 0.432 0 0 0 31.844 16.033 Q 31.582 16.08 30.203 16.406 A 332.733 332.733 0 0 0 29.7 16.525 A 18.822 18.822 0 0 1 29.51 16.572 Q 29.009 16.691 27.75 16.975 Q 26.2 17.325 25.05 17.725 Q 24.308 17.984 23.836 18.325 A 2.382 2.382 0 0 0 23.4 18.725 A 3.065 3.065 0 0 0 22.691 19.881 Q 22.518 20.363 22.448 20.958 A 7.422 7.422 0 0 0 22.4 21.825 A 11.739 11.739 0 0 0 22.53 23.502 Q 22.655 24.365 22.9 25.333 A 24.901 24.901 0 0 0 23.25 26.575 Q 24.007 29.025 24.169 29.689 A 3.44 3.44 0 0 1 24.2 29.825 A 50.275 50.275 0 0 1 24.674 31.221 Q 25.302 33.171 25.394 34.157 A 4.184 4.184 0 0 1 25.4 34.225 A 96.307 96.307 0 0 1 28.611 33.168 Q 30.393 32.614 32.404 32.052 A 176.683 176.683 0 0 1 34.9 31.375 Q 39.38 30.194 42.997 29.975 A 26.527 26.527 0 0 1 44.6 29.925 A 14.869 14.869 0 0 1 46.605 30.048 Q 48.811 30.35 49.768 31.394 A 2.89 2.89 0 0 1 50.5 33.425 A 5.251 5.251 0 0 1 50.36 34.572 Q 50.073 35.846 49.2 37.525 A 12.468 12.468 0 0 1 47.886 39.388 Q 46.974 40.446 45.904 41.123 A 9.997 9.997 0 0 1 45.9 41.125 A 11.418 11.418 0 0 1 43.486 42.293 A 9.883 9.883 0 0 1 42 42.675 A 38.27 38.27 0 0 1 40.613 42.889 Q 38.938 43.119 36.6 43.325 A 9.948 9.948 0 0 0 36.266 43.332 Q 35.713 43.35 34.85 43.425 A 73.727 73.727 0 0 0 34.037 43.5 Q 33.4 43.563 32.9 43.625 A 5.462 5.462 0 0 1 32.624 43.672 Q 32.168 43.738 31.282 43.822 A 85.61 85.61 0 0 1 30.7 43.875 Q 29 44.025 27.8 44.525 A 41.124 41.124 0 0 0 27.278 44.738 Q 26.234 45.172 25.95 45.375 A 0.749 0.749 0 0 0 25.69 45.718 Q 25.638 45.85 25.616 46.015 A 1.979 1.979 0 0 0 25.6 46.275 Q 25.6 46.925 25.5 48.125 Q 25.3 50.925 24.5 56.525 L 24.2 58.625 A 225.687 225.687 0 0 1 23.436 63.472 Q 23.031 65.865 22.61 67.983 A 121.615 121.615 0 0 1 22.1 70.425 Q 21 75.425 19 80.025 Q 17.689 82.835 15.369 85.908 A 46.86 46.86 0 0 1 15.05 86.325 A 13.703 13.703 0 0 1 13.739 87.808 Q 11.856 89.625 10 89.625 Q 9.3 89.625 8.7 89.325 Q 6.901 88.426 6.9 83.829 A 18.039 18.039 0 0 1 6.9 83.825 Q 6.9 80.825 7.9 74.625 L 8.2 72.325 L 9.8 57.425 Q 10.4 53.025 10.6 50.825 L 8.9 51.825 A 43.524 43.524 0 0 1 7.012 52.994 Q 4.22 54.618 2.675 54.802 A 3.173 3.173 0 0 1 2.3 54.825 A 2.615 2.615 0 0 1 1.742 54.769 Q 1.313 54.675 1 54.425 A 3.282 3.282 0 0 1 0.371 53.677 A 2.581 2.581 0 0 1 0 52.325 A 4.814 4.814 0 0 1 0.363 50.553 Q 0.645 49.839 1.146 49.086 A 12.795 12.795 0 0 1 2.2 47.725 Q 4.168 45.489 6.056 44.053 A 18.361 18.361 0 0 1 6.5 43.725 A 9.887 9.887 0 0 1 8.363 42.589 A 10.943 10.943 0 0 1 8.5 42.525 A 18.9 18.9 0 0 0 9.585 41.79 Q 10.612 41.037 11.191 40.347 A 5.207 5.207 0 0 0 11.25 40.275 A 3.172 3.172 0 0 0 11.76 39.336 Q 12.066 38.476 12.097 37.21 A 11.821 11.821 0 0 0 12.1 36.925 Q 12.1 35.225 11.4 33.125 A 10.048 10.048 0 0 0 10.476 31.224 A 12.198 12.198 0 0 0 9.9 30.375 A 250.824 250.824 0 0 1 9.553 29.906 Q 8.917 29.043 8.729 28.768 A 4.347 4.347 0 0 1 8.7 28.725 Q 7.3 26.725 6.6 25.475 Q 5.9 24.225 5.9 22.725 A 5.731 5.731 0 0 1 6.015 21.618 Q 6.163 20.869 6.5 20.025 A 11.706 11.706 0 0 1 9.586 15.884 A 15.194 15.194 0 0 1 11.25 14.625 Q 14.6 12.425 19.9 10.125 L 22.6 8.925 Q 30.7 5.125 37.75 2.775 A 55.599 55.599 0 0 1 47.97 0.375 A 49.184 49.184 0 0 1 51.6 0.025 Q 55.201 -0.238 55.639 2.275 A 4.369 4.369 0 0 1 55.7 3.025 A 6.668 6.668 0 0 1 55.506 4.569 Q 55.337 5.278 55.021 6.05 A 13.793 13.793 0 0 1 54.65 6.875 A 21.502 21.502 0 0 1 53.39 9.12 A 17.19 17.19 0 0 1 52.3 10.625 A 12.6 12.6 0 0 1 51.502 11.523 Q 50.641 12.397 49.85 12.775 A 5.669 5.669 0 0 1 47.816 13.306 A 6.792 6.792 0 0 1 47.3 13.325 Z" id="0" vector-effect="non-scaling-stroke"/><path d="M 65.2 70.825 L 61.9 68.125 A 608.46 608.46 0 0 1 59.919 72.332 Q 57.142 78.166 55.42 81.387 A 88.698 88.698 0 0 1 55.4 81.425 A 3.352 3.352 0 0 1 54.698 82.383 Q 53.947 83.123 52.582 83.796 A 16.095 16.095 0 0 1 51.75 84.175 A 17.647 17.647 0 0 1 49.341 85.008 Q 48.045 85.347 46.847 85.411 A 10.308 10.308 0 0 1 46.3 85.425 A 6.52 6.52 0 0 1 45.348 85.362 Q 43.5 85.088 43.5 83.625 A 2.106 2.106 0 0 1 43.542 83.222 Q 43.582 83.022 43.657 82.796 A 4.984 4.984 0 0 1 43.8 82.425 A 802.841 802.841 0 0 1 46.636 75.529 Q 48.104 72.001 49.769 68.082 A 1405.201 1405.201 0 0 1 50.9 65.425 L 53 60.325 L 50.5 57.825 Q 49.8 57.125 49.8 56.225 Q 49.8 54.952 51.035 53.762 A 8.18 8.18 0 0 1 52 52.975 Q 54.2 51.425 56.9 50.925 Q 61.7 39.425 65.9 27.525 Q 66.285 26.177 68.293 25.154 A 10.234 10.234 0 0 1 68.45 25.075 Q 70.6 24.025 73 23.725 A 15.28 15.28 0 0 1 74.157 23.431 Q 75.131 23.225 75.9 23.225 A 5.554 5.554 0 0 1 77.005 23.326 Q 78.766 23.685 79 25.325 Q 80.4 34.025 82.55 42.975 A 673.938 673.938 0 0 0 84.613 51.314 Q 86.056 57 87.8 63.525 Q 90.169 72.511 91.203 76.559 A 316.183 316.183 0 0 1 91.6 78.125 A 1.487 1.487 0 0 1 91.651 78.33 Q 91.689 78.543 91.698 78.845 A 6.387 6.387 0 0 1 91.7 79.025 Q 91.7 81.425 89 83.175 A 11.106 11.106 0 0 1 86.075 84.541 A 9.486 9.486 0 0 1 83.4 84.925 Q 81.542 84.925 80.343 84.146 A 3.956 3.956 0 0 1 79.7 83.625 Q 76.8 80.525 73.6 77.725 Q 70.738 75.221 66.275 71.676 A 380.772 380.772 0 0 0 65.2 70.825 Z M 70.3 47.625 L 67.6 54.525 L 66.8 56.525 L 73.8 62.425 L 73.1 59.525 A 187.324 187.324 0 0 1 72.727 57.999 Q 72.125 55.5 71.022 50.747 A 2729.897 2729.897 0 0 1 70.3 47.625 Z" id="1" vector-effect="non-scaling-stroke"/><path d="M 146.5 66.925 L 147.8 78.325 Q 148.1 80.525 145.35 82.225 Q 142.6 83.925 139.6 83.925 A 7.227 7.227 0 0 1 138.228 83.802 Q 137.292 83.621 136.55 83.175 Q 135.3 82.425 135.2 80.825 Q 133.9 66.925 132.2 52.125 A 190.81 190.81 0 0 1 128.825 59.024 A 155.88 155.88 0 0 1 126.8 62.825 Q 126.511 63.403 125.858 63.98 A 7.534 7.534 0 0 1 125.3 64.425 A 9.11 9.11 0 0 1 123.474 65.721 A 11.843 11.843 0 0 1 122.05 66.375 A 11.657 11.657 0 0 1 120.021 66.961 A 9.301 9.301 0 0 1 118.3 67.125 A 7.033 7.033 0 0 1 116.821 66.982 Q 115.968 66.798 115.35 66.379 A 3.328 3.328 0 0 1 114.2 65.025 Q 112.4 61.025 110.6 56.425 L 110.1 59.425 A 1188.483 1188.483 0 0 1 109.394 63.875 Q 108.25 71 106.6 80.825 Q 106.301 82.917 103.275 84.463 A 13.398 13.398 0 0 1 103.25 84.475 A 15.087 15.087 0 0 1 100.331 85.613 A 11.654 11.654 0 0 1 97.3 86.025 A 6.941 6.941 0 0 1 96.368 85.967 Q 95.879 85.9 95.477 85.758 A 3.039 3.039 0 0 1 94.8 85.425 A 1.58 1.58 0 0 1 94.082 84.263 Q 94.048 84.002 94.078 83.699 A 3.301 3.301 0 0 1 94.1 83.525 Q 99.4 48.525 102.4 31.925 Q 102.8 29.825 105.8 28.225 A 14.202 14.202 0 0 1 108.135 27.223 Q 109.872 26.665 111.5 26.725 Q 113.1 26.525 114.25 26.975 A 2.516 2.516 0 0 1 114.916 27.351 A 1.888 1.888 0 0 1 115.6 28.525 A 149.295 149.295 0 0 0 119.093 41.592 A 121.733 121.733 0 0 0 121.8 49.225 Q 126.1 39.525 130 29.225 A 3.778 3.778 0 0 1 130.876 27.857 Q 131.696 27.01 133.15 26.325 A 12.85 12.85 0 0 1 136.003 25.355 A 10.755 10.755 0 0 1 138.2 25.125 Q 141.2 25.125 141.8 26.925 A 1.45 1.45 0 0 1 141.906 27.12 Q 142.005 27.334 142.104 27.669 A 8.988 8.988 0 0 1 142.2 28.025 Q 143.355 39.866 146.271 64.958 A 5998.102 5998.102 0 0 0 146.5 66.925 Z" id="2" vector-effect="non-scaling-stroke"/><path d="M 167.5 28.725 L 164.6 83.025 Q 164.521 84.689 162.746 86.008 A 9.324 9.324 0 0 1 161.7 86.675 A 12.822 12.822 0 0 1 158.813 87.862 A 10.434 10.434 0 0 1 156.1 88.225 Q 152.497 88.225 152.497 85.476 A 4.371 4.371 0 0 1 152.5 85.325 L 155.5 31.125 A 3.158 3.158 0 0 1 156.203 29.328 Q 156.929 28.39 158.4 27.575 A 12.822 12.822 0 0 1 161.288 26.389 A 10.434 10.434 0 0 1 164 26.025 A 6.453 6.453 0 0 1 165.073 26.109 Q 165.668 26.21 166.153 26.431 A 3.427 3.427 0 0 1 166.6 26.675 A 1.917 1.917 0 0 1 167.482 28.079 Q 167.524 28.372 167.501 28.71 A 3.744 3.744 0 0 1 167.5 28.725 Z M 156.5 10.525 L 155.3 17.925 A 3.474 3.474 0 0 0 155.269 18.236 Q 155.244 18.732 155.38 19.13 A 1.839 1.839 0 0 0 156.05 20.025 A 3.347 3.347 0 0 0 157.158 20.549 Q 157.797 20.725 158.6 20.725 A 10.629 10.629 0 0 0 162.144 20.095 A 13.954 13.954 0 0 0 164.1 19.225 A 9.268 9.268 0 0 0 165.411 18.386 Q 166.073 17.872 166.495 17.3 A 3.667 3.667 0 0 0 167.2 15.625 Q 168 10.625 168.3 8.125 Q 168.7 5.625 165.2 5.625 Q 162.5 5.625 159.6 7.125 A 10.347 10.347 0 0 0 158.336 7.888 Q 156.651 9.093 156.5 10.525 Z" id="3" vector-effect="non-scaling-stroke"/><path d="M 182.735 4.126 A 2.957 2.957 0 0 0 182.1 5.625 A 4422.676 4422.676 0 0 0 181.754 8.375 Q 176.587 49.534 173.2 82.825 A 4.25 4.25 0 0 0 173.191 82.928 Q 173.011 85.209 175.524 85.63 A 7.765 7.765 0 0 0 176.8 85.725 A 10.398 10.398 0 0 0 179.998 85.203 A 14.068 14.068 0 0 0 182.55 84.075 Q 185.5 82.425 185.7 80.325 Q 186.247 75.325 187.831 61.109 A 51308.553 51308.553 0 0 1 188.8 52.425 Q 191.575 28.8 193.169 12.825 A 962.383 962.383 0 0 0 194.1 3.025 A 3.441 3.441 0 0 0 194.103 2.882 Q 194.103 1.075 192.113 0.715 A 6.285 6.285 0 0 0 191 0.625 A 9.48 9.48 0 0 0 190.756 0.629 Q 189.309 0.666 187.778 1.143 A 15.402 15.402 0 0 0 185.3 2.175 Q 183.531 3.09 182.735 4.126 Z" id="4" vector-effect="non-scaling-stroke"/><path d="M 194.9 64.625 L 194.8 60.625 Q 194.8 45.025 198 31.325 A 3.367 3.367 0 0 1 198.732 29.875 Q 199.595 28.828 201.4 27.925 Q 204.347 26.452 207.005 26.426 A 9.747 9.747 0 0 1 207.1 26.425 A 5.297 5.297 0 0 1 207.954 26.49 Q 208.763 26.622 209.3 27.025 A 1.603 1.603 0 0 1 209.759 27.546 Q 210.025 28.038 209.9 28.725 A 155.328 155.328 0 0 0 207.689 43.968 A 189.902 189.902 0 0 0 207 53.825 Q 206.8 58.025 206.8 60.325 Q 206.8 64.125 207.3 68.825 Q 207.766 72.089 208.353 73.903 A 9.434 9.434 0 0 0 208.7 74.825 L 209.5 76.425 Q 210.036 75.43 210.865 73.673 A 151.394 151.394 0 0 0 211.4 72.525 A 61.104 61.104 0 0 0 213.396 66.428 Q 214.556 62.188 215.4 57.125 L 216.3 52.225 Q 218.014 44.196 218.182 39.178 A 31.545 31.545 0 0 0 218.2 38.125 Q 218.2 35.525 218 34.225 L 217.1 27.625 A 2.883 2.883 0 0 1 217.087 27.352 Q 217.087 25.417 219.75 23.875 A 13.012 13.012 0 0 1 222.411 22.691 A 10.047 10.047 0 0 1 225.4 22.225 A 6.838 6.838 0 0 1 226.583 22.319 Q 228.563 22.668 228.8 24.325 Q 230.313 35.325 231.352 44.198 A 606.379 606.379 0 0 1 232.2 51.825 Q 233.4 63.325 233.4 74.625 Q 233.4 89.825 231 101.525 A 77.21 77.21 0 0 1 228.325 111.387 A 62.313 62.313 0 0 1 225.5 118.225 A 29.873 29.873 0 0 1 220.435 125.679 A 26.289 26.289 0 0 1 215.6 129.725 A 22.405 22.405 0 0 1 210.703 132.094 A 17.583 17.583 0 0 1 205.1 133.025 Q 200.2 133.025 195.5 130.475 A 32.922 32.922 0 0 1 189.121 125.915 A 39.835 39.835 0 0 1 186.7 123.525 A 5.931 5.931 0 0 1 186.332 123.015 Q 185.986 122.475 185.917 122.038 A 1.359 1.359 0 0 1 185.9 121.825 Q 185.9 119.825 188.75 118.075 Q 191.6 116.325 194.5 116.325 Q 196.124 116.325 197.154 117.051 A 3.379 3.379 0 0 1 197.6 117.425 A 28.768 28.768 0 0 1 197.837 117.666 Q 198.407 118.25 199.762 119.675 A 782.768 782.768 0 0 1 200 119.925 A 25.898 25.898 0 0 0 202.676 122.386 A 22.174 22.174 0 0 0 203.95 123.325 A 10.477 10.477 0 0 0 205.197 124.064 Q 205.901 124.413 206.558 124.578 A 4.687 4.687 0 0 0 207.7 124.725 A 6.438 6.438 0 0 0 208.143 124.711 Q 208.568 124.682 208.839 124.591 A 1.235 1.235 0 0 0 209 124.525 A 4.919 4.919 0 0 0 210.623 123.507 Q 211.554 122.652 212.35 121.225 A 53.481 53.481 0 0 0 213.589 118.876 Q 214.143 117.754 214.578 116.719 A 32.374 32.374 0 0 0 214.7 116.425 A 2141.773 2141.773 0 0 0 215.013 115.66 Q 215.588 114.253 215.771 113.797 A 42.466 42.466 0 0 0 215.8 113.725 Q 218.2 107.725 219.3 101.075 Q 220.4 94.425 220.8 86.225 Q 220.953 81.325 220.989 78.243 A 148.612 148.612 0 0 0 221 76.525 A 27.447 27.447 0 0 1 218.459 80.364 A 20.049 20.049 0 0 1 214.9 83.875 A 12.99 12.99 0 0 1 208.661 86.38 A 17.067 17.067 0 0 1 206.4 86.525 A 12.038 12.038 0 0 1 202.798 86.023 Q 199.08 84.86 197.462 81.002 A 12.519 12.519 0 0 1 197.15 80.175 A 38.366 38.366 0 0 1 195.701 74.31 Q 194.958 69.944 194.9 64.625 Z" id="5" vector-effect="non-scaling-stroke"/><path d="M 274.9 72.625 L 274.9 70.225 A 31.361 31.361 0 0 0 274.893 69.583 Q 274.887 69.298 274.876 68.984 A 58.511 58.511 0 0 0 274.85 68.325 Q 274.8 67.225 274.9 65.925 Q 275.513 57.657 275.832 52.553 A 407.637 407.637 0 0 0 276 49.725 A 33.934 33.934 0 0 1 276.014 48.725 Q 276.03 48.179 276.065 47.699 A 18.391 18.391 0 0 1 276.1 47.275 Q 276.2 46.225 276.3 45.425 Q 276.4 44.425 276.5 42.925 A 40.608 40.608 0 0 0 276.561 41.73 Q 276.588 41.005 276.596 40.188 A 74.272 74.272 0 0 0 276.6 39.425 A 26.498 26.498 0 0 0 276.431 36.388 A 23.282 23.282 0 0 0 276.3 35.425 A 18.847 18.847 0 0 0 276.027 33.996 Q 275.701 32.604 275.217 31.725 A 4.869 4.869 0 0 0 275.1 31.525 A 0.766 0.766 0 0 0 275.02 31.368 Q 274.865 31.12 274.449 30.682 A 16.23 16.23 0 0 0 274.15 30.375 Q 273.3 29.525 273.2 29.125 Q 273.11 28.764 273.101 28.158 A 9.202 9.202 0 0 1 273.1 28.025 A 8.286 8.286 0 0 1 273.418 25.892 Q 273.985 23.786 275.564 20.959 A 47.596 47.596 0 0 1 276.9 18.725 A 25.902 25.902 0 0 1 277.966 17.196 Q 278.515 16.468 279.065 15.864 A 15.751 15.751 0 0 1 279.1 15.825 Q 280.2 14.625 281.5 14.125 A 1.394 1.394 0 0 1 281.765 14.029 Q 282.055 13.952 282.488 13.932 A 6.93 6.93 0 0 1 282.8 13.925 L 283.65 13.925 A 4.907 4.907 0 0 0 283.955 13.917 Q 284.253 13.898 284.453 13.84 A 1.237 1.237 0 0 0 284.5 13.825 A 5.106 5.106 0 0 0 285.472 13.341 Q 286.103 12.944 286.75 12.325 Q 287.9 11.225 288.1 11.025 A 19.601 19.601 0 0 1 289.043 10.139 Q 289.638 9.619 290.2 9.225 Q 293.4 6.925 298.6 4.425 Q 303.8 1.925 307.5 1.925 Q 310.934 1.925 312.003 4.565 A 5.304 5.304 0 0 1 312.1 4.825 Q 312.5 5.925 312.5 7.225 Q 312.5 10.458 310.619 14.16 A 25.548 25.548 0 0 1 309.9 15.475 A 74.82 74.82 0 0 1 307.725 18.961 Q 305.725 21.988 303.1 25.425 Q 302.5 26.325 301.1 28.225 A 56.612 56.612 0 0 1 309.677 24.664 Q 314.843 23.028 319.708 22.773 A 34.14 34.14 0 0 1 321.5 22.725 Q 324.1 22.725 326.2 23.125 A 17.019 17.019 0 0 1 329.507 24.001 Q 332.457 25.134 334.15 27.325 A 12.051 12.051 0 0 1 336.475 32.757 A 16.406 16.406 0 0 1 336.7 35.525 Q 336.7 38.391 335.75 42.016 A 42.71 42.71 0 0 1 335.2 43.925 Q 331.3 56.225 317.4 68.425 Q 306.5 77.725 293.2 84.525 Q 288.9 86.825 283.4 89.125 A 38.513 38.513 0 0 1 279.885 90.411 Q 278.138 90.949 276.589 91.202 A 16.118 16.118 0 0 1 274 91.425 A 7.721 7.721 0 0 1 272.586 91.306 Q 271.837 91.166 271.27 90.862 A 3.078 3.078 0 0 1 270 89.625 Q 269.6 88.925 269.6 88.025 Q 269.6 86.825 270.2 85.775 Q 270.659 84.972 271.529 83.669 A 91.215 91.215 0 0 1 272.1 82.825 A 35.522 35.522 0 0 0 272.781 81.888 Q 273.384 81.027 273.721 80.408 A 5.586 5.586 0 0 0 274 79.825 A 13.427 13.427 0 0 0 274.503 77.853 Q 274.874 75.82 274.898 73.016 A 45.72 45.72 0 0 0 274.9 72.625 Z M 325 47.525 A 14.136 14.136 0 0 0 325.701 45.412 Q 326 44.174 326 43.025 Q 326 36.721 316.687 36.531 A 28.819 28.819 0 0 0 316.1 36.525 A 36.207 36.207 0 0 0 310.707 36.95 A 47.714 47.714 0 0 0 306.15 37.875 A 63.775 63.775 0 0 0 303.026 38.744 Q 301.441 39.231 300.118 39.747 A 25.474 25.474 0 0 0 297.7 40.825 A 51.826 51.826 0 0 0 294.603 42.498 Q 291.748 44.178 290.036 45.798 A 14.292 14.292 0 0 0 289.75 46.075 A 8.615 8.615 0 0 0 287.56 49.915 Q 287.14 51.411 287.1 53.225 Q 287 60.225 286.7 65.475 Q 286.4 70.725 285.6 75.825 Q 297.7 71.325 308 64.425 Q 313.14 61.024 316.794 58.051 A 63.156 63.156 0 0 0 319 56.175 A 22.342 22.342 0 0 0 323.479 50.758 A 20.336 20.336 0 0 0 325 47.525 Z M 287.9 33.925 L 292.2 28.325 A 571.501 571.501 0 0 0 293.894 26.104 Q 296.275 22.963 297.7 20.975 A 45.673 45.673 0 0 0 300.795 15.993 A 50.745 50.745 0 0 0 301.2 15.225 A 68.407 68.407 0 0 0 298.095 16.008 Q 296.434 16.471 295 16.975 A 21.48 21.48 0 0 0 290.943 18.882 A 19.497 19.497 0 0 0 290.1 19.425 A 17.506 17.506 0 0 0 289.547 19.857 Q 288.788 20.475 288.45 20.925 A 2.256 2.256 0 0 0 288.086 21.632 A 2.054 2.054 0 0 0 288 22.225 A 6.461 6.461 0 0 0 288.015 22.639 Q 288.047 23.138 288.15 23.825 Q 288.3 24.825 288.3 25.825 Q 288.3 27.325 288.1 30.725 Q 287.909 32.634 287.9 33.814 A 15.069 15.069 0 0 0 287.9 33.925 Z" id="7" vector-effect="non-scaling-stroke"/><path d="M 350.8 70.825 L 347.5 68.125 A 608.46 608.46 0 0 1 345.519 72.332 Q 342.742 78.166 341.02 81.387 A 88.698 88.698 0 0 1 341 81.425 A 3.352 3.352 0 0 1 340.298 82.383 Q 339.547 83.123 338.182 83.796 A 16.095 16.095 0 0 1 337.35 84.175 A 17.647 17.647 0 0 1 334.941 85.008 Q 333.645 85.347 332.447 85.411 A 10.308 10.308 0 0 1 331.9 85.425 A 6.52 6.52 0 0 1 330.948 85.362 Q 329.1 85.088 329.1 83.625 A 2.106 2.106 0 0 1 329.142 83.222 Q 329.182 83.022 329.257 82.796 A 4.984 4.984 0 0 1 329.4 82.425 A 802.841 802.841 0 0 1 332.236 75.529 Q 333.704 72.001 335.369 68.082 A 1405.201 1405.201 0 0 1 336.5 65.425 L 338.6 60.325 L 336.1 57.825 Q 335.4 57.125 335.4 56.225 Q 335.4 54.952 336.635 53.762 A 8.18 8.18 0 0 1 337.6 52.975 Q 339.8 51.425 342.5 50.925 Q 347.3 39.425 351.5 27.525 Q 351.885 26.177 353.893 25.154 A 10.234 10.234 0 0 1 354.05 25.075 Q 356.2 24.025 358.6 23.725 A 15.28 15.28 0 0 1 359.757 23.431 Q 360.731 23.225 361.5 23.225 A 5.554 5.554 0 0 1 362.605 23.326 Q 364.366 23.685 364.6 25.325 Q 366 34.025 368.15 42.975 A 673.938 673.938 0 0 0 370.213 51.314 Q 371.656 57 373.4 63.525 Q 375.769 72.511 376.803 76.559 A 316.183 316.183 0 0 1 377.2 78.125 A 1.487 1.487 0 0 1 377.251 78.33 Q 377.289 78.543 377.298 78.845 A 6.387 6.387 0 0 1 377.3 79.025 Q 377.3 81.425 374.6 83.175 A 11.106 11.106 0 0 1 371.675 84.541 A 9.486 9.486 0 0 1 369 84.925 Q 367.142 84.925 365.943 84.146 A 3.956 3.956 0 0 1 365.3 83.625 Q 362.4 80.525 359.2 77.725 Q 356.338 75.221 351.875 71.676 A 380.772 380.772 0 0 0 350.8 70.825 Z M 355.9 47.625 L 353.2 54.525 L 352.4 56.525 L 359.4 62.425 L 358.7 59.525 A 187.324 187.324 0 0 1 358.327 57.999 Q 357.725 55.5 356.622 50.747 A 2729.897 2729.897 0 0 1 355.9 47.625 Z" id="8" vector-effect="non-scaling-stroke"/><path d="M 383.8 78.825 L 383.8 78.525 Q 383.8 58.825 388.2 38.825 A 3.519 3.519 0 0 1 388.971 37.275 Q 389.771 36.303 391.343 35.46 A 14.097 14.097 0 0 1 391.7 35.275 A 16.089 16.089 0 0 1 394.355 34.216 Q 396.025 33.725 397.6 33.725 Q 399.2 33.725 400.05 34.375 Q 400.8 34.949 400.655 36.027 A 3.248 3.248 0 0 1 400.6 36.325 A 107.68 107.68 0 0 0 399.457 41.898 A 136.513 136.513 0 0 0 398.7 46.625 A 21.046 21.046 0 0 0 403.285 43.319 A 18.903 18.903 0 0 0 404.85 41.625 A 11.555 11.555 0 0 0 406.525 38.924 A 9.197 9.197 0 0 0 407.3 35.225 A 4.417 4.417 0 0 0 406.684 32.836 Q 405.238 30.525 400.4 30.525 A 21.263 21.263 0 0 0 395.035 31.186 A 19.19 19.19 0 0 0 393.3 31.725 A 16.188 16.188 0 0 1 391.795 32.152 Q 390.6 32.425 389.6 32.425 A 6.139 6.139 0 0 1 388.478 32.332 Q 386.5 31.963 386.5 30.125 A 2.793 2.793 0 0 1 387.049 28.515 Q 387.906 27.283 390.1 26.125 A 26.631 26.631 0 0 1 393.061 24.831 Q 395.125 24.066 397.6 23.475 A 37.753 37.753 0 0 1 404.618 22.462 A 34.084 34.084 0 0 1 406.2 22.425 A 23.483 23.483 0 0 1 409.922 22.703 Q 413.22 23.233 415.55 24.775 A 7.619 7.619 0 0 1 418.85 29.764 A 12.337 12.337 0 0 1 419.1 32.325 Q 419.1 37.225 415.7 41.875 A 33.561 33.561 0 0 1 409.531 48.26 A 40.115 40.115 0 0 1 407 50.125 Q 410 50.325 412.7 51.325 Q 415.9 52.525 417.95 55.175 Q 420 57.825 420 61.025 Q 420 63.025 419.2 64.925 A 19.225 19.225 0 0 1 415.991 69.891 A 24.965 24.965 0 0 1 413.4 72.425 Q 409.4 75.825 403.9 79.025 A 72.308 72.308 0 0 1 396.861 82.703 Q 389.419 86.05 383.3 86.325 Q 381.7 86.425 380.6 85.625 A 2.811 2.811 0 0 1 379.898 84.909 A 2.447 2.447 0 0 1 379.5 83.525 A 3.572 3.572 0 0 1 380.292 81.286 A 4.908 4.908 0 0 1 380.7 80.825 A 8.43 8.43 0 0 1 382.272 79.602 A 11.407 11.407 0 0 1 383.8 78.825 Z M 408.1 64.025 A 4.977 4.977 0 0 0 407.374 61.451 A 6.115 6.115 0 0 0 407.2 61.175 Q 406.3 59.825 404.8 59.025 Q 402.9 58.025 400.6 58.025 Q 399.846 58.025 398.41 58.253 A 45.071 45.071 0 0 0 397.4 58.425 A 234.811 234.811 0 0 0 396.816 66.137 Q 396.555 70.479 396.4 75.325 Q 401.3 72.925 404.7 69.875 A 15.764 15.764 0 0 0 406.266 68.273 Q 407.997 66.204 408.094 64.256 A 4.642 4.642 0 0 0 408.1 64.025 Z" id="9" vector-effect="non-scaling-stroke"/><path d="M 421.9 64.625 L 421.8 60.625 Q 421.8 45.025 425 31.325 A 3.367 3.367 0 0 1 425.732 29.875 Q 426.595 28.828 428.4 27.925 Q 431.347 26.452 434.005 26.426 A 9.747 9.747 0 0 1 434.1 26.425 A 5.297 5.297 0 0 1 434.954 26.49 Q 435.763 26.622 436.3 27.025 A 1.603 1.603 0 0 1 436.759 27.546 Q 437.025 28.038 436.9 28.725 A 155.328 155.328 0 0 0 434.689 43.968 A 189.902 189.902 0 0 0 434 53.825 Q 433.8 58.025 433.8 60.325 Q 433.8 64.125 434.3 68.825 Q 434.766 72.089 435.353 73.903 A 9.434 9.434 0 0 0 435.7 74.825 L 436.5 76.425 Q 437.036 75.43 437.865 73.673 A 151.394 151.394 0 0 0 438.4 72.525 A 61.104 61.104 0 0 0 440.396 66.428 Q 441.556 62.188 442.4 57.125 L 443.3 52.225 Q 445.014 44.196 445.182 39.178 A 31.545 31.545 0 0 0 445.2 38.125 Q 445.2 35.525 445 34.225 L 444.1 27.625 A 2.883 2.883 0 0 1 444.087 27.352 Q 444.087 25.417 446.75 23.875 A 13.012 13.012 0 0 1 449.411 22.691 A 10.047 10.047 0 0 1 452.4 22.225 A 6.838 6.838 0 0 1 453.583 22.319 Q 455.563 22.668 455.8 24.325 Q 457.313 35.325 458.352 44.198 A 606.379 606.379 0 0 1 459.2 51.825 Q 460.4 63.325 460.4 74.625 Q 460.4 89.825 458 101.525 A 77.21 77.21 0 0 1 455.325 111.387 A 62.313 62.313 0 0 1 452.5 118.225 A 29.873 29.873 0 0 1 447.435 125.679 A 26.289 26.289 0 0 1 442.6 129.725 A 22.405 22.405 0 0 1 437.703 132.094 A 17.583 17.583 0 0 1 432.1 133.025 Q 427.2 133.025 422.5 130.475 A 32.922 32.922 0 0 1 416.121 125.915 A 39.835 39.835 0 0 1 413.7 123.525 A 5.931 5.931 0 0 1 413.332 123.015 Q 412.986 122.475 412.917 122.038 A 1.359 1.359 0 0 1 412.9 121.825 Q 412.9 119.825 415.75 118.075 Q 418.6 116.325 421.5 116.325 Q 423.124 116.325 424.154 117.051 A 3.379 3.379 0 0 1 424.6 117.425 A 28.768 28.768 0 0 1 424.837 117.666 Q 425.407 118.25 426.762 119.675 A 782.768 782.768 0 0 1 427 119.925 A 25.898 25.898 0 0 0 429.676 122.386 A 22.174 22.174 0 0 0 430.95 123.325 A 10.477 10.477 0 0 0 432.197 124.064 Q 432.901 124.413 433.558 124.578 A 4.687 4.687 0 0 0 434.7 124.725 A 6.438 6.438 0 0 0 435.143 124.711 Q 435.568 124.682 435.839 124.591 A 1.235 1.235 0 0 0 436 124.525 A 4.919 4.919 0 0 0 437.623 123.507 Q 438.554 122.652 439.35 121.225 A 53.481 53.481 0 0 0 440.589 118.876 Q 441.143 117.754 441.578 116.719 A 32.374 32.374 0 0 0 441.7 116.425 A 2141.773 2141.773 0 0 0 442.013 115.66 Q 442.588 114.253 442.771 113.797 A 42.466 42.466 0 0 0 442.8 113.725 Q 445.2 107.725 446.3 101.075 Q 447.4 94.425 447.8 86.225 Q 447.953 81.325 447.989 78.243 A 148.612 148.612 0 0 0 448 76.525 A 27.447 27.447 0 0 1 445.459 80.364 A 20.049 20.049 0 0 1 441.9 83.875 A 12.99 12.99 0 0 1 435.661 86.38 A 17.067 17.067 0 0 1 433.4 86.525 A 12.038 12.038 0 0 1 429.798 86.023 Q 426.08 84.86 424.462 81.002 A 12.519 12.519 0 0 1 424.15 80.175 A 38.366 38.366 0 0 1 422.701 74.31 Q 421.958 69.944 421.9 64.625 Z" id="10" vector-effect="non-scaling-stroke"/></g></svg>