<svg width="529.2" height="100" viewBox="0 0 529.2 100" xmlns="http://www.w3.org/2000/svg"><g id="svgGroup" stroke-linecap="round" fill-rule="evenodd" font-size="9pt" stroke="#f88d19" stroke-width="0.5mm" fill="#000000" style="stroke:#f88d19;stroke-width:0.5mm;fill:#000000"><path d="M 4.55 78.1 A 4.274 4.274 0 0 0 5.409 78.949 Q 7.319 80.385 11.5 80.7 Q 11.5 76.2 12.55 70.15 A 68.93 68.93 0 0 1 12.597 69.88 Q 13.662 63.887 16.4 54.5 Q 16.563 54.094 17.022 52.565 A 167.635 167.635 0 0 0 17.25 51.8 A 829.234 829.234 0 0 0 17.681 50.337 Q 17.908 49.562 18.16 48.699 A 1624.718 1624.718 0 0 0 18.8 46.5 Q 19.7 43.4 20.5 40.4 A 444.41 444.41 0 0 0 21.678 40.378 Q 25.206 40.307 27.841 40.194 A 142.219 142.219 0 0 0 29.75 40.1 Q 32.191 39.963 33.922 39.731 A 24.481 24.481 0 0 0 35.35 39.5 A 11.8 11.8 0 0 0 35.88 39.384 Q 36.655 39.196 37.302 38.92 A 6.287 6.287 0 0 0 38.65 38.15 Q 39.353 37.616 40.04 36.876 A 15.829 15.829 0 0 0 41.1 35.6 Q 36 35.4 31.8 34.9 Q 27.6 34.4 22.4 34 A 1349.068 1349.068 0 0 1 22.6 33.364 A 1238.921 1238.921 0 0 1 25.55 24.1 Q 27.1 19.3 28.6 15.1 Q 29.444 12.738 30.224 10.692 A 150.072 150.072 0 0 1 31.4 7.7 A 92.64 92.64 0 0 1 34.616 7.974 A 75.752 75.752 0 0 1 39.6 8.65 Q 42.213 9.097 44.163 9.237 A 23.042 23.042 0 0 0 45.8 9.3 Q 48.7 9.3 51.75 7.5 A 15.611 15.611 0 0 0 53.092 6.602 Q 55.797 4.6 59.6 0.4 A 70.246 70.246 0 0 1 58.455 0.695 Q 57.225 1.001 56.123 1.224 A 38.112 38.112 0 0 1 54.3 1.55 A 29.213 29.213 0 0 1 53.576 1.651 A 32.424 32.424 0 0 1 49.5 1.9 A 66.799 66.799 0 0 1 45.341 1.766 A 83.738 83.738 0 0 1 39.6 1.2 Q 34.3 0.5 29 0.5 A 51.892 51.892 0 0 0 22.61 0.88 A 40.06 40.06 0 0 0 14.25 2.8 A 37.975 37.975 0 0 0 13.774 2.971 Q 10.986 3.992 8.703 5.33 A 22.4 22.4 0 0 0 3.85 9.1 A 16.698 16.698 0 0 0 3.483 9.494 A 12.778 12.778 0 0 0 0 18.3 A 10.534 10.534 0 0 0 0.073 19.56 A 7.851 7.851 0 0 0 2 23.95 Q 3.438 25.567 6.27 26.435 A 19.439 19.439 0 0 0 8.7 27 A 41.878 41.878 0 0 1 8.696 26.991 Q 7.699 24.596 7.2 22.55 A 16.797 16.797 0 0 1 6.841 20.529 A 21.69 21.69 0 0 1 6.7 18 A 18.755 18.755 0 0 1 6.711 17.354 Q 6.817 14.275 7.95 12.1 A 6.28 6.28 0 0 1 8.626 11.068 Q 9.374 10.136 10.516 9.411 A 11.652 11.652 0 0 1 12.55 8.4 A 12.345 12.345 0 0 1 12.97 8.246 Q 16.273 7.1 22 7.1 Q 22.963 7.1 23.641 7.124 A 20.411 20.411 0 0 1 24.2 7.15 Q 24.65 7.178 25.037 7.222 A 10.969 10.969 0 0 1 25.6 7.3 A 161.985 161.985 0 0 0 23.16 12.508 A 203.106 203.106 0 0 0 20.05 19.85 Q 17.3 26.7 14.7 33.9 A 37.684 37.684 0 0 0 12.153 34.052 A 31.009 31.009 0 0 0 7.65 34.8 A 18.308 18.308 0 0 0 7.467 34.846 Q 4.342 35.65 2.35 37.35 A 6.412 6.412 0 0 0 0.517 39.944 A 8.436 8.436 0 0 0 0 42.2 A 20.31 20.31 0 0 1 0.067 42.187 Q 1.079 41.988 2.512 41.811 A 68.944 68.944 0 0 1 3.95 41.65 Q 6.4 41.4 8.75 41.2 A 1706.544 1706.544 0 0 0 8.924 41.185 Q 11.141 40.996 12.2 40.9 Q 9.7 46.7 7.6 52.6 A 136.974 136.974 0 0 0 5.916 57.629 A 108.515 108.515 0 0 0 4.2 63.7 Q 2.9 68.9 2.9 72.6 A 11.215 11.215 0 0 0 3.095 74.739 A 8.084 8.084 0 0 0 4.55 78.1 Z" id="0" vector-effect="non-scaling-stroke"/><path d="M 85.1 54.7 L 87 56.6 A 44.945 44.945 0 0 1 83.299 63.363 A 38.735 38.735 0 0 1 81.25 66.15 A 34.625 34.625 0 0 1 77.923 69.748 A 25.67 25.67 0 0 1 74.2 72.65 A 15.847 15.847 0 0 1 70.651 74.356 A 12.599 12.599 0 0 1 66.7 75 Q 63.305 75 61.35 73.217 A 6.307 6.307 0 0 1 60.6 72.4 Q 58.6 69.8 58.4 66.8 L 58.4 66.5 L 58.4 66.3 Q 55.357 69.952 52.69 72.446 A 39.388 39.388 0 0 1 51.05 73.9 A 12.892 12.892 0 0 1 48.088 75.789 A 10.087 10.087 0 0 1 43.9 76.7 Q 40.6 76.7 38.15 74.5 Q 35.7 72.3 35.7 67.9 A 17.806 17.806 0 0 1 36.125 64.131 Q 36.494 62.43 37.181 60.61 A 30.002 30.002 0 0 1 37.3 60.3 A 37.073 37.073 0 0 1 40.297 54.332 A 43.658 43.658 0 0 1 41.7 52.2 Q 44.5 48.2 48.1 44.95 A 33.512 33.512 0 0 1 54.909 40.153 A 31.122 31.122 0 0 1 55.8 39.7 A 19.952 19.952 0 0 1 60.637 38.037 A 17.104 17.104 0 0 1 64 37.7 A 13.972 13.972 0 0 1 67.601 38.144 A 10.955 10.955 0 0 1 71.3 39.9 A 7.647 7.647 0 0 1 73.242 41.919 Q 74.3 43.563 74.3 45.7 A 6.005 6.005 0 0 1 74.119 47.224 A 3.865 3.865 0 0 1 72.4 49.6 A 5.522 5.522 0 0 1 69.527 50.445 Q 68.969 50.459 68.372 50.378 A 8.66 8.66 0 0 1 67.9 50.3 Q 68.1 49.4 68.25 48.5 Q 68.4 47.6 68.4 46.6 Q 68.4 44.6 67.6 43 A 2.642 2.642 0 0 0 66.077 41.686 Q 65.579 41.503 64.949 41.437 A 7.212 7.212 0 0 0 64.2 41.4 A 9.088 9.088 0 0 0 60.884 42.052 Q 59.719 42.506 58.538 43.276 A 15.631 15.631 0 0 0 58.5 43.3 A 24.751 24.751 0 0 0 55.059 46.043 A 31.322 31.322 0 0 0 52.95 48.25 Q 50.3 51.3 48.2 54.95 Q 46.1 58.6 44.9 62.1 A 25.33 25.33 0 0 0 44.123 64.828 Q 43.806 66.26 43.726 67.553 A 13.83 13.83 0 0 0 43.7 68.4 A 6.557 6.557 0 0 0 43.791 69.548 Q 44.158 71.6 46 71.6 Q 47.66 71.6 49.58 70.428 A 14.496 14.496 0 0 0 51.1 69.35 Q 53.856 67.135 56.661 63.806 A 55.97 55.97 0 0 0 56.75 63.7 Q 59.6 60.3 62.2 56.75 A 588.87 588.87 0 0 1 64.052 54.235 Q 64.782 53.249 65.444 52.365 A 303.062 303.062 0 0 1 66.7 50.7 A 1.238 1.238 0 0 1 66.907 50.436 A 0.832 0.832 0 0 1 67.5 50.2 A 9.841 9.841 0 0 1 67.711 50.256 Q 68.048 50.348 68.654 50.53 A 115.21 115.21 0 0 1 69.05 50.65 Q 70.2 51 71.2 51.7 Q 72.2 52.4 72.2 53.5 A 3.127 3.127 0 0 1 72.109 54.216 Q 71.948 54.897 71.503 55.762 A 12.095 12.095 0 0 1 71.35 56.05 Q 70.5 57.6 69.35 59.45 A 33.964 33.964 0 0 0 67.567 62.688 A 30.766 30.766 0 0 0 67.35 63.15 A 9.933 9.933 0 0 0 66.74 64.852 A 7.501 7.501 0 0 0 66.5 66.7 Q 66.5 68 67.2 69.15 A 2.304 2.304 0 0 0 68.843 70.245 A 3.723 3.723 0 0 0 69.5 70.3 A 4.736 4.736 0 0 0 71.004 70.019 Q 72.428 69.537 74.307 68.227 A 32.486 32.486 0 0 0 76.25 66.75 Q 80.6 63.2 85.1 54.7 Z" id="1" vector-effect="non-scaling-stroke"/><path d="M 151.2 54.7 L 152.9 56.8 A 52.414 52.414 0 0 1 150.286 62.443 A 62.773 62.773 0 0 1 148.75 65.15 A 29.707 29.707 0 0 1 145.231 69.916 A 25.287 25.287 0 0 1 142.8 72.25 Q 139.4 75.1 135 75.1 Q 132.116 75.1 130.326 73.842 A 5.717 5.717 0 0 1 129.2 72.8 Q 127.3 70.5 127.3 67.3 Q 127.3 65 128 62.7 Q 128.7 60.4 129.4 58.15 A 17.476 17.476 0 0 0 129.866 56.332 Q 130.1 55.141 130.1 54.1 Q 130.1 52.4 129.45 51.75 A 2.195 2.195 0 0 0 127.984 51.106 A 2.933 2.933 0 0 0 127.8 51.1 Q 125.883 51.1 123.444 53.533 A 20.928 20.928 0 0 0 122.45 54.6 Q 119.695 57.762 115.757 63.535 A 210.733 210.733 0 0 0 114.9 64.8 Q 113.3 67.2 111.9 69.85 A 114.663 114.663 0 0 1 110.892 71.718 Q 110.088 73.175 109.4 74.3 A 7.113 7.113 0 0 1 108.784 74.271 Q 108.047 74.206 107.05 74 Q 105.6 73.7 104.5 73.15 Q 103.4 72.6 103.4 71.7 A 2.871 2.871 0 0 1 103.448 71.225 Q 103.59 70.399 104.154 68.855 A 41.695 41.695 0 0 1 104.4 68.2 Q 105.4 65.6 106.7 62.15 Q 108 58.7 109 55.35 A 30.547 30.547 0 0 0 109.569 53.171 Q 109.798 52.129 109.905 51.215 A 13.04 13.04 0 0 0 110 49.7 A 6.401 6.401 0 0 0 109.951 48.884 Q 109.896 48.454 109.778 48.099 A 2.794 2.794 0 0 0 109.5 47.5 A 1.642 1.642 0 0 0 108.299 46.729 A 2.599 2.599 0 0 0 107.9 46.7 A 4.571 4.571 0 0 0 106.365 46.992 Q 105.041 47.465 103.456 48.706 A 20.077 20.077 0 0 0 102.85 49.2 A 37.087 37.087 0 0 0 100.235 51.66 Q 98.491 53.456 96.65 55.75 Q 93.4 59.8 90.55 64.75 A 63.391 63.391 0 0 0 86.612 72.827 A 57.16 57.16 0 0 0 85.9 74.7 A 6.902 6.902 0 0 1 85.015 74.638 Q 84.56 74.579 84.043 74.464 A 15.918 15.918 0 0 1 83.2 74.25 Q 81.6 73.8 80.4 73.15 A 6.517 6.517 0 0 1 79.962 72.892 Q 79.326 72.48 79.221 72.134 A 0.46 0.46 0 0 1 79.2 72 A 0.502 0.502 0 0 1 79.211 71.934 Q 79.276 71.611 79.733 69.809 A 538.918 538.918 0 0 1 79.9 69.15 Q 80.6 66.4 81.6 62.3 Q 82.6 58.2 83.7 53.9 A 1883.834 1883.834 0 0 0 84.483 50.83 Q 85.1 48.4 85.6 46.4 Q 85.9 45.3 87.8 44.45 A 12.377 12.377 0 0 1 89.047 43.966 Q 90.181 43.6 91.1 43.6 Q 92.5 43.6 93.5 44.5 Q 94.5 45.4 94.5 46.9 A 7.156 7.156 0 0 1 94.468 47.534 Q 94.407 48.223 94.223 49.186 A 32.191 32.191 0 0 1 94.1 49.8 A 97.91 97.91 0 0 1 93.681 51.691 Q 93.452 52.683 93.179 53.784 A 164.6 164.6 0 0 1 93.1 54.1 Q 95.2 51.3 97.55 48.55 A 46.669 46.669 0 0 1 101.658 44.301 A 42.08 42.08 0 0 1 102.45 43.6 A 28.903 28.903 0 0 1 105.239 41.463 A 22.624 22.624 0 0 1 107.55 40.1 A 12.314 12.314 0 0 1 110.206 39.095 A 10.012 10.012 0 0 1 112.6 38.8 A 7.968 7.968 0 0 1 114.444 38.998 A 4.477 4.477 0 0 1 117.6 41.45 Q 118.9 44.1 118.9 47.2 Q 118.9 48.5 118.7 49.75 Q 118.5 51 118.15 52.25 A 34.776 34.776 0 0 1 117.852 53.251 Q 117.714 53.694 117.551 54.182 A 66.028 66.028 0 0 1 117.2 55.2 Q 119.1 52.4 121.35 50.05 A 20.514 20.514 0 0 1 124.59 47.281 A 17.887 17.887 0 0 1 126.2 46.3 Q 128.8 44.9 131.7 44.9 Q 134.073 44.9 135.557 45.77 A 4.504 4.504 0 0 1 137.1 47.25 Q 138.6 49.6 138.6 52.4 A 17.78 17.78 0 0 1 138.234 55.92 A 21.941 21.941 0 0 1 137.75 57.85 Q 136.9 60.7 136.05 63.25 A 20.939 20.939 0 0 0 135.566 64.915 Q 135.2 66.419 135.2 67.6 Q 135.2 68.6 135.7 69.45 A 1.546 1.546 0 0 0 136.482 70.101 Q 136.973 70.3 137.7 70.3 A 6.189 6.189 0 0 0 140.755 69.465 Q 141.845 68.855 142.9 67.8 Q 145.4 65.3 147.55 61.65 A 82.598 82.598 0 0 0 149.763 57.655 A 65.341 65.341 0 0 0 151.2 54.7 Z" id="2" vector-effect="non-scaling-stroke"/><path d="M 175.7 54.8 L 177.2 56.4 A 46.507 46.507 0 0 1 174.059 62.878 Q 172.073 66.24 169.675 68.757 A 26.433 26.433 0 0 1 168.3 70.1 A 20.885 20.885 0 0 1 163.959 73.181 A 15.471 15.471 0 0 1 156.7 75 A 11.862 11.862 0 0 1 154.165 74.746 Q 152.53 74.388 151.321 73.526 A 6.669 6.669 0 0 1 150.1 72.4 A 9.26 9.26 0 0 1 147.923 66.84 A 11.909 11.909 0 0 1 147.9 66.1 Q 147.9 64.555 148.261 62.468 A 41.57 41.57 0 0 1 148.7 60.3 Q 149.5 56.8 150.95 52.95 A 53.597 53.597 0 0 1 154.182 45.913 A 49.635 49.635 0 0 1 154.3 45.7 A 29.674 29.674 0 0 1 156.02 42.964 Q 157.011 41.573 158.073 40.478 A 17.568 17.568 0 0 1 158.4 40.15 Q 159.915 38.67 161.429 38.209 A 4.685 4.685 0 0 1 162.8 38 A 3.46 3.46 0 0 1 164.147 38.258 A 3.286 3.286 0 0 1 164.9 38.7 Q 165.8 39.4 165.8 40.9 A 3.299 3.299 0 0 1 165.684 41.708 Q 165.477 42.516 164.901 43.634 A 21.767 21.767 0 0 1 164.25 44.8 A 1125.576 1125.576 0 0 1 162.798 47.228 Q 162.052 48.473 161.217 49.86 A 1981.647 1981.647 0 0 1 160.65 50.8 Q 158.6 54.2 157.05 57.85 A 20.811 20.811 0 0 0 155.938 61.195 A 15.658 15.658 0 0 0 155.5 64.8 Q 155.5 67.184 156.138 68.375 A 2.506 2.506 0 0 0 156.65 69.05 Q 157.8 70.1 160 70.1 Q 163.4 70.1 167.4 66.7 A 20.437 20.437 0 0 0 169.929 64.077 Q 172.347 61.128 174.87 56.399 A 82.982 82.982 0 0 0 175.7 54.8 Z M 168.5 29.9 Q 166.6 29.9 165.05 28.95 A 3.083 3.083 0 0 1 163.555 26.717 A 4.477 4.477 0 0 1 163.5 26 Q 163.5 23.703 165.881 22.048 A 9.258 9.258 0 0 1 166.1 21.9 A 10.644 10.644 0 0 1 168.918 20.574 A 9.092 9.092 0 0 1 171.5 20.2 A 6.746 6.746 0 0 1 172.921 20.343 A 4.91 4.91 0 0 1 174.55 21 Q 175.8 21.8 175.8 23.9 Q 175.8 26 173.5 27.95 A 8.62 8.62 0 0 1 171.334 29.317 A 7.103 7.103 0 0 1 168.5 29.9 Z" id="3" vector-effect="non-scaling-stroke"/><path d="M 200 54.5 L 202.4 55.8 A 64.415 64.415 0 0 1 198.778 62.355 Q 196.758 65.53 194.554 68.013 A 34.467 34.467 0 0 1 192.8 69.85 A 21.748 21.748 0 0 1 189.097 72.782 Q 185.506 75 181.7 75 A 10.922 10.922 0 0 1 179.282 74.751 Q 176.48 74.114 175.15 71.85 A 13.261 13.261 0 0 1 173.519 67.22 A 17.535 17.535 0 0 1 173.3 64.4 A 32.957 32.957 0 0 1 173.597 60.138 Q 173.868 58.064 174.388 55.755 A 65.397 65.397 0 0 1 175.1 52.9 A 113.273 113.273 0 0 1 177.799 44.396 A 138.621 138.621 0 0 1 179.85 39.05 Q 182.8 31.8 186.35 24.85 A 162.449 162.449 0 0 1 190.36 17.459 A 127.907 127.907 0 0 1 193.5 12.3 A 97.498 97.498 0 0 1 196.07 8.491 Q 197.279 6.792 198.419 5.378 A 44.431 44.431 0 0 1 200.15 3.35 A 22.879 22.879 0 0 1 201.429 2.045 Q 203.562 0.05 205.027 0.001 A 2.194 2.194 0 0 1 205.1 0 A 2.326 2.326 0 0 1 206.73 0.668 A 3.833 3.833 0 0 1 207.3 1.35 A 10.568 10.568 0 0 1 208.224 3.078 A 13.793 13.793 0 0 1 208.75 4.55 Q 209.3 6.4 209.3 8 A 14.488 14.488 0 0 1 209.155 9.95 Q 208.877 11.983 208.068 14.665 A 50.358 50.358 0 0 1 207.95 15.05 A 62.081 62.081 0 0 1 206.384 19.464 Q 205.535 21.612 204.461 23.933 A 102.271 102.271 0 0 1 204.15 24.6 A 104.251 104.251 0 0 1 200.356 31.868 A 122.429 122.429 0 0 1 198.35 35.25 Q 195 40.7 190.95 45.6 A 57.971 57.971 0 0 1 184.566 52.219 A 51.343 51.343 0 0 1 182.3 54.1 Q 181.9 56.6 181.55 59.05 A 37.259 37.259 0 0 0 181.29 61.353 Q 181.2 62.48 181.2 63.492 A 26.25 26.25 0 0 0 181.2 63.5 A 17.139 17.139 0 0 0 181.292 65.347 Q 181.533 67.558 182.4 68.75 Q 183.6 70.4 185.5 70.4 A 6.037 6.037 0 0 0 187.952 69.851 Q 188.824 69.466 189.714 68.811 A 13.342 13.342 0 0 0 190.65 68.05 Q 193.3 65.7 195.75 62.05 Q 198.2 58.4 200 54.5 Z M 184.1 47.9 A 78.149 78.149 0 0 0 190.359 40.121 A 85.334 85.334 0 0 0 190.55 39.85 Q 193.6 35.5 196.15 31 Q 198.7 26.5 200.6 22.3 A 85.009 85.009 0 0 0 202.1 18.788 Q 202.959 16.635 203.55 14.75 Q 204.52 11.656 204.679 9.714 A 9.848 9.848 0 0 0 204.7 9.4 L 204.7 9.25 L 204.7 9.1 A 0.972 0.972 0 0 0 204.257 9.232 Q 203.631 9.563 202.655 10.725 A 21.213 21.213 0 0 0 202.15 11.35 A 42.442 42.442 0 0 0 200.993 12.918 Q 199.65 14.819 198 17.5 Q 195.6 21.4 193.05 26.4 Q 190.5 31.4 188.15 36.95 A 123.703 123.703 0 0 0 184.535 46.548 A 112.745 112.745 0 0 0 184.1 47.9 Z" id="4" vector-effect="non-scaling-stroke"/><path d="M 239.8 55.3 L 241.5 56.7 A 25.668 25.668 0 0 1 238.705 62.961 A 22.943 22.943 0 0 1 236.95 65.4 Q 233.9 69.1 230.1 71.7 A 47.821 47.821 0 0 1 223.98 75.272 A 42.69 42.69 0 0 1 222.4 76 A 111.117 111.117 0 0 1 218.475 84.465 A 94.984 94.984 0 0 1 216.55 88 A 47.54 47.54 0 0 1 213.933 92.098 Q 211.978 94.82 209.9 96.75 A 13.63 13.63 0 0 1 207.147 98.762 A 9.812 9.812 0 0 1 202.4 100 A 7.759 7.759 0 0 1 197.889 98.548 A 9.501 9.501 0 0 1 197.75 98.45 Q 195.692 96.967 195.604 93.789 A 10.384 10.384 0 0 1 195.6 93.5 Q 195.6 90.3 197.5 87.75 A 20.274 20.274 0 0 1 200.305 84.719 A 25.569 25.569 0 0 1 202.4 83.05 Q 205.4 80.9 208.85 79.15 Q 212.3 77.4 215.5 75.9 Q 216.248 73.929 217.111 71.242 A 173.854 173.854 0 0 0 217.95 68.55 Q 219.3 64.1 220.3 60.3 Q 217.2 64.6 213.7 67.9 A 12.854 12.854 0 0 1 210.545 70.127 A 10.426 10.426 0 0 1 205.9 71.2 A 9.756 9.756 0 0 1 203.692 70.936 A 12.743 12.743 0 0 1 202.1 70.45 A 7.17 7.17 0 0 1 198.965 68.132 A 8.716 8.716 0 0 1 198.75 67.85 A 6.551 6.551 0 0 1 197.74 65.697 Q 197.49 64.786 197.424 63.705 A 13.138 13.138 0 0 1 197.4 62.9 A 17.991 17.991 0 0 1 197.534 60.795 Q 197.756 58.913 198.35 56.6 Q 199.3 52.9 200.75 49.35 A 41.817 41.817 0 0 1 201.953 46.664 Q 202.85 44.845 203.8 43.45 A 12.595 12.595 0 0 1 204.475 42.542 Q 205.622 41.147 206.539 41.102 A 1.242 1.242 0 0 1 206.6 41.1 A 2.327 2.327 0 0 1 206.981 41.136 Q 207.386 41.204 207.949 41.401 A 11.96 11.96 0 0 1 208.35 41.55 A 11.108 11.108 0 0 1 210.255 42.523 A 12.562 12.562 0 0 1 210.6 42.75 Q 211.377 43.28 211.755 43.884 A 2.41 2.41 0 0 1 212 44.4 Q 211.141 45.545 210.1 47.647 A 43.347 43.347 0 0 0 210 47.85 Q 208.9 50.1 207.9 52.85 Q 206.9 55.6 206.25 58.2 A 26.043 26.043 0 0 0 205.854 60.052 Q 205.695 60.965 205.636 61.771 A 12.636 12.636 0 0 0 205.6 62.7 A 6.32 6.32 0 0 0 205.723 63.977 A 4.746 4.746 0 0 0 206.2 65.3 Q 206.745 66.299 208.197 66.391 A 4.807 4.807 0 0 0 208.5 66.4 A 6.071 6.071 0 0 0 210.773 65.936 Q 211.605 65.602 212.456 65.028 A 12.121 12.121 0 0 0 213.05 64.6 Q 215.4 62.8 217.65 60 Q 219.9 57.2 221.7 54.3 Q 221.853 53.766 222.005 52.767 A 35.695 35.695 0 0 0 222.1 52.1 A 17.891 17.891 0 0 1 222.543 49.892 A 20.921 20.921 0 0 1 222.8 49 Q 223.3 47.3 224.55 45.9 A 4.063 4.063 0 0 1 226.765 44.637 A 6.16 6.16 0 0 1 228.1 44.5 A 11.387 11.387 0 0 1 229.061 44.539 A 9.462 9.462 0 0 1 229.6 44.6 A 22.399 22.399 0 0 1 230.167 44.689 Q 230.675 44.775 231.3 44.9 Q 231.3 46.137 230.586 49.311 A 94.684 94.684 0 0 1 230.25 50.75 A 151.891 151.891 0 0 1 229.371 54.202 Q 228.563 57.238 227.5 60.8 Q 225.8 66.5 223.7 72.2 Q 227.326 70.733 231.212 67.588 A 46.559 46.559 0 0 0 232.45 66.55 Q 236.573 62.97 239.26 56.639 A 41.253 41.253 0 0 0 239.8 55.3 Z M 201.4 96.3 Q 203.3 96.3 206.7 92.3 Q 210.1 88.3 213.6 80.3 Q 210.4 81.9 207.15 84.05 Q 203.9 86.2 201.7 88.6 A 10.102 10.102 0 0 0 200.449 90.26 Q 199.5 91.858 199.5 93.5 Q 199.5 94.5 199.95 95.4 Q 200.4 96.3 201.4 96.3 Z" id="5" vector-effect="non-scaling-stroke"/><path d="M 312.204 83.735 A 5.521 5.521 0 0 0 314.1 84.1 A 4.963 4.963 0 0 0 315.153 83.981 Q 316.346 83.722 317.75 82.9 A 6.439 6.439 0 0 0 318.594 82.315 A 4.449 4.449 0 0 0 320.2 79.7 Q 313.8 74.8 309.1 70.05 A 102.061 102.061 0 0 1 305.737 66.488 A 85.258 85.258 0 0 1 300.85 60.55 Q 297.3 55.8 294.2 51 Q 291.1 46.2 287.9 41.1 A 81.109 81.109 0 0 0 288.142 41.09 Q 290.482 40.985 293.95 40.7 Q 297.6 40.4 301.9 39.55 Q 306.2 38.7 310.4 37.2 Q 314.6 35.7 318.1 33.3 Q 321.6 30.9 323.7 27.45 Q 325.8 24 325.8 19.3 A 19.15 19.15 0 0 0 325.58 16.345 A 14.45 14.45 0 0 0 323.3 10.4 A 18.802 18.802 0 0 0 322.961 9.915 A 19.168 19.168 0 0 0 316.7 4.4 Q 312.6 2.1 307.8 1.05 Q 303 0 298.5 0 Q 293.7 0 289.2 0.95 A 77.871 77.871 0 0 0 285.668 1.78 A 62.431 62.431 0 0 0 280.95 3.2 A 244.847 244.847 0 0 0 279.914 3.562 Q 278.388 4.098 277.032 4.599 A 137.268 137.268 0 0 0 274.4 5.6 Q 274.4 6.106 274.792 6.742 A 5.353 5.353 0 0 0 275.15 7.25 Q 275.9 8.2 276.9 8.85 Q 277.9 9.5 278.4 9.5 A 1.263 1.263 0 0 0 278.559 9.489 Q 279.114 9.418 280.196 8.89 A 20.848 20.848 0 0 0 280.95 8.5 A 35.49 35.49 0 0 1 281.137 8.4 Q 282.471 7.689 284.344 6.831 A 107.467 107.467 0 0 1 285.75 6.2 Q 288.7 4.9 292.6 4.1 Q 290.794 8.244 289.213 11.936 A 909.775 909.775 0 0 0 286.6 18.1 Q 284 24.3 281.85 29.95 Q 279.7 35.6 277.65 41.35 Q 275.6 47.1 273.3 53.95 A 5353.974 5353.974 0 0 0 272.992 54.868 Q 271.904 58.109 270.687 61.75 A 9123.233 9123.233 0 0 0 268.1 69.5 Q 267.7 70.9 267.2 72.4 Q 266.7 73.9 266.7 75 A 4.437 4.437 0 0 0 267.878 78.073 A 6.447 6.447 0 0 0 269.25 79.2 Q 271.8 80.8 274.7 80.8 Q 276.9 73.2 279.35 64.25 Q 281.8 55.3 284.5 46.1 Q 286.5 50.2 289.4 55.3 Q 292.3 60.4 295.55 65.45 A 125.887 125.887 0 0 0 297.591 68.523 A 106.528 106.528 0 0 0 302.15 74.7 A 68.061 68.061 0 0 0 303.087 75.85 Q 304.486 77.527 305.84 78.919 A 37.373 37.373 0 0 0 308.6 81.5 Q 310.539 83.126 312.204 83.735 Z M 286.8 38.1 Q 292.4 37.7 297.85 36.3 A 42.818 42.818 0 0 0 304.871 33.855 A 37.198 37.198 0 0 0 307.75 32.4 A 22.832 22.832 0 0 0 312.4 28.991 A 19.606 19.606 0 0 0 314.85 26.15 A 14.459 14.459 0 0 0 317.418 19.051 A 18.36 18.36 0 0 0 317.5 17.3 Q 317.5 13.253 315.925 10.569 A 9.119 9.119 0 0 0 314.9 9.15 A 14.24 14.24 0 0 0 309.445 5.347 A 17.392 17.392 0 0 0 308.2 4.9 Q 304.1 3.6 299.6 3.5 A 109.217 109.217 0 0 0 296.457 10.298 Q 295.139 13.406 293.854 16.888 A 181.276 181.276 0 0 0 293 19.25 Q 289.8 28.3 286.8 38.1 Z" id="7" vector-effect="non-scaling-stroke"/><path d="M 359.4 54.8 L 361.4 56.4 A 38.047 38.047 0 0 1 355.488 65.752 A 35.585 35.585 0 0 1 354.45 66.9 A 33.358 33.358 0 0 1 347.722 72.431 A 30.167 30.167 0 0 1 345.05 73.9 Q 339.9 76.4 334.5 76.4 Q 329.582 76.4 326.406 74.363 A 10.469 10.469 0 0 1 324.65 72.95 Q 321.2 69.5 321.2 64.3 Q 321.2 59.9 323.45 54.95 A 37.799 37.799 0 0 1 329.031 46.196 A 42.329 42.329 0 0 1 329.5 45.65 Q 333.3 41.3 337.9 38.6 A 20.607 20.607 0 0 1 342.356 36.618 A 16.302 16.302 0 0 1 347.1 35.9 Q 349.7 35.9 352.05 37.25 A 4.252 4.252 0 0 1 353.913 39.508 Q 354.214 40.293 354.329 41.287 A 11.443 11.443 0 0 1 354.4 42.6 Q 354.4 46.4 352.2 49.7 A 21.182 21.182 0 0 1 348.466 53.907 A 26.246 26.246 0 0 1 346.3 55.6 Q 342.6 58.2 338.15 59.85 Q 333.7 61.5 329.2 62 Q 329.1 62.4 329.05 62.85 Q 329.012 63.189 329.003 63.841 A 32.377 32.377 0 0 0 329 64.3 A 5.546 5.546 0 0 0 329.009 64.596 Q 329.036 65.088 329.14 65.965 A 51.515 51.515 0 0 0 329.15 66.05 Q 329.298 67.282 329.979 68.658 A 11.466 11.466 0 0 0 330 68.7 Q 330.7 70.1 332.3 71.1 Q 333.519 71.862 335.435 72.043 A 13.44 13.44 0 0 0 336.7 72.1 A 16.172 16.172 0 0 0 342.499 70.989 A 20.826 20.826 0 0 0 345.15 69.75 Q 349.4 67.4 353.15 63.5 Q 356.9 59.6 359.4 54.8 Z M 330.3 58.3 A 14.761 14.761 0 0 0 332.69 57.808 Q 334.3 57.344 336.1 56.5 A 32.186 32.186 0 0 0 342.065 52.843 A 35.542 35.542 0 0 0 342.25 52.7 A 24.602 24.602 0 0 0 345.527 49.649 A 20.865 20.865 0 0 0 347.1 47.65 A 11.646 11.646 0 0 0 348.382 45.278 A 8.667 8.667 0 0 0 349 42.1 Q 349 41.221 348.745 40.789 A 0.947 0.947 0 0 0 348.6 40.6 A 1.185 1.185 0 0 0 348.178 40.336 Q 347.824 40.2 347.3 40.2 Q 345.206 40.2 342.945 41.568 A 13.501 13.501 0 0 0 342.5 41.85 A 23.185 23.185 0 0 0 339.719 44.023 A 30.335 30.335 0 0 0 337.6 46.15 Q 335.2 48.8 333.3 52 Q 331.4 55.2 330.3 58.3 Z" id="8" vector-effect="non-scaling-stroke"/><path d="M 392.6 54.7 L 394.6 56.5 Q 392.2 62.6 387.95 67.35 A 35.764 35.764 0 0 1 381.681 72.936 A 31.713 31.713 0 0 1 378.55 74.85 A 24.156 24.156 0 0 1 373.252 76.955 A 19.617 19.617 0 0 1 368.3 77.6 Q 363.1 77.6 359.75 74.35 A 10.077 10.077 0 0 1 357.264 70.315 Q 356.711 68.705 356.512 66.731 A 23.279 23.279 0 0 1 356.4 64.4 Q 356.4 59.5 358.3 54.8 Q 360.2 50.1 363.4 46.35 A 27.134 27.134 0 0 1 368.271 41.843 A 24.148 24.148 0 0 1 370.55 40.4 A 17.57 17.57 0 0 1 375.167 38.592 A 15.272 15.272 0 0 1 378.6 38.2 A 13.255 13.255 0 0 1 380.777 38.366 Q 383.32 38.791 384.65 40.3 Q 386.5 42.4 386.5 45.2 A 11.807 11.807 0 0 1 385.274 50.401 A 13.765 13.765 0 0 1 385.15 50.65 A 6.694 6.694 0 0 1 384.366 51.871 Q 383.189 53.3 381.5 53.3 A 3.326 3.326 0 0 1 378.937 52.117 A 5.314 5.314 0 0 1 378.4 51.4 Q 379.303 50.768 380.288 49.156 A 17.416 17.416 0 0 0 380.5 48.8 A 7.552 7.552 0 0 0 381.285 46.796 Q 381.6 45.506 381.6 43.9 Q 381.6 43.1 381.2 42.65 A 1.088 1.088 0 0 0 380.812 42.38 Q 380.462 42.229 379.913 42.205 A 4.883 4.883 0 0 0 379.7 42.2 Q 377.2 42.2 374.45 44.45 A 22.941 22.941 0 0 0 371.483 47.393 A 30.255 30.255 0 0 0 369.35 50.25 Q 367 53.8 365.55 57.75 A 26.22 26.22 0 0 0 364.56 61.078 Q 364.165 62.852 364.109 64.474 A 15.383 15.383 0 0 0 364.1 65 Q 364.1 67.8 365.55 70.15 A 4.432 4.432 0 0 0 367.732 71.931 Q 368.542 72.26 369.574 72.399 A 12.225 12.225 0 0 0 371.2 72.5 A 14.695 14.695 0 0 0 375.694 71.765 A 20.325 20.325 0 0 0 379.1 70.3 A 27.068 27.068 0 0 0 384.266 66.659 A 33.742 33.742 0 0 0 386.8 64.15 A 29.765 29.765 0 0 0 391.492 57.193 A 35.501 35.501 0 0 0 392.6 54.7 Z" id="9" vector-effect="non-scaling-stroke"/><path d="M 417.3 54.8 L 418.8 56.4 A 46.507 46.507 0 0 1 415.659 62.878 Q 413.673 66.24 411.275 68.757 A 26.433 26.433 0 0 1 409.9 70.1 A 20.885 20.885 0 0 1 405.559 73.181 A 15.471 15.471 0 0 1 398.3 75 A 11.862 11.862 0 0 1 395.765 74.746 Q 394.13 74.388 392.921 73.526 A 6.669 6.669 0 0 1 391.7 72.4 A 9.26 9.26 0 0 1 389.523 66.84 A 11.909 11.909 0 0 1 389.5 66.1 Q 389.5 64.555 389.861 62.468 A 41.57 41.57 0 0 1 390.3 60.3 Q 391.1 56.8 392.55 52.95 A 53.597 53.597 0 0 1 395.782 45.913 A 49.635 49.635 0 0 1 395.9 45.7 A 29.674 29.674 0 0 1 397.62 42.964 Q 398.611 41.573 399.673 40.478 A 17.568 17.568 0 0 1 400 40.15 Q 401.515 38.67 403.029 38.209 A 4.685 4.685 0 0 1 404.4 38 A 3.46 3.46 0 0 1 405.747 38.258 A 3.286 3.286 0 0 1 406.5 38.7 Q 407.4 39.4 407.4 40.9 A 3.299 3.299 0 0 1 407.284 41.708 Q 407.077 42.516 406.501 43.634 A 21.767 21.767 0 0 1 405.85 44.8 A 1125.576 1125.576 0 0 1 404.398 47.228 Q 403.652 48.473 402.817 49.86 A 1981.647 1981.647 0 0 1 402.25 50.8 Q 400.2 54.2 398.65 57.85 A 20.811 20.811 0 0 0 397.538 61.195 A 15.658 15.658 0 0 0 397.1 64.8 Q 397.1 67.184 397.738 68.375 A 2.506 2.506 0 0 0 398.25 69.05 Q 399.4 70.1 401.6 70.1 Q 405 70.1 409 66.7 A 20.437 20.437 0 0 0 411.529 64.077 Q 413.947 61.128 416.47 56.399 A 82.982 82.982 0 0 0 417.3 54.8 Z M 410.1 29.9 Q 408.2 29.9 406.65 28.95 A 3.083 3.083 0 0 1 405.155 26.717 A 4.477 4.477 0 0 1 405.1 26 Q 405.1 23.703 407.481 22.048 A 9.258 9.258 0 0 1 407.7 21.9 A 10.644 10.644 0 0 1 410.518 20.574 A 9.092 9.092 0 0 1 413.1 20.2 A 6.746 6.746 0 0 1 414.521 20.343 A 4.91 4.91 0 0 1 416.15 21 Q 417.4 21.8 417.4 23.9 Q 417.4 26 415.1 27.95 A 8.62 8.62 0 0 1 412.934 29.317 A 7.103 7.103 0 0 1 410.1 29.9 Z" id="10" vector-effect="non-scaling-stroke"/><path d="M 408.222 99.873 A 3.249 3.249 0 0 0 409.1 100 A 2.308 2.308 0 0 0 410.147 99.747 A 3.12 3.12 0 0 0 410.8 99.3 A 5.411 5.411 0 0 0 411.325 98.802 Q 412.726 97.291 413.95 94 A 61.701 61.701 0 0 0 414.627 92.079 Q 415.189 90.4 415.743 88.461 A 122.706 122.706 0 0 0 416.8 84.5 Q 418.2 78.9 419.75 72.35 Q 421.3 65.8 423.2 59.2 Q 424.1 57.2 425.8 54.55 Q 427.5 51.9 429.7 49.45 A 25.254 25.254 0 0 1 430.608 48.49 A 21.77 21.77 0 0 1 434.45 45.4 Q 437 43.8 439.5 43.8 A 6.605 6.605 0 0 1 440.543 43.879 A 4.403 4.403 0 0 1 443.75 46 A 8.816 8.816 0 0 1 444.803 48.563 A 11.227 11.227 0 0 1 445.1 51.2 A 15.908 15.908 0 0 1 444.852 53.979 A 18.765 18.765 0 0 1 443.6 58.1 A 21.461 21.461 0 0 1 442.653 60.033 A 24.019 24.019 0 0 1 439.3 64.65 Q 436.5 67.7 432.65 69.6 A 18.667 18.667 0 0 1 429.773 70.733 A 21.122 21.122 0 0 1 424.1 71.6 A 9.683 9.683 0 0 0 423.341 71.629 A 7.573 7.573 0 0 0 422.45 71.75 Q 421.911 71.858 421.759 72.25 A 0.966 0.966 0 0 0 421.7 72.6 A 1.118 1.118 0 0 0 421.888 73.21 Q 422.298 73.852 423.6 74.4 Q 425.5 75.2 428.7 75.2 A 23.717 23.717 0 0 0 428.869 75.2 A 20.33 20.33 0 0 0 438.6 72.75 Q 443.1 70.3 446.3 66.45 A 34.418 34.418 0 0 0 446.887 65.724 A 30.456 30.456 0 0 0 451.25 58.25 A 26.255 26.255 0 0 0 452.415 54.66 A 19.695 19.695 0 0 0 453 50 A 15.726 15.726 0 0 0 452.774 47.28 A 11.133 11.133 0 0 0 449.8 41.3 A 10.533 10.533 0 0 0 445.856 38.701 A 11.904 11.904 0 0 0 441.7 38 Q 438.2 38 435.2 39.65 Q 432.2 41.3 429.75 43.9 Q 427.3 46.5 425.4 49.4 A 130.944 130.944 0 0 0 425.803 47.363 Q 425.988 46.388 426.138 45.502 A 70.296 70.296 0 0 0 426.45 43.5 A 88.979 88.979 0 0 0 426.474 43.33 Q 426.716 41.576 426.778 40.591 A 9.513 9.513 0 0 0 426.8 40 Q 426.8 38 425.4 36.35 A 4.081 4.081 0 0 0 424.145 35.362 Q 423.448 35.002 422.55 34.838 A 9.192 9.192 0 0 0 420.9 34.7 A 8.584 8.584 0 0 0 420.695 34.703 Q 419.742 34.725 419.304 34.966 A 0.734 0.734 0 0 0 419 35.25 A 2.452 2.452 0 0 0 418.896 35.468 Q 418.735 35.849 418.606 36.441 A 11.802 11.802 0 0 0 418.5 37 A 1557.043 1557.043 0 0 1 417.774 42.607 Q 417.424 45.276 417.098 47.676 A 796.17 796.17 0 0 1 416.35 53.05 A 405.894 405.894 0 0 1 416.083 54.891 Q 415.266 60.424 414.45 64.85 A 170.132 170.132 0 0 1 414.209 66.131 A 153.946 153.946 0 0 1 412.3 74.75 Q 411.1 79.5 409.35 84.85 Q 407.6 90.2 405.1 97.5 A 0.925 0.925 0 0 0 405.172 97.689 Q 405.345 98.034 405.85 98.5 Q 406.5 99.1 407.4 99.55 Q 407.822 99.761 408.222 99.873 Z" id="11" vector-effect="non-scaling-stroke"/><path d="M 492.5 54.8 L 494.5 56.4 A 38.047 38.047 0 0 1 488.588 65.752 A 35.585 35.585 0 0 1 487.55 66.9 A 33.358 33.358 0 0 1 480.822 72.431 A 30.167 30.167 0 0 1 478.15 73.9 Q 473 76.4 467.6 76.4 Q 462.682 76.4 459.506 74.363 A 10.469 10.469 0 0 1 457.75 72.95 Q 454.3 69.5 454.3 64.3 Q 454.3 59.9 456.55 54.95 A 37.799 37.799 0 0 1 462.131 46.196 A 42.329 42.329 0 0 1 462.6 45.65 Q 466.4 41.3 471 38.6 A 20.607 20.607 0 0 1 475.456 36.618 A 16.302 16.302 0 0 1 480.2 35.9 Q 482.8 35.9 485.15 37.25 A 4.252 4.252 0 0 1 487.013 39.508 Q 487.314 40.293 487.429 41.287 A 11.443 11.443 0 0 1 487.5 42.6 Q 487.5 46.4 485.3 49.7 A 21.182 21.182 0 0 1 481.566 53.907 A 26.246 26.246 0 0 1 479.4 55.6 Q 475.7 58.2 471.25 59.85 Q 466.8 61.5 462.3 62 Q 462.2 62.4 462.15 62.85 Q 462.112 63.189 462.103 63.841 A 32.377 32.377 0 0 0 462.1 64.3 A 5.546 5.546 0 0 0 462.109 64.596 Q 462.136 65.088 462.24 65.965 A 51.515 51.515 0 0 0 462.25 66.05 Q 462.398 67.282 463.079 68.658 A 11.466 11.466 0 0 0 463.1 68.7 Q 463.8 70.1 465.4 71.1 Q 466.619 71.862 468.535 72.043 A 13.44 13.44 0 0 0 469.8 72.1 A 16.172 16.172 0 0 0 475.599 70.989 A 20.826 20.826 0 0 0 478.25 69.75 Q 482.5 67.4 486.25 63.5 Q 490 59.6 492.5 54.8 Z M 463.4 58.3 A 14.761 14.761 0 0 0 465.79 57.808 Q 467.4 57.344 469.2 56.5 A 32.186 32.186 0 0 0 475.165 52.843 A 35.542 35.542 0 0 0 475.35 52.7 A 24.602 24.602 0 0 0 478.627 49.649 A 20.865 20.865 0 0 0 480.2 47.65 A 11.646 11.646 0 0 0 481.482 45.278 A 8.667 8.667 0 0 0 482.1 42.1 Q 482.1 41.221 481.845 40.789 A 0.947 0.947 0 0 0 481.7 40.6 A 1.185 1.185 0 0 0 481.278 40.336 Q 480.924 40.2 480.4 40.2 Q 478.306 40.2 476.045 41.568 A 13.501 13.501 0 0 0 475.6 41.85 A 23.185 23.185 0 0 0 472.819 44.023 A 30.335 30.335 0 0 0 470.7 46.15 Q 468.3 48.8 466.4 52 Q 464.5 55.2 463.4 58.3 Z" id="12" vector-effect="non-scaling-stroke"/><path d="M 504.4 40.8 L 504.4 39.8 Q 504.4 36.521 505.307 34.821 A 4.117 4.117 0 0 1 505.75 34.15 A 5.211 5.211 0 0 1 506.731 33.211 A 3.632 3.632 0 0 1 508.9 32.5 A 3.794 3.794 0 0 1 509.539 32.55 Q 510.259 32.674 510.65 33.1 Q 511.2 33.7 511.3 34.5 A 3.539 3.539 0 0 1 511.259 35.021 Q 511.198 35.425 511.05 35.9 A 4.48 4.48 0 0 0 510.913 36.49 Q 510.808 37.115 510.801 37.976 A 15.237 15.237 0 0 0 510.8 38.1 Q 510.8 40.571 511.784 43.618 A 29.421 29.421 0 0 0 512.25 44.95 Q 513.7 48.8 515.15 53.1 Q 516.6 57.4 516.6 61.9 Q 516.6 63.1 516.5 64.1 Q 516.4 65.1 516.2 66 Q 519.187 65.229 522.08 62.742 A 21.717 21.717 0 0 0 522.3 62.55 A 18.95 18.95 0 0 0 524.598 60.091 Q 526.355 57.869 528 54.7 L 529.2 55.6 A 26.164 26.164 0 0 1 527.129 60.304 A 19.471 19.471 0 0 1 523.7 64.75 Q 520.1 68.2 515.3 69 A 12.098 12.098 0 0 1 512.894 72.902 A 11.246 11.246 0 0 1 510.05 75.1 A 16.362 16.362 0 0 1 503.494 77.03 A 20.012 20.012 0 0 1 501.8 77.1 A 19.988 19.988 0 0 1 498.593 76.858 Q 495.752 76.395 493.75 75.05 Q 490.7 73 489.4 69.85 Q 488.1 66.7 488.1 63.4 A 16.957 16.957 0 0 1 488.178 61.717 Q 488.35 60.001 488.9 58.9 Q 489.639 57.422 490.72 56.669 A 4.337 4.337 0 0 1 490.9 56.55 A 15.742 15.742 0 0 1 491.992 55.924 Q 492.592 55.613 493.15 55.4 Q 493.828 55.142 494.276 54.842 A 2.788 2.788 0 0 0 494.7 54.5 Q 497.2 51.9 499.85 48.45 A 38.432 38.432 0 0 0 504.16 41.322 A 42.503 42.503 0 0 0 504.4 40.8 Z M 508.3 65.8 Q 508.5 65.1 508.55 64.15 Q 508.6 63.2 508.6 62.7 Q 508.5 58.2 507.4 53.8 Q 506.3 49.4 505.2 44.8 Q 503.4 47.9 501 51.5 Q 499.163 54.256 497.501 56.192 A 28.346 28.346 0 0 1 496.5 57.3 Q 498.1 60 501.2 62.4 Q 504.3 64.8 508.3 65.8 Z M 501.1 72.7 Q 503.1 72.7 504.8 71.7 A 6.971 6.971 0 0 0 507.231 69.275 A 8.521 8.521 0 0 0 507.5 68.8 Q 503.4 67.9 500.1 65.6 Q 497.351 63.684 495.643 61.699 A 15.316 15.316 0 0 1 495 60.9 A 1.526 1.526 0 0 0 493.892 61.845 Q 493.618 62.462 493.601 63.465 A 7.924 7.924 0 0 0 493.6 63.6 Q 493.6 66.9 495.5 69.8 Q 497.4 72.7 501.1 72.7 Z" id="13" vector-effect="non-scaling-stroke"/></g></svg>